<?xml version="1.0" standalone="no"?>
<!DOCTYPE svg PUBLIC "-//W3C//DTD SVG 1.1//EN" "http://www.w3.org/Graphics/SVG/1.1/DTD/svg11.dtd" >
<svg>
<metadata>
Created by FontForge 20090914 at Mon Aug  1 08:23:25 2022
 By www-data
Copyright (c) 2011 by Pablo Impallari. www.impallari.com. All rights reserved.
</metadata>
<defs>
<font id="LobsterTwo-Bold" horiz-adv-x="505" >
  <font-face 
    font-family="Lobster Two"
    font-weight="700"
    font-stretch="normal"
    units-per-em="1000"
    panose-1="2 0 5 6 0 0 0 2 0 3"
    ascent="800"
    descent="-200"
    x-height="500"
    cap-height="750"
    bbox="-135 -250.006 1233 1000"
    underline-thickness="50"
    underline-position="-50"
    unicode-range="U+0020-U+FB04"
  />
<missing-glyph horiz-adv-x="385" 
 />
    <glyph glyph-name="IJ" unicode="IJ" horiz-adv-x="680" 
d="M357 58c22.667 -2.66699 41.998 -10.6689 57.998 -24.002s24 -30.666 24 -51.999c0 -3.33301 -0.166992 -6.83301 -0.5 -10.5s-0.833008 -7.16699 -1.5 -10.5c-18 14 -35.333 21 -52 21s-29.667 -6.5 -39 -19.5s-14 -28.167 -14 -45.5c0 -12.667 2.33301 -23.667 7 -33
s10.834 -17 18.501 -23s16.167 -10.5 25.5 -13.5s18.666 -4.5 27.999 -4.5s18.333 1.83301 27 5.5s16.5 10 23.5 19s12.667 21.5 17 37.5s6.5 36.333 6.5 61v751l149 33v-710c0 -36 -3.66699 -69 -11 -99s-19.333 -56 -36 -78s-38.667 -39.167 -66 -51.5
s-61 -18.5 -101 -18.5c-61.333 0 -106.333 13.5 -135 40.5s-43 61.833 -43 104.5c0 11.333 0.833008 22.166 2.5 32.499s4.5 20.166 8.5 29.499h-40v678c-32 -15.333 -56.667 -37.166 -74 -65.499s-26 -62.5 -26 -102.5c0 -20.667 1.5 -37.667 4.5 -51
s6.33301 -24.166 10 -32.499s7.5 -15 11.5 -20s7 -9.5 9 -13.5c-40 0 -71.667 9.16699 -95 27.5s-35 49.5 -35 93.5c0 32 8.33301 62.167 25 90.5s38.834 53.333 66.501 75s59.334 38.834 95.001 51.501s72.5 19 110.5 19c7.33301 0 14.5 -0.166992 21.5 -0.5
s13.833 -0.833008 20.5 -1.5v-690z" />
    <glyph glyph-name="ij" unicode="ij" horiz-adv-x="507" 
d="M458 500l-0.00195312 -464.003c14 5.33301 26.333 11.666 37 18.999s20 16.5 28 27.5s14.5 24.333 19.5 40s8.83301 34.5 11.5 56.5h42c-3.33301 -33.333 -9.5 -60.833 -18.5 -82.5s-20 -39.5 -33 -53.5s-27 -25 -42 -33s-29.833 -14.333 -44.5 -19v-71
c0 -35.333 -4.33301 -64.166 -13 -86.499s-19.834 -39.666 -33.501 -51.999s-28.667 -20.666 -45 -24.999s-32.166 -6.5 -47.499 -6.5c-19.333 0 -37.5 2.66699 -54.5 8s-31.667 12.833 -44 22.5s-22.166 21.5 -29.499 35.5s-11 29.667 -11 47
c0 18 3.83301 34.167 11.5 48.5s17.834 26.833 30.501 37.5s27 19.834 43 27.501s32.333 14.167 49 19.5v504h144zM190.998 499.997v-340c0 -28 3.83301 -46.5 11.5 -55.5s21.167 -13.5 40.5 -13.5c8.66699 0 15.167 0.666992 19.5 2s8.16602 2.66602 11.499 3.99902
c0.666992 -3.33301 1 -6.66602 1 -9.99902v-10c0 -16.667 -2.83301 -30.334 -8.5 -41.001s-13 -19.167 -22 -25.5s-18.667 -10.666 -29 -12.999s-20.166 -3.5 -29.499 -3.5c-51.333 0 -87.333 14.167 -108 42.5s-31 65.833 -31 112.5v351h144zM35.998 632.997
c0 22 7.66699 40.833 23 56.5s34 23.5 56 23.5s40.833 -7.83301 56.5 -23.5s23.5 -34.5 23.5 -56.5s-7.83301 -40.667 -23.5 -56s-34.5 -23 -56.5 -23s-40.667 7.66699 -56 23s-23 34 -23 56zM304.998 632.997c0 22 7.66699 40.833 23 56.5s34 23.5 56 23.5
s40.833 -7.83301 56.5 -23.5s23.5 -34.5 23.5 -56.5s-7.83301 -40.667 -23.5 -56s-34.5 -23 -56.5 -23s-40.667 7.66699 -56 23s-23 34 -23 56zM232.998 -128.003c0 -13.333 4.50098 -24 13.501 -32s18.167 -12 27.5 -12c12 0 21.667 7.33301 29 22s11 37 11 67v29
c-22.667 -9.33301 -41.834 -20 -57.501 -32s-23.5 -26 -23.5 -42z" />
    <glyph glyph-name="ff" unicode="ff" horiz-adv-x="511" 
d="M431 749c45.333 0 80.9951 -13.8281 106.995 -41.4951s41 -63.5 45 -107.5h-47c-3.33301 18.667 -7.66602 33.5 -12.999 44.5s-16.666 16.5 -33.999 16.5c-6 0 -12.167 -1 -18.5 -3s-12.166 -5.66699 -17.499 -11s-9.66602 -13.333 -12.999 -24s-5 -24.334 -5 -41.001
v-82h100v-40h-100v-540c0 -36 -4.5 -65 -13.5 -87s-20.5 -39.167 -34.5 -51.5s-29.333 -20.666 -46 -24.999s-32.667 -6.5 -48 -6.5c-30 0 -55.5 5.66699 -76.5 17s-37.167 26.666 -48.5 45.999c-14 -25.333 -31.667 -42.166 -53 -50.499s-41.666 -12.5 -60.999 -12.5
c-20 0 -39 3.16699 -57 9.5s-34 15.333 -48 27s-25 25.667 -33 42s-12 34.166 -12 53.499c0 18 3.66699 33.5 11 46.5s17.333 24.167 30 33.5s27.667 17.666 45 24.999s36.333 14.333 57 21v571c0 35.333 4.5 64.166 13.5 86.499s20.5 39.666 34.5 51.999
s29.333 20.666 46 24.999s32.667 6.5 48 6.5c28.667 0 53.167 -5.83301 73.5 -17.5s36.833 -27.167 49.5 -46.5c14 26 32.333 43.167 55 51.5s44 12.5 64 12.5zM190.995 37.0049l99.999 18.001v534c0 24 -5.16699 41.833 -15.5 53.5s-21.166 17.5 -32.499 17.5
c-13.333 0 -25.333 -6.83301 -36 -20.5s-16 -33.834 -16 -60.501v-79h73v-40h-73v-423zM237.994 -160.994c8 0 15.333 1 22 3s12.167 5.83301 16.5 11.5s7.83301 13.5 10.5 23.5s4 23.333 4 40v113l-100 -19v-91c0 -23.333 -2 -43.333 -6 -60c6 -8 14 -13.5 24 -16.5
s19.667 -4.5 29 -4.5zM-43.0059 -110.994c0 -8.66699 1.66602 -16.167 4.99902 -22.5s7.5 -11.5 12.5 -15.5s10.5 -7 16.5 -9s11.333 -3 16 -3c10.667 0 20.167 5.5 28.5 16.5s12.5 31.5 12.5 61.5v58c-11.333 -4 -22.5 -8.66699 -33.5 -14s-20.667 -11.5 -29 -18.5
s-15.166 -15 -20.499 -24s-8 -18.833 -8 -29.5z" />
    <glyph glyph-name="fi" unicode="fi" horiz-adv-x="532" 
d="M-45 -113c0 -10 1.99902 -18.1699 5.99902 -24.5029s8.83301 -11.166 14.5 -14.499s11.334 -5.66602 17.001 -6.99902s10.167 -2 13.5 -2c10 0 19.333 5.83301 28 17.5s13 31.834 13 60.501v58c-28 -9.33301 -50.333 -21.5 -67 -36.5s-25 -32.167 -25 -51.5z
M302.999 617.997c0 8.66699 2.66797 16.499 8.00098 23.499s14 11.5 26 13.5c-3.33301 13.333 -10.666 23.333 -21.999 30s-25 10 -41 10s-29.333 -3.16699 -40 -9.5s-19.167 -14.833 -25.5 -25.5s-10.666 -22.834 -12.999 -36.501s-3.5 -27.5 -3.5 -41.5v-82h81v-40h-80
v-540c0 -34.667 -4.33301 -63 -13 -85s-19.834 -39.333 -33.501 -52s-28.834 -21.334 -45.501 -26.001s-33 -7 -49 -7c-21.333 0 -41 3.33301 -59 10s-33.833 15.834 -47.5 27.501s-24.334 25.334 -32.001 41.001s-11.5 32.834 -11.5 51.501s3.83301 34.667 11.5 48
s18.167 24.833 31.5 34.5s28.666 18.167 45.999 25.5s36 14 56 20v526c0 46.667 6.33301 84 19 112s29 49.667 49 65s42.167 25.5 66.5 30.5s47.833 7.5 70.5 7.5c20.667 0 42.167 -1.5 64.5 -4.5s42.833 -9 61.5 -18s33.834 -22 45.501 -39s17.5 -39.833 17.5 -68.5
c0 -22 -7 -38.5 -21 -49.5s-29.667 -16.5 -47 -16.5s-33.333 5.5 -48 16.5s-22 27.167 -22 48.5zM456 499.996l-0.00195312 -340c0 -28 3.83301 -46.5 11.5 -55.5s21.167 -13.5 40.5 -13.5s35.5 8.33301 48.5 25s20.5 37.667 22.5 63h42
c-5.33301 -40.667 -14.666 -73.167 -27.999 -97.5s-28.333 -43 -45 -56s-33.667 -21.5 -51 -25.5s-32.666 -6 -45.999 -6c-51.333 0 -87.333 14.167 -108 42.5s-31 65.833 -31 112.5v351h144z" />
    <glyph glyph-name="fl" unicode="fl" horiz-adv-x="546" 
d="M471 160c0 -28 3.83203 -46.499 11.499 -55.499s21.167 -13.5 40.5 -13.5s35.5 8.33301 48.5 25s20.5 37.667 22.5 63h42c-5.33301 -40.667 -14.666 -73.167 -27.999 -97.5s-28.333 -43 -45 -56s-33.667 -21.5 -51 -25.5s-32.666 -6 -45.999 -6
c-51.333 0 -87.333 14.167 -108 42.5s-31 65.833 -31 112.5v521c-14.667 5.33301 -31 9.33301 -49 12s-30.333 4 -37 4c-6 0 -12 -1 -18 -3s-11.5 -5.66699 -16.5 -11s-9 -13 -12 -23s-4.5 -23 -4.5 -39v-110h94v-40h-93v-543c0 -35.333 -4.33301 -63.833 -13 -85.5
s-20 -38.5 -34 -50.5s-29.5 -20.167 -46.5 -24.5s-33.833 -6.5 -50.5 -6.5c-17.333 0 -34.5 3.16699 -51.5 9.5s-32.333 15.166 -46 26.499s-24.834 25 -33.501 41s-13 34 -13 54c0 18.667 3.83301 34.5 11.5 47.5s18 24.333 31 34s28.167 18 45.5 25s36 13.833 56 20.5v574
c0 35.333 4.5 63.833 13.5 85.5s20.5 38.5 34.5 50.5s29.5 20.167 46.5 24.5s33.5 6.5 49.5 6.5c45.333 0 91 -7 137 -21s93.333 -30 142 -48zM-44.001 -113.999c0 -13.333 5.33301 -24.498 16 -33.498s21.667 -13.5 33 -13.5c10 0 19.667 5.66699 29 17
s14 31.666 14 60.999v58c-26.667 -9.33301 -48.667 -20.833 -66 -34.5s-26 -31.834 -26 -54.501z" />
    <glyph glyph-name="ffi" unicode="ffi" horiz-adv-x="764" 
d="M688 500l-0.00488281 -339.997c0 -28 3.83301 -46.5 11.5 -55.5s21.167 -13.5 40.5 -13.5s35.5 8.33301 48.5 25s20.5 37.667 22.5 63h42c-5.33301 -40.667 -14.666 -73.167 -27.999 -97.5s-28.333 -43 -45 -56s-33.667 -21.5 -51 -25.5s-32.666 -6 -45.999 -6
c-51.333 0 -87.333 14.167 -108 42.5s-31 65.833 -31 112.5v311h-121v-543c0 -34 -4.33301 -61.833 -13 -83.5s-19.667 -38.667 -33 -51s-28.333 -20.833 -45 -25.5s-33.334 -7 -50.001 -7c-26.667 0 -50 4.66699 -70 14s-36.333 22.333 -49 39
c-15.333 -21.333 -33.166 -35.5 -53.499 -42.5s-39.166 -10.5 -56.499 -10.5c-20 0 -39 3.16699 -57 9.5s-33.833 15.166 -47.5 26.499s-24.667 25.166 -33 41.499s-12.5 34.166 -12.5 53.499c0 18.667 3.83301 34.5 11.5 47.5s18 24.333 31 34s28.167 18 45.5 25
s36 13.833 56 20.5v574c0 35.333 4.5 63.833 13.5 85.5s20.5 38.5 34.5 50.5s29.667 20.167 47 24.5s34.333 6.5 51 6.5c26 0 50.333 -4.16699 73 -12.5s42.667 -21.166 60 -38.499c18.667 20.667 40.834 34.334 66.501 41.001s52.5 10 80.5 10
c20.667 0 42.667 -1.83301 66 -5.5s44.833 -10.167 64.5 -19.5s36 -22.333 49 -39s19.5 -38.334 19.5 -65.001s-6.33301 -44.5 -19 -53.5s-27.334 -13.5 -44.001 -13.5c-8.66699 0 -17.5 1 -26.5 3s-17 5.5 -24 10.5s-12.667 11.333 -17 19s-6.5 17.5 -6.5 29.5
c0 11.333 2 21 6 29s10.333 12 19 12h4.5c1.66699 0 2.83398 -0.333008 3.50098 -1c-3.33301 13.333 -10.833 23.333 -22.5 30s-25.5 10 -41.5 10s-29.333 -3.16699 -40 -9.5s-19.167 -14.833 -25.5 -25.5s-10.666 -22.834 -12.999 -36.501s-3.5 -27.5 -3.5 -41.5v-82h266z
M192.995 36.0029l85 16v408h-85v-424zM223.995 -174.997c18 0 31.667 7 41 21s14 37.667 14 71v110l-86 -19v-88c0 -12.667 -0.666992 -24.334 -2 -35.001s-3 -20.667 -5 -30c2 -11.333 6.83301 -19.166 14.5 -23.499s15.5 -6.5 23.5 -6.5zM277.995 534.003
c0 27.333 1.99805 51.1689 5.99805 71.502s9.66699 38.166 17 53.499c-12.667 11.333 -27.667 17 -45 17c-13.333 0 -24.166 -2.66699 -32.499 -8s-14.666 -12.333 -18.999 -21s-7.33301 -18.334 -9 -29.001s-2.5 -21 -2.5 -31v-87h85v34zM-38.0068 -110.994
c0 -8.66699 1.66602 -16.166 4.99902 -22.499s7.5 -11.5 12.5 -15.5s10.333 -7 16 -9s10.834 -3 15.501 -3c10 0 19.667 5.66699 29 17s14 31.666 14 60.999v58c-11.333 -4 -22.5 -8.66699 -33.5 -14s-20.833 -11.5 -29.5 -18.5s-15.667 -15 -21 -24s-8 -18.833 -8 -29.5z
" />
    <glyph glyph-name="ffl" unicode="ffl" horiz-adv-x="779" 
d="M47 -250c-17.333 0 -34.4951 3.16797 -51.4951 9.50098s-32.333 15.166 -46 26.499s-24.834 25 -33.501 41s-13 34 -13 54c0 18.667 3.83301 34.5 11.5 47.5s18 24.333 31 34s28.167 18 45.5 25s36 13.833 56 20.5v574c0 35.333 4.5 63.833 13.5 85.5
s20.5 38.5 34.5 50.5s29.5 20.167 46.5 24.5s33.833 6.5 50.5 6.5c49.333 0 90.666 -14 123.999 -42c14.667 16.667 31.667 27.834 51 33.501s38.333 8.5 57 8.5c45.333 0 91 -7 137 -21s93.333 -30 142 -48v-520c0 -26 3.5 -44 10.5 -54s21.167 -15 42.5 -15
c19.333 0 35.5 8.33301 48.5 25s20.5 37.667 22.5 63h42c-5.33301 -40.667 -14.833 -73.167 -28.5 -97.5s-28.667 -43 -45 -56s-33.333 -21.5 -51 -25.5s-33.167 -6 -46.5 -6c-18.667 0 -36.334 3.5 -53.001 10.5s-31.334 18 -44.001 33s-22.667 34.167 -30 57.5
s-11 51.333 -11 84v491c-14.667 5.33301 -31 9.33301 -49 12s-30.333 4 -37 4c-6 0 -12 -1 -18 -3s-11.5 -5.66699 -16.5 -11s-9 -13 -12 -23s-4.5 -23 -4.5 -39v-110h94v-40h-93v-540c0 -34.667 -4.33301 -63 -13 -85s-19.834 -39.333 -33.501 -52
s-28.667 -21.334 -45 -26.001s-32.5 -7 -48.5 -7c-27.333 0 -51 4.66699 -71 14s-36.667 22 -50 38c-14.667 -20.667 -32.667 -34.5 -54 -41.5s-42 -10.5 -62 -10.5zM194.005 37.001l84 15v408h-84v-423zM187.005 -143.999c5.33301 -13.333 12.5 -21.833 21.5 -25.5
s16.167 -5.5 21.5 -5.5c13.333 0 24.833 6.83301 34.5 20.5s14.5 37.5 14.5 71.5v110l-85 -19v-88c0 -12 -0.5 -23.333 -1.5 -34s-2.83301 -20.667 -5.5 -30zM278.005 579.001c0 18 1.16699 34.168 3.5 48.501s5.5 27.166 9.5 38.499c-10 6.66699 -21.333 10 -34 10
c-13.333 0 -24.333 -2.66699 -33 -8s-15.5 -12.333 -20.5 -21s-8.33301 -18.167 -10 -28.5s-2.5 -20.833 -2.5 -31.5v-87h87v79zM-37.9951 -113.998c0 -13.333 5.33301 -24.498 16 -33.498s21.667 -13.5 33 -13.5c10 0 19.667 5.66699 29 17s14 31.666 14 60.999v58
c-26.667 -9.33301 -48.667 -20.833 -66 -34.5s-26 -31.834 -26 -54.501z" />
    <glyph glyph-name="E_x" unicode="Ex" horiz-adv-x="787" 
d="M572 462l69.998 -178.005c20 28.667 35.5 55.834 46.5 81.501s16.5 47.5 16.5 65.5c0 8 -0.666992 13.5 -2 16.5s-2.33301 5.5 -3 7.5c-3.33301 -0.666992 -6.33301 -1.16699 -9 -1.5s-5.33398 -0.5 -8.00098 -0.5c-12 0 -21.833 2.16699 -29.5 6.5
s-13.667 9.83301 -18 16.5s-7.5 13.667 -9.5 21s-3 14 -3 20c0 12.667 4.5 22.334 13.5 29.001s20.167 10 33.5 10c14 0 26.5 -3.16699 37.5 -9.5s20.5 -14.833 28.5 -25.5s14 -22.834 18 -36.501s6 -27.834 6 -42.501c0 -28.667 -7.83301 -60.167 -23.5 -94.5
s-39.834 -74.166 -72.501 -119.499l20 -49l12.5 -29.5c4.33301 -10.333 9.5 -19.833 15.5 -28.5s13 -15.834 21 -21.501s17.667 -8.5 29 -8.5c19.333 0 35.5 8.33301 48.5 25s20.5 37.667 22.5 63h42c-5.33301 -40.667 -14.5 -73.167 -27.5 -97.5s-27.5 -43 -43.5 -56
s-32.5 -21.5 -49.5 -25.5s-32.167 -6 -45.5 -6c-31.333 0 -58 10.5 -80 31.5s-43.667 55.167 -65 102.5c-14.667 -21.333 -32.667 -40.833 -54 -58.5s-44.666 -32.834 -69.999 -45.501s-52 -22.5 -80 -29.5s-56.333 -10.5 -85 -10.5c-30.667 0 -60 4.16699 -88 12.5
s-52.833 21.333 -74.5 39s-38.834 40.334 -51.501 68.001s-19 60.834 -19 99.501c0 22.667 2.83301 45.5 8.5 68.5s14.167 44.333 25.5 64s25.5 36.667 42.5 51s36.833 24.5 59.5 30.5c-32 20 -55.167 43 -69.5 69s-21.5 53.667 -21.5 83c0 22.667 4 45 12 67
s19.5 41.5 34.5 58.5s33.5 30.833 55.5 41.5s47 16 75 16c22.667 0 44.5 -2.33301 65.5 -7s39.5 -12.167 55.5 -22.5s28.667 -24 38 -41s14 -37.5 14 -61.5c0 -10 -1 -20.333 -3 -31s-5.5 -20.5 -10.5 -29.5s-11.333 -16.5 -19 -22.5s-16.834 -9 -27.501 -9
c-5.33301 0 -12.333 1.33301 -21 4s-17.667 8.66699 -27 18c9.33301 3.33301 16.333 11.833 21 25.5s7 27.834 7 42.501c0 14 -2.16699 25.833 -6.5 35.5s-9.66602 17.334 -15.999 23.001s-13.666 9.83398 -21.999 12.501s-16.5 4 -24.5 4c-12 0 -22.667 -3 -32 -9
s-17.333 -14.167 -24 -24.5s-11.667 -22.166 -15 -35.499s-5 -27.333 -5 -42c0 -17.333 2.66699 -34.5 8 -51.5s13.333 -32.833 24 -47.5s24.334 -27.667 41.001 -39s36.667 -20 60 -26c-21.333 -5.33301 -40.333 -14.833 -57 -28.5s-30.5 -30 -41.5 -49
s-19.333 -39.5 -25 -61.5s-8.5 -43.333 -8.5 -64c0 -24.667 3.33301 -45.667 10 -63s15.834 -31.5 27.501 -42.5s25.334 -19.167 41.001 -24.5s32.167 -8 49.5 -8c18 0 36.5 2.5 55.5 7.5s37.333 12.167 55 21.5s34.167 20.5 49.5 33.5s28.333 27.833 39 44.5l-109 278h141z
" />
    <glyph glyph-name="F_i" unicode="Fi" horiz-adv-x="823" 
d="M562 450l0.000976562 -74h-126v-376h-146v668h-9c-16 0 -30.5 -2 -43.5 -6s-24.167 -11 -33.5 -21s-16.5 -23.333 -21.5 -40s-7.5 -37.667 -7.5 -63c0 -30 1.83301 -53.833 5.5 -71.5s7.83398 -31.334 12.501 -41.001s9.16699 -16.5 13.5 -20.5s7.16602 -8 8.49902 -12
c-44 0 -77.333 10.5 -100 31.5s-34 57.833 -34 110.5c0 28 5.16699 55 15.5 81s27.166 49 50.499 69s53.5 35.833 90.5 47.5s82.167 17.5 135.5 17.5c34 0 70.333 -3.33301 109 -10s80.667 -10 126 -10c21.333 0 43.833 1.33301 67.5 4s48.167 7.66699 73.5 15
c0 -18 -1 -36.167 -3 -54.5s-6.16699 -35 -12.5 -50s-15.5 -27.167 -27.5 -36.5s-28 -14 -48 -14c-20.667 0 -39.667 1.83301 -57 5.5s-34.5 8.33398 -51.5 14.001l-53 18.5c-18.333 6.66699 -38.5 12.667 -60.5 18v-200h126zM747.001 500l-0.00195312 -340
c0 -28 3.83301 -46.5 11.5 -55.5s21.167 -13.5 40.5 -13.5s35.5 8.33301 48.5 25s20.5 37.667 22.5 63h42c-5.33301 -40.667 -14.666 -73.167 -27.999 -97.5s-28.333 -43 -45 -56s-33.667 -21.5 -51 -25.5s-32.666 -6 -45.999 -6c-51.333 0 -87.333 14.167 -108 42.5
s-31 65.833 -31 112.5v351h144z" />
    <glyph glyph-name="T_h" unicode="Th" horiz-adv-x="1009" 
d="M117 514c0 -24.667 1.66992 -44.1699 5.00293 -58.5029s7 -25.5 11 -33.5s8 -14 12 -18s6.66699 -8 8 -12c-44 0 -77.167 10.333 -99.5 31s-33.5 56.334 -33.5 107.001c0 28.667 5.66699 56.167 17 82.5s29.166 49.666 53.499 69.999s55.5 36.5 93.5 48.5s84 18 138 18
c11.333 0 27.333 -1.33301 48 -4l69 -9c25.333 -3.33301 51.833 -6.33301 79.5 -9s54.167 -4 79.5 -4c24.667 0 47 1.66699 67 5s36.333 9.66602 49 18.999c-3.33301 -9.33301 -6.33301 -18.833 -9 -28.5s-4.83398 -22.167 -6.50098 -37.5s-3 -35 -4 -59
s-1.5 -55.333 -1.5 -94v-82c16.667 24.667 34.667 40.5 54 47.5s37 10.5 53 10.5c19.333 0 37.666 -3 54.999 -9s32.5 -16 45.5 -30s23.167 -32.5 30.5 -55.5s11 -51.5 11 -85.5c0 -11.333 -0.166992 -23.5 -0.5 -36.5s-0.833008 -26.167 -1.5 -39.5
s-1.16699 -26.333 -1.5 -39s-0.5 -23.667 -0.5 -33c0 -28 3.5 -49.167 10.5 -63.5s21.167 -21.5 42.5 -21.5c22 0 37 8.16699 45 24.5s14.667 37.5 20 63.5h42c-5.33301 -41.333 -13.5 -74.166 -24.5 -98.499s-23.167 -42.833 -36.5 -55.5s-27.5 -21 -42.5 -25
s-29.167 -6 -42.5 -6c-26 0 -48.333 4.5 -67 13.5s-34 21.5 -46 37.5s-20.833 35.167 -26.5 57.5s-8.5 46.833 -8.5 73.5c0 8.66699 0.166992 18.834 0.5 30.501s0.5 23.334 0.5 35.001s0.166992 23 0.5 34s0.5 20.5 0.5 28.5c0 39.333 -4.5 67.333 -13.5 84
s-21.833 25 -38.5 25c-17.333 0 -30.666 -8.5 -39.999 -25.5s-15.666 -37.5 -18.999 -61.5v-326h-135v638c-20.667 1.33301 -42.334 3.66602 -65.001 6.99902l-69 10v-655h-146v664c-23.333 -1.33301 -44.833 -4.66602 -64.5 -9.99902s-36.834 -13.666 -51.501 -24.999
s-26.167 -26.333 -34.5 -45s-12.5 -42 -12.5 -70z" />
    <glyph glyph-name="T_i" unicode="Ti" horiz-adv-x="783" 
d="M282 671c-14 2 -27.334 3.00293 -40.001 3.00293c-19.333 0 -36.833 -2.5 -52.5 -7.5s-29 -13.333 -40 -25s-19.5 -27.334 -25.5 -47.001s-9 -43.834 -9 -72.501c0 -25.333 1.83301 -45.833 5.5 -61.5s7.83398 -28.167 12.501 -37.5s9.16699 -16.166 13.5 -20.499
s6.83301 -7.83301 7.5 -10.5c-41.333 0 -74 10.167 -98 30.5s-36 54.166 -36 101.499c0 30.667 5.33301 59.667 16 87s27.334 51.166 50.001 71.499s51.334 36.5 86.001 48.5s76 18 124 18c38 0 80.167 -2.66699 126.5 -8s96.166 -8 149.499 -8c23.333 0 45.166 1 65.499 3
s36.5 5.66699 48.5 11c11.333 -21.333 18.5 -39 21.5 -53s4.5 -25 4.5 -33c0 -16 -3 -29.167 -9 -39.5s-13.333 -18.5 -22 -24.5s-18 -10.167 -28 -12.5s-19 -3.5 -27 -3.5c-22.667 0 -50 5.66699 -82 17s-71 24.333 -117 39v-637h-146zM706.999 500.003l-0.00195312 -340
c0 -28 3.83301 -46.5 11.5 -55.5s21.167 -13.5 40.5 -13.5s35.5 8.33301 48.5 25s20.5 37.667 22.5 63h42c-5.33301 -40.667 -14.666 -73.167 -27.999 -97.5s-28.333 -43 -45 -56s-33.667 -21.5 -51 -25.5s-32.666 -6 -45.999 -6c-51.333 0 -87.333 14.167 -108 42.5
s-31 65.833 -31 112.5v351h144z" />
    <glyph glyph-name="a_x" unicode="ax" horiz-adv-x="899" 
d="M459 500v-340.006c0 -8 0.5 -16.167 1.5 -24.5s3.33301 -15.666 7 -21.999s9 -11.666 16 -15.999s16.833 -6.5 29.5 -6.5s25.667 2.5 39 7.5s26.166 11.833 38.499 20.5s23.833 18.834 34.5 30.501s20 23.834 28 36.501l-124 314h141l85 -215
c19.333 28 34.5 54.833 45.5 80.5s16.5 47.5 16.5 65.5c0 8 -0.5 13.5 -1.5 16.5s-2.16699 5.5 -3.5 7.5c-3.33301 -0.666992 -6.33301 -1.16699 -9 -1.5s-5.33398 -0.5 -8.00098 -0.5c-12 0 -21.833 2.16699 -29.5 6.5s-13.667 9.83301 -18 16.5s-7.5 13.667 -9.5 21
s-3 14 -3 20c0 12.667 4.5 22.334 13.5 29.001s20.167 10 33.5 10c14 0 26.667 -3.16699 38 -9.5s20.833 -14.833 28.5 -25.5s13.667 -22.834 18 -36.501s6.5 -27.834 6.5 -42.501c0 -28 -8 -59.167 -24 -93.5s-40 -74.166 -72 -119.499l20 -50l12.5 -30.5
c4.33301 -10.333 9.5 -19.666 15.5 -27.999s12.833 -15.333 20.5 -21s17.167 -8.5 28.5 -8.5c19.333 0 35.5 8.33301 48.5 25s20.833 37.667 23.5 63h42c-6 -40.667 -15.5 -73.167 -28.5 -97.5s-27.5 -43 -43.5 -56s-32.5 -21.5 -49.5 -25.5s-32.167 -6 -45.5 -6
c-32 0 -58.667 10.5 -80 31.5s-42.666 55.167 -63.999 102.5c-28 -48 -59.333 -82.333 -94 -103s-72.334 -31 -113.001 -31c-27.333 0 -53.666 8.16699 -78.999 24.5s-43.666 39.166 -54.999 68.499c-5.33301 -11.333 -11.666 -22.666 -18.999 -33.999
s-16.333 -21.333 -27 -30s-22.834 -15.667 -36.501 -21s-29.5 -8 -47.5 -8c-21.333 0 -42.333 4 -63 12s-39.5 21 -56.5 39s-30.667 41.833 -41 71.5s-15.5 66.167 -15.5 109.5c0 30.667 3.5 62.334 10.5 95.001s18 62.667 33 90s34.667 49.833 59 67.5
s53.833 26.5 88.5 26.5c8 0 16.667 -0.5 26 -1.5s18.333 -3.33301 27 -7s16.667 -9 24 -16s13 -16.5 17 -28.5v48h144zM266 442.994c-16 0 -29.834 -6.83398 -41.501 -20.501s-21 -30.667 -28 -51s-12.167 -42.666 -15.5 -66.999s-5 -47.5 -5 -69.5
c0 -35.333 2.66699 -62.833 8 -82.5s11.833 -34 19.5 -43s15.834 -14.333 24.501 -16s16 -2.5 22 -2.5c7.33301 0 14.833 1.83301 22.5 5.5s14.667 9.16699 21 16.5s11.5 16.5 15.5 27.5s6 23.833 6 38.5v226l-5 10.5c-2 4.33301 -5 8.5 -9 12.5s-8.83301 7.5 -14.5 10.5
s-12.5 4.5 -20.5 4.5z" />
    <glyph glyph-name="a_z" unicode="a&#x7a;" horiz-adv-x="906" 
d="M459 500l-0.00292969 -340.001c0 -28 3.83301 -46.5 11.5 -55.5s21.167 -13.5 40.5 -13.5c8 0 14.667 1.33301 20 4c-6 -37.333 -14.5 -63.5 -25.5 -78.5s-30.5 -22.5 -58.5 -22.5c-33.333 0 -58.666 8.33301 -75.999 25s-29.333 39 -36 67
c-5.33301 -11.333 -11.666 -22.5 -18.999 -33.5s-16.166 -20.833 -26.499 -29.5s-22.333 -15.667 -36 -21s-29.5 -8 -47.5 -8c-21.333 0 -42.333 4 -63 12s-39.5 21 -56.5 39s-30.667 41.833 -41 71.5s-15.5 66.167 -15.5 109.5c0 30.667 3.5 62.334 10.5 95.001
s18 62.667 33 90s34.667 49.833 59 67.5s53.833 26.5 88.5 26.5c8 0 16.667 -0.5 26 -1.5s18.333 -3.33301 27 -7s16.667 -9 24 -16s13 -16.5 17 -28.5v48h144zM842.997 90.999c-8 0.666992 -13.9971 3.50195 -17.9971 8.50195s-6 10.833 -6 17.5
c0 8.66699 3.66699 17.167 11 25.5s19.333 12.5 36 12.5c18.667 0 32.667 -6.16699 42 -18.5s14 -26.833 14 -43.5c0 -10.667 -2 -21.5 -6 -32.5s-10.333 -21 -19 -30s-19.334 -16.333 -32.001 -22s-27.334 -8.5 -44.001 -8.5h-276l196 446h-74
c-14.667 0 -26.834 -0.833008 -36.501 -2.5s-14.5 -5.5 -14.5 -11.5c0 -2.66699 0.833008 -4 2.5 -4s3.66699 -0.666992 6 -2s4.33301 -4 6 -8s2.5 -11 2.5 -21c0 -14.667 -4.5 -25.334 -13.5 -32.001s-19.167 -10 -30.5 -10c-13.333 0 -26.166 4.5 -38.499 13.5
s-18.5 22.833 -18.5 41.5c0 10 2 20.167 6 30.5s10 20 18 29s18 16.333 30 22s26 8.5 42 8.5h275l-191 -423c4 0 9.66699 -0.333008 17 -1s15.166 -1.33398 23.499 -2.00098l25 -2c8.33301 -0.666992 15.833 -1 22.5 -1c12 0 22.167 1.33301 30.5 4s12.5 8 12.5 16z
M266 443.001c-16 0 -29.834 -6.83398 -41.501 -20.501s-21 -30.667 -28 -51s-12.167 -42.666 -15.5 -66.999s-5 -47.5 -5 -69.5c0 -35.333 2.66699 -62.833 8 -82.5s11.833 -34 19.5 -43s15.834 -14.333 24.501 -16s16 -2.5 22 -2.5c7.33301 0 14.833 1.83301 22.5 5.5
s14.667 9.16699 21 16.5s11.5 16.5 15.5 27.5s6 23.833 6 38.5v226l-5 10.5c-2 4.33301 -5 8.5 -9 12.5s-8.83301 7.5 -14.5 10.5s-12.5 4.5 -20.5 4.5z" />
    <glyph glyph-name="b_s" unicode="bs" horiz-adv-x="786" 
d="M888 179c-18.667 -28 -38.168 -51.3369 -58.501 -70.0039s-39.833 -34.667 -58.5 -48c-12.667 -24.667 -31.167 -42 -55.5 -52s-49.166 -15 -74.499 -15c-30 0 -55.667 4.16699 -77 12.5s-38.833 19.666 -52.5 33.999s-23.834 30.833 -30.501 49.5s-10 38.334 -10 59.001
c0 22.667 5.33301 40.5 16 53.5s23.334 19.5 38.001 19.5c41.333 0 62 -16.333 62 -49c0 -10.667 -3.66699 -19.667 -11 -27s-16.666 -11 -27.999 -11c-5.33301 0 -10.833 0.833008 -16.5 2.5s-10.167 5.16699 -13.5 10.5c5.33301 -23.333 14.166 -41.666 26.499 -54.999
s28.166 -20 47.499 -20c16.667 0 29 4.16699 37 12.5s12 22.833 12 43.5c0 22 -1.83301 41.833 -5.5 59.5s-9.16699 37.167 -16.5 58.5l-27 76.5c-10.667 29.667 -22.667 68.167 -36 115.5c-30.667 -68 -73 -112.667 -127 -134c0.666992 -6 1.16699 -12 1.5 -18
s0.5 -12.333 0.5 -19c0 -29.333 -3 -60.166 -9 -92.499s-17.167 -62 -33.5 -89s-38.666 -49.167 -66.999 -66.5s-64.833 -26 -109.5 -26c-56.667 0 -98.334 14 -125.001 42s-40 65.667 -40 113v531l144 20v-225c18 12.667 32.667 20.834 44 24.501s22.666 5.5 33.999 5.5
c38 0 70.5 -12.833 97.5 -38.5s45.833 -63.167 56.5 -112.5c22 6.66699 42.333 23.334 61 50.001s36.334 62.334 53.001 107.001l144 20c16.667 -64.667 31.334 -117 44.001 -157l32.5 -101.5c9 -27.667 16 -51.834 21 -72.501s7.5 -44 7.5 -70
c11.333 7.33301 22.333 15.5 33 24.5s19.667 17.167 27 24.5h42zM327.999 258.996c0 6.66699 -0.165039 13.001 -0.498047 19.001s-0.833008 12 -1.5 18c-18 8.66699 -27 27 -27 55c0 12 2.66699 21.667 8 29c-7.33301 16.667 -16.5 29.5 -27.5 38.5
s-23.167 13.5 -36.5 13.5c-8 0 -17.333 -1.5 -28 -4.5s-18.667 -7.5 -24 -13.5v-264c0 -21.333 4.66699 -36.5 14 -45.5s21.333 -13.5 36 -13.5c17.333 0 31.666 5.16699 42.999 15.5s20.166 23.666 26.499 39.999s10.833 34.333 13.5 54s4 39.167 4 58.5z" />
    <glyph glyph-name="b_s_x" unicode="bsx" horiz-adv-x="1165" 
d="M915 500l85.001 -215.007c24.667 34 44 63.333 58 88s21 47 21 67c0 6 -0.333008 10.667 -1 14c-4.66699 -0.666992 -7.33398 -1.16699 -8.00098 -1.5s-3 -0.5 -7 -0.5c-21.333 0 -37 6 -47 18s-15 25 -15 39c0 17.333 6.33301 30.833 19 40.5s27 14.5 43 14.5
c18.667 0 36 -7.16699 52 -21.5s24 -37.5 24 -69.5c0 -16.667 -3 -35 -9 -55s-14.167 -40.833 -24.5 -62.5s-22.5 -43.667 -36.5 -66s-29 -44.166 -45 -65.499l18 -45c4 -10 7.66699 -20.167 11 -30.5s7.83301 -19.666 13.5 -27.999s12.5 -15.333 20.5 -21
s18.667 -8.5 32 -8.5c19.333 0 35.5 8.33301 48.5 25s20.833 37.667 23.5 63h42c-6 -40.667 -15.5 -73.167 -28.5 -97.5s-27.5 -43 -43.5 -56s-32.5 -21.5 -49.5 -25.5s-32.167 -6 -45.5 -6c-16.667 0 -31.667 2.83301 -45 8.5s-26 14.5 -38 26.5s-23.333 27.5 -34 46.5
s-21.667 41.5 -33 67.5c-11.333 -9.33301 -23.5 -18 -36.5 -26s-26 -15.333 -39 -22l-38 -19c-12.333 -6 -23.166 -11.667 -32.499 -17c-13.333 -23.333 -31.833 -40 -55.5 -50s-48.167 -15 -73.5 -15c-30 0 -55.667 4.16699 -77 12.5s-38.833 19.666 -52.5 33.999
s-23.834 30.833 -30.501 49.5s-10 38.334 -10 59.001c0 22.667 5.33301 40.5 16 53.5s23.334 19.5 38.001 19.5c41.333 0 62 -16.333 62 -49c0 -10.667 -3.66699 -19.667 -11 -27s-16.666 -11 -27.999 -11c-5.33301 0 -10.833 0.833008 -16.5 2.5
s-10.167 5.16699 -13.5 10.5c5.33301 -23.333 14.166 -41.666 26.499 -54.999s28.166 -20 47.499 -20c16.667 0 29 4.16699 37 12.5s12 22.833 12 43.5c0 22 -1.83301 41.833 -5.5 59.5s-9.16699 37.167 -16.5 58.5l-27 76.5c-10.667 29.667 -22.667 68.167 -36 115.5
c-30.667 -68 -73 -112.667 -127 -134c0.666992 -6 1.16699 -12 1.5 -18s0.5 -12.333 0.5 -19c0 -29.333 -3 -60.166 -9 -92.499s-17.167 -62 -33.5 -89s-38.666 -49.167 -66.999 -66.5s-64.833 -26 -109.5 -26c-56.667 0 -98.334 14 -125.001 42s-40 65.667 -40 113v531
l144 20v-225c18 12.667 32.667 20.834 44 24.501s22.666 5.5 33.999 5.5c38 0 70.5 -12.833 97.5 -38.5s45.833 -63.167 56.5 -112.5c22 6.66699 42.333 23.334 61 50.001s36.334 62.334 53.001 107.001l144 20c16.667 -64.667 31.5 -117.167 44.5 -157.5l33 -101.5
c9 -27.333 15.833 -51.5 20.5 -72.5s7 -44.5 7 -70.5v-6c18.667 8.66699 38 19.167 58 31.5s36.667 25.833 50 40.5l-120 305h141zM328.001 258.993c0 6.66699 -0.165039 13.001 -0.498047 19.001s-0.833008 12 -1.5 18c-18 8.66699 -27 27 -27 55c0 12 2.66699 21.667 8 29
c-7.33301 16.667 -16.5 29.5 -27.5 38.5s-23.167 13.5 -36.5 13.5c-8 0 -17.333 -1.5 -28 -4.5s-18.667 -7.5 -24 -13.5v-264c0 -21.333 4.66699 -36.5 14 -45.5s21.333 -13.5 36 -13.5c17.333 0 31.666 5.16699 42.999 15.5s20.166 23.666 26.499 39.999
s10.833 34.333 13.5 54s4 39.167 4 58.5z" />
    <glyph glyph-name="b_s_z" unicode="bs&#x7a;" horiz-adv-x="1158" 
d="M47 680l144.001 19.9922v-225c18 12.667 32.667 20.834 44 24.501s22.666 5.5 33.999 5.5c38 0 70.5 -12.833 97.5 -38.5s45.833 -63.167 56.5 -112.5c23.333 6 46.5 22.5 69.5 49.5s42.833 62.833 59.5 107.5l144 20l39 -146.5l26.5 -99.5
c7 -27.333 12.167 -50.666 15.5 -69.999s5 -38.333 5 -57c0 -32.667 -4.33301 -59.5 -13 -80.5s-20 -37.667 -34 -50s-30 -21 -48 -26s-36.333 -7.5 -55 -7.5c-27.333 0 -51.333 4.16699 -72 12.5s-37.834 19.5 -51.501 33.5s-24 30 -31 48s-10.5 37 -10.5 57
c0 24.667 5.16699 43.667 15.5 57s25.166 20 44.499 20c15.333 0 28.5 -4.16699 39.5 -12.5s16.5 -19.833 16.5 -34.5c0 -12 -3.66699 -21.667 -11 -29s-16.666 -11 -27.999 -11c-5.33301 0 -10.833 0.833008 -16.5 2.5s-10.167 5.16699 -13.5 10.5
c5.33301 -23.333 14.166 -41.666 26.499 -54.999s28.166 -20 47.499 -20c18.667 0 31.5 6.33301 38.5 19s10.5 33 10.5 61c0 16.667 -1.16699 32.834 -3.5 48.501s-6.16602 33.834 -11.499 54.501s-12.166 45.334 -20.499 74.001l-30.5 109
c-17.333 -35.333 -38 -64.166 -62 -86.499s-50.333 -38.5 -79 -48.5c0.666992 -6 1 -12 1 -18v-18c0 -29.333 -3 -60.166 -9 -92.499s-17.167 -62 -33.5 -89s-38.666 -49.167 -66.999 -66.5s-64.833 -26 -109.5 -26c-56.667 0 -98.5 14 -125.5 42s-40.5 65.667 -40.5 113z
M1095 90.9922c-8 0.666992 -13.9971 3.50195 -17.9971 8.50195s-6 10.833 -6 17.5c0 8.66699 3.66699 17.167 11 25.5s19.333 12.5 36 12.5c18.667 0 32.667 -6.16699 42 -18.5s14 -26.833 14 -43.5c0 -10.667 -2 -21.5 -6 -32.5s-10.333 -21 -19 -30
s-19.334 -16.333 -32.001 -22s-27.334 -8.5 -44.001 -8.5h-276l196 446h-74c-14.667 0 -26.834 -0.833008 -36.501 -2.5s-14.5 -5.5 -14.5 -11.5c0 -2.66699 0.833008 -4 2.5 -4s3.66699 -0.666992 6 -2s4.33301 -4 6 -8s2.5 -11 2.5 -21
c0 -14.667 -4.5 -25.334 -13.5 -32.001s-19.167 -10 -30.5 -10c-13.333 0 -26.166 4.5 -38.499 13.5s-18.5 22.833 -18.5 41.5c0 10 2 20.167 6 30.5s10 20 18 29s18 16.333 30 22s26 8.5 42 8.5h275l-191 -423c4 0 9.66699 -0.333008 17 -1
s15.166 -1.33398 23.499 -2.00098l25 -2c8.33301 -0.666992 15.833 -1 22.5 -1c12 0 22.167 1.33301 30.5 4s12.5 8 12.5 16zM328.004 258.994c0 6.66699 -0.165039 13.001 -0.498047 19.001s-0.833008 12 -1.5 18c-18 8.66699 -27 27 -27 55c0 12 2.66699 21.667 8 29
c-7.33301 16.667 -16.5 29.5 -27.5 38.5s-23.167 13.5 -36.5 13.5c-8 0 -17.333 -1.5 -28 -4.5s-18.667 -7.5 -24 -13.5v-264c0 -21.333 4.66699 -36.5 14 -45.5s21.333 -13.5 36 -13.5c17.333 0 31.666 5.16699 42.999 15.5s20.166 23.666 26.499 39.999
s10.833 34.333 13.5 54s4 39.167 4 58.5z" />
    <glyph glyph-name="c_x" unicode="cx" horiz-adv-x="779" 
d="M289 356c1.33301 5.33301 2.16406 11.167 2.49707 17.5s0.5 11.833 0.5 16.5c0 18.667 -3.16699 34.334 -9.5 47.001s-16.166 19 -29.499 19c-12.667 0 -23.667 -7.33301 -33 -22s-17.166 -33.167 -23.499 -55.5s-11.166 -46.5 -14.499 -72.5s-5 -50 -5 -72
c0 -31.333 3.5 -57.166 10.5 -77.499s16.333 -36.5 28 -48.5s25.334 -20.333 41.001 -25s32.167 -7 49.5 -7c18 0 36.667 2.5 56 7.5s38.166 12.167 56.499 21.5s35.833 21.166 52.5 35.499s31.334 30.833 44.001 49.5l-122 310h141l83 -211
c24 32.667 42.667 61.167 56 85.5s20 46.166 20 65.499c0 6 -0.333008 10.667 -1 14c-4.66699 -0.666992 -7.33398 -1.16699 -8.00098 -1.5s-3 -0.5 -7 -0.5c-21.333 0 -37 6 -47 18s-15 25 -15 39c0 17.333 6.33301 30.833 19 40.5s27 14.5 43 14.5
c18.667 0 36 -7.16699 52 -21.5s24 -37.5 24 -69.5c0 -16.667 -2.83301 -34.834 -8.5 -54.501s-13.5 -40 -23.5 -61s-21.833 -42.5 -35.5 -64.5s-28.5 -43.667 -44.5 -65l20 -49l12.5 -30.5c4.33301 -10.333 9.5 -19.666 15.5 -27.999s12.833 -15.333 20.5 -21
s17.167 -8.5 28.5 -8.5c19.333 0 35.5 8.33301 48.5 25s20.833 37.667 23.5 63h42c-6 -40.667 -15.5 -73.167 -28.5 -97.5s-27.5 -43 -43.5 -56s-32.167 -21.5 -48.5 -25.5s-30.833 -6 -43.5 -6c-34 0 -62 11 -84 33s-43.667 57.333 -65 106
c-16.667 -22 -36 -41.5 -58 -58.5s-45.5 -31.5 -70.5 -43.5s-51 -21.167 -78 -27.5s-53.833 -9.5 -80.5 -9.5c-28.667 0 -56.334 3.83301 -83.001 11.5s-50.167 20.5 -70.5 38.5s-36.666 42 -48.999 72s-18.5 67.333 -18.5 112c0 27.333 3 57.333 9 90
s16.833 63.167 32.5 91.5s36.5 52 62.5 71s59 28.5 99 28.5c28.667 0 51.834 -4 69.501 -12s31.167 -17.667 40.5 -29s15.5 -23.5 18.5 -36.5s4.5 -24.833 4.5 -35.5c0 -18 -3.83301 -31.167 -11.5 -39.5s-17.167 -12.5 -28.5 -12.5c-12.667 0 -25.334 4 -38.001 12z" />
    <glyph glyph-name="c_z" unicode="c&#x7a;" horiz-adv-x="781" 
d="M720 91c-8 0.666992 -13.998 3.50098 -17.998 8.50098s-6 10.833 -6 17.5c0 8.66699 3.66699 17.167 11 25.5s19.333 12.5 36 12.5c18.667 0 32.667 -6.16699 42 -18.5s14 -26.833 14 -43.5c0 -10.667 -2 -21.5 -6 -32.5s-10.333 -21 -19 -30
s-19.334 -16.333 -32.001 -22s-27.334 -8.5 -44.001 -8.5h-265l160 446h-36c-14.667 0 -26.834 -0.833008 -36.501 -2.5s-14.5 -5.5 -14.5 -11.5c0 -2.66699 0.833008 -4 2.5 -4s3.66699 -0.666992 6 -2s4.33301 -4 6 -8s2.5 -11 2.5 -21
c0 -14.667 -4.5 -25.334 -13.5 -32.001s-19.167 -10 -30.5 -10c-13.333 0 -26.166 4.5 -38.499 13.5s-18.5 22.833 -18.5 41.5c0 10 2 20.167 6 30.5s10 20 18 29s18 16.333 30 22s26 8.5 42 8.5h237l-155 -423c18.667 0 35.167 -2 49.5 -6s28.833 -6 43.5 -6
c8 0 14.5 1.83301 19.5 5.5s7.5 10.5 7.5 20.5zM288.002 345.001c1.33301 5.33301 2.16797 10.001 2.50098 14.001s0.5 9.33301 0.5 16c0 27.333 -3.83301 47 -11.5 59s-17.5 18 -29.5 18c-13.333 0 -24.833 -6.83301 -34.5 -20.5s-17.667 -31 -24 -52s-11 -44.5 -14 -70.5
s-4.5 -51.333 -4.5 -76c0 -31.333 2.16699 -56.833 6.5 -76.5s10.666 -35.167 18.999 -46.5s18.833 -19.166 31.5 -23.499s27.334 -6.5 44.001 -6.5c4.66699 0 10.5 0.5 17.5 1.5s14.667 3.33301 23 7s17.166 9.33398 26.499 17.001s19 18.167 29 31.5
c-0.666992 -22 -3.16699 -41.667 -7.5 -59s-11.833 -32.333 -22.5 -45s-25.167 -22.334 -43.5 -29.001s-41.5 -10 -69.5 -10s-54 4.16699 -78 12.5s-44.833 21.666 -62.5 39.999s-31.334 42.166 -41.001 71.499s-14.5 64.666 -14.5 105.999c0 28 2.83301 58.5 8.5 91.5
s16.167 63.5 31.5 91.5s36.166 51.333 62.499 70s60.5 28 102.5 28c26 0 47.5 -3.66699 64.5 -11s30.5 -16.5 40.5 -27.5s17 -23 21 -36s6 -25.5 6 -37.5c0 -17.333 -3.5 -31.666 -10.5 -42.999s-16.5 -17 -28.5 -17c-5.33301 0 -11.666 1 -18.999 3s-14.666 5 -21.999 9z
" />
    <glyph glyph-name="e_x" unicode="ex" horiz-adv-x="765" 
d="M535 500l89.002 -226.995c28 37.333 49.667 69.166 65 95.499s23 50.166 23 71.499c0 6 -0.333008 10.667 -1 14c-4.66699 -0.666992 -7.33398 -1.16699 -8.00098 -1.5s-3 -0.5 -7 -0.5c-21.333 0 -37 6 -47 18s-15 25 -15 39c0 17.333 6.33301 30.833 19 40.5
s27 14.5 43 14.5c18.667 0 36 -7.16699 52 -21.5s24 -37.5 24 -69.5c0 -17.333 -3.33301 -36.5 -10 -57.5s-15.5 -42.833 -26.5 -65.5s-24.167 -45.667 -39.5 -69s-31.333 -46 -48 -68l14 -34l12.5 -29.5c4.33301 -10.333 9.5 -19.833 15.5 -28.5s13 -15.834 21 -21.501
s17.667 -8.5 29 -8.5c19.333 0 35.5 8.33301 48.5 25s20.5 37.667 22.5 63h42c-5.33301 -40.667 -14.5 -73.167 -27.5 -97.5s-27.5 -43 -43.5 -56s-32.167 -21.5 -48.5 -25.5s-30.833 -6 -43.5 -6c-16.667 0 -31.667 2.5 -45 7.5s-26 13 -38 24s-23.333 25.167 -34 42.5
s-21.667 38.666 -33 63.999c-16 -20.667 -34.667 -39.5 -56 -56.5s-44.333 -31.5 -69 -43.5s-50.667 -21.333 -78 -28s-55 -10 -83 -10c-28.667 0 -56.334 3.83301 -83.001 11.5s-50.167 20.5 -70.5 38.5s-36.666 41.833 -48.999 71.5s-18.5 66.5 -18.5 110.5
c0 27.333 3 57.166 9 89.499s16.833 62.5 32.5 90.5s36.667 51.5 63 70.5s59.5 28.5 99.5 28.5c33.333 0 59 -4.83301 77 -14.5s31.333 -21.334 40 -35.001s13.667 -27.667 15 -42s2 -25.833 2 -34.5c0 -24 -5 -46.5 -15 -67.5s-23.667 -39.333 -41 -55
s-37.5 -28.334 -60.5 -38.001s-47.833 -15.167 -74.5 -16.5c2 -24.667 6.83301 -45.167 14.5 -61.5s17.167 -29.166 28.5 -38.499s24.166 -16 38.499 -20s29.166 -6 44.499 -6c18 0 36.667 2.33301 56 7s38.5 11.834 57.5 21.501s36.833 21.5 53.5 35.5
s31.334 30.333 44.001 49l-123 311h141zM294.002 385.005c0 25.333 -4 42.833 -12 52.5s-16.667 14.5 -26 14.5c-12 0 -22.667 -6.5 -32 -19.5s-17.166 -29.5 -23.499 -49.5s-11.333 -41.833 -15 -65.5s-5.83398 -46.167 -6.50098 -67.5c16.667 1.33301 32 5.83301 46 13.5
s26.167 17.5 36.5 29.5s18.333 26 24 42s8.5 32.667 8.5 50z" />
    <glyph glyph-name="e_z" unicode="e&#x7a;" horiz-adv-x="796" 
d="M264 89c19.333 0 38.6689 5.33301 58.002 16s35.666 23 48.999 37c0 -28.667 -3.5 -52.5 -10.5 -71.5s-16.833 -34.167 -29.5 -45.5s-27.5 -19.333 -44.5 -24s-35.833 -7 -56.5 -7c-28.667 0 -55.167 4.16699 -79.5 12.5s-45.166 21.833 -62.499 40.5s-31 42.667 -41 72
s-15 65 -15 107c0 28 3.16699 58.333 9.5 91s17.166 62.834 32.499 90.501s36.166 50.834 62.499 69.501s59.5 28 99.5 28c33.333 0 59 -4.83301 77 -14.5s31.333 -21.334 40 -35.001s13.667 -27.667 15 -42s2 -25.833 2 -34.5c0 -24 -5 -46.5 -15 -67.5
s-23.667 -39.333 -41 -55s-37.5 -28.334 -60.5 -38.001s-47.833 -15.167 -74.5 -16.5c3.33301 -43.333 13 -73 29 -89s34.667 -24 56 -24zM733.003 91c-8 0.666992 -13.9971 3.50195 -17.9971 8.50195s-6 10.833 -6 17.5c0 8.66699 3.66699 17.167 11 25.5
s19.333 12.5 36 12.5c18.667 0 32.667 -6.16699 42 -18.5s14 -26.833 14 -43.5c0 -10.667 -2 -21.5 -6 -32.5s-10.333 -21 -19 -30s-19.334 -16.333 -32.001 -22s-27.334 -8.5 -44.001 -8.5h-276l196 446h-74c-14.667 0 -26.834 -0.833008 -36.501 -2.5
s-14.5 -5.5 -14.5 -11.5c0 -2.66699 0.833008 -4 2.5 -4s3.66699 -0.666992 6 -2s4.33301 -4 6 -8s2.5 -11 2.5 -21c0 -14.667 -4.5 -25.334 -13.5 -32.001s-19.167 -10 -30.5 -10c-13.333 0 -26.166 4.5 -38.499 13.5s-18.5 22.833 -18.5 41.5c0 10 2 20.167 6 30.5
s10 20 18 29s18 16.333 30 22s26 8.5 42 8.5h275l-191 -423c4 0 9.66699 -0.333008 17 -1s15.166 -1.33398 23.499 -2.00098l25 -2c8.33301 -0.666992 15.833 -1 22.5 -1c12 0 22.167 1.33301 30.5 4s12.5 8 12.5 16zM292.006 385.002
c0 25.333 -3.83105 42.834 -11.498 52.501s-16.167 14.5 -25.5 14.5c-12 0 -22.5 -6.33301 -31.5 -19s-16.833 -28.834 -23.5 -48.501s-11.834 -41.5 -15.501 -65.5s-5.83398 -47 -6.50098 -69c16.667 1.33301 32 5.83301 46 13.5s26 17.5 36 29.5s17.833 26 23.5 42
s8.5 32.667 8.5 50z" />
    <glyph glyph-name="eacute_x" unicode="&#xe9;x" horiz-adv-x="798" 
d="M535 500l89.002 -226.995c28 37.333 49.667 69.166 65 95.499s23 50.166 23 71.499c0 6 -0.333008 10.667 -1 14c-4.66699 -0.666992 -7.33398 -1.16699 -8.00098 -1.5s-3 -0.5 -7 -0.5c-21.333 0 -37 6 -47 18s-15 25 -15 39c0 17.333 6.33301 30.833 19 40.5
s27 14.5 43 14.5c18.667 0 36 -7.16699 52 -21.5s24 -37.5 24 -69.5c0 -17.333 -3.33301 -36.5 -10 -57.5s-15.5 -42.833 -26.5 -65.5s-24.167 -45.667 -39.5 -69s-31.333 -46 -48 -68l14 -34l12.5 -29.5c4.33301 -10.333 9.5 -19.833 15.5 -28.5s13 -15.834 21 -21.501
s17.667 -8.5 29 -8.5c19.333 0 35.5 8.33301 48.5 25s20.5 37.667 22.5 63h42c-5.33301 -40.667 -14.5 -73.167 -27.5 -97.5s-27.5 -43 -43.5 -56s-32.167 -21.5 -48.5 -25.5s-30.833 -6 -43.5 -6c-16.667 0 -31.667 2.5 -45 7.5s-26 13 -38 24s-23.333 25.167 -34 42.5
s-21.667 38.666 -33 63.999c-16 -20.667 -34.667 -39.5 -56 -56.5s-44.333 -31.5 -69 -43.5s-50.667 -21.333 -78 -28s-55 -10 -83 -10c-28.667 0 -56.334 3.83301 -83.001 11.5s-50.167 20.5 -70.5 38.5s-36.666 41.833 -48.999 71.5s-18.5 66.5 -18.5 110.5
c0 27.333 3 57.166 9 89.499s16.833 62.5 32.5 90.5s36.667 51.5 63 70.5s59.5 28.5 99.5 28.5c33.333 0 59 -4.83301 77 -14.5s31.333 -21.334 40 -35.001s13.667 -27.667 15 -42s2 -25.833 2 -34.5c0 -24 -5 -46.5 -15 -67.5s-23.667 -39.333 -41 -55
s-37.5 -28.334 -60.5 -38.001s-47.833 -15.167 -74.5 -16.5c2 -24.667 6.83301 -45.167 14.5 -61.5s17.167 -29.166 28.5 -38.499s24.166 -16 38.499 -20s29.166 -6 44.499 -6c18 0 36.667 2.33301 56 7s38.5 11.834 57.5 21.501s36.833 21.5 53.5 35.5
s31.334 30.333 44.001 49l-123 311h141zM244.002 750.005h105l-81 -189h-75zM294.002 385.005c0 25.333 -4 42.833 -12 52.5s-16.667 14.5 -26 14.5c-12 0 -22.667 -6.5 -32 -19.5s-17.166 -29.5 -23.499 -49.5s-11.333 -41.833 -15 -65.5s-5.83398 -46.167 -6.50098 -67.5
c16.667 1.33301 32 5.83301 46 13.5s26.167 17.5 36.5 29.5s18.333 26 24 42s8.5 32.667 8.5 50z" />
    <glyph glyph-name="f_f_t" unicode="fft" horiz-adv-x="783" 
d="M54 -250c-20 0 -39.1689 3.16992 -57.502 9.50293s-34.5 15.166 -48.5 26.499s-25 25.166 -33 41.499s-12 34.166 -12 53.499c0 18.667 3.83301 34.5 11.5 47.5s18 24.333 31 34s28.167 18 45.5 25s36 13.833 56 20.5v574c0 35.333 4.5 63.833 13.5 85.5
s20.5 38.5 34.5 50.5s29.667 20.167 47 24.5s34.333 6.5 51 6.5c50 0 91.667 -14.667 125 -44c14.667 17.333 32.167 29 52.5 35s41.166 9 62.499 9c42 0 86.667 -7.16699 134 -21.5s94 -30.166 140 -47.499v-180h61v-40h-61v-300c0 -26 3.83301 -44 11.5 -54
s19.834 -15 36.501 -15c24.667 0 42.834 8.5 54.501 25.5s18.834 37.833 21.501 62.5h42c-5.33301 -40.667 -14.833 -73.167 -28.5 -97.5s-28.667 -43 -45 -56s-33 -21.5 -50 -25.5s-31.833 -6 -44.5 -6c-19.333 0 -37.666 3.5 -54.999 10.5s-32.333 18 -45 33
s-22.667 34.167 -30 57.5s-11 51.333 -11 84v281h-136v-540c0 -34.667 -4.33301 -63 -13 -85s-19.834 -39.333 -33.501 -52s-29 -21.334 -46 -26.001s-33.833 -7 -50.5 -7c-26.667 0 -50.167 4.83301 -70.5 14.5s-36.833 23.167 -49.5 40.5
c-14.667 -22 -32.5 -36.667 -53.5 -44s-40.167 -11 -57.5 -11zM193.998 37.0029l88 15v408h-88v-423zM563.998 670.003c-14.667 5.33301 -31 9.33301 -49 12s-30.667 4 -38 4c-5.33301 0 -11 -1 -17 -3s-11.5 -5.66699 -16.5 -11s-9 -13 -12 -23s-4.5 -23 -4.5 -39v-110h137
v170zM188.998 -134.997c0 -16 4.16797 -26.667 12.501 -32s17.166 -8 26.499 -8c18 0 31.667 7 41 21s14 37.667 14 71v111l-89 -20v-88c0 -10.667 -0.5 -20.5 -1.5 -29.5s-2.16699 -17.5 -3.5 -25.5zM281.999 579.003c0 17.333 1.16602 33.002 3.49902 47.002
s5.5 26.667 9.5 38c-5.33301 3.33301 -11.166 6.16602 -17.499 8.49902s-13.5 3.5 -21.5 3.5c-13.333 0 -24 -2.66699 -32 -8s-14.333 -12.333 -19 -21s-7.66699 -18.334 -9 -29.001s-2 -21 -2 -31v-87h88v79zM-38.002 -110.995c0 -8.66699 1.66602 -16.166 4.99902 -22.499
s7.5 -11.5 12.5 -15.5s10.333 -7 16 -9s10.834 -3 15.501 -3c10 0 19.667 5.66699 29 17s14 31.666 14 60.999v58c-11.333 -4 -22.5 -8.66699 -33.5 -14s-20.833 -11.5 -29.5 -18.5s-15.667 -15 -21 -24s-8 -18.833 -8 -29.5z" />
    <glyph glyph-name="f_i_x" unicode="fix" horiz-adv-x="914" 
d="M303 618c0 8.66699 2.66797 16.499 8.00098 23.499s14 11.5 26 13.5c-3.33301 13.333 -10.666 23.333 -21.999 30s-25 10 -41 10s-29.333 -3.16699 -40 -9.5s-19.167 -14.833 -25.5 -25.5s-10.666 -22.834 -12.999 -36.501s-3.5 -27.5 -3.5 -41.5v-82h81v-40h-80v-540
c0 -34.667 -4.33301 -63 -13 -85s-19.834 -39.333 -33.501 -52s-28.834 -21.334 -45.501 -26.001s-33 -7 -49 -7c-21.333 0 -41 3.33301 -59 10s-33.833 15.834 -47.5 27.501s-24.334 25.334 -32.001 41.001s-11.5 32.834 -11.5 51.501s3.83301 34.667 11.5 48
s18.167 24.833 31.5 34.5s28.666 18.167 45.999 25.5s36 14 56 20v526c0 46.667 6.33301 84 19 112s29 49.667 49 65s42.167 25.5 66.5 30.5s47.833 7.5 70.5 7.5c20.667 0 42.167 -1.5 64.5 -4.5s42.833 -9 61.5 -18s33.834 -22 45.501 -39s17.5 -39.833 17.5 -68.5
c0 -22 -7 -38.5 -21 -49.5s-29.667 -16.5 -47 -16.5s-33.333 5.5 -48 16.5s-22 27.167 -22 48.5zM456.001 499.999l0.00292969 -339.998c0 -24.667 4.66699 -42.167 14 -52.5s23 -15.5 41 -15.5c25.333 0 50.833 8.66699 76.5 26s46.5 39.666 62.5 66.999l-124 315h141
l84 -213c24 33.333 42.833 62.333 56.5 87s20.5 46.667 20.5 66c0 6 -0.333008 10.667 -1 14c-4.66699 -0.666992 -7.33398 -1.16699 -8.00098 -1.5s-3 -0.5 -7 -0.5c-21.333 0 -37 6 -47 18s-15 25 -15 39c0 17.333 6.33301 30.833 19 40.5s27 14.5 43 14.5
c18.667 0 36 -7.16699 52 -21.5s24 -37.5 24 -69.5c0 -16.667 -3 -34.834 -9 -54.501s-14 -40.167 -24 -61.5s-21.833 -43.166 -35.5 -65.499s-28.5 -44.166 -44.5 -65.499l19 -47l12.5 -29.5c4.33301 -10.333 9.5 -19.833 15.5 -28.5s13 -15.834 21 -21.501
s17.667 -8.5 29 -8.5c19.333 0 35.5 8.33301 48.5 25s20.5 37.667 22.5 63h42c-5.33301 -40.667 -14.5 -73.167 -27.5 -97.5s-27.5 -43 -43.5 -56s-32.5 -21.5 -49.5 -25.5s-32.167 -6 -45.5 -6c-32 0 -59 10.833 -81 32.5s-43.667 56.5 -65 104.5
c-12.667 -18 -27.334 -35.333 -44.001 -52s-34.834 -31.334 -54.501 -44.001s-40.5 -22.667 -62.5 -30s-44.333 -11 -67 -11c-38.667 0 -70.5 14.667 -95.5 44s-37.5 76.333 -37.5 141v321h144zM-44.9961 -112.999c0 -10 1.99902 -18.1699 5.99902 -24.5029
s8.83301 -11.166 14.5 -14.499s11.334 -5.66602 17.001 -6.99902s10.167 -2 13.5 -2c10 0 19.333 5.83301 28 17.5s13 31.834 13 60.501v58c-28 -9.33301 -50.333 -21.5 -67 -36.5s-25 -32.167 -25 -51.5z" />
    <glyph glyph-name="f_i_z" unicode="fi&#x7a;" horiz-adv-x="902" 
d="M-45 -113c0 -10 1.99902 -18.1699 5.99902 -24.5029s8.83301 -11.166 14.5 -14.499s11.334 -5.66602 17.001 -6.99902s10.167 -2 13.5 -2c10 0 19.333 5.83301 28 17.5s13 31.834 13 60.501v58c-28 -9.33301 -50.333 -21.5 -67 -36.5s-25 -32.167 -25 -51.5z
M302.999 617.997c0 8.66699 2.66797 16.499 8.00098 23.499s14 11.5 26 13.5c-3.33301 13.333 -10.666 23.333 -21.999 30s-25 10 -41 10s-29.333 -3.16699 -40 -9.5s-19.167 -14.833 -25.5 -25.5s-10.666 -22.834 -12.999 -36.501s-3.5 -27.5 -3.5 -41.5v-82h81v-40h-80
v-540c0 -34.667 -4.33301 -63 -13 -85s-19.834 -39.333 -33.501 -52s-28.834 -21.334 -45.501 -26.001s-33 -7 -49 -7c-21.333 0 -41 3.33301 -59 10s-33.833 15.834 -47.5 27.501s-24.334 25.334 -32.001 41.001s-11.5 32.834 -11.5 51.501s3.83301 34.667 11.5 48
s18.167 24.833 31.5 34.5s28.666 18.167 45.999 25.5s36 14 56 20v526c0 46.667 6.33301 84 19 112s29 49.667 49 65s42.167 25.5 66.5 30.5s47.833 7.5 70.5 7.5c20.667 0 42.167 -1.5 64.5 -4.5s42.833 -9 61.5 -18s33.834 -22 45.501 -39s17.5 -39.833 17.5 -68.5
c0 -22 -7 -38.5 -21 -49.5s-29.667 -16.5 -47 -16.5s-33.333 5.5 -48 16.5s-22 27.167 -22 48.5zM456 499.996v-340c0 -28 3.83301 -46.5 11.5 -55.5s21.167 -13.5 40.5 -13.5c8.66699 0 15.167 0.666992 19.5 2s8.16602 2.66602 11.499 3.99902
c0.666992 -3.33301 1 -6.66602 1 -9.99902v-10c0 -16.667 -2.83301 -30.334 -8.5 -41.001s-13 -19.167 -22 -25.5s-18.667 -10.666 -29 -12.999s-20.166 -3.5 -29.499 -3.5c-51.333 0 -87.333 14.167 -108 42.5s-31 65.833 -31 112.5v351h144zM839 90.9961
c-8 0.666992 -13.9971 3.50195 -17.9971 8.50195s-6 10.833 -6 17.5c0 8.66699 3.66699 17.167 11 25.5s19.333 12.5 36 12.5c18.667 0 32.667 -6.16699 42 -18.5s14 -26.833 14 -43.5c0 -10.667 -2 -21.5 -6 -32.5s-10.333 -21 -19 -30s-19.334 -16.333 -32.001 -22
s-27.334 -8.5 -44.001 -8.5h-276l196 446h-74c-14.667 0 -26.834 -0.833008 -36.501 -2.5s-14.5 -5.5 -14.5 -11.5c0 -2.66699 0.833008 -4 2.5 -4s3.66699 -0.666992 6 -2s4.33301 -4 6 -8s2.5 -11 2.5 -21c0 -14.667 -4.5 -25.334 -13.5 -32.001s-19.167 -10 -30.5 -10
c-13.333 0 -26.166 4.5 -38.499 13.5s-18.5 22.833 -18.5 41.5c0 10 2 20.167 6 30.5s10 20 18 29s18 16.333 30 22s26 8.5 42 8.5h275l-191 -423c4 0 9.66699 -0.333008 17 -1s15.166 -1.33398 23.499 -2.00098l25 -2c8.33301 -0.666992 15.833 -1 22.5 -1
c12 0 22.167 1.33301 30.5 4s12.5 8 12.5 16z" />
    <glyph glyph-name="f_l_x" unicode="flx" horiz-adv-x="928" 
d="M680 500l83.999 -212.998c24.667 33.333 43.834 62.333 57.501 87s20.5 46.667 20.5 66c0 6 -0.333008 10.667 -1 14c-4.66699 -0.666992 -7.33398 -1.16699 -8.00098 -1.5s-3 -0.5 -7 -0.5c-21.333 0 -37 6 -47 18s-15 25 -15 39c0 17.333 6.33301 30.833 19 40.5
s27 14.5 43 14.5c18.667 0 36 -7.16699 52 -21.5s24 -37.5 24 -69.5c0 -16.667 -3 -34.834 -9 -54.501s-14 -40.334 -24 -62.001s-22 -43.5 -36 -65.5s-29 -43.667 -45 -65l19 -47l12.5 -30.5c4.33301 -10.333 9.5 -19.666 15.5 -27.999s13 -15.333 21 -21
s17.667 -8.5 29 -8.5c19.333 0 35.5 8.33301 48.5 25s20.5 37.667 22.5 63h42c-5.33301 -40.667 -14.5 -73.167 -27.5 -97.5s-27.5 -43 -43.5 -56s-32.5 -21.5 -49.5 -25.5s-32.167 -6 -45.5 -6c-31.333 0 -58.166 10.667 -80.499 32s-44.166 56 -65.499 104
c-12.667 -18 -27 -35.167 -43 -51.5s-33.5 -30.833 -52.5 -43.5s-39.167 -22.667 -60.5 -30s-43.333 -11 -66 -11c-19.333 0 -37.333 3.66699 -54 11s-31.167 18.5 -43.5 33.5s-22 34.167 -29 57.5s-10.5 51 -10.5 83v491c-14.667 5.33301 -31 9.33301 -49 12
s-30.333 4 -37 4c-6 0 -12 -1 -18 -3s-11.5 -5.66699 -16.5 -11s-9 -13 -12 -23s-4.5 -23 -4.5 -39v-110h94v-40h-93v-543c0 -35.333 -4.33301 -63.833 -13 -85.5s-20 -38.5 -34 -50.5s-29.5 -20.167 -46.5 -24.5s-33.833 -6.5 -50.5 -6.5
c-17.333 0 -34.5 3.16699 -51.5 9.5s-32.333 15.166 -46 26.499s-24.834 25 -33.501 41s-13 34 -13 54c0 18.667 3.83301 34.5 11.5 47.5s18 24.333 31 34s28.167 18 45.5 25s36 13.833 56 20.5v574c0 35.333 4.5 63.833 13.5 85.5s20.5 38.5 34.5 50.5
s29.5 20.167 46.5 24.5s33.5 6.5 49.5 6.5c45.333 0 91 -7 137 -21s93.333 -30 142 -48v-520c0 -21.333 4.33301 -38 13 -50s22.667 -18 42 -18c25.333 0 50.833 8.5 76.5 25.5s46.5 39.167 62.5 66.5l-125 316h141zM-44.001 -113.998c0 -13.333 5.33301 -24.498 16 -33.498
s21.667 -13.5 33 -13.5c10 0 19.667 5.66699 29 17s14 31.666 14 60.999v58c-26.667 -9.33301 -48.667 -20.833 -66 -34.5s-26 -31.834 -26 -54.501z" />
    <glyph glyph-name="f_l_z" unicode="fl&#x7a;" horiz-adv-x="937" 
d="M471 160c0 -28 3.83398 -46.498 11.501 -55.498s21.167 -13.5 40.5 -13.5c9.33301 0 16 0.666992 20 2s7.33301 2.66602 10 3.99902c0.666992 -3.33301 1.16699 -6.83301 1.5 -10.5s0.5 -7.16699 0.5 -10.5c0 -24.667 -8 -44.5 -24 -59.5s-37.667 -22.5 -65 -22.5
c-51.333 0 -87.333 14.167 -108 42.5s-31 65.833 -31 112.5v521c-14.667 5.33301 -31 9.33301 -49 12s-30.333 4 -37 4c-6 0 -12 -1 -18 -3s-11.5 -5.66699 -16.5 -11s-9 -13 -12 -23s-4.5 -23 -4.5 -39v-110h94v-40h-93v-543c0 -35.333 -4.33301 -63.833 -13 -85.5
s-20 -38.5 -34 -50.5s-29.5 -20.167 -46.5 -24.5s-33.833 -6.5 -50.5 -6.5c-17.333 0 -34.5 3.16699 -51.5 9.5s-32.333 15.166 -46 26.499s-24.834 25 -33.501 41s-13 34 -13 54c0 18.667 3.83301 34.5 11.5 47.5s18 24.333 31 34s28.167 18 45.5 25s36 13.833 56 20.5v574
c0 35.333 4.5 63.833 13.5 85.5s20.5 38.5 34.5 50.5s29.5 20.167 46.5 24.5s33.5 6.5 49.5 6.5c45.333 0 91 -7 137 -21s93.333 -30 142 -48zM-43.999 -113.998c0 -13.333 5.33301 -24.498 16 -33.498s21.667 -13.5 33 -13.5c10 0 19.667 5.66699 29 17
s14 31.666 14 60.999v58c-26.667 -9.33301 -48.667 -20.833 -66 -34.5s-26 -31.834 -26 -54.501zM874.001 91.0039c-8 0.666992 -13.9971 3.50195 -17.9971 8.50195s-6 10.833 -6 17.5c0 8.66699 3.66699 17.167 11 25.5s19.333 12.5 36 12.5
c18.667 0 32.667 -6.16699 42 -18.5s14 -26.833 14 -43.5c0 -10.667 -2 -21.5 -6 -32.5s-10.333 -21 -19 -30s-19.334 -16.333 -32.001 -22s-27.334 -8.5 -44.001 -8.5h-276l196 446h-74c-14.667 0 -26.834 -0.833008 -36.501 -2.5s-14.5 -5.5 -14.5 -11.5
c0 -2.66699 0.833008 -4 2.5 -4s3.66699 -0.666992 6 -2s4.33301 -4 6 -8s2.5 -11 2.5 -21c0 -14.667 -4.5 -25.334 -13.5 -32.001s-19.167 -10 -30.5 -10c-13.333 0 -26.166 4.5 -38.499 13.5s-18.5 22.833 -18.5 41.5c0 10 2 20.167 6 30.5s10 20 18 29s18 16.333 30 22
s26 8.5 42 8.5h275l-191 -423c4 0 9.66699 -0.333008 17 -1s15.166 -1.33398 23.499 -2.00098l25 -2c8.33301 -0.666992 15.833 -1 22.5 -1c12 0 22.167 1.33301 30.5 4s12.5 8 12.5 16z" />
    <glyph glyph-name="f_t" unicode="ft" horiz-adv-x="547" 
d="M472 160c0 -26 3.33594 -43.999 10.0029 -53.999s20.667 -15 42 -15c19.333 0 35.5 8.33301 48.5 25s20.5 37.667 22.5 63h42c-5.33301 -40.667 -14.833 -73.167 -28.5 -97.5s-28.667 -43 -45 -56s-33.333 -21.5 -51 -25.5s-33.167 -6 -46.5 -6
c-18.667 0 -36.334 3.5 -53.001 10.5s-31.334 18 -44.001 33s-22.667 34.167 -30 57.5s-11 51.333 -11 84v281h-137v-543c0 -35.333 -4.33301 -63.833 -13 -85.5s-20 -38.5 -34 -50.5s-29.5 -20.167 -46.5 -24.5s-33.833 -6.5 -50.5 -6.5c-17.333 0 -34.5 3.16699 -51.5 9.5
s-32.333 15.166 -46 26.499s-24.834 25 -33.501 41s-13 34 -13 54c0 18.667 3.83301 34.5 11.5 47.5s18 24.333 31 34s28.167 18 45.5 25s36 13.833 56 20.5v574c0 35.333 4.5 63.833 13.5 85.5s20.5 38.5 34.5 50.5s29.667 20.167 47 24.5s34 6.5 50 6.5
c45.333 0 91 -7 137 -21s93.333 -30 142 -48v-180h61v-40h-61zM328.003 670.001c-14.667 5.33301 -31 9.33301 -49 12s-30.333 4 -37 4c-6 0 -12 -1 -18 -3s-11.5 -5.66699 -16.5 -11s-9 -13 -12 -23s-4.5 -23 -4.5 -39v-110h137v170zM-43.9971 -113.999
c0 -13.333 5.33301 -24.498 16 -33.498s21.667 -13.5 33 -13.5c10.667 0 20.5 5.66699 29.5 17s13.5 31.666 13.5 60.999v58c-26.667 -9.33301 -48.667 -20.833 -66 -34.5s-26 -31.834 -26 -54.501z" />
    <glyph glyph-name="f_u" unicode="fu" horiz-adv-x="772" 
d="M458 500l-0.00292969 -339.998c0 -25.333 3.5 -43.166 10.5 -53.499s17.167 -15.5 30.5 -15.5c18 0 33 8.33301 45 25s18 37.667 18 63v321h144v-340c0 -25.333 3.33301 -43.166 10 -53.499s18.667 -15.5 36 -15.5c25.333 0 43.833 8.66699 55.5 26s18.834 38 21.501 62
h42c-5.33301 -40.667 -14.666 -73.167 -27.999 -97.5s-28.333 -43 -45 -56s-33.667 -21.5 -51 -25.5s-33 -6 -47 -6c-36 0 -63.167 8.33301 -81.5 25s-30.833 40 -37.5 70c-8 -21.333 -17.667 -38.166 -29 -50.499s-23 -21.833 -35 -28.5s-24 -11 -36 -13s-23 -3 -33 -3
c-47.333 0 -81.5 14 -102.5 42s-31.5 65.667 -31.5 113v311h-123v-540c0 -36 -4.5 -65 -13.5 -87s-20.167 -39.167 -33.5 -51.5s-28.166 -20.666 -44.499 -24.999s-31.5 -6.5 -45.5 -6.5c-20 0 -39 3.16699 -57 9.5s-34 15.333 -48 27s-25 25.667 -33 42
s-12 34.166 -12 53.499c0 18 3.66699 33.5 11 46.5s17.333 24.167 30 33.5s27.667 17.666 45 24.999s36.333 14.333 57 21v571c0 35.333 4.5 64.166 13.5 86.499s20.5 39.666 34.5 51.999s29.333 20.666 46 24.999s32.667 6.5 48 6.5c23.333 0 44 -4 62 -12
s33.333 -18.667 46 -32s22.5 -29 29.5 -47s11.5 -37.333 13.5 -58h-47c-3.33301 19.333 -7.83301 34.333 -13.5 45s-16.5 16 -32.5 16c-6.66699 0 -13.334 -1.16699 -20.001 -3.5s-12.667 -6.5 -18 -12.5s-9.66602 -14.333 -12.999 -25s-5 -24.334 -5 -41.001v-79h267z
M-43.0029 -110.998c0 -8.66699 1.66602 -16.167 4.99902 -22.5s7.5 -11.5 12.5 -15.5s10.5 -7 16.5 -9s11.333 -3 16 -3c10.667 0 20.167 5.5 28.5 16.5s12.5 31.5 12.5 61.5v58c-11.333 -4 -22.5 -8.66699 -33.5 -14s-20.667 -11.5 -29 -18.5s-15.166 -15 -20.499 -24
s-8 -18.833 -8 -29.5z" />
    <glyph glyph-name="f_x" unicode="fx" horiz-adv-x="676" 
d="M429 500l89.002 -204.994c22.667 31.333 40.334 58.5 53.001 81.5s19 44.167 19 63.5c0 6 -0.333008 10.667 -1 14c-4.66699 -0.666992 -7.33398 -1.16699 -8.00098 -1.5s-3 -0.5 -7 -0.5c-21.333 0 -37 6 -47 18s-15 25 -15 39c0 17.333 6.33301 30.833 19 40.5
s27 14.5 43 14.5c18.667 0 36 -7.16699 52 -21.5s24 -36.833 24 -67.5c0 -33.333 -10.167 -71 -30.5 -113s-45.5 -84 -75.5 -126l25 -57c4 -10 8.5 -20.167 13.5 -30.5s10.5 -19.833 16.5 -28.5s13 -15.667 21 -21s17 -8 27 -8c19.333 0 35.5 8.33301 48.5 25
s20.5 37.667 22.5 63h42c-5.33301 -40.667 -14.333 -73.167 -27 -97.5s-26.834 -43 -42.501 -56s-31.834 -21.5 -48.501 -25.5s-31.667 -6 -45 -6c-18 0 -34.333 3.5 -49 10.5s-28.5 18 -41.5 33s-25.833 34.167 -38.5 57.5s-26 51.333 -40 84l-3 6
c-18 -13.333 -33.667 -28.666 -47 -45.999s-20 -35 -20 -53c0 -5.33301 0.333008 -9.33301 1 -12c2.66699 0.666992 6.66699 1 12 1c17.333 0 30.666 -5.83301 39.999 -17.5s14 -26.834 14 -45.501c0 -14 -4.33301 -24.333 -13 -31s-20 -10 -34 -10
c-28.667 0 -49.667 8.66699 -63 26s-20 38.333 -20 63c0 15.333 2.83301 31.166 8.5 47.499s13.5 32.5 23.5 48.5s21.333 31 34 45s26 26.667 40 38l-96 221h-114v-540c0 -36 -4.5 -65 -13.5 -87s-20.167 -39.167 -33.5 -51.5s-28.166 -20.666 -44.499 -24.999
s-31.5 -6.5 -45.5 -6.5c-20 0 -39 3.16699 -57 9.5s-34 15.333 -48 27s-25 25.667 -33 42s-12 34.166 -12 53.499c0 18 3.66699 33.5 11 46.5s17.333 24.167 30 33.5s27.667 17.666 45 24.999s36.333 14.333 57 21v571c0 35.333 4.5 64.166 13.5 86.499
s20.5 39.666 34.5 51.999s29.333 20.666 46 24.999s32.667 6.5 48 6.5c23.333 0 44 -4 62 -12s33.333 -18.667 46 -32s22.5 -29 29.5 -47s11.5 -37.333 13.5 -58h-47c-3.33301 19.333 -7.83301 34.333 -13.5 45s-16.5 16 -32.5 16c-6.66699 0 -13.334 -1.16699 -20.001 -3.5
s-12.667 -6.5 -18 -12.5s-9.66602 -14.333 -12.999 -25s-5 -24.334 -5 -41.001v-79h238zM-42.998 -110.994c0 -8.66699 1.66602 -16.167 4.99902 -22.5s7.5 -11.5 12.5 -15.5s10.5 -7 16.5 -9s11.333 -3 16 -3c10.667 0 20.167 5.5 28.5 16.5s12.5 31.5 12.5 61.5v58
c-11.333 -4 -22.5 -8.66699 -33.5 -14s-20.667 -11.5 -29 -18.5s-15.166 -15 -20.499 -24s-8 -18.833 -8 -29.5z" />
    <glyph glyph-name="g_p" unicode="gp" horiz-adv-x="974" 
d="M698 537l0.00292969 -75.001c11.333 12.667 25.833 23 43.5 31s39.167 12 64.5 12c22 0 43.167 -4.16699 63.5 -12.5s38.166 -22.333 53.499 -42s27.666 -45.834 36.999 -78.501s14 -73.334 14 -122.001c0 -28.667 -2.83301 -58 -8.5 -88s-15.5 -57.5 -29.5 -82.5
s-32.833 -45.5 -56.5 -61.5s-53.5 -24 -89.5 -24c-33.333 0 -64 1 -92 3v-211l-144 -36v252c-16 -0.666992 -31.833 -1.66699 -47.5 -3s-31.834 -4 -48.501 -8v-71c0 -36 -4.33301 -65 -13 -87s-19.834 -39.167 -33.501 -51.5s-29 -20.666 -46 -24.999
s-33.833 -6.5 -50.5 -6.5c-17.333 0 -34.166 2.5 -50.499 7.5s-30.833 12.333 -43.5 22s-22.667 21.667 -30 36s-11 31.166 -11 50.499c0 18 4 34 12 48s18.333 26.5 31 37.5s27 20.5 43 28.5s32 15 48 21v79c-10.667 -18 -24.667 -33.5 -42 -46.5
s-40.666 -19.5 -69.999 -19.5c-21.333 0 -42.333 3.83301 -63 11.5s-39.334 20.334 -56.001 38.001s-30.167 40.834 -40.5 69.501s-15.5 63.667 -15.5 105c0 28.667 3.5 58.834 10.5 90.501s18.167 60.5 33.5 86.5s35.5 47.5 60.5 64.5s55.167 25.5 90.5 25.5
c8 0 16.5 -0.5 25.5 -1.5s17.833 -3.16699 26.5 -6.5s16.5 -8.33301 23.5 -15s12.5 -15.667 16.5 -27v45h144v-459l48 10c16 3.33301 32 6.33301 48 9v477h144zM742.003 75.999c18 0 32.834 6 44.501 18s21.167 27.167 28.5 45.5s12.5 38.333 15.5 60s4.5 42.5 4.5 62.5
c0 40 -3 71.5 -9 94.5s-13.167 40.167 -21.5 51.5s-17 18.333 -26 21s-16.5 4 -22.5 4c-11.333 0 -22.5 -4.16699 -33.5 -12.5s-19.167 -20.5 -24.5 -36.5v-309c7.33301 0.666992 14.666 1 21.999 1h22zM266.004 442.999c-16.667 0 -30.8311 -6.50098 -42.498 -19.501
s-21.334 -29.167 -29.001 -48.5s-13.167 -40.666 -16.5 -63.999s-5 -45.333 -5 -66c0 -33.333 2.66699 -59 8 -77s11.666 -31.167 18.999 -39.5s15.333 -13.333 24 -15s16 -2.5 22 -2.5c6.66699 0 13.5 1.5 20.5 4.5s13.833 7.5 20.5 13.5s12.334 13.333 17.001 22
s8 19 10 31v226c-2 6.66699 -6.83301 14.167 -14.5 22.5s-18.834 12.5 -33.501 12.5zM233.007 -130.002c0 -10 3.99805 -19.5 11.998 -28.5s18 -13.5 30 -13.5c10.667 0 19.834 7.33301 27.501 22s11.5 37 11.5 67v29c-21.333 -9.33301 -40.166 -20 -56.499 -32
s-24.5 -26.667 -24.5 -44z" />
    <glyph glyph-name="g_x" unicode="gx" horiz-adv-x="913" 
d="M458 500v-462c16 6 31.667 13.167 47 21.5s30.666 18.5 45.999 30.5s30.5 26.333 45.5 43s30.5 36.667 46.5 60l-121 307h141l85 -215c24.667 34 44 63.333 58 88s21 47 21 67c0 6 -0.333008 10.667 -1 14c-4.66699 -0.666992 -7.33398 -1.16699 -8.00098 -1.5
s-3 -0.5 -7 -0.5c-21.333 0 -37 6 -47 18s-15 25 -15 39c0 17.333 6.33301 30.833 19 40.5s27 14.5 43 14.5c18.667 0 36 -7.16699 52 -21.5s24 -37.5 24 -69.5c0 -16.667 -3 -35 -9 -55s-14.167 -40.833 -24.5 -62.5s-22.5 -43.667 -36.5 -66s-29 -44.166 -45 -65.499
l18 -45l12.5 -29.5c4.33301 -10.333 9.5 -19.833 15.5 -28.5s13 -15.834 21 -21.501s17.667 -8.5 29 -8.5c19.333 0 35.333 8.33301 48 25s20.334 37.667 23.001 63h42c-6 -40.667 -15.5 -73.167 -28.5 -97.5s-27.5 -43 -43.5 -56s-32.5 -21.5 -49.5 -25.5
s-32.167 -6 -45.5 -6c-32 0 -58.833 10.833 -80.5 32.5s-43.167 56.5 -64.5 104.5c-14 -20 -29.667 -37.333 -47 -52s-35.333 -27.334 -54 -38.001s-37.5 -19.834 -56.5 -27.501s-36.833 -14.167 -53.5 -19.5v-74c0 -36 -4.33301 -65 -13 -87s-20 -39.167 -34 -51.5
s-29.5 -20.666 -46.5 -24.999s-33.833 -6.5 -50.5 -6.5c-17.333 0 -34.166 2.5 -50.499 7.5s-30.833 12.333 -43.5 22s-22.667 21.667 -30 36s-11 31.166 -11 50.499c0 15.333 4 29.333 12 42s18.5 24.167 31.5 34.5s27.5 19.666 43.5 27.999s32 15.5 48 21.5v88
c-10.667 -18 -24.667 -33.5 -42 -46.5s-40.666 -19.5 -69.999 -19.5c-21.333 0 -42.333 3.83301 -63 11.5s-39.334 20.334 -56.001 38.001s-30.167 40.834 -40.5 69.501s-15.5 63.667 -15.5 105c0 28.667 3.5 58.834 10.5 90.501s18.167 60.5 33.5 86.5s35.5 47.5 60.5 64.5
s55.167 25.5 90.5 25.5c8 0 16.5 -0.5 25.5 -1.5s17.833 -3.16699 26.5 -6.5s16.5 -8.33301 23.5 -15s12.5 -15.667 16.5 -27v45h144zM266 443c-16.667 0 -30.8311 -6.50098 -42.498 -19.501s-21.334 -29.167 -29.001 -48.5s-13.167 -40.666 -16.5 -63.999
s-5 -45.333 -5 -66c0 -33.333 2.66699 -59 8 -77s11.666 -31.167 18.999 -39.5s15.333 -13.333 24 -15s16 -2.5 22 -2.5c6.66699 0 13.5 1.5 20.5 4.5s13.833 7.5 20.5 13.5s12.334 13.333 17.001 22s8 19 10 31v226c-2 6.66699 -6.83301 14.167 -14.5 22.5
s-18.834 12.5 -33.501 12.5zM233.003 -130.001c0 -10 3.83008 -19.501 11.4971 -28.501s17.834 -13.5 30.501 -13.5c10.667 0 19.834 7.33301 27.501 22s11.5 37 11.5 67v29c-21.333 -8.66699 -40.166 -19.167 -56.499 -31.5s-24.5 -27.166 -24.5 -44.499z" />
    <glyph glyph-name="g_z" unicode="g&#x7a;" horiz-adv-x="907" 
d="M458 500l-0.000976562 -580c0 -36 -4.33301 -65 -13 -87s-19.834 -39.167 -33.501 -51.5s-28.667 -20.666 -45 -24.999s-32.166 -6.5 -47.499 -6.5c-19.333 0 -37.5 2.66699 -54.5 8s-31.667 12.833 -44 22.5s-22.166 21.5 -29.499 35.5s-11 29.667 -11 47
c0 18 3.83301 34.167 11.5 48.5s17.834 26.833 30.501 37.5s27 19.834 43 27.501s32.333 14.167 49 19.5v84c-11.333 -18.667 -25.833 -34.334 -43.5 -47.001s-40.834 -19 -69.501 -19c-20.667 0 -41.334 4 -62.001 12s-39.334 20.667 -56.001 38
s-30.167 40.166 -40.5 68.499s-15.5 62.5 -15.5 102.5c0 30 3.33301 60.833 10 92.5s17.834 60.667 33.501 87s36.334 48 62.001 65s57.167 25.5 94.5 25.5c6.66699 0 14.167 -0.5 22.5 -1.5s16.5 -3.16699 24.5 -6.5s15.667 -8.33301 23 -15s13 -15.667 17 -27v45h144z
M843.999 91c-8 0.666992 -13.9971 3.50195 -17.9971 8.50195s-6 10.833 -6 17.5c0 8.66699 3.66699 17.167 11 25.5s19.333 12.5 36 12.5c18.667 0 32.667 -6.16699 42 -18.5s14 -26.833 14 -43.5c0 -10.667 -2 -21.5 -6 -32.5s-10.333 -21 -19 -30
s-19.334 -16.333 -32.001 -22s-27.334 -8.5 -44.001 -8.5h-276l196 446h-74c-14.667 0 -26.834 -0.833008 -36.501 -2.5s-14.5 -5.5 -14.5 -11.5c0 -2.66699 0.833008 -4 2.5 -4s3.66699 -0.666992 6 -2s4.33301 -4 6 -8s2.5 -11 2.5 -21
c0 -14.667 -4.5 -25.334 -13.5 -32.001s-19.167 -10 -30.5 -10c-13.333 0 -26.166 4.5 -38.499 13.5s-18.5 22.833 -18.5 41.5c0 10 2 20.167 6 30.5s10 20 18 29s18 16.333 30 22s26 8.5 42 8.5h275l-191 -423c4 0 9.66699 -0.333008 17 -1
s15.166 -1.33398 23.499 -2.00098l25 -2c8.33301 -0.666992 15.833 -1 22.5 -1c12 0 22.167 1.33301 30.5 4s12.5 8 12.5 16zM266.002 443.002c-16.667 0 -30.8291 -6.33398 -42.4961 -19.001s-21.334 -28.834 -29.001 -48.501s-13.167 -41.5 -16.5 -65.5s-5 -47.333 -5 -70
c0 -31.333 2.66699 -55.666 8 -72.999s11.666 -30.166 18.999 -38.499s14.666 -13.333 21.999 -15s13 -2.5 17 -2.5c21.333 0 38.5 7 51.5 21s20.833 31.667 23.5 53v223c-2 6.66699 -6.83301 14.167 -14.5 22.5s-18.834 12.5 -33.501 12.5zM233.007 -128.999
c0 -12.667 4.33203 -23.001 12.999 -31.001s17.667 -12 27 -12c12 0 21.833 7.33301 29.5 22s11.5 37 11.5 67v29c-23.333 -9.33301 -42.666 -20.166 -57.999 -32.499s-23 -26.5 -23 -42.5z" />
    <glyph glyph-name="i_x" unicode="ix" horiz-adv-x="635" 
d="M191 500l0.00292969 -339.998c0 -24.667 4.66699 -42.167 14 -52.5s23 -15.5 41 -15.5c25.333 0 50.833 8.66699 76.5 26s46.5 39.666 62.5 66.999l-124 315h141l84 -213c24 33.333 42.833 62.333 56.5 87s20.5 46.667 20.5 66c0 6 -0.333008 10.667 -1 14
c-4.66699 -0.666992 -7.33398 -1.16699 -8.00098 -1.5s-3 -0.5 -7 -0.5c-21.333 0 -37 6 -47 18s-15 25 -15 39c0 17.333 6.33301 30.833 19 40.5s27 14.5 43 14.5c18.667 0 36 -7.16699 52 -21.5s24 -37.5 24 -69.5c0 -16.667 -3 -34.834 -9 -54.501s-14 -40.167 -24 -61.5
s-21.833 -43.166 -35.5 -65.499s-28.5 -44.166 -44.5 -65.499l19 -47l12.5 -29.5c4.33301 -10.333 9.5 -19.833 15.5 -28.5s13 -15.834 21 -21.501s17.667 -8.5 29 -8.5c19.333 0 35.5 8.33301 48.5 25s20.5 37.667 22.5 63h42c-5.33301 -40.667 -14.5 -73.167 -27.5 -97.5
s-27.5 -43 -43.5 -56s-32.5 -21.5 -49.5 -25.5s-32.167 -6 -45.5 -6c-32 0 -59 10.833 -81 32.5s-43.667 56.5 -65 104.5c-12.667 -18 -27.334 -35.333 -44.001 -52s-34.834 -31.334 -54.501 -44.001s-40.5 -22.667 -62.5 -30s-44.333 -11 -67 -11
c-38.667 0 -70.5 14.667 -95.5 44s-37.5 76.333 -37.5 141v321h144zM36.0029 633.002c0 22 7.66699 40.833 23 56.5s34 23.5 56 23.5s40.833 -7.83301 56.5 -23.5s23.5 -34.5 23.5 -56.5s-7.83301 -40.667 -23.5 -56s-34.5 -23 -56.5 -23s-40.667 7.66699 -56 23
s-23 34 -23 56z" />
    <glyph glyph-name="i_z" unicode="i&#x7a;" horiz-adv-x="637" 
d="M36 633c0 22 7.66699 40.833 23 56.5s34 23.5 56 23.5s40.833 -7.83301 56.5 -23.5s23.5 -34.5 23.5 -56.5s-7.83301 -40.667 -23.5 -56s-34.5 -23 -56.5 -23s-40.667 7.66699 -56 23s-23 34 -23 56zM191 500v-340c0 -28 3.83301 -46.5 11.5 -55.5
s21.167 -13.5 40.5 -13.5c8.66699 0 15.167 0.666992 19.5 2s8.16602 2.66602 11.499 3.99902c0.666992 -3.33301 1 -6.66602 1 -9.99902v-10c0 -16.667 -2.83301 -30.334 -8.5 -41.001s-13 -19.167 -22 -25.5s-18.667 -10.666 -29 -12.999s-20.166 -3.5 -29.499 -3.5
c-51.333 0 -87.333 14.167 -108 42.5s-31 65.833 -31 112.5v351h144zM574 91c-8 0.666992 -13.9971 3.50195 -17.9971 8.50195s-6 10.833 -6 17.5c0 8.66699 3.66699 17.167 11 25.5s19.333 12.5 36 12.5c18.667 0 32.667 -6.16699 42 -18.5s14 -26.833 14 -43.5
c0 -10.667 -2 -21.5 -6 -32.5s-10.333 -21 -19 -30s-19.334 -16.333 -32.001 -22s-27.334 -8.5 -44.001 -8.5h-276l196 446h-74c-14.667 0 -26.834 -0.833008 -36.501 -2.5s-14.5 -5.5 -14.5 -11.5c0 -2.66699 0.833008 -4 2.5 -4s3.66699 -0.666992 6 -2s4.33301 -4 6 -8
s2.5 -11 2.5 -21c0 -14.667 -4.5 -25.334 -13.5 -32.001s-19.167 -10 -30.5 -10c-13.333 0 -26.166 4.5 -38.499 13.5s-18.5 22.833 -18.5 41.5c0 10 2 20.167 6 30.5s10 20 18 29s18 16.333 30 22s26 8.5 42 8.5h275l-191 -423c4 0 9.66699 -0.333008 17 -1
s15.166 -1.33398 23.499 -2.00098l25 -2c8.33301 -0.666992 15.833 -1 22.5 -1c12 0 22.167 1.33301 30.5 4s12.5 8 12.5 16z" />
    <glyph glyph-name="iacute_x" unicode="&#xed;x" horiz-adv-x="635" 
d="M191 500l0.00292969 -339.998c0 -24.667 4.66699 -42.167 14 -52.5s23 -15.5 41 -15.5c25.333 0 50.833 8.66699 76.5 26s46.5 39.666 62.5 66.999l-124 315h141l84 -213c24 33.333 42.833 62.333 56.5 87s20.5 46.667 20.5 66c0 6 -0.333008 10.667 -1 14
c-4.66699 -0.666992 -7.33398 -1.16699 -8.00098 -1.5s-3 -0.5 -7 -0.5c-21.333 0 -37 6 -47 18s-15 25 -15 39c0 17.333 6.33301 30.833 19 40.5s27 14.5 43 14.5c18.667 0 36 -7.16699 52 -21.5s24 -37.5 24 -69.5c0 -16.667 -3 -34.834 -9 -54.501s-14 -40.167 -24 -61.5
s-21.833 -43.166 -35.5 -65.499s-28.5 -44.166 -44.5 -65.499l19 -47l12.5 -29.5c4.33301 -10.333 9.5 -19.833 15.5 -28.5s13 -15.834 21 -21.501s17.667 -8.5 29 -8.5c19.333 0 35.5 8.33301 48.5 25s20.5 37.667 22.5 63h42c-5.33301 -40.667 -14.5 -73.167 -27.5 -97.5
s-27.5 -43 -43.5 -56s-32.5 -21.5 -49.5 -25.5s-32.167 -6 -45.5 -6c-32 0 -59 10.833 -81 32.5s-43.667 56.5 -65 104.5c-12.667 -18 -27.334 -35.333 -44.001 -52s-34.834 -31.334 -54.501 -44.001s-40.5 -22.667 -62.5 -30s-44.333 -11 -67 -11
c-38.667 0 -70.5 14.667 -95.5 44s-37.5 76.333 -37.5 141v321h144zM129.003 750.002h105l-81 -189h-75z" />
    <glyph glyph-name="iacute_z" unicode="&#xed;&#x7a;" horiz-adv-x="637" 
d="M191 500v-340c0 -28 3.83301 -46.5 11.5 -55.5s21.167 -13.5 40.5 -13.5c8.66699 0 15.167 0.666992 19.5 2s8.16602 2.66602 11.499 3.99902c0.666992 -3.33301 1 -6.66602 1 -9.99902v-10c0 -16.667 -2.83301 -30.334 -8.5 -41.001s-13 -19.167 -22 -25.5
s-18.667 -10.666 -29 -12.999s-20.166 -3.5 -29.499 -3.5c-51.333 0 -87.333 14.167 -108 42.5s-31 65.833 -31 112.5v351h144zM574 91c-8 0.666992 -13.9971 3.50195 -17.9971 8.50195s-6 10.833 -6 17.5c0 8.66699 3.66699 17.167 11 25.5s19.333 12.5 36 12.5
c18.667 0 32.667 -6.16699 42 -18.5s14 -26.833 14 -43.5c0 -10.667 -2 -21.5 -6 -32.5s-10.333 -21 -19 -30s-19.334 -16.333 -32.001 -22s-27.334 -8.5 -44.001 -8.5h-276l196 446h-74c-14.667 0 -26.834 -0.833008 -36.501 -2.5s-14.5 -5.5 -14.5 -11.5
c0 -2.66699 0.833008 -4 2.5 -4s3.66699 -0.666992 6 -2s4.33301 -4 6 -8s2.5 -11 2.5 -21c0 -14.667 -4.5 -25.334 -13.5 -32.001s-19.167 -10 -30.5 -10c-13.333 0 -26.166 4.5 -38.499 13.5s-18.5 22.833 -18.5 41.5c0 10 2 20.167 6 30.5s10 20 18 29s18 16.333 30 22
s26 8.5 42 8.5h275l-191 -423c4 0 9.66699 -0.333008 17 -1s15.166 -1.33398 23.499 -2.00098l25 -2c8.33301 -0.666992 15.833 -1 22.5 -1c12 0 22.167 1.33301 30.5 4s12.5 8 12.5 16zM128.003 750.002h105l-81 -189h-75z" />
    <glyph glyph-name="j_x" unicode="jx" horiz-adv-x="627" 
d="M191 500l0.00195312 -461.996c16 6 31.667 13.167 47 21.5s30.666 18.5 45.999 30.5s30.5 26.333 45.5 43s30.5 36.667 46.5 60l-121 307h141l88 -223c26.667 36 47.5 67 62.5 93s22.5 49.333 22.5 70c0 6 -0.333008 10.667 -1 14
c-4.66699 -0.666992 -7.33398 -1.16699 -8.00098 -1.5s-3 -0.5 -7 -0.5c-21.333 0 -37 6 -47 18s-15 25 -15 39c0 17.333 6.33301 30.833 19 40.5s27 14.5 43 14.5c18.667 0 36 -7.16699 52 -21.5s24 -37.5 24 -69.5c0 -17.333 -3.16699 -36.333 -9.5 -57
s-15 -42.167 -26 -64.5s-23.833 -45 -38.5 -68s-30.334 -45.5 -47.001 -67.5l15 -37l12.5 -29.5c4.33301 -10.333 9.5 -19.833 15.5 -28.5s13 -15.834 21 -21.501s17.667 -8.5 29 -8.5c19.333 0 35.5 8.33301 48.5 25s20.5 37.667 22.5 63h42
c-5.33301 -40.667 -14.5 -73.167 -27.5 -97.5s-27.667 -43 -44 -56s-33 -21.5 -50 -25.5s-32.167 -6 -45.5 -6c-32 0 -58.833 10.833 -80.5 32.5s-43.167 56.5 -64.5 104.5c-14 -20 -29.667 -37.333 -47 -52s-35.333 -27.334 -54 -38.001s-37.5 -19.834 -56.5 -27.501
s-36.833 -14.167 -53.5 -19.5v-74c0 -36 -4.33301 -65 -13 -87s-20 -39.167 -34 -51.5s-29.5 -20.666 -46.5 -24.999s-33.833 -6.5 -50.5 -6.5c-17.333 0 -34.166 2.5 -50.499 7.5s-30.833 12.333 -43.5 22s-22.667 21.667 -30 36s-11 31.166 -11 50.499
c0 15.333 4 29.333 12 42s18.5 24.167 31.5 34.5s27.5 19.666 43.5 27.999s32 15.5 48 21.5v508h144zM39.002 633.004c0 22 7.66699 40.833 23 56.5s34 23.5 56 23.5s40.833 -7.83301 56.5 -23.5s23.5 -34.5 23.5 -56.5s-7.83301 -40.667 -23.5 -56s-34.5 -23 -56.5 -23
s-40.667 7.66699 -56 23s-23 34 -23 56zM-33.998 -129.996c0 -10 3.83008 -19.501 11.4971 -28.501s17.834 -13.5 30.501 -13.5c10.667 0 19.834 7.33301 27.501 22s11.5 37 11.5 67v29c-21.333 -8.66699 -40.166 -19.167 -56.499 -31.5s-24.5 -27.166 -24.5 -44.499z" />
    <glyph glyph-name="j_z" unicode="j&#x7a;" horiz-adv-x="615" 
d="M191 500l-0.000976562 -580.004c0 -35.333 -4.33301 -64.166 -13 -86.499s-19.834 -39.666 -33.501 -51.999s-28.667 -20.666 -45 -24.999s-32.166 -6.5 -47.499 -6.5c-19.333 0 -37.5 2.66699 -54.5 8s-31.667 12.833 -44 22.5s-22.166 21.5 -29.499 35.5
s-11 29.667 -11 47c0 18 4 34.167 12 48.5s18.333 26.833 31 37.5s27 19.834 43 27.501s32 14.167 48 19.5v504h144zM551.999 90.9961c-8 0.666992 -13.9971 3.50195 -17.9971 8.50195s-6 10.833 -6 17.5c0 8.66699 3.66699 17.167 11 25.5s19.333 12.5 36 12.5
c18.667 0 32.667 -6.16699 42 -18.5s14 -26.833 14 -43.5c0 -10.667 -2 -21.5 -6 -32.5s-10.333 -21 -19 -30s-19.334 -16.333 -32.001 -22s-27.334 -8.5 -44.001 -8.5h-276l196 446h-74c-14.667 0 -26.834 -0.833008 -36.501 -2.5s-14.5 -5.5 -14.5 -11.5
c0 -2.66699 0.833008 -4 2.5 -4s3.66699 -0.666992 6 -2s4.33301 -4 6 -8s2.5 -11 2.5 -21c0 -14.667 -4.5 -25.334 -13.5 -32.001s-19.167 -10 -30.5 -10c-13.333 0 -26.166 4.5 -38.499 13.5s-18.5 22.833 -18.5 41.5c0 10 2 20.167 6 30.5s10 20 18 29s18 16.333 30 22
s26 8.5 42 8.5h275l-191 -423c4 0 9.66699 -0.333008 17 -1s15.166 -1.33398 23.499 -2.00098l25 -2c8.33301 -0.666992 15.833 -1 22.5 -1c12 0 22.167 1.33301 30.5 4s12.5 8 12.5 16zM38.002 632.998c0 22 7.66699 40.833 23 56.5s34 23.5 56 23.5
s40.833 -7.83301 56.5 -23.5s23.5 -34.5 23.5 -56.5s-7.83301 -40.667 -23.5 -56s-34.5 -23 -56.5 -23s-40.667 7.66699 -56 23s-23 34 -23 56zM-33.998 -128.002c0 -13.333 4.50098 -24 13.501 -32s18.167 -12 27.5 -12c12 0 21.667 7.33301 29 22s11 37 11 67v29
c-22.667 -9.33301 -41.834 -20 -57.501 -32s-23.5 -26 -23.5 -42z" />
    <glyph glyph-name="l_x" unicode="lx" horiz-adv-x="649" 
d="M47 680l143.998 20.001v-540c0 -21.333 4.33301 -38 13 -50s22.667 -18 42 -18c25.333 0 50.833 8.5 76.5 25.5s46.5 39.167 62.5 66.5l-125 316h141l84 -213c24.667 33.333 43.834 62.333 57.501 87s20.5 46.667 20.5 66c0 6 -0.333008 10.667 -1 14
c-4.66699 -0.666992 -7.33398 -1.16699 -8.00098 -1.5s-3 -0.5 -7 -0.5c-21.333 0 -37 6 -47 18s-15 25 -15 39c0 17.333 6.33301 30.833 19 40.5s27 14.5 43 14.5c18.667 0 36 -7.16699 52 -21.5s24 -37.5 24 -69.5c0 -16.667 -3 -34.834 -9 -54.501
s-14 -40.334 -24 -62.001s-22 -43.5 -36 -65.5s-29 -43.667 -45 -65l19 -47l12.5 -30.5c4.33301 -10.333 9.5 -19.666 15.5 -27.999s13 -15.333 21 -21s17.667 -8.5 29 -8.5c19.333 0 35.5 8.33301 48.5 25s20.5 37.667 22.5 63h42
c-5.33301 -40.667 -14.5 -73.167 -27.5 -97.5s-27.5 -43 -43.5 -56s-32.5 -21.5 -49.5 -25.5s-32.167 -6 -45.5 -6c-31.333 0 -58.166 10.667 -80.499 32s-44.166 56 -65.499 104c-12.667 -18 -27 -35.167 -43 -51.5s-33.5 -30.833 -52.5 -43.5s-39.167 -22.667 -60.5 -30
s-43.333 -11 -66 -11c-19.333 0 -37.333 3.66699 -54 11s-31.167 18.5 -43.5 33.5s-22 34.167 -29 57.5s-10.5 51 -10.5 83z" />
    <glyph glyph-name="l_z" unicode="l&#x7a;" horiz-adv-x="635" 
d="M191 700l0.000976562 -540c0 -28 3.83301 -46.5 11.5 -55.5s21.167 -13.5 40.5 -13.5c7.33301 0 13.166 0.833008 17.499 2.5s7.83301 3.5 10.5 5.5c0.666992 -3.33301 1 -6.83301 1 -10.5v-10.5c0 -28 -8.16699 -49 -24.5 -63s-36.833 -21 -61.5 -21
c-51.333 0 -87.333 14.167 -108 42.5s-31 65.833 -31 112.5v531zM572.001 91c-8 0.666992 -13.9971 3.50195 -17.9971 8.50195s-6 10.833 -6 17.5c0 8.66699 3.66699 17.167 11 25.5s19.333 12.5 36 12.5c18.667 0 32.667 -6.16699 42 -18.5s14 -26.833 14 -43.5
c0 -10.667 -2 -21.5 -6 -32.5s-10.333 -21 -19 -30s-19.334 -16.333 -32.001 -22s-27.334 -8.5 -44.001 -8.5h-276l196 446h-74c-14.667 0 -26.834 -0.833008 -36.501 -2.5s-14.5 -5.5 -14.5 -11.5c0 -2.66699 0.833008 -4 2.5 -4s3.66699 -0.666992 6 -2s4.33301 -4 6 -8
s2.5 -11 2.5 -21c0 -14.667 -4.5 -25.334 -13.5 -32.001s-19.167 -10 -30.5 -10c-13.333 0 -26.166 4.5 -38.499 13.5s-18.5 22.833 -18.5 41.5c0 10 2 20.167 6 30.5s10 20 18 29s18 16.333 30 22s26 8.5 42 8.5h275l-191 -423c4 0 9.66699 -0.333008 17 -1
s15.166 -1.33398 23.499 -2.00098l25 -2c8.33301 -0.666992 15.833 -1 22.5 -1c12 0 22.167 1.33301 30.5 4s12.5 8 12.5 16z" />
    <glyph glyph-name="m_x" unicode="mx" horiz-adv-x="1144" 
d="M895 500l84 -214.009c24.667 34 44 63.333 58 88s21 46.667 21 66c0 6 -0.333008 10.667 -1 14c-4.66699 -0.666992 -7.33398 -1.16699 -8.00098 -1.5s-3 -0.5 -7 -0.5c-21.333 0 -37 6 -47 18s-15 25 -15 39c0 17.333 6.33301 30.833 19 40.5s27 14.5 43 14.5
c18.667 0 36 -7.16699 52 -21.5s24 -36.833 24 -67.5c0 -17.333 -3 -36.166 -9 -56.499s-14 -41.166 -24 -62.499s-22 -43.166 -36 -65.499s-29 -44.166 -45 -65.499l18 -46l12.5 -30.5c4.33301 -10.333 9.5 -19.666 15.5 -27.999s13 -15.333 21 -21s17.667 -8.5 29 -8.5
c19.333 0 35.5 8.33301 48.5 25s20.5 37.667 22.5 63h42c-5.33301 -40.667 -14.5 -73.167 -27.5 -97.5s-27.5 -43 -43.5 -56s-32.5 -21.5 -49.5 -25.5s-32.167 -6 -45.5 -6c-32 0 -59 10.833 -81 32.5s-44 56.834 -66 105.501c-13.333 -18 -28.5 -35.333 -45.5 -52
s-34.833 -31.334 -53.5 -44.001s-37.5 -22.834 -56.5 -30.501s-37.5 -11.5 -55.5 -11.5c-28 0 -51.167 4.83301 -69.5 14.5s-32.833 22.834 -43.5 39.501s-18.167 36 -22.5 58s-6.5 45.333 -6.5 70c0 8.66699 0.166992 18.834 0.5 30.501s0.5 23.334 0.5 35.001
s0.166992 23 0.5 34s0.5 20.5 0.5 28.5c0 39.333 -4.66699 67.333 -14 84s-22.333 25 -39 25c-18 0 -31.667 -9 -41 -27s-15 -39.667 -17 -65v-321h-144v345c0 7.33301 -0.666992 15 -2 23s-3.5 15.5 -6.5 22.5s-7.33301 12.667 -13 17s-12.5 6.5 -20.5 6.5
c-19.333 0 -33.833 -9.16699 -43.5 -27.5s-15.5 -40.166 -17.5 -65.499v-321h-144v500h144v-52c16 24 34 39.5 54 46.5s38.667 10.5 56 10.5c24.667 0 48 -6.5 70 -19.5s39 -34.833 51 -65.5c8 18 17.167 32.5 27.5 43.5s20.833 19.5 31.5 25.5s21.334 10 32.001 12
s20.667 3 30 3c19.333 0 37.666 -3 54.999 -9s32.5 -16 45.5 -30s23.167 -32.5 30.5 -55.5s11 -51.5 11 -85.5c0 -11.333 -0.166992 -23.5 -0.5 -36.5s-0.833008 -26.167 -1.5 -39.5s-1.16699 -26.333 -1.5 -39s-0.5 -23.667 -0.5 -33c0 -31.333 4.83301 -53.333 14.5 -66
s23.834 -19 42.501 -19c11.333 0 23.5 2.33301 36.5 7s25.833 11.334 38.5 20.001s24.667 18.667 36 30s21 24 29 38l-124 314h141z" />
    <glyph glyph-name="m_z" unicode="m&#x7a;" horiz-adv-x="1125" 
d="M549 302c0 40 -4.66602 68.502 -13.999 85.502s-22 25.5 -38 25.5c-19.333 0 -33.5 -9.16699 -42.5 -27.5s-14.5 -39.833 -16.5 -64.5v-321h-144v345c0 7.33301 -0.666992 15 -2 23s-3.5 15.5 -6.5 22.5s-7.33301 12.667 -13 17s-12.834 6.5 -21.501 6.5
c-18 0 -32 -9 -42 -27s-16 -40 -18 -66v-321h-144v500h144v-52c16.667 24.667 34.834 40.334 54.501 47.001s36.834 10 51.501 10c26 0 50.333 -6.66699 73 -20s40 -35 52 -65c8 18 17 32.5 27 43.5s20.5 19.5 31.5 25.5s22 10 33 12s21.5 3 31.5 3
c18.667 0 36.5 -3 53.5 -9s32 -16.167 45 -30.5s23.167 -33.333 30.5 -57s11 -52.834 11 -87.501c0 -8.66699 -0.166992 -19.334 -0.5 -32.001s-0.833008 -25.834 -1.5 -39.501s-1.16699 -27 -1.5 -40s-0.5 -23.833 -0.5 -32.5c0 -29.333 3.66699 -50.833 11 -64.5
s22.666 -20.5 45.999 -20.5c13.333 0 22.666 2 27.999 6c0 -36.667 -7.5 -63 -22.5 -79s-37.5 -24 -67.5 -24c-24 0 -44.333 4.83301 -61 14.5s-30 23 -40 40s-17.167 36.667 -21.5 59s-6.5 46.5 -6.5 72.5c0 6.66699 0.166992 15.5 0.5 26.5s0.5 22.5 0.5 34.5
s0.166992 23.667 0.5 35s0.5 20 0.5 26zM1062 91.002c-8 0.666992 -13.9971 3.50195 -17.9971 8.50195s-6 10.833 -6 17.5c0 8.66699 3.66699 17.167 11 25.5s19.333 12.5 36 12.5c18.667 0 32.667 -6.16699 42 -18.5s14 -26.833 14 -43.5c0 -10.667 -2 -21.5 -6 -32.5
s-10.333 -21 -19 -30s-19.334 -16.333 -32.001 -22s-27.334 -8.5 -44.001 -8.5h-276l196 446h-74c-14.667 0 -26.834 -0.833008 -36.501 -2.5s-14.5 -5.5 -14.5 -11.5c0 -2.66699 0.833008 -4 2.5 -4s3.66699 -0.666992 6 -2s4.33301 -4 6 -8s2.5 -11 2.5 -21
c0 -14.667 -4.5 -25.334 -13.5 -32.001s-19.167 -10 -30.5 -10c-13.333 0 -26.166 4.5 -38.499 13.5s-18.5 22.833 -18.5 41.5c0 10 2 20.167 6 30.5s10 20 18 29s18 16.333 30 22s26 8.5 42 8.5h275l-191 -423c4 0 9.66699 -0.333008 17 -1
s15.166 -1.33398 23.499 -2.00098l25 -2c8.33301 -0.666992 15.833 -1 22.5 -1c12 0 22.167 1.33301 30.5 4s12.5 8 12.5 16z" />
    <glyph glyph-name="n_z" unicode="n&#x7a;" horiz-adv-x="882" 
d="M302 304c0 39.333 -4.49805 67.3301 -13.498 83.9971s-22.167 25 -39.5 25c-18 0 -31.667 -9 -41 -27s-15 -39.667 -17 -65v-321h-144v500h144v-52c16 24 33.667 39.333 53 46s36.666 10 51.999 10c19.333 0 37.666 -3 54.999 -9s32.5 -16 45.5 -30
s23.167 -32.5 30.5 -55.5s11 -51.5 11 -85.5c0 -11.333 -0.166992 -23.5 -0.5 -36.5s-0.833008 -26.167 -1.5 -39.5s-1.16699 -26.333 -1.5 -39s-0.5 -23.667 -0.5 -33c0 -28 3.5 -49.167 10.5 -63.5s21.167 -21.5 42.5 -21.5c16 0 26.667 2 32 6
c0 -36 -7.5 -62.167 -22.5 -78.5s-36.833 -24.5 -65.5 -24.5c-24.667 0 -45.334 4.83301 -62.001 14.5s-30.167 22.834 -40.5 39.501s-17.666 36 -21.999 58s-6.5 45.333 -6.5 70c0 8.66699 0.166992 18.834 0.5 30.501s0.5 23.334 0.5 35.001s0.166992 23 0.5 34
s0.5 20.5 0.5 28.5zM819.002 90.9971c-8 0.666992 -13.9971 3.50195 -17.9971 8.50195s-6 10.833 -6 17.5c0 8.66699 3.66699 17.167 11 25.5s19.333 12.5 36 12.5c18.667 0 32.667 -6.16699 42 -18.5s14 -26.833 14 -43.5c0 -10.667 -2 -21.5 -6 -32.5s-10.333 -21 -19 -30
s-19.334 -16.333 -32.001 -22s-27.334 -8.5 -44.001 -8.5h-276l196 446h-74c-14.667 0 -26.834 -0.833008 -36.501 -2.5s-14.5 -5.5 -14.5 -11.5c0 -2.66699 0.833008 -4 2.5 -4s3.66699 -0.666992 6 -2s4.33301 -4 6 -8s2.5 -11 2.5 -21
c0 -14.667 -4.5 -25.334 -13.5 -32.001s-19.167 -10 -30.5 -10c-13.333 0 -26.166 4.5 -38.499 13.5s-18.5 22.833 -18.5 41.5c0 10 2 20.167 6 30.5s10 20 18 29s18 16.333 30 22s26 8.5 42 8.5h275l-191 -423c4 0 9.66699 -0.333008 17 -1
s15.166 -1.33398 23.499 -2.00098l25 -2c8.33301 -0.666992 15.833 -1 22.5 -1c12 0 22.167 1.33301 30.5 4s12.5 8 12.5 16z" />
    <glyph glyph-name="o_ae" unicode="o&#xe6;" horiz-adv-x="1088" 
d="M244 505c44 0 79.333 -11.334 106 -34.001s44.667 -59 54 -109c26 12.667 47.833 27.167 65.5 43.5s35.334 31.833 53.001 46.5s36.834 27.167 57.501 37.5s47 15.5 79 15.5c34.667 0 65.167 -3.5 91.5 -10.5s49.5 -18.167 69.5 -33.5c15.333 13.333 32.833 24 52.5 32
s42.167 12 67.5 12c88.667 0 133 -41 133 -123c0 -24 -5 -46.667 -15 -68s-23.5 -40 -40.5 -56s-37.167 -29 -60.5 -39s-48.333 -15.667 -75 -17c2.66699 -46.667 11.167 -79 25.5 -97s34.5 -27 60.5 -27c24 0 44.333 2.33301 61 7s31.167 11.5 43.5 20.5
s23.333 19.667 33 32s19.834 26.166 30.501 41.499h34c-9.33301 -22.667 -20.5 -45 -33.5 -67s-29 -41.833 -48 -59.5s-41.167 -31.834 -66.5 -42.501s-55 -16 -89 -16c-37.333 0 -70.5 7.16699 -99.5 21.5s-52.167 37.5 -69.5 69.5c-4 -11.333 -8.83301 -22.5 -14.5 -33.5
s-12.834 -20.667 -21.501 -29s-19.334 -15.166 -32.001 -20.499s-28 -8 -46 -8c-20.667 0 -40.834 2.33301 -60.501 7s-37.334 13.334 -53.001 26.001s-28.167 29.5 -37.5 50.5s-14 48.167 -14 81.5c0 24 4.83301 44.333 14.5 61s23.167 30.167 40.5 40.5s38 17.833 62 22.5
s50.667 7 80 7c10 0 18.833 -0.333008 26.5 -1s14.5 -1.66699 20.5 -3c2 9.33301 3.5 19.5 4.5 30.5s1.5 21.167 1.5 30.5c0 13.333 -1.5 26 -4.5 38s-7.83301 22.5 -14.5 31.5s-15.5 16.167 -26.5 21.5s-24.5 8 -40.5 8c-28 0 -50.333 -4.5 -67 -13.5
s-32.5 -20.167 -47.5 -33.5l-50 -42.5c-18.333 -15 -43.166 -28.5 -74.499 -40.5c0.666992 -7.33301 1.16699 -14.666 1.5 -21.999s0.5 -15 0.5 -23c0 -38.667 -3.33301 -74.834 -10 -108.501s-17.834 -63 -33.501 -88s-35.834 -44.667 -60.501 -59s-55 -21.5 -91 -21.5
c-24.667 0 -48.167 3.83301 -70.5 11.5s-42.166 20.334 -59.499 38.001s-31.166 41 -41.499 70s-15.5 64.5 -15.5 106.5c0 28.667 3 59.5 9 92.5s17 63.833 33 92.5s37.833 52.5 65.5 71.5s63.167 28.5 106.5 28.5zM245 87.999c14 0 26.168 4.83398 36.501 14.501
s18.833 23 25.5 40s11.5 37.167 14.5 60.5s4.5 48.666 4.5 75.999v16c-14.667 1.33301 -25.334 8.16602 -32.001 20.499s-10 25.833 -10 40.5c0 21.333 8.66699 35.333 26 42c-7.33301 19.333 -15.833 32 -25.5 38s-18.167 9 -25.5 9
c-14.667 0 -27.167 -6.83301 -37.5 -20.5s-18.833 -31 -25.5 -52s-11.5 -44.167 -14.5 -69.5s-4.5 -49.666 -4.5 -72.999c0 -30 2.16699 -54.333 6.5 -73s9.83301 -33 16.5 -43s14 -16.833 22 -20.5s15.667 -5.5 23 -5.5zM995.001 387c0 26.667 -3.66699 44.834 -11 54.501
s-15.666 14.5 -24.999 14.5c-12 0 -22.833 -6.5 -32.5 -19.5s-17.667 -29.5 -24 -49.5s-11.333 -42.167 -15 -66.5s-5.83398 -47.833 -6.50098 -70.5c16.667 0.666992 32 5.16699 46 13.5s26 18.666 36 30.999s17.833 26.5 23.5 42.5s8.5 32.667 8.5 50zM713.001 229
c-23.333 0 -43.835 -6.00195 -61.502 -18.002s-26.5 -30.667 -26.5 -56c0 -14.667 2.33301 -26.167 7 -34.5s10.334 -14.666 17.001 -18.999s13.5 -7.16602 20.5 -8.49902s13.167 -2 18.5 -2c6.66699 0 12.834 2.16699 18.501 6.5s10.5 11.666 14.5 21.999
s7.16699 24.333 9.5 42s3.5 39.834 3.5 66.501c-3.33301 0 -6.83301 0.166992 -10.5 0.5s-7.16699 0.5 -10.5 0.5z" />
    <glyph glyph-name="o_s" unicode="os" horiz-adv-x="774" 
d="M668 531c16.667 -64 31.3359 -116.166 44.0029 -156.499l32.5 -101.5c9 -27.333 16 -51.333 21 -72s7.5 -43.667 7.5 -69c11.333 7.33301 22.333 15.166 33 23.499s19.667 16.166 27 23.499h42c-18 -27.333 -37 -49.833 -57 -67.5s-39.333 -33.167 -58 -46.5
c-12 -26 -30.333 -44.333 -55 -55s-50.334 -16 -77.001 -16c-30 0 -55.667 4.16699 -77 12.5s-38.833 19.666 -52.5 33.999s-23.834 30.833 -30.501 49.5s-10 38.334 -10 59.001c0 22.667 5.5 40.5 16.5 53.5s23.833 19.5 38.5 19.5c40.667 0 61 -16.333 61 -49
c0 -10.667 -3.66699 -19.667 -11 -27s-16.666 -11 -27.999 -11c-5.33301 0 -10.833 0.833008 -16.5 2.5s-10.167 5.16699 -13.5 10.5c5.33301 -23.333 14.166 -41.666 26.499 -54.999s28.166 -20 47.499 -20c16.667 0 29 4.16699 37 12.5s12 22.833 12 43.5
c0 22 -1.83301 41.833 -5.5 59.5s-9.16699 37.167 -16.5 58.5l-27 76.5c-10.667 29.667 -22.667 68.167 -36 115.5c-33.333 -71.333 -77.333 -117 -132 -137c0 -5.33301 0.166992 -10.5 0.5 -15.5s0.5 -10.167 0.5 -15.5c0 -38.667 -3.33301 -74.834 -10 -108.501
s-17.834 -63 -33.501 -88s-35.834 -44.667 -60.501 -59s-55 -21.5 -91 -21.5c-24.667 0 -48.167 3.83301 -70.5 11.5s-42.166 20.334 -59.499 38.001s-31.166 41 -41.499 70s-15.5 64.5 -15.5 106.5c0 28.667 3 59.5 9 92.5s17 63.833 33 92.5s37.833 52.5 65.5 71.5
s63.167 28.5 106.5 28.5c44.667 0 80.5 -12 107.5 -36s45.167 -62.667 54.5 -116c23.333 5.33301 44.5 21.5 63.5 48.5s37.167 63.5 54.5 109.5zM245.002 88.001c14 0 26.165 4.83301 36.498 14.5s18.833 23 25.5 40s11.5 37.167 14.5 60.5s4.5 48.666 4.5 75.999v13
c-26.667 6 -40 25.667 -40 59c0 21.333 8.66699 35.333 26 42c-7.33301 21.333 -16.166 35.333 -26.499 42s-19.166 10 -26.499 10c-14.667 0 -27.167 -6.83301 -37.5 -20.5s-18.833 -31 -25.5 -52s-11.5 -44.167 -14.5 -69.5s-4.5 -49.666 -4.5 -72.999
c0 -30 2.16699 -54.333 6.5 -73s9.83301 -33 16.5 -43s14 -16.833 22 -20.5s15.667 -5.5 23 -5.5z" />
    <glyph glyph-name="o_s_x" unicode="osx" horiz-adv-x="1146" 
d="M244 505c44.667 0 80.502 -12.002 107.502 -36.002s45.167 -62.667 54.5 -116c23.333 5.33301 44.5 21.5 63.5 48.5s37.167 63.5 54.5 109.5l144 20c16.667 -64.667 31.5 -117.167 44.5 -157.5l33 -101.5c9 -27.333 15.833 -51.5 20.5 -72.5s7 -44.5 7 -70.5v-6
c18.667 8.66699 38.167 19.167 58.5 31.5s37.166 25.833 50.499 40.5l-120 305h141l82 -209c23.333 32 41.666 60 54.999 84s20 45.667 20 65c0 6 -0.333008 10.667 -1 14c-4.66699 -0.666992 -7.33398 -1.16699 -8.00098 -1.5s-3 -0.5 -7 -0.5c-21.333 0 -37 6 -47 18
s-15 25 -15 39c0 17.333 6.33301 30.833 19 40.5s27 14.5 43 14.5c18.667 0 36 -7.16699 52 -21.5s24 -37.5 24 -69.5c0 -16 -2.83301 -33.833 -8.5 -53.5s-13.5 -40 -23.5 -61s-21.667 -42.5 -35 -64.5s-27.666 -43.333 -42.999 -64l20 -51l12.5 -30.5
c4.33301 -10.333 9.5 -19.666 15.5 -27.999s12.833 -15.333 20.5 -21s17.167 -8.5 28.5 -8.5c19.333 0 35.5 8.33301 48.5 25s20.833 37.667 23.5 63h42c-6 -40.667 -15.5 -73.167 -28.5 -97.5s-27.5 -43 -43.5 -56s-32.5 -21.5 -49.5 -25.5s-32.167 -6 -45.5 -6
c-16.667 0 -31.667 2.83301 -45 8.5s-26 14.5 -38 26.5s-23.333 27.333 -34 46s-21.667 41 -33 67c-11.333 -9.33301 -23.5 -18 -36.5 -26s-26.167 -15.333 -39.5 -22l-39 -19c-12.667 -6 -23.667 -11.667 -33 -17c-13.333 -23.333 -31.666 -39.833 -54.999 -49.5
s-47.666 -14.5 -72.999 -14.5c-30 0 -55.667 4.16699 -77 12.5s-38.833 19.666 -52.5 33.999s-23.834 30.833 -30.501 49.5s-10 38.334 -10 59.001c0 22.667 5.5 40.5 16.5 53.5s23.833 19.5 38.5 19.5c40.667 0 61 -16.333 61 -49c0 -10.667 -3.66699 -19.667 -11 -27
s-16.666 -11 -27.999 -11c-5.33301 0 -10.833 0.833008 -16.5 2.5s-10.167 5.16699 -13.5 10.5c5.33301 -23.333 14.166 -41.666 26.499 -54.999s28.166 -20 47.499 -20c16.667 0 29 4.16699 37 12.5s12 22.833 12 43.5c0 22 -1.83301 41.833 -5.5 59.5
s-9.16699 37.167 -16.5 58.5l-27 76.5c-10.667 29.667 -22.667 68.167 -36 115.5c-33.333 -71.333 -77.333 -117 -132 -137c0 -5.33301 0.166992 -10.5 0.5 -15.5s0.5 -10.167 0.5 -15.5c0 -38.667 -3.33301 -74.834 -10 -108.501s-17.834 -63 -33.501 -88
s-35.834 -44.667 -60.501 -59s-55 -21.5 -91 -21.5c-24.667 0 -48.167 3.83301 -70.5 11.5s-42.166 20.334 -59.499 38.001s-31.166 41 -41.499 70s-15.5 64.5 -15.5 106.5c0 28.667 3 59.5 9 92.5s17 63.833 33 92.5s37.833 52.5 65.5 71.5s63.167 28.5 106.5 28.5z
M245.002 87.998c14 0 26.165 4.83301 36.498 14.5s18.833 23 25.5 40s11.5 37.167 14.5 60.5s4.5 48.666 4.5 75.999v13c-26.667 6 -40 25.667 -40 59c0 21.333 8.66699 35.333 26 42c-7.33301 21.333 -16.166 35.333 -26.499 42s-19.166 10 -26.499 10
c-14.667 0 -27.167 -6.83301 -37.5 -20.5s-18.833 -31 -25.5 -52s-11.5 -44.167 -14.5 -69.5s-4.5 -49.666 -4.5 -72.999c0 -30 2.16699 -54.333 6.5 -73s9.83301 -33 16.5 -43s14 -16.833 22 -20.5s15.667 -5.5 23 -5.5z" />
    <glyph glyph-name="o_s_z" unicode="os&#x7a;" horiz-adv-x="1139" 
d="M668 531c16.667 -64.667 31.502 -117.167 44.502 -157.5l33 -101.5c9 -27.333 15.833 -51.5 20.5 -72.5s7 -44.5 7 -70.5c0 -25.333 -4.16699 -46.5 -12.5 -63.5s-19.333 -30.833 -33 -41.5s-29.167 -18.334 -46.5 -23.001s-35 -7 -53 -7c-30 0 -55.667 4.16699 -77 12.5
s-38.833 19.666 -52.5 33.999s-23.834 30.833 -30.501 49.5s-10 38.334 -10 59.001c0 22.667 5.5 40.5 16.5 53.5s23.833 19.5 38.5 19.5c40.667 0 61 -16.333 61 -49c0 -10.667 -3.66699 -19.667 -11 -27s-16.666 -11 -27.999 -11c-5.33301 0 -10.833 0.833008 -16.5 2.5
s-10.167 5.16699 -13.5 10.5c5.33301 -23.333 14.166 -41.666 26.499 -54.999s28.166 -20 47.499 -20c16.667 0 29 4.16699 37 12.5s12 22.833 12 43.5c0 22 -1.83301 41.833 -5.5 59.5s-9.16699 37.167 -16.5 58.5l-27 76.5c-10.667 29.667 -22.667 68.167 -36 115.5
c-33.333 -71.333 -77.333 -117 -132 -137c0 -5.33301 0.166992 -10.5 0.5 -15.5s0.5 -10.167 0.5 -15.5c0 -38.667 -3.33301 -74.834 -10 -108.501s-17.834 -63 -33.501 -88s-35.834 -44.667 -60.501 -59s-55 -21.5 -91 -21.5c-24.667 0 -48.167 3.83301 -70.5 11.5
s-42.166 20.334 -59.499 38.001s-31.166 41 -41.499 70s-15.5 64.5 -15.5 106.5c0 28.667 3 59.5 9 92.5s17 63.833 33 92.5s37.833 52.5 65.5 71.5s63.167 28.5 106.5 28.5c44.667 0 80.5 -12 107.5 -36s45.167 -62.667 54.5 -116c23.333 5.33301 44.5 21.5 63.5 48.5
s37.167 63.5 54.5 109.5zM1076 91c-8 0.666992 -13.9971 3.50195 -17.9971 8.50195s-6 10.833 -6 17.5c0 8.66699 3.66699 17.167 11 25.5s19.333 12.5 36 12.5c18.667 0 32.667 -6.16699 42 -18.5s14 -26.833 14 -43.5c0 -10.667 -2 -21.5 -6 -32.5s-10.333 -21 -19 -30
s-19.334 -16.333 -32.001 -22s-27.334 -8.5 -44.001 -8.5h-276l196 446h-74c-14.667 0 -26.834 -0.833008 -36.501 -2.5s-14.5 -5.5 -14.5 -11.5c0 -2.66699 0.833008 -4 2.5 -4s3.66699 -0.666992 6 -2s4.33301 -4 6 -8s2.5 -11 2.5 -21
c0 -14.667 -4.5 -25.334 -13.5 -32.001s-19.167 -10 -30.5 -10c-13.333 0 -26.166 4.5 -38.499 13.5s-18.5 22.833 -18.5 41.5c0 10 2 20.167 6 30.5s10 20 18 29s18 16.333 30 22s26 8.5 42 8.5h275l-191 -423c4 0 9.66699 -0.333008 17 -1
s15.166 -1.33398 23.499 -2.00098l25 -2c8.33301 -0.666992 15.833 -1 22.5 -1c12 0 22.167 1.33301 30.5 4s12.5 8 12.5 16zM245.005 88.002c14 0 26.165 4.83301 36.498 14.5s18.833 23 25.5 40s11.5 37.167 14.5 60.5s4.5 48.666 4.5 75.999v13
c-26.667 6 -40 25.667 -40 59c0 21.333 8.66699 35.333 26 42c-7.33301 21.333 -16.166 35.333 -26.499 42s-19.166 10 -26.499 10c-14.667 0 -27.167 -6.83301 -37.5 -20.5s-18.833 -31 -25.5 -52s-11.5 -44.167 -14.5 -69.5s-4.5 -49.666 -4.5 -72.999
c0 -30 2.16699 -54.333 6.5 -73s9.83301 -33 16.5 -43s14 -16.833 22 -20.5s15.667 -5.5 23 -5.5z" />
    <glyph glyph-name="o_x" unicode="ox" horiz-adv-x="858" 
d="M237 505c45.333 0 81.665 -12.832 108.998 -38.499s46 -63.5 56 -113.5c18.667 3.33301 35.834 13.5 51.501 30.5s30.834 40.167 45.501 69.5l-18 47h141l80 -203c22 30.667 39.167 57.5 51.5 80.5s18.5 43.833 18.5 62.5c0 6 -0.333008 10.667 -1 14
c-4.66699 -0.666992 -7.33398 -1.16699 -8.00098 -1.5s-3 -0.5 -7 -0.5c-21.333 0 -37 6 -47 18s-15 25 -15 39c0 17.333 6.33301 30.833 19 40.5s27 14.5 43 14.5c18.667 0 36 -7.16699 52 -21.5s24 -36.833 24 -67.5c0 -33.333 -10.167 -71 -30.5 -113
s-45.5 -84 -75.5 -126l23 -57l12.5 -30.5c4.33301 -10.333 9.5 -19.833 15.5 -28.5s13 -15.667 21 -21s17.333 -8 28 -8c19.333 0 35.5 8.33301 48.5 25s20.833 37.667 23.5 63h42c-6 -40.667 -15.5 -73.167 -28.5 -97.5s-27.5 -43 -43.5 -56s-32.5 -21.5 -49.5 -25.5
s-32.167 -6 -45.5 -6c-18 0 -34.333 3.5 -49 10.5s-28.5 18 -41.5 33s-25.5 34.167 -37.5 57.5s-24.333 51.333 -37 84l-3 7c-18 -13.333 -33.833 -28.666 -47.5 -45.999s-20.5 -35.333 -20.5 -54c0 -5.33301 0.333008 -9.33301 1 -12c3.33301 0.666992 7.66602 1 12.999 1
c17.333 0 30.5 -5.83301 39.5 -17.5s13.5 -26.834 13.5 -45.501c0 -14 -4.16699 -24.333 -12.5 -31s-19.5 -10 -33.5 -10c-28.667 0 -49.667 8.66699 -63 26s-20 38.333 -20 63c0 15.333 3 31.5 9 48.5s14 33.5 24 49.5s21.5 31.167 34.5 45.5s26.5 26.833 40.5 37.5
l-62 156c-29.333 -47.333 -66.333 -79 -111 -95c0.666992 -8 1.16699 -16 1.5 -24s0.5 -16.667 0.5 -26c0 -39.333 -4.33301 -74.833 -13 -106.5s-20.834 -58.834 -36.501 -81.501s-34.667 -40 -57 -52s-46.833 -18 -73.5 -18c-28 0 -54.333 4 -79 12s-46.167 21 -64.5 39
s-32.666 41.667 -42.999 71s-15.5 65 -15.5 107c0 28 3.16699 58.5 9.5 91.5s17.333 63.667 33 92s36.834 51.833 63.501 70.5s60.334 28 101.001 28zM251.999 88.001c10.667 0 20.667 4.83301 30 14.5s17.166 23 23.499 40s11.333 36.667 15 59s5.5 46.5 5.5 72.5v18
c-26.667 6 -40 25.667 -40 59c0 11.333 2.5 20.333 7.5 27s11.5 11.667 19.5 15c-7.33301 22 -16 36.167 -26 42.5s-19.667 9.5 -29 9.5c-13.333 0 -25.166 -6.83301 -35.499 -20.5s-18.833 -31 -25.5 -52s-11.667 -44 -15 -69s-5 -48.833 -5 -71.5
c0 -32 2.16699 -57.5 6.5 -76.5s10 -33.5 17 -43.5s15 -16.5 24 -19.5s18.167 -4.5 27.5 -4.5z" />
    <glyph glyph-name="oacute_s" unicode="&#xf3;s" horiz-adv-x="774" 
d="M668 531c16.667 -64 31.3359 -116.166 44.0029 -156.499l32.5 -101.5c9 -27.333 16 -51.333 21 -72s7.5 -43.667 7.5 -69c11.333 7.33301 22.333 15.166 33 23.499s19.667 16.166 27 23.499h42c-18 -27.333 -37 -49.833 -57 -67.5s-39.333 -33.167 -58 -46.5
c-12 -26 -30.333 -44.333 -55 -55s-50.334 -16 -77.001 -16c-30 0 -55.667 4.16699 -77 12.5s-38.833 19.666 -52.5 33.999s-23.834 30.833 -30.501 49.5s-10 38.334 -10 59.001c0 22.667 5.5 40.5 16.5 53.5s23.833 19.5 38.5 19.5c40.667 0 61 -16.333 61 -49
c0 -10.667 -3.66699 -19.667 -11 -27s-16.666 -11 -27.999 -11c-5.33301 0 -10.833 0.833008 -16.5 2.5s-10.167 5.16699 -13.5 10.5c5.33301 -23.333 14.166 -41.666 26.499 -54.999s28.166 -20 47.499 -20c16.667 0 29 4.16699 37 12.5s12 22.833 12 43.5
c0 22 -1.83301 41.833 -5.5 59.5s-9.16699 37.167 -16.5 58.5l-27 76.5c-10.667 29.667 -22.667 68.167 -36 115.5c-33.333 -71.333 -77.333 -117 -132 -137c0 -5.33301 0.166992 -10.5 0.5 -15.5s0.5 -10.167 0.5 -15.5c0 -38.667 -3.33301 -74.834 -10 -108.501
s-17.834 -63 -33.501 -88s-35.834 -44.667 -60.501 -59s-55 -21.5 -91 -21.5c-24.667 0 -48.167 3.83301 -70.5 11.5s-42.166 20.334 -59.499 38.001s-31.166 41 -41.499 70s-15.5 64.5 -15.5 106.5c0 28.667 3 59.5 9 92.5s17 63.833 33 92.5s37.833 52.5 65.5 71.5
s63.167 28.5 106.5 28.5c44.667 0 80.5 -12 107.5 -36s45.167 -62.667 54.5 -116c23.333 5.33301 44.5 21.5 63.5 48.5s37.167 63.5 54.5 109.5zM245.002 88.001c14 0 26.165 4.83301 36.498 14.5s18.833 23 25.5 40s11.5 37.167 14.5 60.5s4.5 48.666 4.5 75.999v13
c-26.667 6 -40 25.667 -40 59c0 21.333 8.66699 35.333 26 42c-7.33301 21.333 -16.166 35.333 -26.499 42s-19.166 10 -26.499 10c-14.667 0 -27.167 -6.83301 -37.5 -20.5s-18.833 -31 -25.5 -52s-11.5 -44.167 -14.5 -69.5s-4.5 -49.666 -4.5 -72.999
c0 -30 2.16699 -54.333 6.5 -73s9.83301 -33 16.5 -43s14 -16.833 22 -20.5s15.667 -5.5 23 -5.5zM239 750.001h105l-81 -189h-75z" />
    <glyph glyph-name="oacute_s_x" unicode="&#xf3;sx" horiz-adv-x="1146" 
d="M668 531c16.667 -64.667 31.502 -117.169 44.502 -157.502l33 -101.5c9 -27.333 15.833 -51.5 20.5 -72.5s7 -44.5 7 -70.5v-6c18.667 8.66699 38.167 19.167 58.5 31.5s37.166 25.833 50.499 40.5l-120 305h141l82 -209c23.333 32 41.666 60 54.999 84s20 45.667 20 65
c0 6 -0.333008 10.667 -1 14c-4.66699 -0.666992 -7.33398 -1.16699 -8.00098 -1.5s-3 -0.5 -7 -0.5c-21.333 0 -37 6 -47 18s-15 25 -15 39c0 17.333 6.33301 30.833 19 40.5s27 14.5 43 14.5c18.667 0 36 -7.16699 52 -21.5s24 -37.5 24 -69.5
c0 -16 -2.83301 -33.833 -8.5 -53.5s-13.5 -40 -23.5 -61s-21.667 -42.5 -35 -64.5s-27.666 -43.333 -42.999 -64l20 -51l12.5 -30.5c4.33301 -10.333 9.5 -19.666 15.5 -27.999s12.833 -15.333 20.5 -21s17.167 -8.5 28.5 -8.5c19.333 0 35.5 8.33301 48.5 25
s20.833 37.667 23.5 63h42c-6 -40.667 -15.5 -73.167 -28.5 -97.5s-27.5 -43 -43.5 -56s-32.5 -21.5 -49.5 -25.5s-32.167 -6 -45.5 -6c-16.667 0 -31.667 2.83301 -45 8.5s-26 14.5 -38 26.5s-23.333 27.333 -34 46s-21.667 41 -33 67
c-11.333 -9.33301 -23.5 -18 -36.5 -26s-26.167 -15.333 -39.5 -22l-39 -19c-12.667 -6 -23.667 -11.667 -33 -17c-13.333 -23.333 -31.666 -39.833 -54.999 -49.5s-47.666 -14.5 -72.999 -14.5c-30 0 -55.667 4.16699 -77 12.5s-38.833 19.666 -52.5 33.999
s-23.834 30.833 -30.501 49.5s-10 38.334 -10 59.001c0 22.667 5.5 40.5 16.5 53.5s23.833 19.5 38.5 19.5c40.667 0 61 -16.333 61 -49c0 -10.667 -3.66699 -19.667 -11 -27s-16.666 -11 -27.999 -11c-5.33301 0 -10.833 0.833008 -16.5 2.5s-10.167 5.16699 -13.5 10.5
c5.33301 -23.333 14.166 -41.666 26.499 -54.999s28.166 -20 47.499 -20c16.667 0 29 4.16699 37 12.5s12 22.833 12 43.5c0 22 -1.83301 41.833 -5.5 59.5s-9.16699 37.167 -16.5 58.5l-27 76.5c-10.667 29.667 -22.667 68.167 -36 115.5
c-33.333 -71.333 -77.333 -117 -132 -137c0 -5.33301 0.166992 -10.5 0.5 -15.5s0.5 -10.167 0.5 -15.5c0 -38.667 -3.33301 -74.834 -10 -108.501s-17.834 -63 -33.501 -88s-35.834 -44.667 -60.501 -59s-55 -21.5 -91 -21.5c-24.667 0 -48.167 3.83301 -70.5 11.5
s-42.166 20.334 -59.499 38.001s-31.166 41 -41.499 70s-15.5 64.5 -15.5 106.5c0 28.667 3 59.5 9 92.5s17 63.833 33 92.5s37.833 52.5 65.5 71.5s63.167 28.5 106.5 28.5c44.667 0 80.5 -12 107.5 -36s45.167 -62.667 54.5 -116c23.333 5.33301 44.5 21.5 63.5 48.5
s37.167 63.5 54.5 109.5zM245.002 87.998c14 0 26.165 4.83301 36.498 14.5s18.833 23 25.5 40s11.5 37.167 14.5 60.5s4.5 48.666 4.5 75.999v13c-26.667 6 -40 25.667 -40 59c0 21.333 8.66699 35.333 26 42c-7.33301 21.333 -16.166 35.333 -26.499 42
s-19.166 10 -26.499 10c-14.667 0 -27.167 -6.83301 -37.5 -20.5s-18.833 -31 -25.5 -52s-11.5 -44.167 -14.5 -69.5s-4.5 -49.666 -4.5 -72.999c0 -30 2.16699 -54.333 6.5 -73s9.83301 -33 16.5 -43s14 -16.833 22 -20.5s15.667 -5.5 23 -5.5zM276 749.998h105l-81 -189
h-75z" />
    <glyph glyph-name="oacute_s_z" unicode="&#xf3;s&#x7a;" horiz-adv-x="1140" 
d="M237 505c45.333 0 81.668 -12.8301 109.001 -38.4971s46 -63.5 56 -113.5c24 3.33301 46.167 18.666 66.5 45.999s39.166 64.666 56.499 111.999l144 20c16.667 -64.667 31.5 -117.167 44.5 -157.5l33 -101.5c9 -27.333 15.833 -51.5 20.5 -72.5s7 -44.5 7 -70.5
c0 -25.333 -4.16699 -46.5 -12.5 -63.5s-19.333 -30.833 -33 -41.5s-29.167 -18.334 -46.5 -23.001s-35 -7 -53 -7c-30 0 -55.667 4.16699 -77 12.5s-38.833 19.666 -52.5 33.999s-23.834 30.833 -30.501 49.5s-10 38.334 -10 59.001c0 22.667 5.5 40.5 16.5 53.5
s23.833 19.5 38.5 19.5c40.667 0 61 -16.333 61 -49c0 -10.667 -3.66699 -19.667 -11 -27s-16.666 -11 -27.999 -11c-5.33301 0 -10.833 0.833008 -16.5 2.5s-10.167 5.16699 -13.5 10.5c5.33301 -23.333 14.166 -41.666 26.499 -54.999s28.166 -20 47.499 -20
c16.667 0 29 4.16699 37 12.5s12 22.833 12 43.5c0 22 -1.83301 41.833 -5.5 59.5s-9.16699 37.167 -16.5 58.5l-27 76.5c-10.667 29.667 -22.667 68.167 -36 115.5c-33.333 -72 -78 -117.667 -134 -137c0.666992 -8 1.16699 -16.167 1.5 -24.5s0.5 -16.833 0.5 -25.5
c0 -39.333 -4.33301 -74.833 -13 -106.5s-20.834 -58.834 -36.501 -81.501s-34.667 -40 -57 -52s-46.833 -18 -73.5 -18c-28 0 -54.333 4 -79 12s-46.167 21 -64.5 39s-32.666 41.667 -42.999 71s-15.5 65 -15.5 107c0 28 3.16699 58.5 9.5 91.5s17.333 63.667 33 92
s36.834 51.833 63.501 70.5s60.334 28 101.001 28zM1077 91.0029c-8 0.666992 -13.9971 3.50195 -17.9971 8.50195s-6 10.833 -6 17.5c0 8.66699 3.66699 17.167 11 25.5s19.333 12.5 36 12.5c18.667 0 32.667 -6.16699 42 -18.5s14 -26.833 14 -43.5
c0 -10.667 -2 -21.5 -6 -32.5s-10.333 -21 -19 -30s-19.334 -16.333 -32.001 -22s-27.334 -8.5 -44.001 -8.5h-276l196 446h-74c-14.667 0 -26.834 -0.833008 -36.501 -2.5s-14.5 -5.5 -14.5 -11.5c0 -2.66699 0.833008 -4 2.5 -4s3.66699 -0.666992 6 -2s4.33301 -4 6 -8
s2.5 -11 2.5 -21c0 -14.667 -4.5 -25.334 -13.5 -32.001s-19.167 -10 -30.5 -10c-13.333 0 -26.166 4.5 -38.499 13.5s-18.5 22.833 -18.5 41.5c0 10 2 20.167 6 30.5s10 20 18 29s18 16.333 30 22s26 8.5 42 8.5h275l-191 -423c4 0 9.66699 -0.333008 17 -1
s15.166 -1.33398 23.499 -2.00098l25 -2c8.33301 -0.666992 15.833 -1 22.5 -1c12 0 22.167 1.33301 30.5 4s12.5 8 12.5 16zM252.005 88.0049c10.667 0 20.667 4.83301 30 14.5s17.166 23 23.499 40s11.333 36.667 15 59s5.5 46.5 5.5 72.5v18c-26 6 -39 25.667 -39 59
c0 21.333 8.66699 35.333 26 42c-7.33301 22 -16 36.167 -26 42.5s-19.667 9.5 -29 9.5c-13.333 0 -25.166 -6.83301 -35.499 -20.5s-18.833 -31 -25.5 -52s-11.667 -44 -15 -69s-5 -48.833 -5 -71.5c0 -32 2.16699 -57.5 6.5 -76.5s10 -33.5 17 -43.5s15 -16.5 24 -19.5
s18.167 -4.5 27.5 -4.5zM256.005 750.005h105l-81 -189h-75z" />
    <glyph glyph-name="oacute_x" unicode="&#xf3;x" horiz-adv-x="858" 
d="M237 505c45.333 0 81.665 -12.832 108.998 -38.499s46 -63.5 56 -113.5c18.667 3.33301 35.834 13.5 51.501 30.5s30.834 40.167 45.501 69.5l-18 47h141l80 -203c22 30.667 39.167 57.5 51.5 80.5s18.5 43.833 18.5 62.5c0 6 -0.333008 10.667 -1 14
c-4.66699 -0.666992 -7.33398 -1.16699 -8.00098 -1.5s-3 -0.5 -7 -0.5c-21.333 0 -37 6 -47 18s-15 25 -15 39c0 17.333 6.33301 30.833 19 40.5s27 14.5 43 14.5c18.667 0 36 -7.16699 52 -21.5s24 -36.833 24 -67.5c0 -33.333 -10.167 -71 -30.5 -113
s-45.5 -84 -75.5 -126l23 -57l12.5 -30.5c4.33301 -10.333 9.5 -19.833 15.5 -28.5s13 -15.667 21 -21s17.333 -8 28 -8c19.333 0 35.5 8.33301 48.5 25s20.833 37.667 23.5 63h42c-6 -40.667 -15.5 -73.167 -28.5 -97.5s-27.5 -43 -43.5 -56s-32.5 -21.5 -49.5 -25.5
s-32.167 -6 -45.5 -6c-18 0 -34.333 3.5 -49 10.5s-28.5 18 -41.5 33s-25.5 34.167 -37.5 57.5s-24.333 51.333 -37 84l-3 7c-18 -13.333 -33.833 -28.666 -47.5 -45.999s-20.5 -35.333 -20.5 -54c0 -5.33301 0.333008 -9.33301 1 -12c3.33301 0.666992 7.66602 1 12.999 1
c17.333 0 30.5 -5.83301 39.5 -17.5s13.5 -26.834 13.5 -45.501c0 -14 -4.16699 -24.333 -12.5 -31s-19.5 -10 -33.5 -10c-28.667 0 -49.667 8.66699 -63 26s-20 38.333 -20 63c0 15.333 3 31.5 9 48.5s14 33.5 24 49.5s21.5 31.167 34.5 45.5s26.5 26.833 40.5 37.5
l-62 156c-29.333 -47.333 -66.333 -79 -111 -95c0.666992 -8 1.16699 -16 1.5 -24s0.5 -16.667 0.5 -26c0 -39.333 -4.33301 -74.833 -13 -106.5s-20.834 -58.834 -36.501 -81.501s-34.667 -40 -57 -52s-46.833 -18 -73.5 -18c-28 0 -54.333 4 -79 12s-46.167 21 -64.5 39
s-32.666 41.667 -42.999 71s-15.5 65 -15.5 107c0 28 3.16699 58.5 9.5 91.5s17.333 63.667 33 92s36.834 51.833 63.501 70.5s60.334 28 101.001 28zM251.999 88.001c10.667 0 20.667 4.83301 30 14.5s17.166 23 23.499 40s11.333 36.667 15 59s5.5 46.5 5.5 72.5v18
c-26.667 6 -40 25.667 -40 59c0 11.333 2.5 20.333 7.5 27s11.5 11.667 19.5 15c-7.33301 22 -16 36.167 -26 42.5s-19.667 9.5 -29 9.5c-13.333 0 -25.166 -6.83301 -35.499 -20.5s-18.833 -31 -25.5 -52s-11.667 -44 -15 -69s-5 -48.833 -5 -71.5
c0 -32 2.16699 -57.5 6.5 -76.5s10 -33.5 17 -43.5s15 -16.5 24 -19.5s18.167 -4.5 27.5 -4.5zM244.999 750.001h105l-81 -189h-75z" />
    <glyph glyph-name="r_x" unicode="rx" horiz-adv-x="789" 
d="M542 500l89.0029 -204.999c22.667 31.333 40.334 58.5 53.001 81.5s19 44.167 19 63.5c0 6 -0.333008 10.667 -1 14c-4.66699 -0.666992 -7.33398 -1.16699 -8.00098 -1.5s-3 -0.5 -7 -0.5c-21.333 0 -37 6 -47 18s-15 25 -15 39c0 17.333 6.33301 30.833 19 40.5
s27 14.5 43 14.5c18.667 0 36 -7.16699 52 -21.5s24 -36.833 24 -67.5c0 -33.333 -10.167 -71 -30.5 -113s-45.5 -84 -75.5 -126l25 -57c4 -10 8.5 -20.167 13.5 -30.5s10.5 -19.833 16.5 -28.5s13 -15.667 21 -21s17 -8 27 -8c19.333 0 35.5 8.33301 48.5 25
s20.5 37.667 22.5 63h42c-5.33301 -40.667 -14.333 -73.167 -27 -97.5s-26.834 -43 -42.501 -56s-31.834 -21.5 -48.501 -25.5s-31.667 -6 -45 -6c-18 0 -34.333 3.5 -49 10.5s-28.5 18 -41.5 33s-25.833 34.167 -38.5 57.5s-26 51.333 -40 84l-3 6
c-18 -13.333 -33.667 -28.666 -47 -45.999s-20 -35 -20 -53c0 -5.33301 0.333008 -9.33301 1 -12c2.66699 0.666992 6.66699 1 12 1c17.333 0 30.666 -5.83301 39.999 -17.5s14 -26.834 14 -45.501c0 -14 -4.33301 -24.333 -13 -31s-20 -10 -34 -10
c-28.667 0 -49.667 8.66699 -63 26s-20 38.333 -20 63c0 15.333 2.83301 31.166 8.5 47.499s13.5 32.5 23.5 48.5s21.333 31 34 45s26 26.667 40 38l-113 261h141zM191.003 500.001l0.000976562 -62.002c14.667 17.333 31 32.833 49 46.5s37.667 20.5 59 20.5
c12.667 0 24.167 -2.66699 34.5 -8s19.333 -12.333 27 -21s13.667 -18.167 18 -28.5s6.5 -20.833 6.5 -31.5c0 -14.667 -4.5 -28.167 -13.5 -40.5s-23.833 -18.5 -44.5 -18.5c-15.333 0 -26 3.33301 -32 10s-10.667 13.834 -14 21.501s-6.83301 14.834 -10.5 21.501
s-10.167 10 -19.5 10c-10 0 -19.833 -3.83301 -29.5 -11.5s-19.834 -17.167 -30.501 -28.5v-380h-144v500h144z" />
    <glyph glyph-name="r_z" unicode="r&#x7a;" horiz-adv-x="659" 
d="M255 418c-15.333 0 -27.5 -3.66602 -36.5 -10.999s-18.167 -17 -27.5 -29v-378h-144v500h144v-62c14.667 15.333 30.334 29.5 47.001 42.5s37 19.5 61 19.5h334l-155 -423c18.667 0 35.167 -2 49.5 -6s28.833 -6 43.5 -6c8 0 14.5 1.83301 19.5 5.5s7.5 10.5 7.5 20.5
c-8 0.666992 -14 3.5 -18 8.5s-6 10.833 -6 17.5c0 8.66699 3.66699 17.167 11 25.5s19.333 12.5 36 12.5c18.667 0 32.667 -6.16699 42 -18.5s14 -26.833 14 -43.5c0 -10.667 -2 -21.5 -6 -32.5s-10.333 -21 -19 -30s-19.334 -16.333 -32.001 -22
s-27.334 -8.5 -44.001 -8.5h-265l160 443h-93c1.33301 -2.66699 2.66602 -5.83398 3.99902 -9.50098s2 -10.834 2 -21.501c0 -17.333 -4.66699 -31.666 -14 -42.999s-23.666 -17 -42.999 -17c-14 0 -24.167 3.5 -30.5 10.5s-11.333 14.5 -15 22.5l-10.5 22.5
c-3.33301 7 -8.66602 10.5 -15.999 10.5z" />
    <glyph glyph-name="s_x" unicode="sx" horiz-adv-x="741" 
d="M281 531c16.667 -64.667 30.6709 -117.166 42.0039 -157.499s20.333 -74 27 -101s11.334 -50.5 14.001 -70.5s4 -42.333 4 -67c0 -5.33301 -0.333008 -9.33301 -1 -12c19.333 8.66699 39.166 19.167 59.499 31.5s37.166 25.833 50.499 40.5l-120 305h141l82 -209
c23.333 32 41.666 60 54.999 84s20 45.667 20 65c0 6 -0.333008 10.667 -1 14c-4.66699 -0.666992 -7.33398 -1.16699 -8.00098 -1.5s-3 -0.5 -7 -0.5c-21.333 0 -37 6 -47 18s-15 25 -15 39c0 17.333 6.33301 30.833 19 40.5s27 14.5 43 14.5
c18.667 0 36 -7.16699 52 -21.5s24 -37.5 24 -69.5c0 -16 -2.83301 -33.833 -8.5 -53.5s-13.5 -40 -23.5 -61s-21.667 -42.5 -35 -64.5s-27.666 -43.333 -42.999 -64l20 -51l12.5 -30.5c4.33301 -10.333 9.5 -19.666 15.5 -27.999s12.833 -15.333 20.5 -21
s17.167 -8.5 28.5 -8.5c19.333 0 35.5 8.33301 48.5 25s20.833 37.667 23.5 63h42c-6 -40.667 -15.5 -73.167 -28.5 -97.5s-27.5 -43 -43.5 -56s-32.5 -21.5 -49.5 -25.5s-32.167 -6 -45.5 -6c-16.667 0 -31.667 2.83301 -45 8.5s-26 14.5 -38 26.5s-23.333 27.5 -34 46.5
s-21.667 41.5 -33 67.5c-12.667 -10 -26.334 -19.5 -41.001 -28.5s-29.334 -17.167 -44.001 -24.5l-41.5 -21c-13 -6.66699 -23.833 -12.667 -32.5 -18c-17.333 -20.667 -39 -35.334 -65 -44.001s-51 -13 -75 -13c-29.333 0 -55 4.66699 -77 14s-40.333 21.166 -55 35.499
s-25.667 30.333 -33 48s-11 34.5 -11 50.5c0 18 3.5 33.333 10.5 46s15.833 21.667 26.5 27c19.333 50 35.5 99.5 48.5 148.5s22.167 98.167 27.5 147.5zM140.004 170.001c0 -10 -2.99902 -19.167 -8.99902 -27.5s-14.667 -12.5 -26 -12.5
c-5.33301 0 -10.833 0.833008 -16.5 2.5s-10.167 5.16699 -13.5 10.5c5.33301 -23.333 13.833 -40.833 25.5 -52.5s28.5 -17.5 50.5 -17.5c19.333 0 36 5.16699 50 15.5s21 28.5 21 54.5c0 18 -1 34.167 -3 48.5s-5.16699 30.5 -9.5 48.5s-10 39.333 -17 64l-25.5 93
c-6.66699 -32 -14.834 -62.833 -24.501 -92.5l-30.5 -92.5c7.33301 -3.33301 13.833 -8.5 19.5 -15.5s8.5 -15.833 8.5 -26.5z" />
    <glyph glyph-name="s_z" unicode="s&#x7a;" horiz-adv-x="744" 
d="M281 531c16.667 -64.667 30.666 -117.166 41.999 -157.499s20.333 -74 27 -101s11.334 -50.5 14.001 -70.5s4 -42.333 4 -67c0 -26 -5.33301 -48 -16 -66s-24.167 -32.5 -40.5 -43.5s-34.5 -19 -54.5 -24s-39 -7.5 -57 -7.5c-29.333 0 -55 4.66699 -77 14
s-40.333 21.166 -55 35.499s-25.667 30.333 -33 48s-11 34.5 -11 50.5c0 18 3.5 33.333 10.5 46s15.833 21.667 26.5 27c19.333 50 35.5 99.5 48.5 148.5s22.167 98.167 27.5 147.5zM680.999 91.001c-8 0.666992 -13.9971 3.50195 -17.9971 8.50195s-6 10.833 -6 17.5
c0 8.66699 3.66699 17.167 11 25.5s19.333 12.5 36 12.5c18.667 0 32.667 -6.16699 42 -18.5s14 -26.833 14 -43.5c0 -10.667 -2 -21.5 -6 -32.5s-10.333 -21 -19 -30s-19.334 -16.333 -32.001 -22s-27.334 -8.5 -44.001 -8.5h-276l196 446h-74
c-14.667 0 -26.834 -0.833008 -36.501 -2.5s-14.5 -5.5 -14.5 -11.5c0 -2.66699 0.833008 -4 2.5 -4s3.66699 -0.666992 6 -2s4.33301 -4 6 -8s2.5 -11 2.5 -21c0 -14.667 -4.5 -25.334 -13.5 -32.001s-19.167 -10 -30.5 -10c-13.333 0 -26.166 4.5 -38.499 13.5
s-18.5 22.833 -18.5 41.5c0 10 2 20.167 6 30.5s10 20 18 29s18 16.333 30 22s26 8.5 42 8.5h275l-191 -423c4 0 9.66699 -0.333008 17 -1s15.166 -1.33398 23.499 -2.00098l25 -2c8.33301 -0.666992 15.833 -1 22.5 -1c12 0 22.167 1.33301 30.5 4s12.5 8 12.5 16z
M140.002 170.003c0 -10 -2.99902 -19.167 -8.99902 -27.5s-14.667 -12.5 -26 -12.5c-5.33301 0 -10.833 0.833008 -16.5 2.5s-10.167 5.16699 -13.5 10.5c5.33301 -23.333 13.833 -40.833 25.5 -52.5s28.5 -17.5 50.5 -17.5c19.333 0 36 5.16699 50 15.5s21 28.5 21 54.5
c0 18 -1 34.167 -3 48.5s-5.16699 30.5 -9.5 48.5s-10 39.333 -17 64l-25.5 93c-6.66699 -32 -14.834 -62.833 -24.501 -92.5l-30.5 -92.5c7.33301 -3.33301 13.833 -8.5 19.5 -15.5s8.5 -15.833 8.5 -26.5z" />
    <glyph glyph-name="t_x" unicode="tx" horiz-adv-x="634" 
d="M47 460l-31.999 0.000976562v40h32v138l144 20v-158h210l84 -213c24 33.333 42.833 62.333 56.5 87s20.5 46.667 20.5 66c0 6 -0.333008 10.667 -1 14c-4.66699 -0.666992 -7.33398 -1.16699 -8.00098 -1.5s-3 -0.5 -7 -0.5c-21.333 0 -37 6 -47 18s-15 25 -15 39
c0 17.333 6.33301 30.833 19 40.5s27 14.5 43 14.5c18.667 0 36 -7.16699 52 -21.5s24 -37.5 24 -69.5c0 -16.667 -3 -34.834 -9 -54.501s-14 -40.167 -24 -61.5s-21.833 -43.166 -35.5 -65.499s-28.5 -44.166 -44.5 -65.499l19 -47l12.5 -29.5
c4.33301 -10.333 9.5 -19.833 15.5 -28.5s13 -15.834 21 -21.501s17.667 -8.5 29 -8.5c19.333 0 35.5 8.33301 48.5 25s20.5 37.667 22.5 63h42c-5.33301 -40.667 -14.5 -73.167 -27.5 -97.5s-27.5 -43 -43.5 -56s-32.5 -21.5 -49.5 -25.5s-32.167 -6 -45.5 -6
c-32 0 -59 10.667 -81 32s-43.667 56.333 -65 105c-13.333 -18 -28.5 -35.333 -45.5 -52s-35.5 -31.334 -55.5 -44.001s-41.167 -22.667 -63.5 -30s-44.833 -11 -67.5 -11c-38.667 0 -69.667 14.667 -93 44s-35 76.333 -35 141v281zM191.001 160.001
c0 -26 4.83301 -43.833 14.5 -53.5s23.167 -14.5 40.5 -14.5c25.333 0 50.833 8.5 76.5 25.5s46.5 39.167 62.5 66.5l-109 276h-85v-300z" />
    <glyph glyph-name="t_z" unicode="t&#x7a;" horiz-adv-x="700" 
d="M637 91c-8 0.666992 -13.9971 3.50195 -17.9971 8.50195s-6 10.833 -6 17.5c0 8.66699 3.66699 17.167 11 25.5s19.333 12.5 36 12.5c18.667 0 32.667 -6.16699 42 -18.5s14 -26.833 14 -43.5c0 -10.667 -2 -21.5 -6 -32.5s-10.333 -21 -19 -30
s-19.334 -16.333 -32.001 -22s-27.334 -8.5 -44.001 -8.5h-276l196 446h-74c-14.667 0 -26.834 -0.833008 -36.501 -2.5s-14.5 -5.5 -14.5 -11.5c0 -2.66699 0.833008 -4 2.5 -4s3.66699 -0.666992 6 -2s4.33301 -4 6 -8s2.5 -11 2.5 -21
c0 -14.667 -4.5 -25.334 -13.5 -32.001s-19.167 -10 -30.5 -10c-13.333 0 -26.166 4.5 -38.499 13.5s-18.5 22.833 -18.5 41.5c0 10 2 20.167 6 30.5s10 20 18 29s18 16.333 30 22s26 8.5 42 8.5h275l-191 -423c4 0 9.66699 -0.333008 17 -1
s15.166 -1.33398 23.499 -2.00098l25 -2c8.33301 -0.666992 15.833 -1 22.5 -1c12 0 22.167 1.33301 30.5 4s12.5 8 12.5 16zM191.003 658.002l0.000976562 -158h60v-40h-60v-300c0 -28 3.83301 -46.5 11.5 -55.5s21.167 -13.5 40.5 -13.5
c7.33301 0 13.166 0.833008 17.499 2.5s7.83301 3.5 10.5 5.5c0.666992 -3.33301 1 -6.83301 1 -10.5v-10.5c0 -28 -8.16699 -49 -24.5 -63s-36.833 -21 -61.5 -21c-51.333 0 -87.333 14.167 -108 42.5s-31 65.833 -31 112.5v311h-32v40h32v138z" />
    <glyph glyph-name="u_v" unicode="uv" horiz-adv-x="916" 
d="M191 500v-340.001c0 -25.333 3.5 -43.166 10.5 -53.499s17.167 -15.5 30.5 -15.5c18 0 32.333 8.33301 43 25s17 37.667 19 63v321h143v-500h-122v91c-8.66699 -21.333 -18.5 -38.333 -29.5 -51s-22.5 -22.5 -34.5 -29.5s-24.167 -11.5 -36.5 -13.5s-23.5 -3 -33.5 -3
c-47.333 0 -81.5 14 -102.5 42s-31.5 65.667 -31.5 113v351h144zM813 519.999c26 0 48.168 -15.167 66.501 -45.5s27.5 -79.833 27.5 -148.5c0 -35.333 -3.16699 -72.5 -9.5 -111.5s-17.333 -74.833 -33 -107.5s-36.667 -59.667 -63 -81s-59.5 -32 -99.5 -32
c-44 0 -80.333 14 -109 42s-43 69.333 -43 124v286l-28 13v41h174v-340c0 -8.66699 0.166992 -17.167 0.5 -25.5s1.83301 -15.666 4.5 -21.999s6.83398 -11.5 12.501 -15.5s13.5 -6 23.5 -6c20 0 37 7.16699 51 21.5s25.5 32.833 34.5 55.5s15.5 48.167 19.5 76.5
s6 56.166 6 83.499c0 26.667 -2 51.667 -6 75l-3 16c-3.33301 -1.33301 -7 -2.33301 -11 -3s-7.66699 -1 -11 -1c-8 0 -15.333 2.16699 -22 6.5s-12.334 9.5 -17.001 15.5s-8.33398 12.5 -11.001 19.5s-4 13.5 -4 19.5c0 10 4.16699 19.833 12.5 29.5s20.833 14.5 37.5 14.5
z" />
    <glyph glyph-name="u_x" unicode="ux" horiz-adv-x="898" 
d="M191 500l0.00195312 -340.001c0 -25.333 3.5 -43.166 10.5 -53.499s17.167 -15.5 30.5 -15.5c18 0 32.333 8.33301 43 25s17 37.667 19 63v321h144v-346c0 -7.33301 0.666992 -14.833 2 -22.5s4 -14.5 8 -20.5s9.66699 -10.833 17 -14.5s16.666 -5.5 27.999 -5.5
c12.667 0 25.667 2.5 39 7.5s26.166 11.833 38.499 20.5s23.833 18.667 34.5 30s19.667 23.333 27 36l-124 315h141l84 -214c24.667 34 44 63.333 58 88s21 46.667 21 66c0 6 -0.333008 10.667 -1 14c-4.66699 -0.666992 -7.33398 -1.16699 -8.00098 -1.5s-3 -0.5 -7 -0.5
c-21.333 0 -37 6 -47 18s-15 25 -15 39c0 17.333 6.33301 30.833 19 40.5s27 14.5 43 14.5c18.667 0 36 -7.16699 52 -21.5s24 -37.5 24 -69.5c0 -16.667 -3 -35 -9 -55s-14 -40.667 -24 -62s-22 -43.166 -36 -65.499s-29 -44.166 -45 -65.499l18 -46l12.5 -29.5
c4.33301 -10.333 9.5 -19.833 15.5 -28.5s13 -15.834 21 -21.501s17.667 -8.5 29 -8.5c19.333 0 35.5 8.33301 48.5 25s20.5 37.667 22.5 63h42c-5.33301 -40.667 -14.5 -73.167 -27.5 -97.5s-27.5 -43 -43.5 -56s-32.5 -21.5 -49.5 -25.5s-32.167 -6 -45.5 -6
c-32 0 -58.667 10.5 -80 31.5s-42.666 54.833 -63.999 101.5c-28 -48 -59.333 -82.167 -94 -102.5s-72.334 -30.5 -113.001 -30.5c-28 0 -54.667 8.5 -80 25.5s-43.666 40.5 -54.999 70.5c-8.66699 -21.333 -18.5 -38.333 -29.5 -51s-22.5 -22.334 -34.5 -29.001
s-24.167 -11 -36.5 -13s-23.5 -3 -33.5 -3c-47.333 0 -81.5 14 -102.5 42s-31.5 65.667 -31.5 113v351h144z" />
    <glyph glyph-name="y_p" unicode="yp" horiz-adv-x="953" 
d="M677 537l0.000976562 -74.9971c11.333 12 25.833 22.167 43.5 30.5s39.167 12.5 64.5 12.5c22 0 43.167 -4.16699 63.5 -12.5s38.333 -22.333 54 -42s28 -45.834 37 -78.501s13.5 -73.334 13.5 -122.001c0 -28.667 -2.83301 -58 -8.5 -88s-15.5 -57.5 -29.5 -82.5
s-32.667 -45.5 -56 -61.5s-53 -24 -89 -24c-34 0 -65 1 -93 3v-211l-144 -36v252c-16 -0.666992 -31.667 -1.83398 -47 -3.50098s-31.333 -4.16699 -48 -7.5v-71c0 -36 -4.33301 -65 -13 -87s-20 -39.167 -34 -51.5s-29.5 -20.666 -46.5 -24.999s-33.833 -6.5 -50.5 -6.5
c-17.333 0 -34.166 2.5 -50.499 7.5s-30.833 12.333 -43.5 22s-22.667 21.667 -30 36s-11 31.166 -11 50.499c0 18 4 34 12 48s18.5 26.5 31.5 37.5s27.5 20.5 43.5 28.5s32 15 48 21v49c-16 -23.333 -33.667 -38.5 -53 -45.5s-37.666 -10.5 -54.999 -10.5
c-18.667 0 -36.334 3.5 -53.001 10.5s-31.334 18 -44.001 33s-22.834 34.167 -30.501 57.5s-11.5 51.333 -11.5 84v321h144v-340c0 -6 0.333008 -12.833 1 -20.5s2.5 -15.167 5.5 -22.5s7.33301 -13.5 13 -18.5s13.167 -7.5 22.5 -7.5c19.333 0 33.833 8.33301 43.5 25
s15.5 37.667 17.5 63v321h144v-459c15.333 4 31 7.5 47 10.5s32 5.83301 48 8.5v477h144zM721.001 76.0029c18 0 33.001 6 45.001 18s21.5 27.167 28.5 45.5s12 38.333 15 60s4.5 42.5 4.5 62.5c0 40 -3 71.5 -9 94.5s-13.167 40.167 -21.5 51.5s-17 18.333 -26 21
s-16.5 4 -22.5 4c-11.333 0 -22.5 -4.16699 -33.5 -12.5s-19.167 -20.833 -24.5 -37.5v-308c7.33301 0.666992 14.666 1 21.999 1h22zM213.002 -129.997c0 -10 3.83008 -19.501 11.4971 -28.501s17.834 -13.5 30.501 -13.5c10.667 0 19.834 7.33301 27.501 22
s11.5 37 11.5 67v29c-21.333 -8.66699 -40.166 -19.167 -56.499 -31.5s-24.5 -27.166 -24.5 -44.499z" />
    <glyph glyph-name="y_x" unicode="yx" horiz-adv-x="872" 
d="M438 500l0.00488281 -461.996c16 6 31.667 13 47 21s30.5 18 45.5 30s30 26.333 45 43s30.5 36.667 46.5 60l-121 308h141l85 -216c20 28.667 35.5 55.834 46.5 81.501s16.5 47.5 16.5 65.5c0 8 -0.666992 13.5 -2 16.5s-2.33301 5.5 -3 7.5
c-3.33301 -0.666992 -6.33301 -1.16699 -9 -1.5s-5.33398 -0.5 -8.00098 -0.5c-12 0 -21.833 2.16699 -29.5 6.5s-13.667 9.83301 -18 16.5s-7.5 13.667 -9.5 21s-3 14 -3 20c0 12.667 4.5 22.334 13.5 29.001s20.167 10 33.5 10c14 0 26.5 -3.16699 37.5 -9.5
s20.5 -14.833 28.5 -25.5s14 -22.834 18 -36.501s6 -27.834 6 -42.501c0 -28.667 -7.83301 -60.167 -23.5 -94.5s-39.834 -74.166 -72.501 -119.499l20 -49l12.5 -29.5c4.33301 -10.333 9.5 -19.833 15.5 -28.5s13 -15.834 21 -21.501s17.667 -8.5 29 -8.5
c19.333 0 35.5 8.33301 48.5 25s20.5 37.667 22.5 63h42c-5.33301 -40.667 -14.5 -73.167 -27.5 -97.5s-27.667 -42.833 -44 -55.5s-33 -21 -50 -25s-32.167 -6 -45.5 -6c-31.333 0 -58 10.667 -80 32s-43.667 55.666 -65 102.999c-14 -19.333 -29.667 -36.333 -47 -51
s-35.333 -27.334 -54 -38.001s-37.334 -19.834 -56.001 -27.501s-36.334 -14.167 -53.001 -19.5v-74c0 -36 -4.33301 -65 -13 -87s-20 -39.167 -34 -51.5s-29.5 -20.666 -46.5 -24.999s-33.833 -6.5 -50.5 -6.5c-17.333 0 -34.166 2.5 -50.499 7.5s-30.833 12.333 -43.5 22
s-22.667 21.667 -30 36s-11 31.166 -11 50.499c0 15.333 4 29.333 12 42s18.5 24.167 31.5 34.5s27.5 19.666 43.5 27.999s32 15.5 48 21.5v58c-16 -23.333 -33.833 -38.333 -53.5 -45s-38.167 -10 -55.5 -10c-18.667 0 -36.334 3.5 -53.001 10.5
s-31.334 17.833 -44.001 32.5s-22.667 33.667 -30 57s-11 51.333 -11 84v321h144v-340c0 -6 0.333008 -12.833 1 -20.5s2.5 -15.167 5.5 -22.5s7.33301 -13.5 13 -18.5s13.167 -7.5 22.5 -7.5c19.333 0 33.833 8.33301 43.5 25s15.5 37.667 17.5 63v321h144z
M213.005 -129.996c0 -10 3.83008 -19.501 11.4971 -28.501s17.834 -13.5 30.501 -13.5c10.667 0 19.834 7.33301 27.501 22s11.5 37 11.5 67v29c-21.333 -8.66699 -40.166 -19.167 -56.499 -31.5s-24.5 -27.166 -24.5 -44.499z" />
    <glyph glyph-name="y_z" unicode="y&#x7a;" horiz-adv-x="888" 
d="M438 500l0.00195312 -580.005c0 -35.333 -4.33301 -64.166 -13 -86.499s-19.834 -39.666 -33.501 -51.999s-28.667 -20.666 -45 -24.999s-32.166 -6.5 -47.499 -6.5c-19.333 0 -37.5 2.66699 -54.5 8s-31.667 12.833 -44 22.5s-22.166 21.5 -29.499 35.5
s-11 29.667 -11 47c0 18 3.83301 34.167 11.5 48.5s17.834 26.833 30.501 37.5s27 19.834 43 27.501s32.333 14.167 49 19.5v55c-8.66699 -12.667 -17.834 -22.667 -27.501 -30s-19.334 -13 -29.001 -17s-19.334 -6.66699 -29.001 -8s-18.834 -2 -27.501 -2
c-47.333 0 -81.5 14 -102.5 42s-31.5 65.667 -31.5 113v351h144v-340c0 -25.333 3.5 -43.166 10.5 -53.499s17.167 -15.5 30.5 -15.5c18 0 32.333 8.33301 43 25s17 37.667 19 63v321h144zM825.002 90.9951c-8 0.666992 -13.9971 3.50195 -17.9971 8.50195
s-6 10.833 -6 17.5c0 8.66699 3.66699 17.167 11 25.5s19.333 12.5 36 12.5c18.667 0 32.667 -6.16699 42 -18.5s14 -26.833 14 -43.5c0 -10.667 -2 -21.5 -6 -32.5s-10.333 -21 -19 -30s-19.334 -16.333 -32.001 -22s-27.334 -8.5 -44.001 -8.5h-276l196 446h-74
c-14.667 0 -26.834 -0.833008 -36.501 -2.5s-14.5 -5.5 -14.5 -11.5c0 -2.66699 0.833008 -4 2.5 -4s3.66699 -0.666992 6 -2s4.33301 -4 6 -8s2.5 -11 2.5 -21c0 -14.667 -4.5 -25.334 -13.5 -32.001s-19.167 -10 -30.5 -10c-13.333 0 -26.166 4.5 -38.499 13.5
s-18.5 22.833 -18.5 41.5c0 10 2 20.167 6 30.5s10 20 18 29s18 16.333 30 22s26 8.5 42 8.5h275l-191 -423c4 0 9.66699 -0.333008 17 -1s15.166 -1.33398 23.499 -2.00098l25 -2c8.33301 -0.666992 15.833 -1 22.5 -1c12 0 22.167 1.33301 30.5 4s12.5 8 12.5 16z
M213.005 -128.003c0 -13.333 4.50098 -24 13.501 -32s18.167 -12 27.5 -12c12 0 21.667 7.33301 29 22s11 37 11 67v29c-22.667 -9.33301 -41.834 -20 -57.501 -32s-23.5 -26 -23.5 -42z" />
    <glyph glyph-name=".notdef" horiz-adv-x="385" 
 />
    <glyph glyph-name="space" unicode=" " horiz-adv-x="215" 
 />
    <glyph glyph-name="exclam" unicode="!" horiz-adv-x="266" 
d="M91 231l-29 469h144l-30 -469h-85zM53 79c0 22 7.66699 40.833 23 56.5s34 23.5 56 23.5s40.833 -7.83301 56.5 -23.5s23.5 -34.5 23.5 -56.5s-7.83301 -40.667 -23.5 -56s-34.5 -23 -56.5 -23s-40.667 7.66699 -56 23s-23 34 -23 56z" />
    <glyph glyph-name="quotedbl" unicode="&#x22;" horiz-adv-x="349" 
d="M62 750h105l-51 -189h-75zM219 750h105l-51 -189h-75z" />
    <glyph glyph-name="numbersign" unicode="#" horiz-adv-x="557" 
d="M336 111h-120v-138h-57v138h-119v102h119v113h-119v102h119v290h57v-290h120v290h57v-290h125v-102h-125v-113h125v-102h-125v-138h-57v138zM216 213h120v113h-120v-113z" />
    <glyph glyph-name="dollar" unicode="$" horiz-adv-x="385" 
d="M335 506c0 -16.667 -2.99707 -30.165 -8.99707 -40.498s-15.333 -15.5 -28 -15.5c-8 0 -15.333 1.83301 -22 5.5s-13.667 9.5 -21 17.5c6 3.33301 10.167 8.83301 12.5 16.5s3.5 15.167 3.5 22.5c0 15.333 -6.16699 29.666 -18.5 42.999s-30.5 20.333 -54.5 21v-157
c16.667 -10.667 34.167 -21.167 52.5 -31.5s35.166 -22.333 50.499 -36s28.166 -30 38.499 -49s15.5 -41.833 15.5 -68.5c0 -41.333 -14.167 -72.666 -42.5 -93.999s-66.5 -32.333 -114.5 -33v-134h-36v136c-17.333 2 -33.666 5.83301 -48.999 11.5s-28.833 13.5 -40.5 23.5
s-20.834 22.5 -27.501 37.5s-10 32.833 -10 53.5c0 22.667 5.5 40.5 16.5 53.5s25.167 19.5 42.5 19.5c14 0 25 -2.5 33 -7.5s12.667 -10.833 14 -17.5c-10 -2 -17.5 -7.66699 -22.5 -17s-7.5 -20.666 -7.5 -33.999c0 -20.667 5.16699 -37.667 15.5 -51
s22.166 -23.333 35.499 -30v198l-43.5 29.5c-14.333 9.66699 -27.333 20.167 -39 31.5s-21.167 23.833 -28.5 37.5s-11 29.5 -11 47.5c0 14.667 3.33301 28.667 10 42s15.667 25 27 35s24.333 18.333 39 25s30 11 46 13v108h36v-106c14 -0.666992 29 -2.33398 45 -5.00098
s30.833 -7.83398 44.5 -15.501s25 -18.334 34 -32.001s13.5 -31.5 13.5 -53.5zM254.003 215.002c0 24 -5.33301 44.667 -16 62s-24 32.666 -40 45.999v-179c21.333 1.33301 36 8.83301 44 22.5s12 29.834 12 48.501zM131.003 515.002c0 -14.667 2.83301 -27.333 8.5 -38
s13.167 -20.667 22.5 -30v121c-10.667 -6 -18.5 -14 -23.5 -24s-7.5 -19.667 -7.5 -29z" />
    <glyph glyph-name="percent" unicode="%" horiz-adv-x="636" 
d="M203 0h-72l315 750h72zM150 702c22 0 40.1709 -4.49805 54.5039 -13.498s25.666 -21 33.999 -36s14.166 -32 17.499 -51s5 -38.167 5 -57.5c0 -18.667 -2 -38 -6 -58s-10.333 -38.333 -19 -55s-19.834 -30.334 -33.501 -41.001s-30.167 -16 -49.5 -16
s-36.833 2.83301 -52.5 8.5s-29 15 -40 28s-19.5 30.167 -25.5 51.5s-9 47.666 -9 78.999c0 22.667 2.66699 43.667 8 63s13.166 36.333 23.499 51s23.333 26.167 39 34.5s33.5 12.5 53.5 12.5zM98.0039 549.002c0 -10 0.332031 -22.8301 0.999023 -38.4971
s2.5 -30.834 5.5 -45.501s7.83301 -27.334 14.5 -38.001s16.334 -16 29.001 -16c9.33301 0 17.333 3.33301 24 10s12.334 15.5 17.001 26.5s8 23.833 10 38.5s3 30 3 46c0 26.667 -1.5 48.667 -4.5 66s-6.83301 31.166 -11.5 41.499s-9.83398 17.5 -15.501 21.5
s-11.167 6 -16.5 6c-12 0 -24.333 -10 -37 -30s-19 -49.333 -19 -88zM500.003 328.005c22 0 40.1709 -4.49805 54.5039 -13.498s25.666 -21 33.999 -36s14.166 -32 17.499 -51s5 -38.167 5 -57.5c0 -18.667 -2 -38 -6 -58s-10.333 -38.333 -19 -55
s-19.834 -30.334 -33.501 -41.001s-30.167 -16 -49.5 -16s-36.833 2.83301 -52.5 8.5s-29 15 -40 28s-19.5 30.167 -25.5 51.5s-9 47.666 -9 78.999c0 22.667 2.66699 43.667 8 63s13.166 36.333 23.499 51s23.333 26.167 39 34.5s33.5 12.5 53.5 12.5zM448.007 175.007
c0 -10 0.332031 -22.8301 0.999023 -38.4971s2.5 -30.834 5.5 -45.501s7.83301 -27.334 14.5 -38.001s16.334 -16 29.001 -16c9.33301 0 17.333 3.33301 24 10s12.334 15.5 17.001 26.5s8 23.833 10 38.5s3 30 3 46c0 26.667 -1.5 48.667 -4.5 66
s-6.83301 31.166 -11.5 41.499s-9.83398 17.5 -15.501 21.5s-11.167 6 -16.5 6c-12 0 -24.333 -10 -37 -30s-19 -49.333 -19 -88z" />
    <glyph glyph-name="ampersand" unicode="&#x26;" horiz-adv-x="670" 
d="M662 413c1.33301 -6.66699 2 -12.002 2 -16.002c0 -13.333 -3.16699 -26.666 -9.5 -39.999s-15.166 -25.666 -26.499 -36.999s-24.666 -21.166 -39.999 -29.499s-32.333 -13.833 -51 -16.5c-0.666992 -40.667 -7.5 -78.667 -20.5 -114s-31.167 -66.166 -54.5 -92.499
s-51.833 -47.166 -85.5 -62.499s-71.5 -23 -113.5 -23c-38 0 -71.167 6.16699 -99.5 18.5s-52 28.833 -71 49.5s-33.167 44.334 -42.5 71.001s-14 54 -14 82c0 22.667 2.83301 45.5 8.5 68.5s14.167 44.333 25.5 64s25.5 36.667 42.5 51s36.833 24.5 59.5 30.5
c-32 20 -55.167 43 -69.5 69s-21.5 53.667 -21.5 83c0 22.667 4 45 12 67s19.833 41.5 35.5 58.5s34.5 30.833 56.5 41.5s47 16 75 16c30.667 0 56.667 -4 78 -12s38.666 -18.333 51.999 -31s23 -27 29 -43s9 -32 9 -48c0 -11.333 -1.16699 -22.5 -3.5 -33.5
s-5.83301 -20.833 -10.5 -29.5s-10.334 -15.5 -17.001 -20.5s-14.334 -7.5 -23.001 -7.5c-7.33301 0 -14.666 1.5 -21.999 4.5s-15.333 9.16699 -24 18.5c9.33301 5.33301 16 14.5 20 27.5s6 26.833 6 41.5c0 16 -2.33301 29.167 -7 39.5s-10.5 18.166 -17.5 23.499
s-14.667 9 -23 11s-16.5 3 -24.5 3c-12 0 -22.667 -3.16699 -32 -9.5s-17.333 -14.833 -24 -25.5s-11.667 -22.834 -15 -36.501s-5 -27.834 -5 -42.501c0 -17.333 2.66699 -34.5 8 -51.5s13.333 -32.833 24 -47.5s24.334 -27.667 41.001 -39s36.667 -20 60 -26
c-21.333 -5.33301 -40.333 -14.833 -57 -28.5s-30.5 -30 -41.5 -49s-19.333 -39.5 -25 -61.5s-8.5 -43.333 -8.5 -64c0 -18 2.33301 -35.333 7 -52s11.834 -31.334 21.501 -44.001s22.167 -22.667 37.5 -30s33.666 -11 54.999 -11c56 0 97.5 15.833 124.5 47.5
s43.5 80.5 49.5 146.5c-14 0.666992 -27.667 1.83398 -41 3.50098s-26.333 2.5 -39 2.5c-44 0 -72 -15 -84 -45l-7 1c1.33301 41.333 15.833 75.166 43.5 101.499s67.5 39.5 119.5 39.5c14 0 27.167 -0.833008 39.5 -2.5s24.833 -2.5 37.5 -2.5
c18.667 0 36.167 3.33301 52.5 10s27.166 17.667 32.499 33h6z" />
    <glyph glyph-name="quotesingle" unicode="'" horiz-adv-x="192" 
d="M62 750h105l-51 -189h-75z" />
    <glyph glyph-name="parenleft" unicode="(" horiz-adv-x="279" 
d="M267 710c-24.667 -13.333 -46.5 -35.8369 -65.5 -67.5039s-35 -68.667 -48 -111s-22.833 -88.166 -29.5 -137.499s-10 -98.666 -10 -147.999c0 -89.333 12.5 -174.166 37.5 -254.499s64.833 -151.166 119.5 -212.499l-26 -29c-70 62.667 -122 137.167 -156 223.5
s-51 178.5 -51 276.5c0 51.333 4.33301 102.833 13 154.5s21.667 100 39 145s39 85.167 65 120.5s56 62 90 80z" />
    <glyph glyph-name="parenright" unicode=")" horiz-adv-x="280" 
d="M13 -210c24.667 13.333 46.335 35.833 65.002 67.5s34.5 68.5 47.5 110.5s22.833 87.833 29.5 137.5s10 99.167 10 148.5c0 90.667 -12.667 176 -38 256s-65 150.333 -119 211l27 29c69.333 -62.667 121.166 -137.167 155.499 -223.5s51.5 -178.833 51.5 -277.5
c0 -51.333 -4.33301 -102.833 -13 -154.5s-21.834 -100 -39.501 -145s-39.5 -85 -65.5 -120s-56 -61.5 -90 -79.5z" />
    <glyph glyph-name="asterisk" unicode="*" horiz-adv-x="400" 
d="M231 752v-134l102 61l35 -52l-108 -65l109 -61l-25 -52l-113 63v-136h-65v130l-96 -57l-35 52l105 63l-112 63l25 52l113 -64v137h65z" />
    <glyph glyph-name="plus" unicode="+" horiz-adv-x="443" 
d="M278 317h128v-112h-129v-123h-113v123h-127v112h129v122h112v-122z" />
    <glyph glyph-name="comma" unicode="," horiz-adv-x="234" 
d="M39 89c0 18.667 7 34.999 21 48.999s30.667 21 50 21c26.667 0 47 -10 61 -30s21 -44.333 21 -73c0 -14 -2 -29.167 -6 -45.5s-9.83301 -32.5 -17.5 -48.5s-17.167 -31.667 -28.5 -47s-24.333 -29 -39 -41c-6 3.33301 -9.83301 7.16602 -11.5 11.499s-2.5 8.5 -2.5 12.5
c0 7.33301 1.33301 14.333 4 21s5.83398 13.334 9.50098 20.001s6.83398 13.334 9.50098 20.001s4 13.667 4 21c0 8.66699 -3.83301 16.167 -11.5 22.5s-16.334 13 -26.001 20s-18.334 15.667 -26.001 26s-11.5 23.833 -11.5 40.5z" />
    <glyph glyph-name="hyphen" unicode="-" horiz-adv-x="319" 
d="M260 222h-201v79h201v-79z" />
    <glyph glyph-name="period" unicode="." horiz-adv-x="237" 
d="M39 79c0 22 7.66699 40.833 23 56.5s34 23.5 56 23.5s40.833 -7.83301 56.5 -23.5s23.5 -34.5 23.5 -56.5s-7.83301 -40.667 -23.5 -56s-34.5 -23 -56.5 -23s-40.667 7.66699 -56 23s-23 34 -23 56z" />
    <glyph glyph-name="slash" unicode="/" horiz-adv-x="526" 
d="M87 -250h-72l425 1000h72z" />
    <glyph glyph-name="zero" unicode="0" horiz-adv-x="597" 
d="M309 750c47.333 0 86.666 -10.6699 117.999 -32.0029s56.166 -49.166 74.499 -83.499s31.166 -73.166 38.499 -116.499s11 -86.666 11 -129.999c0 -50 -4.5 -98.667 -13.5 -146s-23.667 -89.333 -44 -126s-46.666 -66.167 -78.999 -88.5s-71.833 -33.5 -118.5 -33.5
c-37.333 0 -71.5 7.83301 -102.5 23.5s-57.5 39 -79.5 70s-39 69.5 -51 115.5s-18 99.667 -18 161c0 59.333 5.83301 112.833 17.5 160.5s28.834 88.167 51.501 121.5s50.334 59 83.001 77s70 27 112 27zM200 363.997c0 -49.333 3.16602 -91.501 9.49902 -126.501
s14.833 -63.667 25.5 -86s22.5 -38.666 35.5 -48.999s26.5 -15.5 40.5 -15.5c16.667 0 31.5 7.16699 44.5 21.5s24 34.833 33 61.5s16 59.167 21 97.5s7.5 81.5 7.5 129.5c0 54 -2.83301 99.167 -8.5 135.5s-13.167 65.333 -22.5 87s-19.666 37.167 -30.999 46.5
s-23 14 -35 14c-16 0 -31.167 -7.16699 -45.5 -21.5s-27 -35 -38 -62s-19.833 -60 -26.5 -99s-10 -83.5 -10 -133.5z" />
    <glyph glyph-name="one" unicode="1" horiz-adv-x="333" 
d="M256 0h-143.999v598h-96v53c28 0 61.667 7.16699 101 21.5s85.666 39.5 138.999 75.5v-748z" />
    <glyph glyph-name="two" unicode="2" horiz-adv-x="510" 
d="M147 122c27.333 0 57.3311 -3 89.998 -9s65.667 -9 99 -9c18 0 33.333 1.33301 46 4s23.667 6.83398 33 12.501s17.333 12.834 24 21.501s13.667 19 21 31c1.33301 -5.33301 4.83301 -14.833 10.5 -28.5s8.5 -34.167 8.5 -61.5c0 -32.667 -7.33301 -56.5 -22 -71.5
s-42.334 -22.5 -83.001 -22.5c-23.333 0 -44.666 1.83301 -63.999 5.5s-38.666 7.83398 -57.999 12.501s-39.166 8.83398 -59.499 12.501s-42.833 5.5 -67.5 5.5c-6 0 -12.167 -1.16699 -18.5 -3.5s-12.833 -5 -19.5 -8s-13 -6 -19 -9s-11.333 -5.5 -16 -7.5
c-1.33301 3.33301 -4 9.66602 -8 18.999s-6 24.333 -6 45c0 31.333 6.5 60.666 19.5 87.999s29.333 53.666 49 78.999s41 50.333 64 75s44.333 50.5 64 77.5s36 55.5 49 85.5s19.5 63.333 19.5 100c0 15.333 -1.5 30.333 -4.5 45s-8 27.834 -15 39.501s-16.667 21 -29 28
s-27.5 10.5 -45.5 10.5c-24 0 -40 -5.33301 -48 -16s-12 -22.667 -12 -36c0 -7.33301 1 -15.666 3 -24.999s5.16699 -18.333 9.5 -27s10 -16.667 17 -24s15.5 -12.333 25.5 -15c-9.33301 -10.667 -19.833 -19 -31.5 -25s-24.167 -9 -37.5 -9c-12 0 -23.5 2.5 -34.5 7.5
s-20.833 12 -29.5 21s-15.667 20.167 -21 33.5s-8 28.666 -8 45.999c0 16.667 3 32.834 9 48.501s16 29.5 30 41.5s32.5 21.5 55.5 28.5s51.167 10.5 84.5 10.5c42 0 77.5 -5.5 106.5 -16.5s52.5 -25.833 70.5 -44.5s31 -39.834 39 -63.501s12 -47.834 12 -72.501
c0 -36 -6.66699 -68.333 -20 -97s-30.333 -55.334 -51 -80.001s-43.334 -47.5 -68.001 -68.5l-72 -61.5c-23.333 -20 -44.166 -40 -62.499 -60s-31.5 -41 -39.5 -63h11v0z" />
    <glyph glyph-name="three" unicode="3" horiz-adv-x="535" 
d="M218 257c-14.667 0 -26.667 -2.33691 -36 -7.00391s-16.666 -11 -21.999 -19s-9 -16.833 -11 -26.5s-3 -19.5 -3 -29.5c0 -20.667 3 -37.5 9 -50.5s13.667 -23.333 23 -31s19.5 -12.834 30.5 -15.501s21.5 -4 31.5 -4c20 0 37 4.66699 51 14s25.333 21.166 34 35.499
s15 30.5 19 48.5s6 36 6 54c0 22.667 -3.16699 44.834 -9.5 66.501s-16.333 41.334 -30 59.001s-31 32.334 -52 44.001s-45.833 19.167 -74.5 22.5c24 6.66699 45.167 16.167 63.5 28.5s33.666 26.166 45.999 41.499s21.833 31.5 28.5 48.5s10 34.167 10 51.5
c0 12.667 -2 25.167 -6 37.5s-10 23.166 -18 32.499s-17.833 16.833 -29.5 22.5s-25.167 8.5 -40.5 8.5c-20 0 -36 -4.83301 -48 -14.5s-18 -24.167 -18 -43.5c0 -7.33301 1 -15.333 3 -24s5.16699 -17.167 9.5 -25.5s9.66602 -15.666 15.999 -21.999
s13.833 -10.833 22.5 -13.5c-10 -11.333 -21.167 -19.833 -33.5 -25.5s-24.5 -8.5 -36.5 -8.5s-23.333 2.33301 -34 7s-20.167 11.5 -28.5 20.5s-15 19.833 -20 32.5s-7.5 26.667 -7.5 42c0 41.333 17.333 74.166 52 98.499s80.334 36.5 137.001 36.5
c32.667 0 61.667 -4.16699 87 -12.5s46.5 -19.666 63.5 -33.999s30 -31.166 39 -50.499s13.5 -40 13.5 -62c0 -30 -8.66699 -61 -26 -93s-45 -58.667 -83 -80c56.667 -16 97.5 -38.5 122.5 -67.5s37.5 -65.5 37.5 -109.5c0 -29.333 -5.16699 -58.666 -15.5 -87.999
s-25.833 -55.666 -46.5 -78.999s-46 -42.333 -76 -57s-64.667 -22 -104 -22c-10 0 -22.667 0.666992 -38 2s-31.666 4.33301 -48.999 9s-34.5 11.334 -51.5 20.001s-32.5 20 -46.5 34s-25.333 31.167 -34 51.5s-13 44.833 -13 73.5c0 38 8.33301 68.167 25 90.5
s42 33.5 76 33.5c19.333 0 36.666 -4 51.999 -12s26.333 -21 33 -39z" />
    <glyph glyph-name="four" unicode="4" horiz-adv-x="513" 
d="M17 270c2.66699 23.333 8.49902 49.834 17.499 79.501l28.5 93.5c10 32.667 18.833 65.667 26.5 99s11.5 65.666 11.5 96.999s-1.66699 54.333 -5 69s-7.66602 28.667 -12.999 42c17.333 0 33.333 -1.33301 48 -4s27.167 -8.16699 37.5 -16.5s18.5 -20 24.5 -35
s9 -34.833 9 -59.5c0 -22.667 -3.33301 -46 -10 -70s-14.5 -48.167 -23.5 -72.5s-18.667 -48.5 -29 -72.5s-18.833 -47.667 -25.5 -71h155v381l145 20v-401h63v-79h-63v-270h-145v270h-252z" />
    <glyph glyph-name="five" unicode="5" horiz-adv-x="518" 
d="M425 749c3.33301 -10 6.33496 -19.499 9.00195 -28.499s4 -20.167 4 -33.5c0 -24.667 -7 -45.334 -21 -62.001s-38.667 -25 -74 -25c-12.667 0 -26.834 1 -42.501 3s-31.334 4.5 -47.001 7.5l-45.5 8.5c-14.667 2.66699 -27 4.66699 -37 6l-30 -181
c20.667 11.333 40.834 19.333 60.501 24s39.834 7 60.501 7c36 0 67.833 -6.5 95.5 -19.5s51 -30.5 70 -52.5s33.5 -47.667 43.5 -77s15 -60 15 -92c0 -28.667 -4.33301 -57.334 -13 -86.001s-22.5 -54.334 -41.5 -77.001s-43.833 -41.167 -74.5 -55.5s-68 -21.5 -112 -21.5
c-22 0 -45.333 2 -70 6s-47.334 11.833 -68.001 23.5s-37.667 28.167 -51 49.5s-20 49.333 -20 84c0 22.667 3 41.834 9 57.501s13.833 28.5 23.5 38.5s20.667 17.167 33 21.5s24.833 6.5 37.5 6.5c20 0 37 -4.16699 51 -12.5s24.667 -21.166 32 -38.499
c-25.333 -3.33301 -44.333 -10.166 -57 -20.499s-19 -26.166 -19 -47.499c0 -15.333 2.83301 -28.833 8.5 -40.5s13.167 -21.5 22.5 -29.5s19.666 -14 30.999 -18s23 -6 35 -6c18.667 0 34.5 5 47.5 15s23.5 22.833 31.5 38.5s13.833 33 17.5 52s5.5 37.167 5.5 54.5
c0 28 -3.83301 52.167 -11.5 72.5s-18 37.166 -31 50.499s-28.333 23.166 -46 29.499s-36.167 9.5 -55.5 9.5c-30 0 -57.833 -5.83301 -83.5 -17.5s-46.5 -23.167 -62.5 -34.5l60 396c18 -2 33.667 -4 47 -6l37 -5.5c11.333 -1.66699 22.5 -3 33.5 -4s23.5 -1.5 37.5 -1.5
c25.333 0 50.5 2.33301 75.5 7s51.5 13 79.5 25z" />
    <glyph glyph-name="six" unicode="6" horiz-adv-x="552" 
d="M231 329c-13.333 12.667 -19.9971 26.6631 -19.9971 41.9961c0 11.333 3 22.5 9 33.5s14.5 20.833 25.5 29.5s24 15.667 39 21s31.5 8 49.5 8c35.333 0 65 -6.5 89 -19.5s43.167 -29.833 57.5 -50.5s24.666 -43.334 30.999 -68.001s9.5 -48.334 9.5 -71.001
c0 -34.667 -5.16699 -67.667 -15.5 -99s-25.666 -59 -45.999 -83s-45.5 -43 -75.5 -57s-64.667 -21 -104 -21c-30 0 -59.167 5.33301 -87.5 16s-53.5 28.334 -75.5 53.001s-39.667 57.334 -53 98.001s-20 91 -20 151c0 56 5.33301 110.333 16 163s27.5 99.334 50.5 140.001
s52.167 73.334 87.5 98.001s77.666 37 126.999 37c23.333 0 43.833 -2.83301 61.5 -8.5s32.5 -13.167 44.5 -22.5s21 -20.166 27 -32.499s9 -25.5 9 -39.5c0 -16 -3.83301 -30.333 -11.5 -43s-18.834 -19 -33.501 -19c-10 0 -21.333 3.33301 -34 10c8 9.33301 12 21 12 35
c0 16.667 -6.83301 30.834 -20.5 42.501s-29.834 17.5 -48.501 17.5c-24 0 -45.5 -10.833 -64.5 -32.5s-35 -50.167 -48 -85.5s-23 -75.166 -30 -119.499s-10.5 -89.5 -10.5 -135.5c0 -49.333 3.66699 -89.166 11 -119.499s16.666 -53.833 27.999 -70.5
s23.833 -27.834 37.5 -33.501s26.834 -8.5 39.501 -8.5c20 0 37.167 5 51.5 15s26 23 35 39s15.667 34.167 20 54.5s6.5 40.833 6.5 61.5c0 44 -8.33301 76.833 -25 98.5s-39 32.5 -67 32.5c-15.333 0 -30.5 -3.83301 -45.5 -11.5s-27.833 -22.834 -38.5 -45.501z" />
    <glyph glyph-name="seven" unicode="7" horiz-adv-x="473" 
d="M472 733c0 -14.667 -5.33203 -33.167 -15.999 -55.5s-24.167 -47.5 -40.5 -75.5l-53 -91c-19 -32.667 -36.667 -67 -53 -103s-29.833 -73 -40.5 -111s-16 -76 -16 -114c0 -25.333 1.5 -46.5 4.5 -63.5s6.83301 -31.833 11.5 -44.5s9.83398 -24.167 15.501 -34.5
l17.5 -33.5c-20.667 -10.667 -40.667 -16 -60 -16c-23.333 0 -43.5 4.66699 -60.5 14s-31 21.833 -42 37.5s-19.167 33.667 -24.5 54s-8 41.5 -8 63.5c0 29.333 5.83301 59 17.5 89s26.167 59.667 43.5 89s36.166 57.833 56.499 85.5l56.5 78
c17.333 24.333 31.833 46.5 43.5 66.5s17.5 37.333 17.5 52c0 4 -6 7.5 -18 10.5s-26 5.5 -42 7.5s-32 3.66699 -48 5s-28.333 2 -37 2c-30.667 0 -55.834 -5.33301 -75.501 -16s-29.5 -31 -29.5 -61c-22 0.666992 -40.333 12 -55 34s-22 48.333 -22 79
c0 14 2.33301 25.5 7 34.5s11.167 16 19.5 21s18.333 8.33301 30 10s24.5 2.5 38.5 2.5c20 0 41.833 -1.33301 65.5 -4l73 -8.5l73.5 -8.5c24 -2.66699 46.667 -4 68 -4c26.667 0 54 3 82 9z" />
    <glyph glyph-name="eight" unicode="8" horiz-adv-x="551" 
d="M277 78c14.667 0 28.332 4.17383 40.999 12.5068s23.5 19.166 32.5 32.499s16.167 28.333 21.5 45s8 33.667 8 51c0 20.667 -3.83301 39.667 -11.5 57s-17.167 32.666 -28.5 45.999s-23.666 24.666 -36.999 33.999s-26 16.666 -38 21.999
c-15.333 -7.33301 -28.666 -17 -39.999 -29s-20.666 -25.5 -27.999 -40.5s-12.833 -30.5 -16.5 -46.5s-5.5 -31 -5.5 -45c0 -18.667 2.66699 -36.334 8 -53.001s12.666 -31.334 21.999 -44.001s20.166 -22.834 32.499 -30.501s25.5 -11.5 39.5 -11.5zM280.998 -5.99316
c-36.667 0 -70 6.49707 -100 19.4971s-55.667 30 -77 51s-37.833 45.167 -49.5 72.5s-17.5 55.666 -17.5 84.999c0 18.667 2.66699 38 8 58s13.833 38.833 25.5 56.5s26.5 33.5 44.5 47.5s39.667 25 65 33c-38 20 -66.167 43.833 -84.5 71.5s-27.5 57.167 -27.5 88.5
c0 21.333 4.16699 42.333 12.5 63s21 39.167 38 55.5s37.833 29.5 62.5 39.5s53.667 15 87 15c31.333 0 59.833 -4.66699 85.5 -14s47.667 -21.666 66 -36.999s32.5 -33.166 42.5 -53.499s15 -41.5 15 -63.5c0 -29.333 -9.16699 -59.333 -27.5 -90
s-45.833 -55.667 -82.5 -75c50 -15.333 88 -40.666 114 -75.999s39 -74.333 39 -117c0 -27.333 -5.33301 -54.666 -16 -81.999s-26.167 -52 -46.5 -74s-45.333 -39.833 -75 -53.5s-63.5 -20.5 -101.5 -20.5zM272.998 451.004c25.333 18.667 44.666 42.001 57.999 70.001
s20 54.667 20 80c0 12 -1.66699 24 -5 36s-8.16602 22.5 -14.499 31.5s-14.333 16.333 -24 22s-20.5 8.5 -32.5 8.5c-24 0 -43.167 -10.333 -57.5 -31s-21.5 -45.334 -21.5 -74.001c0 -26 6.5 -51.667 19.5 -77s32.167 -47.333 57.5 -66z" />
    <glyph glyph-name="nine" unicode="9" horiz-adv-x="551" 
d="M320 445c13.333 -12.667 19.9971 -26.6631 19.9971 -41.9961c0 -11.333 -3 -22.5 -9 -33.5s-14.5 -20.833 -25.5 -29.5s-24 -15.667 -39 -21s-31.5 -8 -49.5 -8c-35.333 0 -65 6.5 -89 19.5s-43.167 29.833 -57.5 50.5s-24.666 43.167 -30.999 67.5
s-9.5 48.166 -9.5 71.499c0 30.667 5.16699 60 15.5 88s25.666 52.5 45.999 73.5s45.5 37.667 75.5 50s64.667 18.5 104 18.5c30 0 59.167 -5.33301 87.5 -16s53.5 -28.334 75.5 -53.001s39.667 -57.334 53 -98.001s20 -91 20 -151c0 -56 -5.33301 -110.333 -16 -163
s-27.5 -99.334 -50.5 -140.001s-52.167 -73.334 -87.5 -98.001s-77.666 -37 -126.999 -37c-23.333 0 -43.833 3.83301 -61.5 11.5s-32.5 17.5 -44.5 29.5s-21 25.333 -27 40s-9 29 -9 43c0 16 3.83301 30.333 11.5 43s18.834 19 33.501 19c10 0 21.333 -3.33301 34 -10
c-8 -9.33301 -12 -21 -12 -35c0 -16.667 6.83301 -30.834 20.5 -42.501s29.834 -17.5 48.501 -17.5c24 0 45.5 9.83301 64.5 29.5s35 45.667 48 78s23 69.666 30 111.999s10.5 86.5 10.5 132.5c0 49.333 -3.66699 90.333 -11 123s-16.666 58.834 -27.999 78.501
s-23.833 33.5 -37.5 41.5s-26.834 12 -39.501 12c-20 0 -37.167 -5.16699 -51.5 -15.5s-26 -23.5 -35 -39.5s-15.667 -33.667 -20 -53s-6.5 -37.666 -6.5 -54.999c0 -44 8.33301 -76.833 25 -98.5s39 -32.5 67 -32.5c15.333 0 30.5 3.83301 45.5 11.5
s27.833 22.834 38.5 45.501z" />
    <glyph glyph-name="colon" unicode=":" horiz-adv-x="271" 
d="M56 135c0 22 7.66699 40.833 23 56.5s34 23.5 56 23.5s40.833 -7.83301 56.5 -23.5s23.5 -34.5 23.5 -56.5s-7.83301 -40.667 -23.5 -56s-34.5 -23 -56.5 -23s-40.667 7.66699 -56 23s-23 34 -23 56zM56 375c0 22 7.66699 40.833 23 56.5s34 23.5 56 23.5
s40.833 -7.83301 56.5 -23.5s23.5 -34.5 23.5 -56.5s-7.83301 -40.667 -23.5 -56s-34.5 -23 -56.5 -23s-40.667 7.66699 -56 23s-23 34 -23 56z" />
    <glyph glyph-name="semicolon" unicode=";" horiz-adv-x="272" 
d="M54 375c0 22 7.66699 40.833 23 56.5s34 23.5 56 23.5s40.833 -7.83301 56.5 -23.5s23.5 -34.5 23.5 -56.5s-7.83301 -40.667 -23.5 -56s-34.5 -23 -56.5 -23s-40.667 7.66699 -56 23s-23 34 -23 56zM62 89c0 18.667 7 34.999 21 48.999s30.667 21 50 21
c26.667 0 47 -10 61 -30s21 -44.333 21 -73c0 -14 -2 -29.167 -6 -45.5s-9.83301 -32.5 -17.5 -48.5s-17.167 -31.667 -28.5 -47s-24.333 -29 -39 -41c-6 3.33301 -9.83301 7.16602 -11.5 11.499s-2.5 8.5 -2.5 12.5c0 7.33301 1.33301 14.333 4 21
s5.83398 13.334 9.50098 20.001s6.83398 13.334 9.50098 20.001s4 13.667 4 21c0 8.66699 -3.83301 16.167 -11.5 22.5s-16.334 13 -26.001 20s-18.334 15.667 -26.001 26s-11.5 23.833 -11.5 40.5z" />
    <glyph glyph-name="less" unicode="&#x3c;" horiz-adv-x="358" 
d="M302 374l-215 -120l214 -96v-57l-276 137v41l275 150z" />
    <glyph glyph-name="equal" unicode="=" horiz-adv-x="493" 
d="M430 316h-367v112h367v-112zM430 101h-367v112h367v-112z" />
    <glyph glyph-name="greater" unicode="&#x3e;" horiz-adv-x="362" 
d="M56 429l278 -150v-54l-277 -124l2 57l219 96l-219 120z" />
    <glyph glyph-name="question" unicode="?" horiz-adv-x="420" 
d="M395 548c0 -27.333 -3.83301 -50.832 -11.5 -70.499s-17.5 -37.334 -29.5 -53.001s-25 -30.167 -39 -43.5s-27.5 -27.166 -40.5 -41.499s-24.333 -30.166 -34 -47.499s-15.834 -37.333 -18.501 -60h-66c-2 10.667 -3 20.667 -3 30c0 26.667 6.33301 50.667 19 72
s26.667 42.5 42 63.5s29.333 43 42 66s19 50.167 19 81.5c0 37.333 -6.83301 63.5 -20.5 78.5s-31.5 22.5 -53.5 22.5c-24 0 -42 -7.83301 -54 -23.5s-18 -33.167 -18 -52.5c0 -15.333 4 -30 12 -44s19.667 -23.667 35 -29c-5.33301 -14 -13.833 -24.5 -25.5 -31.5
s-24.5 -10.5 -38.5 -10.5c-23.333 0 -43.833 9 -61.5 27s-26.5 44.333 -26.5 79c0 16 3 32.167 9 48.5s16.167 31.166 30.5 44.499s33.5 24.333 57.5 33s54.333 13 91 13c40.667 0 73.167 -5.33301 97.5 -16s42.833 -23.834 55.5 -39.501s20.834 -32.167 24.501 -49.5
s5.5 -33 5.5 -47zM106 79.001c0 22 7.66699 40.833 23 56.5s34 23.5 56 23.5s40.833 -7.83301 56.5 -23.5s23.5 -34.5 23.5 -56.5s-7.83301 -40.667 -23.5 -56s-34.5 -23 -56.5 -23s-40.667 7.66699 -56 23s-23 34 -23 56z" />
    <glyph glyph-name="at" unicode="@" horiz-adv-x="564" 
d="M238 -38c-23.333 0 -47.1641 3.32617 -71.4971 9.99316s-46.333 17.834 -66 33.501s-35.667 36.334 -48 62.001s-18.5 57.834 -18.5 96.501c0 54.667 9 105.834 27 153.501s42.5 89.167 73.5 124.5s67.167 63.333 108.5 84s85.333 31 132 31
c15.333 0 32.166 -1.66699 50.499 -5s35.5 -10.5 51.5 -21.5s29.333 -26.833 40 -47.5s16 -48.334 16 -83.001c0 -32.667 -4.83301 -64.667 -14.5 -96s-22.5 -59.5 -38.5 -84.5s-34.167 -45.167 -54.5 -60.5s-41.166 -23 -62.499 -23c-12 0 -21.667 2.5 -29 7.5
s-12.666 11.167 -15.999 18.5c-8 -12 -16.833 -22 -26.5 -30s-21.834 -12 -36.501 -12c-18 0 -32.333 7.16699 -43 21.5s-16 36.5 -16 66.5c0 22 3 46 9 72s14.667 50.333 26 73s25 41.5 41 56.5s34.333 22.5 55 22.5c9.33301 0 17.333 -1.66699 24 -5
s11.667 -7.33301 15 -12l4 15l55 -6l-45 -192c-1.33301 -4 -2.33301 -8 -3 -12s-1 -7.66699 -1 -11c0 -7.33301 1.16699 -12.333 3.5 -15s5.16602 -4 8.49902 -4c6.66699 0 15 6.33301 25 19s19.667 28.834 29 48.501s17.166 41.334 23.499 65.001s9.5 46.5 9.5 68.5
c0 14 -1.66699 27.833 -5 41.5s-9 25.667 -17 36s-18.5 18.833 -31.5 25.5s-29.5 10 -49.5 10c-35.333 0 -67.5 -10.167 -96.5 -30.5s-54 -46.166 -75 -77.499s-37.333 -65.833 -49 -103.5s-17.5 -73.834 -17.5 -108.501c0 -20 2.16699 -38.667 6.5 -56
s11.666 -32.166 21.999 -44.499s24 -22.166 41 -29.499s38.167 -11 63.5 -11c35.333 0 65.333 6.5 90 19.5s45.334 30.167 62.001 51.5c9.33301 -4 15.5 -10.167 18.5 -18.5s4.5 -16.5 4.5 -24.5c0 -16 -4.83301 -30.667 -14.5 -44s-23.334 -24.833 -41.001 -34.5
s-39.167 -17.167 -64.5 -22.5s-53.333 -8 -84 -8zM358.002 382.993c-5.33301 6.66699 -12.333 9.99902 -21 9.99902c-12 0 -23 -6.33301 -33 -19s-18.667 -28 -26 -46s-13.166 -36.667 -17.499 -56s-6.5 -35.333 -6.5 -48c0 -9.33301 1.5 -19.166 4.5 -29.499
s8.5 -15.5 16.5 -15.5c4.66699 0 10.167 1.83301 16.5 5.5s13.166 8.16699 20.499 13.5c0 6 1 12 3 18z" />
    <glyph glyph-name="A" unicode="A" horiz-adv-x="603" 
d="M412 0l-0.00195312 362.999c-27.333 11.333 -51.666 19.5 -72.999 24.5s-42.666 8.5 -63.999 10.5c-8 -30.667 -15 -61.834 -21 -93.501s-11 -63 -15 -94s-7 -61.167 -9 -90.5s-3 -56.333 -3 -81c0 -28 1.16699 -51 3.5 -69s5.33301 -32.5 9 -43.5
s7.66699 -19.5 12 -25.5s8.16602 -11 11.499 -15c-16.667 0 -34.5 1 -53.5 3s-36.667 8.5 -53 19.5s-29.833 27.833 -40.5 50.5s-16 55 -16 97c0 22 1.66699 46.333 5 73s8 54.834 14 84.501s13.5 60.334 22.5 92.001s19.167 63.167 30.5 94.5c-32 -2 -57.667 -7 -77 -15
s-30.666 -20.667 -33.999 -38c3.33301 0 7.66602 -4.16699 12.999 -12.5s8 -16.5 8 -24.5c0 -10 -4.66699 -18 -14 -24s-21 -9 -35 -9c-19.333 0 -36.833 6 -52.5 18s-23.5 29.667 -23.5 53c0 32 16.333 58.333 49 79s75.667 31 129 31c16 0 35.667 -1 59 -3
c16.667 40 35.334 77.833 56.001 113.5s43 67 67 94s49.333 48.333 76 64s54.667 23.5 84 23.5c10 0 22.5 -1 37.5 -3s29.167 -5.66699 42.5 -11v-736h-145zM411.998 677.999c-25.333 -16.667 -48.668 -46.333 -70.001 -89s-39.666 -92 -54.999 -148
c20.667 -4 41.5 -8.83301 62.5 -14.5s41.833 -12.167 62.5 -19.5v271z" />
    <glyph glyph-name="B" unicode="B" horiz-adv-x="679" 
d="M357 656l-0.00488281 -222.005h7c17.333 0 32.833 4.33301 46.5 13s25.334 20 35.001 34s17.167 29.667 22.5 47s8 35 8 53c0 15.333 -2.83301 30.333 -8.5 45s-14.5 27.834 -26.5 39.501s-27.333 21 -46 28s-41 10.5 -67 10.5c-27.333 0 -53.833 -4 -79.5 -12
s-48.5 -20.167 -68.5 -36.5s-36.167 -36.833 -48.5 -61.5s-18.5 -53.334 -18.5 -86.001c0 -20.667 1.5 -37.5 4.5 -50.5s6.33301 -23.667 10 -32s7.5 -14.833 11.5 -19.5s7 -9 9 -13c-40 0 -71.667 9.16699 -95 27.5s-35 49.5 -35 93.5c0 31.333 8.33301 61.166 25 89.499
s39.334 53.333 68.001 75s62.5 39 101.5 52s80.833 19.5 125.5 19.5c40 0 75 -5.16699 105 -15.5s55.167 -23.666 75.5 -39.999s35.5 -35 45.5 -56s15 -42.5 15 -64.5c0 -26.667 -6.16699 -52.5 -18.5 -77.5s-30.833 -46.167 -55.5 -63.5c28.667 -4 53.5 -12.333 74.5 -25
s38 -28.167 51 -46.5s22.667 -38.833 29 -61.5s9.5 -46.334 9.5 -71.001c0 -25.333 -2.5 -52.333 -7.5 -81s-13.833 -55.167 -26.5 -79.5s-29.667 -44.666 -51 -60.999s-48.333 -24.5 -81 -24.5c-35.333 0 -64.666 5.83301 -87.999 17.5s-35 32.834 -35 63.501
c0 14 3 31 9 51c15.333 -13.333 28.833 -22.666 40.5 -27.999s23.167 -8 34.5 -8c12.667 0 23.334 4.16699 32.001 12.5s15.834 19.333 21.501 33s9.66699 28.834 12 45.501s3.5 33.334 3.5 50.001c0 16 -1.5 33.5 -4.5 52.5s-9.16699 37 -18.5 54s-22.5 31.167 -39.5 42.5
s-39.5 17 -67.5 17c-4 0 -10.333 -0.166992 -19 -0.5s-17.667 -1.16602 -27 -2.49902v-383h-144v636z" />
    <glyph glyph-name="C" unicode="C" 
d="M580 170c-7.33301 -30 -19.167 -56.5 -35.5 -79.5s-36 -42.5 -59 -58.5s-48.667 -28 -77 -36s-58.166 -12 -89.499 -12c-86 0 -152.833 30.333 -200.5 91s-71.5 152.334 -71.5 275.001c0 45.333 4 91.666 12 138.999s22 90.333 42 129s46.833 70.334 80.5 95.001
s76.167 37 127.5 37c24.667 0 48.667 -3.16699 72 -9.5s43.833 -16 61.5 -29s31.834 -29.5 42.501 -49.5s16 -43.333 16 -70c0 -20 -3.83301 -36.333 -11.5 -49s-21.834 -19 -42.501 -19c-8 0 -17.5 1.5 -28.5 4.5s-22.5 10.167 -34.5 21.5
c8.66699 5.33301 15.667 15.166 21 29.499s8 28.5 8 42.5c0 21.333 -6.33301 40.166 -19 56.499s-29.667 24.5 -51 24.5c-22.667 0 -42.334 -9.66699 -59.001 -29s-30.5 -44.833 -41.5 -76.5s-19.167 -67.667 -24.5 -108s-8 -81.5 -8 -123.5
c0 -55.333 4.5 -101.666 13.5 -138.999s21.167 -67.333 36.5 -90s33.5 -38.667 54.5 -48s43.5 -14 67.5 -14c38 0 72.167 9.5 102.5 28.5s53.833 44.5 70.5 76.5z" />
    <glyph glyph-name="D" unicode="D" horiz-adv-x="707" 
d="M358 656l0.000976562 -562.001c21.333 -12.667 40.666 -19 57.999 -19c21.333 0 39.666 9.83301 54.999 29.5s27.833 45.334 37.5 77.001s16.834 67.834 21.501 108.501s7 82 7 124c0 42.667 -2.83301 81.834 -8.5 117.501s-16 66.334 -31 92.001s-36 45.5 -63 59.5
s-61.5 21 -103.5 21c-32.667 0 -62.334 -4.33301 -89.001 -13s-49.5 -21.5 -68.5 -38.5s-33.667 -38 -44 -63s-15.5 -53.833 -15.5 -86.5c0 -19.333 1.66699 -35.333 5 -48s7 -23.334 11 -32.001s7.83301 -15.334 11.5 -20.001s6.16699 -8 7.5 -10
c-40 0 -71.833 9.33301 -95.5 28s-35.5 48.667 -35.5 90c0 32.667 8 63.667 24 93s38.333 54.666 67 75.999s63 38.333 103 51s84.333 19 133 19c60 0 111.333 -9.66699 154 -29s77.5 -45.666 104.5 -78.999s46.667 -72 59 -116s18.5 -91 18.5 -141
c0 -45.333 -4.66699 -91.333 -14 -138s-22.666 -89 -39.999 -127s-38 -69 -62 -93s-51 -36 -81 -36c-15.333 0 -33.833 3.66699 -55.5 11s-45.167 19.666 -70.5 36.999v-39h-145v636z" />
    <glyph glyph-name="E" unicode="E" horiz-adv-x="447" 
d="M521 170c-7.33301 -30 -18.998 -56.6719 -34.998 -80.0049s-35.333 -43 -58 -59s-47.667 -28.167 -75 -36.5s-56 -12.5 -86 -12.5c-38 0 -71 6.16699 -99 18.5s-51.5 28.833 -70.5 49.5s-33.167 44.334 -42.5 71.001s-14 54.334 -14 83.001c0 22 2.83301 44.333 8.5 67
s14.167 43.834 25.5 63.501s25.5 36.834 42.5 51.501s36.833 25 59.5 31c-32 20 -55.167 43 -69.5 69s-21.5 53.333 -21.5 82c0 22.667 4.33301 45.167 13 67.5s21.5 42 38.5 59s38 30.833 63 41.5s53.5 16 85.5 16c19.333 0 37.666 -2.16699 54.999 -6.5
s32.666 -11.5 45.999 -21.5s24 -22.833 32 -38.5s12 -34.834 12 -57.501c0 -23.333 -4.33301 -43.666 -13 -60.999s-21.667 -26 -39 -26c-7.33301 0 -15.333 1.83301 -24 5.5s-17.667 10.167 -27 19.5c9.33301 3.33301 16.833 11.833 22.5 25.5s8.5 27.5 8.5 41.5
c0 12.667 -2.16699 23 -6.5 31s-9.83301 14.167 -16.5 18.5s-13.667 7.16602 -21 8.49902s-14 2 -20 2c-14.667 0 -27.334 -3 -38.001 -9s-19.334 -14 -26.001 -24s-11.667 -21.667 -15 -35s-5 -27 -5 -41c0 -18.667 2.66699 -36.667 8 -54s13.5 -33.333 24.5 -48
s24.833 -27.5 41.5 -38.5s36.334 -19.5 59.001 -25.5c-21.333 -5.33301 -40.333 -14.833 -57 -28.5s-30.5 -30 -41.5 -49s-19.333 -39.5 -25 -61.5s-8.5 -43.333 -8.5 -64c0 -18 2.33301 -35.333 7 -52s11.834 -31.167 21.501 -43.5s22 -22.333 37 -30
s33.167 -11.5 54.5 -11.5c16 0 32.667 2.33301 50 7s33.5 11.334 48.5 20.001s28.333 19.334 40 32.001s20.167 27 25.5 43z" />
    <glyph glyph-name="F" unicode="F" horiz-adv-x="558" 
d="M502 450l-0.00292969 -73.999h-146v-376h-146v668c-14.667 -1.33301 -28 -4.33301 -40 -9s-22.167 -12.167 -30.5 -22.5s-14.666 -24.166 -18.999 -41.499s-6.5 -39 -6.5 -65c0 -22 1.5 -40.833 4.5 -56.5s6.66699 -28.834 11 -39.501s8.83301 -19.167 13.5 -25.5
s8.66699 -11.5 12 -15.5c-45.333 0 -79 10.5 -101 31.5s-33 54.5 -33 100.5c0 31.333 5.33301 60.666 16 87.999s27.334 51.166 50.001 71.499s51.5 36.333 86.5 48s76.833 17.5 125.5 17.5c16.667 0 32.5 -0.666992 47.5 -2l43.5 -4l43 -4
c14.667 -1.33301 30.334 -2 47.001 -2s32.334 0.833008 47.001 2.5s28.667 4.83398 42 9.50098c0 -26.667 -2.33301 -47.834 -7 -63.501s-11 -27.667 -19 -36s-17.167 -13.833 -27.5 -16.5s-21.166 -4 -32.499 -4c-18.667 0 -38.834 1.83301 -60.501 5.5
s-43.834 7.83398 -66.501 12.501v-198h146z" />
    <glyph glyph-name="G" unicode="G" horiz-adv-x="593" 
d="M557 418l-0.00292969 -415.997c0 -25.333 -3.16699 -50.333 -9.5 -75s-17.333 -47 -33 -67s-36.5 -36.167 -62.5 -48.5s-58.667 -18.5 -98 -18.5c-31.333 0 -58 4 -80 12s-40 18.667 -54 32s-24.167 28.5 -30.5 45.5s-9.5 34.5 -9.5 52.5
c0 14.667 2.16699 29.834 6.5 45.501s11.166 30 20.499 43s21.833 23.667 37.5 32s34.834 12.5 57.501 12.5c6 0 13.833 -0.833008 23.5 -2.5s19.334 -5.83398 29.001 -12.501s17.834 -16.834 24.501 -30.501s10 -32.5 10 -56.5c-9.33301 9.33301 -18.333 15.166 -27 17.499
s-16.334 3.5 -23.001 3.5c-26 0 -44 -6.33301 -54 -19s-15 -26.667 -15 -42c0 -10 1.66699 -20 5 -30s8.5 -18.833 15.5 -26.5s15.333 -14 25 -19s21.167 -7.5 34.5 -7.5c22 0 40.167 8.16699 54.5 24.5s21.5 42.5 21.5 78.5v248c-15.333 -28 -35.666 -49.167 -60.999 -63.5
s-55.333 -21.5 -90 -21.5c-34 0 -65.667 7 -95 21s-55 34.333 -77 61s-39.167 59.334 -51.5 98.001s-18.5 82.334 -18.5 131.001c0 46.667 6.16699 90.167 18.5 130.5s30.5 75.166 54.5 104.499s53.833 52.5 89.5 69.5s77.167 25.5 124.5 25.5c26 0 52 -2.83301 78 -8.5
s49.5 -14.834 70.5 -27.501s38 -29 51 -49s19.5 -44.333 19.5 -73c0 -20.667 -4.16699 -37.167 -12.5 -49.5s-22.5 -18.5 -42.5 -18.5c-8 0 -19.333 1.5 -34 4.5s-28 10.167 -40 21.5c9.33301 3.33301 16.333 12.166 21 26.499s7 26.833 7 37.5c0 6 -1 13.667 -3 23
s-5.83301 18.5 -11.5 27.5s-14 16.667 -25 23s-25.5 9.5 -43.5 9.5c-26.667 0 -50.5 -7.5 -71.5 -22.5s-38.667 -35 -53 -60s-25.166 -53.833 -32.499 -86.5s-11 -67 -11 -103c0 -39.333 4.16699 -73.333 12.5 -102s19 -52.5 32 -71.5s27.5 -33 43.5 -42s32 -13.5 48 -13.5
c32.667 0 59.5 18.667 80.5 56s32.833 93 35.5 167z" />
    <glyph glyph-name="H" unicode="H" horiz-adv-x="694" 
d="M357 450l146.998 -0.000976562v298h144v-748h-144v376h-147v-376h-144v678c-32 -15.333 -56.667 -37.166 -74 -65.499s-26 -62.5 -26 -102.5c0 -21.333 1.5 -38.5 4.5 -51.5s6.33301 -23.833 10 -32.5s7.5 -15.334 11.5 -20.001s7 -9 9 -13
c-40 0 -71.667 9.16699 -95 27.5s-35 49.5 -35 93.5c0 32 8.33301 62.167 25 90.5s38.834 53.333 66.501 75s59.334 38.834 95.001 51.501s72.5 19 110.5 19c7.33301 0 14.5 -0.166992 21.5 -0.5s13.833 -0.833008 20.5 -1.5v-298z" />
    <glyph glyph-name="I" unicode="I" horiz-adv-x="403" 
d="M357 0l-144.002 -0.00292969v678c-32 -15.333 -56.667 -37.166 -74 -65.499s-26 -62.5 -26 -102.5c0 -20.667 1.5 -37.667 4.5 -51s6.33301 -24.166 10 -32.499s7.5 -15 11.5 -20s7 -9.5 9 -13.5c-40 0 -71.667 9.16699 -95 27.5s-35 49.5 -35 93.5
c0 32 8.33301 62.167 25 90.5s38.834 53.333 66.501 75s59.334 38.834 95.001 51.501s72.5 19 110.5 19c7.33301 0 14.5 -0.166992 21.5 -0.5s13.833 -0.833008 20.5 -1.5v-748z" />
    <glyph glyph-name="J" unicode="J" horiz-adv-x="434" 
d="M388 750l0.00195312 -720.001c0 -38.667 -3.66699 -72.834 -11 -102.501s-19.166 -54.5 -35.499 -74.5s-37.5 -35 -63.5 -45s-58 -15 -96 -15c-62 0 -108.333 12.667 -139 38s-46 60.333 -46 105c0 12 1.5 25.667 4.5 41s9.16699 29.833 18.5 43.5s22.166 25 38.499 34
s38.166 13.5 65.499 13.5c8 0 16.833 -0.833008 26.5 -2.5s18.834 -6 27.501 -13s16 -17.167 22 -30.5s9 -32 9 -56c-10.667 8.66699 -20 14.334 -28 17.001s-17.333 4 -28 4c-24.667 0 -41.834 -5.33301 -51.501 -16s-14.5 -24.667 -14.5 -42
c0 -27.333 8.66699 -48.5 26 -63.5s38.666 -22.5 63.999 -22.5c9.33301 0 18.333 1.5 27 4.5s16.167 9 22.5 18s11.333 21.5 15 37.5s5.5 37 5.5 63v714c-30.667 -14 -55.334 -35.167 -74.001 -63.5s-28 -65.5 -28 -111.5c0 -19.333 1.66699 -35.666 5 -48.999
s7 -24.166 11 -32.499s7.83301 -14.833 11.5 -19.5s6.16699 -8.33398 7.5 -11.001c-40 0 -71.667 9.33301 -95 28s-35 48 -35 88c0 34 8.33301 65.667 25 95s38.834 54.833 66.501 76.5s59.5 38.667 95.5 51s73 18.5 111 18.5h40z" />
    <glyph glyph-name="K" unicode="K" horiz-adv-x="649" 
d="M357 428l174.001 316.998h93l-213 -320c7.33301 0 13.166 0.166992 17.499 0.5s10.166 0.5 17.499 0.5c50.667 0 89.334 -12.667 116.001 -38s40 -68.666 40 -129.999c0 -9.33301 -0.333008 -20.833 -1 -34.5s-1.16699 -27.5 -1.5 -41.5s-0.833008 -27.333 -1.5 -40
s-1 -23 -1 -31c0 -32.667 5.16699 -57.667 15.5 -75s24.166 -29.333 41.499 -36c-20 -6 -38 -10.333 -54 -13s-30.333 -4 -43 -4c-32.667 0 -56.667 8.83301 -72 26.5s-23 45.834 -23 84.501c0 9.33301 0.333008 21 1 35s1.5 28.667 2.5 44s1.83301 30.5 2.5 45.5
s1 28.5 1 40.5c0 36 -5.33301 65.333 -16 88s-31.334 34 -62.001 34c-6 0 -12 -0.333008 -18 -1s-11.333 -1.66699 -16 -3v-377h-144v678c-32 -15.333 -56.667 -37.5 -74 -66.5s-26 -64.5 -26 -106.5c0 -18 1.5 -33.5 4.5 -46.5s6.5 -23.833 10.5 -32.5
s7.83301 -15.667 11.5 -21s6.5 -9.33301 8.5 -12c-40 0 -71.667 9.33301 -95 28s-35 48 -35 88c0 34 8.33301 65.667 25 95s38.834 54.833 66.501 76.5s59.334 38.667 95.001 51s72.5 18.5 110.5 18.5c7.33301 0 14.5 -0.166992 21.5 -0.5s13.833 -0.833008 20.5 -1.5v-320z
" />
    <glyph glyph-name="L" unicode="L" horiz-adv-x="453" 
d="M356 19c27.333 -6 55.4971 -16.0029 84.4971 -30.0029l89.5 -43c30.667 -14.667 61.834 -27.5 93.501 -38.5s63.5 -16.5 95.5 -16.5c12.667 0 25.667 1.16699 39 3.5s26.666 6.5 39.999 12.5c0.666992 -3.33301 1 -6.33301 1 -9v-9
c0 -15.333 -2.33301 -31.166 -7 -47.499s-11.5 -31.166 -20.5 -44.499s-20.5 -24.5 -34.5 -33.5s-30.333 -13.5 -49 -13.5c-21.333 0 -43.166 5.66699 -65.499 17s-45.5 25.333 -69.5 42s-48.667 34.834 -74 54.501s-51.333 37.834 -78 54.501s-54 30.667 -82 42
s-56.333 17 -85 17h-11.5c-3.66699 0 -7.5 -0.333008 -11.5 -1v692c-32 -15.333 -56.5 -37.5 -73.5 -66.5s-25.5 -64.167 -25.5 -105.5c0 -18 1.5 -33.5 4.5 -46.5s6.33301 -23.833 10 -32.5s7.5 -15.834 11.5 -21.501l9 -12.5c-40 0 -71.667 9.33301 -95 28s-35 48 -35 88
c0 34 8.33301 65.667 25 95s38.834 54.833 66.501 76.5s59.334 38.667 95.001 51s72.5 18.5 110.5 18.5c7.33301 0 14.5 -0.166992 21.5 -0.5s13.833 -0.833008 20.5 -1.5v-719z" />
    <glyph glyph-name="M" unicode="M" horiz-adv-x="788" 
d="M125 0l106.999 685.002c-37.333 -14.667 -66.166 -36.834 -86.499 -66.501s-30.5 -65.834 -30.5 -108.501c0 -20 1.5 -36.667 4.5 -50s6.5 -24.333 10.5 -33s8 -15.5 12 -20.5s7 -9.5 9 -13.5c-38.667 0 -70 9 -94 27s-36 48.333 -36 91c0 29.333 7.33301 58.333 22 87
s34.167 54.167 58.5 76.5s52.333 40.5 84 54.5s64.5 21 98.5 21c27.333 0 54.333 -4.66699 81 -14l89 -527l108 527h144l51 -736h-144l-31 449l-93 -449h-137l-76 449l-71 -449h-80z" />
    <glyph glyph-name="N" unicode="N" horiz-adv-x="718" 
d="M672 748v-747.997h-138l-226 498v-498h-96v678c-30.667 -14.667 -54.334 -35.334 -71.001 -62.001s-25 -60 -25 -100c0 -21.333 1.33301 -38.833 4 -52.5s5.83398 -24.834 9.50098 -33.501s7.5 -15.834 11.5 -21.501l11 -15.5c-44 0 -77 10.167 -99 30.5
s-33 54.5 -33 102.5c0 27.333 5.33301 54.333 16 81s26.5 50.667 47.5 72s47.5 38.5 79.5 51.5s69.333 19.5 112 19.5c8 0 18.333 -0.666992 31 -2s26.667 -5.33301 42 -12l233 -530v542h91z" />
    <glyph glyph-name="O" unicode="O" horiz-adv-x="697" 
d="M391 656c-14 -9.33301 -26.166 -26.6689 -36.499 -52.002s-19 -54.333 -26 -87s-12.167 -67 -15.5 -103s-5 -70 -5 -102c0 -48 3.5 -87 10.5 -117s15.667 -53.333 26 -70s21.333 -27.834 33 -33.501s22.167 -8.5 31.5 -8.5c20 0 37.5 9.16699 52.5 27.5
s27.667 42.833 38 73.5s18 65.834 23 105.501s7.5 80.834 7.5 123.501c0 60.667 -4.83301 110 -14.5 148s-22.834 67.667 -39.501 89s-36.167 35.666 -58.5 42.999s-45.833 11 -70.5 11c-32 0 -62.333 -4.83301 -91 -14.5s-53.667 -23.834 -75 -42.501
s-38.166 -41.667 -50.499 -69s-18.5 -58.333 -18.5 -93c0 -24.667 2.66699 -43.5 8 -56.5s11.666 -24.833 18.999 -35.5c-38 0 -67.833 8.5 -89.5 25.5s-32.5 44.167 -32.5 81.5c0 34 9.16699 66.167 27.5 96.5s43.166 56.833 74.499 79.5s68.166 40.667 110.499 54
s87.5 20 135.5 20c58 0 106.667 -9.66699 146 -29s70.666 -45.666 93.999 -78.999s40 -72 50 -116s15 -90.333 15 -139c0 -29.333 -1.66699 -59.333 -5 -90s-9.16602 -60.5 -17.499 -89.5s-19.166 -56.5 -32.499 -82.5s-30 -48.667 -50 -68s-43.667 -34.666 -71 -45.999
s-58.666 -17 -93.999 -17c-32 0 -62.5 5.33301 -91.5 16s-54.667 28.334 -77 53.001s-40 57.167 -53 97.5s-19.5 90.5 -19.5 150.5c0 36 2.83301 74.667 8.5 116s15.5 79.5 29.5 114.5s32.667 64.167 56 87.5s52.333 35 87 35c7.33301 0 15.333 -0.5 24 -1.5
s17.667 -3.16699 27 -6.5z" />
    <glyph glyph-name="P" unicode="P" horiz-adv-x="602" 
d="M357 656v-333.998c20.667 2 38.834 9.83301 54.501 23.5s29 30.834 40 51.501s19.333 43.5 25 68.5s8.5 50.167 8.5 75.5c0 16 -1.83301 33.5 -5.5 52.5s-11.334 36.667 -23.001 53s-28.667 30 -51 41s-52.166 16.5 -89.499 16.5c-30 0 -57.333 -4 -82 -12
s-46 -20.167 -64 -36.5s-32 -37.333 -42 -63s-15 -55.834 -15 -90.501c0 -18 1.16699 -32.833 3.5 -44.5s5.33301 -21.5 9 -29.5s7.5 -14.667 11.5 -20l11 -15c-40 0 -71.667 9.33301 -95 28s-35 48 -35 88c0 34 8.16699 65.667 24.5 95s38.666 54.833 66.999 76.5
s61.333 38.667 99 51s77.5 18.5 119.5 18.5c40.667 0 77.667 -5.33301 111 -16s62 -25.834 86 -45.501s42.5 -43.334 55.5 -71.001s19.5 -58.5 19.5 -92.5c0 -27.333 -5 -55.333 -15 -84s-25 -54.5 -45 -77.5s-44.833 -41.833 -74.5 -56.5s-64.167 -22 -103.5 -22h-5v-285
h-144v636z" />
    <glyph glyph-name="Q" unicode="Q" horiz-adv-x="697" 
d="M391 656c-14 -9.33301 -26.1611 -26.6641 -36.4941 -51.9971s-19 -54.333 -26 -87s-12.167 -67 -15.5 -103s-5 -70 -5 -102c0 -39.333 2.16699 -72.333 6.5 -99s10.166 -48.667 17.499 -66c20.667 6.66699 40.667 10 60 10c16.667 0 31.834 -2.33301 45.501 -7
s26.5 -11 38.5 -19c8.66699 14.667 16.5 32.334 23.5 53.001s12.667 43.167 17 67.5s7.66602 50.166 9.99902 77.499s3.5 55.333 3.5 84c0 60.667 -4.83301 110 -14.5 148s-22.834 67.667 -39.501 89s-36.167 35.666 -58.5 42.999s-45.833 11 -70.5 11
c-32 0 -62.333 -4.83301 -91 -14.5s-53.667 -23.834 -75 -42.501s-38.166 -41.667 -50.499 -69s-18.5 -58.333 -18.5 -93c0 -24.667 2.66699 -43.5 8 -56.5s11.666 -24.833 18.999 -35.5c-38 0 -67.833 8.5 -89.5 25.5s-32.5 44.167 -32.5 81.5
c0 34 9.16699 66.167 27.5 96.5s43.166 56.833 74.499 79.5s68.166 40.667 110.499 54s87.5 20 135.5 20c58 0 106.667 -9.66699 146 -29s70.666 -45.666 93.999 -78.999s40 -72 50 -116s15 -90.333 15 -139c0 -30 -1.83301 -60.667 -5.5 -92
s-9.83398 -61.833 -18.501 -91.5s-20 -57.5 -34 -83.5s-31.333 -48.667 -52 -68l30 -30.5c10 -9.66699 20.5 -18.334 31.5 -26.001s23 -13.667 36 -18s27.167 -6.5 42.5 -6.5c5.33301 0 9.66602 0.166992 12.999 0.5s7 0.833008 11 1.5c-6 -34 -16.167 -56.833 -30.5 -68.5
s-33.166 -17.5 -56.499 -17.5c-21.333 0 -39.833 3.5 -55.5 10.5s-29.5 16.167 -41.5 27.5s-22.333 24.166 -31 38.499s-16.667 29.166 -24 44.499c-26 -9.33301 -54.333 -14 -85 -14c-32 0 -62.5 5.33301 -91.5 16s-54.667 28.334 -77 53.001s-40 57.167 -53 97.5
s-19.5 90.5 -19.5 150.5c0 36 2.83301 74.667 8.5 116s15.5 79.5 29.5 114.5s32.667 64.167 56 87.5s52.333 35 87 35c7.33301 0 15.333 -0.5 24 -1.5s17.667 -3.16699 27 -6.5zM375.006 120.002c-8 0 -16.3311 -0.999023 -24.998 -2.99902
c9.33301 -13.333 19.166 -22.333 29.499 -27s20.166 -7 29.499 -7c10 0 19.333 2.33301 28 7c-8 9.33301 -17 16.666 -27 21.999s-21.667 8 -35 8z" />
    <glyph glyph-name="R" unicode="R" horiz-adv-x="654" 
d="M357 656l0.00390625 -231h8c17.333 0 32.833 4.16699 46.5 12.5s25.167 19.5 34.5 33.5s16.333 29.833 21 47.5s7 35.834 7 54.501c0 12.667 -1.66699 26.667 -5 42s-10.166 29.5 -20.499 42.5s-25.333 24 -45 33s-45.834 13.5 -78.501 13.5
c-30.667 0 -58.834 -4.33301 -84.501 -13s-47.834 -21.5 -66.501 -38.5s-33.334 -38 -44.001 -63s-16 -53.833 -16 -86.5c0 -18.667 1.5 -34.5 4.5 -47.5s6.5 -23.667 10.5 -32s7.83301 -14.833 11.5 -19.5s6.16699 -8.33398 7.5 -11.001c-40 0 -71.667 9.33301 -95 28
s-35 48 -35 88c0 32.667 7.66699 63.5 23 92.5s37 54.5 65 76.5s61.5 39.5 100.5 52.5s82.167 19.5 129.5 19.5c36 0 69 -4 99 -12s55.833 -19.667 77.5 -35s38.5 -34.333 50.5 -57s18 -48.334 18 -77.001c0 -29.333 -6.5 -57.333 -19.5 -84s-32.167 -48.667 -57.5 -66
c32.667 -8 57.167 -24.667 73.5 -50s24.5 -62.333 24.5 -111c0 -9.33301 -0.333008 -20.833 -1 -34.5s-1.16699 -27.5 -1.5 -41.5s-0.833008 -27.333 -1.5 -40s-1 -23 -1 -31c0 -32.667 5.16699 -57.667 15.5 -75s24.166 -29.333 41.499 -36c-20 -6 -38 -10.333 -54 -13
s-30.333 -4 -43 -4c-32.667 0 -56.667 8.83301 -72 26.5s-23 45.834 -23 84.501c0 9.33301 0.333008 21 1 35s1.5 28.667 2.5 44s1.83301 30.5 2.5 45.5s1 28.5 1 40.5c0 36.667 -5.5 66.167 -16.5 88.5s-31.833 33.5 -62.5 33.5c-11.333 0 -22.333 -1.33301 -33 -4v-377
h-144v636z" />
    <glyph glyph-name="S" unicode="S" horiz-adv-x="529" 
d="M456 624c0 -25.333 -5.50098 -45.8301 -16.501 -61.4971s-26.833 -23.5 -47.5 -23.5c-18.667 0 -35.334 7 -50.001 21c9.33301 6.66699 16.5 16.334 21.5 29.001s7.5 25.667 7.5 39c0 20.667 -6.66699 37.667 -20 51s-33.666 20 -60.999 20
c-30 0 -51.667 -8.33301 -65 -25s-20 -39 -20 -67c0 -32.667 7.83301 -59.334 23.5 -80.001s35.167 -39.167 58.5 -55.5s48.5 -31.833 75.5 -46.5s52.167 -32 75.5 -52s42.833 -44.167 58.5 -72.5s23.5 -64.5 23.5 -108.5c0 -37.333 -6.16699 -69.333 -18.5 -96
s-29.166 -48.5 -50.499 -65.5s-46.666 -29.333 -75.999 -37s-61.333 -11.5 -96 -11.5c-30.667 0 -60.834 3.16699 -90.501 9.5s-56 16.666 -79 30.999s-41.5 33.333 -55.5 57s-21 52.5 -21 86.5c0 22.667 3.16699 43.334 9.5 62.001s15 34.334 26 47.001
s23.833 22.5 38.5 29.5s30 10.5 46 10.5c8 0 16.667 -1 26 -3s18.666 -5.5 27.999 -10.5s18 -11.833 26 -20.5s14.333 -19.334 19 -32.001c-12 0 -24 -1.33301 -36 -4s-22.833 -7.33398 -32.5 -14.001s-17.5 -15.834 -23.5 -27.501s-9 -26.5 -9 -44.5
c0 -34.667 10.667 -59.5 32 -74.5s48 -22.5 80 -22.5s56.667 7.66699 74 23s26 41.666 26 78.999c0 34.667 -7.16699 64 -21.5 88s-32.5 45 -54.5 63s-45.5 34.833 -70.5 50.5s-48.5 32.667 -70.5 51s-40.167 39.833 -54.5 64.5s-21.5 55 -21.5 91
c0 58 19.333 102.167 58 132.5s91.334 45.5 158.001 45.5c9.33301 0 23.5 -0.833008 42.5 -2.5s38 -6.66699 57 -15s35.5 -21 49.5 -38s21 -40.5 21 -70.5z" />
    <glyph glyph-name="T" unicode="T" horiz-adv-x="672" 
d="M582 620c-21.333 0 -45.3369 2.16602 -72.0039 6.49902s-54.334 9.5 -83.001 15.5v-642h-145v662h-10c-30 0 -55 -3.5 -75 -10.5s-36 -17 -48 -30s-20.333 -29.167 -25 -48.5s-7 -41 -7 -65c0 -22 1.5 -39.667 4.5 -53s6.5 -24.166 10.5 -32.499s8 -14.666 12 -18.999
s7.33301 -8.16602 10 -11.499c-42 0 -74.833 9.83301 -98.5 29.5s-35.5 54.5 -35.5 104.5c0 31.333 5.33301 60.666 16 87.999s27.834 51 51.501 71s54.334 35.667 92.001 47s83.834 17 138.501 17c26.667 0 50.834 -1.16699 72.501 -3.5s42 -5 61 -8
s37.833 -5.66699 56.5 -8s38.334 -3.5 59.001 -3.5c28 0 51.5 2.16699 70.5 6.5s34.833 9.16602 47.5 14.499c2 -13.333 3 -25 3 -35c0 -30 -8.16699 -52.833 -24.5 -68.5s-43.5 -23.5 -81.5 -23.5z" />
    <glyph glyph-name="U" unicode="U" horiz-adv-x="771" 
d="M726 748l-0.00195312 -538.003c0 -36 -6.83301 -67.667 -20.5 -95s-31.834 -50 -54.501 -68s-48.167 -31.5 -76.5 -40.5s-57.5 -13.5 -87.5 -13.5s-59.333 4.5 -88 13.5s-54.167 22.5 -76.5 40.5s-40.333 40.667 -54 68s-20.5 59 -20.5 95v482
c-43.333 -12.667 -76.833 -34.667 -100.5 -66s-35.5 -70 -35.5 -116c0 -20 1.33301 -36.667 4 -50s5.83398 -24.166 9.50098 -32.499s7.5 -15.166 11.5 -20.499s7.33301 -10 10 -14c-40 0 -71.667 9.16699 -95 27.5s-35 49.166 -35 92.499c0 32 8.5 62.333 25.5 91
s40.333 53.834 70 75.501s64.167 38.834 103.5 51.501s81.333 19 126 19c8.66699 0 16.334 -0.333008 23.001 -1s15.334 -2 26.001 -4v-545c0 -18 2.66699 -33.833 8 -47.5s12.5 -25 21.5 -34s19.333 -15.833 31 -20.5s23.5 -7 35.5 -7s23.833 2.33301 35.5 7
s22 11.5 31 20.5s16.333 20.333 22 34s8.5 29.5 8.5 47.5v548h142z" />
    <glyph glyph-name="V" unicode="V" horiz-adv-x="713" 
d="M512 133l131.998 611.999h74l-168 -745h-148l-181 683c-35.333 -14 -62.333 -36 -81 -66s-28 -65.667 -28 -107c0 -20 1.5 -36.667 4.5 -50s6.33301 -24.333 10 -33s7.5 -15.5 11.5 -20.5s7 -9.5 9 -13.5c-40 0 -71.667 9.16699 -95 27.5s-35 49.5 -35 93.5
c0 32 8.33301 62.167 25 90.5s38.834 53.333 66.501 75s59.334 38.834 95.001 51.501s72.5 19 110.5 19c7.33301 0 14.5 -0.166992 21.5 -0.5s13.833 -0.833008 20.5 -1.5z" />
    <glyph glyph-name="W" unicode="W" horiz-adv-x="1009" 
d="M476 133l98.998 612.003h127l120 -612l99 612h77l-139 -745h-151l-100 509l-102 -509h-144l-141 683c-36 -14.667 -63.167 -36.834 -81.5 -66.501s-27.5 -66.5 -27.5 -110.5c0 -20 1.66699 -36.5 5 -49.5s7 -23.833 11 -32.5s7.83301 -15.334 11.5 -20.001
s6.16699 -8.33398 7.5 -11.001c-40 0 -71.667 9.33301 -95 28s-35 48 -35 88c0 34 8.33301 65.667 25 95s38.834 54.833 66.501 76.5s59.334 38.667 95.001 51s72.5 18.5 110.5 18.5c7.33301 0 14.5 -0.166992 21.5 -0.5s13.833 -0.833008 20.5 -1.5z" />
    <glyph glyph-name="X" unicode="X" horiz-adv-x="649" 
d="M492 0l-108.002 272l-133 -272h-65l165 356l-129 327c-35.333 -14 -62.333 -36 -81 -66s-28 -65.667 -28 -107c0 -21.333 1.5 -38.5 4.5 -51.5s6.33301 -23.833 10 -32.5s7.5 -15.334 11.5 -20.001s7 -9 9 -13c-40 0 -71.667 9.16699 -95 27.5s-35 49.5 -35 93.5
c0 32 8.33301 62.167 25 90.5s38.834 53.333 66.501 75s59.334 38.834 95.001 51.501s72.5 19 110.5 19c7.33301 0 14.5 -0.166992 21.5 -0.5s13.833 -0.833008 20.5 -1.5l109 -279l118 276h65l-150 -361l152 -384h-159z" />
    <glyph glyph-name="Y" unicode="Y" horiz-adv-x="649" 
d="M372 0l-0.00195312 308l-151 375c-35.333 -14 -62.333 -36 -81 -66s-28 -65.667 -28 -107c0 -21.333 1.5 -38.5 4.5 -51.5s6.33301 -23.833 10 -32.5s7.5 -15.334 11.5 -20.001s7 -9 9 -13c-40 0 -71.667 9.16699 -95 27.5s-35 49.5 -35 93.5
c0 32 8.33301 62.167 25 90.5s38.834 53.333 66.501 75s59.334 38.834 95.001 51.501s72.5 19 110.5 19c7.33301 0 14.5 -0.166992 21.5 -0.5s13.833 -0.833008 20.5 -1.5l143 -359l96 356h66l-129 -437v-308h-160z" />
    <glyph glyph-name="Z" unicode="Z" horiz-adv-x="556" 
d="M470 85c-4.66699 0 -10.1641 2.99707 -16.4971 8.99707s-9.5 17.333 -9.5 34s5.16699 28.5 15.5 35.5s21.5 10.5 33.5 10.5c11.333 0 21.166 -2.33301 29.499 -7s15.166 -10.5 20.499 -17.5s9.33301 -14.833 12 -23.5s4 -17 4 -25c0 -12 -2.16699 -24 -6.5 -36
s-11 -22.833 -20 -32.5s-20 -17.5 -33 -23.5s-28.5 -9 -46.5 -9h-401l282 696c-5.33301 0 -14 0.166992 -26 0.5s-25 0.5 -39 0.5s-27.833 0.166992 -41.5 0.5s-24.834 0.5 -33.501 0.5c-22.667 0 -42.834 -1.33301 -60.501 -4s-26.5 -8 -26.5 -16
c8 -3.33301 13.833 -8.5 17.5 -15.5s5.5 -14.833 5.5 -23.5c0 -12.667 -3.83301 -24.5 -11.5 -35.5s-19.167 -16.5 -34.5 -16.5c-12 0 -22.167 2.33301 -30.5 7s-15.166 10.667 -20.499 18s-9.16602 15.333 -11.499 24s-3.5 17 -3.5 25c0 11.333 2 22.333 6 33
s10.333 20.167 19 28.5s19.5 15 32.5 20s28.167 7.5 45.5 7.5h393l-280 -685c13.333 0 28.666 -0.333008 45.999 -1s34.333 -1 51 -1c12 0 25.5 0.333008 40.5 1s29.5 1.83398 43.5 3.50098s26.167 3.83398 36.5 6.50098s16.5 6.33398 18.5 11.001z" />
    <glyph glyph-name="bracketleft" unicode="[" horiz-adv-x="296" 
d="M275 -250h-204v1000h203v-62h-110v-876h111v-62z" />
    <glyph glyph-name="backslash" unicode="\" horiz-adv-x="526" 
d="M14 750h72l425 -1000h-72z" />
    <glyph glyph-name="bracketright" unicode="]" horiz-adv-x="296" 
d="M21 750h204v-1000h-204v62h111v876h-111v62z" />
    <glyph glyph-name="asciicircum" unicode="^" horiz-adv-x="421" 
d="M192 561l-77 80l-140 -80h-44l172 189h21l100 -189h-32z" />
    <glyph glyph-name="underscore" unicode="_" horiz-adv-x="441" 
d="M396 0h-351v79h351v-79z" />
    <glyph glyph-name="grave" unicode="`" horiz-adv-x="201" 
d="M-135 750h105l69 -189h-75z" />
    <glyph glyph-name="a" unicode="a" horiz-adv-x="526" 
d="M459 500l-0.00585938 -340.001c0 -28 3.83301 -46.5 11.5 -55.5s21.167 -13.5 40.5 -13.5s35.5 8.33301 48.5 25s20.5 37.667 22.5 63h42c-5.33301 -40.667 -14.666 -73.167 -27.999 -97.5s-28.333 -43 -45 -56s-33.667 -21.5 -51 -25.5s-32.666 -6 -45.999 -6
c-35.333 0 -62.166 8.16699 -80.499 24.5s-31.166 38.833 -38.499 67.5c-5.33301 -11.333 -11.666 -22.5 -18.999 -33.5s-16.166 -20.833 -26.499 -29.5s-22.333 -15.667 -36 -21s-29.5 -8 -47.5 -8c-21.333 0 -42.333 4 -63 12s-39.5 21 -56.5 39s-30.667 41.833 -41 71.5
s-15.5 66.167 -15.5 109.5c0 30.667 3.5 62.334 10.5 95.001s18 62.667 33 90s34.667 49.833 59 67.5s53.833 26.5 88.5 26.5c8 0 16.667 -0.5 26 -1.5s18.333 -3.33301 27 -7s16.667 -9 24 -16s13 -16.5 17 -28.5v48h144zM314.994 403.999
c-0.666992 2.66699 -2.00098 6.16699 -4.00098 10.5s-5 8.66602 -9 12.999s-9 8 -15 11s-13 4.5 -21 4.5c-16 0 -29.833 -6.83301 -41.5 -20.5s-21 -30.667 -28 -51s-12.167 -42.666 -15.5 -66.999s-5 -47.5 -5 -69.5c0 -35.333 2.66699 -62.833 8 -82.5
s11.833 -34 19.5 -43s15.834 -14.333 24.501 -16s16 -2.5 22 -2.5c7.33301 0 14.833 1.83301 22.5 5.5s14.667 9.16699 21 16.5s11.5 16.5 15.5 27.5s6 23.833 6 38.5v225z" />
    <glyph glyph-name="b" unicode="b" horiz-adv-x="444" 
d="M47 680l144 19.998v-225c18 12.667 32.667 20.834 44 24.501s22.666 5.5 33.999 5.5c24 0 45.833 -5.16699 65.5 -15.5s36.667 -25.5 51 -45.5s25.5 -44.833 33.5 -74.5s12 -63.5 12 -101.5c0 -29.333 -3 -60.166 -9 -92.499s-17.167 -62 -33.5 -89
s-38.666 -49.167 -66.999 -66.5s-64.833 -26 -109.5 -26c-56.667 0 -98.5 14 -125.5 42s-40.5 65.667 -40.5 113zM328 258.998c0 54 -7.66504 96.334 -22.998 127.001s-36 46 -62 46c-8 0 -17.333 -1.5 -28 -4.5s-18.667 -7.5 -24 -13.5v-264
c0 -21.333 4.66699 -36.5 14 -45.5s21.333 -13.5 36 -13.5c17.333 0 31.666 5.16699 42.999 15.5s20.166 23.666 26.499 39.999s10.833 34.333 13.5 54s4 39.167 4 58.5z" />
    <glyph glyph-name="c" unicode="c" horiz-adv-x="384" 
d="M288 345c1.33301 5.33301 2.16699 10.002 2.5 14.002s0.5 9.33301 0.5 16c0 27.333 -3.83301 47 -11.5 59s-17.5 18 -29.5 18c-13.333 0 -24.833 -6.83301 -34.5 -20.5s-17.667 -31 -24 -52s-11 -44.5 -14 -70.5s-4.5 -51.333 -4.5 -76c0 -31.333 2.16699 -57 6.5 -77
s10.833 -35.667 19.5 -47s19.5 -19.333 32.5 -24s27.833 -7 44.5 -7c20 0 37.5 2.66699 52.5 8s28.5 12.5 40.5 21.5s23 19.667 33 32s19.667 25.5 29 39.5h34c-9.33301 -23.333 -20.5 -46 -33.5 -68s-29 -41.667 -48 -59s-41.333 -31.333 -67 -42s-55.5 -16 -89.5 -16
c-28 0 -54 4.16699 -78 12.5s-44.833 21.666 -62.5 39.999s-31.334 42.166 -41.001 71.499s-14.5 64.666 -14.5 105.999c0 28 2.83301 58.5 8.5 91.5s16.167 63.5 31.5 91.5s36.166 51.333 62.499 70s60.5 28 102.5 28c26 0 47.5 -3.66699 64.5 -11s30.5 -16.5 40.5 -27.5
s17 -23 21 -36s6 -25.5 6 -37.5c0 -17.333 -3.5 -31.666 -10.5 -42.999s-16.5 -17 -28.5 -17c-5.33301 0 -11.666 1 -18.999 3s-14.666 5 -21.999 9z" />
    <glyph glyph-name="d" unicode="d" horiz-adv-x="526" 
d="M459 700l-0.00585938 -540.001c0 -28 3.83301 -46.5 11.5 -55.5s21.167 -13.5 40.5 -13.5s35.5 8.33301 48.5 25s20.5 37.667 22.5 63h42c-5.33301 -40.667 -14.666 -73.167 -27.999 -97.5s-28.333 -43 -45 -56s-33.667 -21.5 -51 -25.5s-32.666 -6 -45.999 -6
c-35.333 0 -62.166 8.16699 -80.499 24.5s-31.166 38.833 -38.499 67.5c-5.33301 -11.333 -11.666 -22.5 -18.999 -33.5s-16.166 -20.833 -26.499 -29.5s-22.333 -15.667 -36 -21s-29.5 -8 -47.5 -8c-21.333 0 -42.333 4 -63 12s-39.5 21 -56.5 39s-30.667 41.833 -41 71.5
s-15.5 66.167 -15.5 109.5c0 30.667 3.5 62.334 10.5 95.001s18 62.667 33 90s34.667 49.833 59 67.5s53.833 26.5 88.5 26.5c8 0 16.667 -0.5 26 -1.5s18.333 -3.33301 27 -7s16.667 -9 24 -16s13 -16.5 17 -28.5v228zM314.994 403.999
c-0.666992 2.66699 -2.00098 6.16699 -4.00098 10.5s-5 8.66602 -9 12.999s-9 8 -15 11s-13 4.5 -21 4.5c-16 0 -29.833 -6.83301 -41.5 -20.5s-21 -30.667 -28 -51s-12.167 -42.666 -15.5 -66.999s-5 -47.5 -5 -69.5c0 -35.333 2.66699 -62.833 8 -82.5
s11.833 -34 19.5 -43s15.834 -14.333 24.501 -16s16 -2.5 22 -2.5c7.33301 0 14.833 1.83301 22.5 5.5s14.667 9.16699 21 16.5s11.5 16.5 15.5 27.5s6 23.833 6 38.5v225z" />
    <glyph glyph-name="e" unicode="e" horiz-adv-x="384" 
d="M275 78c20 0 37.6699 2.66699 53.0029 8s29 12.5 41 21.5s23 19.667 33 32s19.667 25.5 29 39.5h34c-9.33301 -23.333 -20.5 -46 -33.5 -68s-29 -41.667 -48 -59s-41.167 -31.333 -66.5 -42s-55 -16 -89 -16c-28.667 0 -55 4.33301 -79 13s-44.833 22.167 -62.5 40.5
s-31.334 42 -41.001 71s-14.5 63.833 -14.5 104.5c0 28.667 3.16699 59.5 9.5 92.5s17.5 63.5 33.5 91.5s37.667 51.333 65 70s62 28 104 28c32 0 56.667 -5 74 -15s30.166 -21.667 38.499 -35s13.333 -26.333 15 -39s2.5 -21.667 2.5 -27c0 -30 -5.5 -56.333 -16.5 -79
s-25.667 -41.834 -44 -57.501s-39.333 -27.667 -63 -36s-47.834 -13.166 -72.501 -14.499c0.666992 -44.667 8.16699 -76.5 22.5 -95.5s39.5 -28.5 75.5 -28.5zM296.003 388c0 23.333 -4.00391 39.834 -12.0039 49.501s-16.667 14.5 -26 14.5
c-11.333 0 -21.666 -5.5 -30.999 -16.5s-17.5 -25.667 -24.5 -44s-12.667 -39.833 -17 -64.5s-7.16602 -50.334 -8.49902 -77.001c16.667 1.33301 32.334 5.83301 47.001 13.5s27.334 17.667 38.001 30s19 26.5 25 42.5s9 33.333 9 52z" />
    <glyph glyph-name="f" unicode="f" horiz-adv-x="267" 
d="M293 600c-3.33301 19.333 -7.83398 34.3379 -13.501 45.0049s-16.5 16 -32.5 16c-6.66699 0 -13.334 -1.16699 -20.001 -3.5s-12.667 -6.5 -18 -12.5s-9.66602 -14.333 -12.999 -25s-5 -24.334 -5 -41.001v-79h73v-40h-73v-540c0 -36 -4.5 -65 -13.5 -87
s-20.167 -39.167 -33.5 -51.5s-28.166 -20.666 -44.499 -24.999s-31.5 -6.5 -45.5 -6.5c-20 0 -39 3.16699 -57 9.5s-34 15.333 -48 27s-25 25.667 -33 42s-12 34.166 -12 53.499c0 18 3.66699 33.5 11 46.5s17.333 24.167 30 33.5s27.667 17.666 45 24.999
s36.333 14.333 57 21v571c0 35.333 4.5 64.166 13.5 86.499s20.5 39.666 34.5 51.999s29.333 20.666 46 24.999s32.667 6.5 48 6.5c23.333 0 44 -4 62 -12s33.333 -18.667 46 -32s22.5 -29 29.5 -47s11.5 -37.333 13.5 -58h-47zM-43.001 -110.995
c0 -8.66699 1.66602 -16.167 4.99902 -22.5s7.5 -11.5 12.5 -15.5s10.5 -7 16.5 -9s11.333 -3 16 -3c10.667 0 20.167 5.5 28.5 16.5s12.5 31.5 12.5 61.5v58c-11.333 -4 -22.5 -8.66699 -33.5 -14s-20.667 -11.5 -29 -18.5s-15.166 -15 -20.499 -24s-8 -18.833 -8 -29.5z
" />
    <glyph glyph-name="g" unicode="g" horiz-adv-x="507" 
d="M458 500l-0.000976562 -463.999c14 5.33301 26.333 11.666 37 18.999s20 16.5 28 27.5s14.5 24.333 19.5 40s8.83301 34.5 11.5 56.5h42c-3.33301 -33.333 -9.5 -60.833 -18.5 -82.5s-20 -39.5 -33 -53.5s-27 -25 -42 -33s-29.833 -14.333 -44.5 -19v-71
c0 -36 -4.33301 -65 -13 -87s-19.834 -39.167 -33.501 -51.5s-28.667 -20.666 -45 -24.999s-32.166 -6.5 -47.499 -6.5c-19.333 0 -37.5 2.66699 -54.5 8s-31.667 12.833 -44 22.5s-22.166 21.5 -29.499 35.5s-11 29.667 -11 47c0 18 3.83301 34.167 11.5 48.5
s17.834 26.833 30.501 37.5s27 19.834 43 27.501s32.333 14.167 49 19.5v84c-11.333 -18.667 -25.833 -34.334 -43.5 -47.001s-40.834 -19 -69.501 -19c-20.667 0 -41.334 4 -62.001 12s-39.334 20.667 -56.001 38s-30.167 40.166 -40.5 68.499s-15.5 62.5 -15.5 102.5
c0 30 3.33301 60.833 10 92.5s17.834 60.667 33.501 87s36.334 48 62.001 65s57.167 25.5 94.5 25.5c6.66699 0 14.167 -0.5 22.5 -1.5s16.5 -3.16699 24.5 -6.5s15.667 -8.33301 23 -15s13 -15.667 17 -27v45h144zM265.999 443.001
c-16.667 0 -30.8291 -6.33398 -42.4961 -19.001s-21.334 -28.834 -29.001 -48.501s-13.167 -41.5 -16.5 -65.5s-5 -47.333 -5 -70c0 -31.333 2.66699 -55.666 8 -72.999s11.666 -30.166 18.999 -38.499s14.666 -13.333 21.999 -15s13 -2.5 17 -2.5c21.333 0 38.5 7 51.5 21
s20.833 31.667 23.5 53v223c-2 6.66699 -6.83301 14.167 -14.5 22.5s-18.834 12.5 -33.501 12.5zM233.004 -129c0 -12.667 4.33203 -23.001 12.999 -31.001s17.667 -12 27 -12c12 0 21.833 7.33301 29.5 22s11.5 37 11.5 67v29
c-23.333 -9.33301 -42.666 -20.166 -57.999 -32.499s-23 -26.5 -23 -42.5z" />
    <glyph glyph-name="h" unicode="h" 
d="M301 303c0 40 -4.32617 68.334 -12.9932 85.001s-21.334 25 -38.001 25c-10 0 -18.5 -2.66699 -25.5 -8s-12.833 -12.333 -17.5 -21s-8.33398 -18.5 -11.001 -29.5s-4.33398 -22.167 -5.00098 -33.5v-321h-144v680l144 20v-252c15.333 23.333 32.666 38.5 51.999 45.5
s37.666 10.5 54.999 10.5c18.667 0 36.5 -3 53.5 -9s32 -16.167 45 -30.5s23.167 -33.333 30.5 -57s11 -52.834 11 -87.501c0 -8.66699 -0.166992 -19.5 -0.5 -32.5s-0.833008 -26.167 -1.5 -39.5s-1.16699 -26.333 -1.5 -39s-0.5 -23.334 -0.5 -32.001
c0 -28.667 3.5 -50.167 10.5 -64.5s20.833 -21.5 41.5 -21.5c11.333 0 20.666 2.16699 27.999 6.5s13.333 10.5 18 18.5s8.5 17.333 11.5 28s5.83301 22.334 8.5 35.001h42c-5.33301 -40 -13.333 -72.167 -24 -96.5s-22.834 -43 -36.501 -56s-28.167 -21.667 -43.5 -26
s-30.333 -6.5 -45 -6.5c-51.333 0 -88.5 17 -111.5 51s-34.5 79.333 -34.5 136c0 6 0.166992 14.5 0.5 25.5s0.5 22.5 0.5 34.5s0.166992 23.667 0.5 35s0.5 20.333 0.5 27z" />
    <glyph glyph-name="i" unicode="i" horiz-adv-x="267" 
d="M191 500l-0.00195312 -340c0 -28 3.83301 -46.5 11.5 -55.5s21.167 -13.5 40.5 -13.5s35.5 8.33301 48.5 25s20.5 37.667 22.5 63h42c-5.33301 -40.667 -14.666 -73.167 -27.999 -97.5s-28.333 -43 -45 -56s-33.667 -21.5 -51 -25.5s-32.666 -6 -45.999 -6
c-51.333 0 -87.333 14.167 -108 42.5s-31 65.833 -31 112.5v351h144zM35.998 633c0 22 7.66699 40.833 23 56.5s34 23.5 56 23.5s40.833 -7.83301 56.5 -23.5s23.5 -34.5 23.5 -56.5s-7.83301 -40.667 -23.5 -56s-34.5 -23 -56.5 -23s-40.667 7.66699 -56 23s-23 34 -23 56z
" />
    <glyph glyph-name="j" unicode="j" horiz-adv-x="240" 
d="M191 500l-0.000976562 -464.003c14 5.33301 26.333 11.666 37 18.999s20 16.5 28 27.5s14.5 24.333 19.5 40s8.83301 34.5 11.5 56.5h42c-3.33301 -33.333 -9.5 -60.833 -18.5 -82.5s-20 -39.5 -33 -53.5s-27 -25 -42 -33s-29.833 -14.333 -44.5 -19v-71
c0 -35.333 -4.33301 -64.166 -13 -86.499s-19.834 -39.666 -33.501 -51.999s-28.667 -20.666 -45 -24.999s-32.166 -6.5 -47.499 -6.5c-19.333 0 -37.5 2.66699 -54.5 8s-31.667 12.833 -44 22.5s-22.166 21.5 -29.499 35.5s-11 29.667 -11 47c0 18 4 34.167 12 48.5
s18.333 26.833 31 37.5s27 19.834 43 27.501s32 14.167 48 19.5v504h144zM37.999 632.997c0 22 7.66699 40.833 23 56.5s34 23.5 56 23.5s40.833 -7.83301 56.5 -23.5s23.5 -34.5 23.5 -56.5s-7.83301 -40.667 -23.5 -56s-34.5 -23 -56.5 -23s-40.667 7.66699 -56 23
s-23 34 -23 56zM-34.001 -128.003c0 -13.333 4.50098 -24 13.501 -32s18.167 -12 27.5 -12c12 0 21.667 7.33301 29 22s11 37 11 67v29c-22.667 -9.33301 -41.834 -20 -57.501 -32s-23.5 -26 -23.5 -42z" />
    <glyph glyph-name="k" unicode="k" horiz-adv-x="518" 
d="M451 500l-170.002 -138.004c4.66699 0.666992 9.16699 1 13.5 1h13.5c18.667 0 36.667 -2.16699 54 -6.5s32.5 -11.666 45.5 -21.999s23.5 -23.833 31.5 -40.5s12 -37.334 12 -62.001c0 -6 -0.166992 -13.5 -0.5 -22.5s-0.833008 -18 -1.5 -27s-1.16699 -17.5 -1.5 -25.5
s-0.5 -14.333 -0.5 -19c0 -14 3.33301 -25.333 10 -34s19.667 -13 39 -13c12 0 21.667 1.83301 29 5.5s13.5 9 18.5 16s9 16 12 27s6.16699 24.167 9.5 39.5h42c-5.33301 -39.333 -13.166 -71.166 -23.499 -95.499s-22.166 -43.166 -35.499 -56.499s-28 -22.166 -44 -26.499
s-32 -6.5 -48 -6.5c-25.333 0 -47 3.66699 -65 11s-32.833 17.333 -44.5 30s-20.334 27.334 -26.001 44.001s-8.5 34.334 -8.5 53.001c0 8 0.333008 19.333 1 34s1 28 1 40c0 23.333 -3.16699 42 -9.5 56s-20.166 21 -41.499 21c-20.667 0 -36.5 -5.83301 -47.5 -17.5
s-19.167 -25.834 -24.5 -42.501v-223h-144v680l144 20v-352l161 152h99z" />
    <glyph glyph-name="l" unicode="l" horiz-adv-x="267" 
d="M191 700l-0.00195312 -540c0 -28 3.83301 -46.5 11.5 -55.5s21.167 -13.5 40.5 -13.5s35.5 8.33301 48.5 25s20.5 37.667 22.5 63h42c-5.33301 -40.667 -14.666 -73.167 -27.999 -97.5s-28.333 -43 -45 -56s-33.667 -21.5 -51 -25.5s-32.666 -6 -45.999 -6
c-51.333 0 -87.333 14.167 -108 42.5s-31 65.833 -31 112.5v531z" />
    <glyph glyph-name="m" unicode="m" horiz-adv-x="752" 
d="M549 302c0 40 -4.66504 68.499 -13.998 85.499s-22 25.5 -38 25.5c-19.333 0 -33.5 -9.16699 -42.5 -27.5s-14.5 -39.833 -16.5 -64.5v-321h-144v345c0 8 -0.666992 16.167 -2 24.5s-3.66602 15.666 -6.99902 21.999s-7.83301 11.666 -13.5 15.999
s-12.834 6.5 -21.501 6.5c-18 0 -31.833 -9.16699 -41.5 -27.5s-15.5 -40.166 -17.5 -65.499v-321h-144v500h144v-52c16 24 33.833 39.5 53.5 46.5s38.167 10.5 55.5 10.5c24.667 0 47.667 -6 69 -18s38.666 -34.667 51.999 -68c8 18 17.167 32.667 27.5 44s21 20 32 26
s22 10 33 12s21.5 3 31.5 3c18.667 0 36.5 -3 53.5 -9s32 -16.167 45 -30.5s23.167 -33.333 30.5 -57s11 -52.834 11 -87.501c0 -8.66699 -0.166992 -19.5 -0.5 -32.5s-0.833008 -26.167 -1.5 -39.5s-1.16699 -26.333 -1.5 -39s-0.5 -23.334 -0.5 -32.001
c0 -28.667 3.5 -50.167 10.5 -64.5s20.833 -21.5 41.5 -21.5c11.333 0 20.666 2.16699 27.999 6.5s13.333 10.5 18 18.5s8.5 17.333 11.5 28s5.83301 22.334 8.5 35.001h42c-5.33301 -39.333 -13.333 -71.166 -24 -95.499s-22.667 -43.166 -36 -56.499
s-27.833 -22.166 -43.5 -26.499s-31.167 -6.5 -46.5 -6.5c-50 0 -86.5 17 -109.5 51s-34.5 79.333 -34.5 136c0 6 0.166992 14.5 0.5 25.5s0.5 22.5 0.5 34.5s0.166992 23.667 0.5 35s0.5 20 0.5 26z" />
    <glyph glyph-name="n" unicode="n" 
d="M302 302c0 40 -4.49707 68.502 -13.4971 85.502s-21.833 25.5 -38.5 25.5c-10 0 -18.5 -2.66699 -25.5 -8s-12.833 -12.333 -17.5 -21s-8.33398 -18.5 -11.001 -29.5s-4.33398 -22.167 -5.00098 -33.5v-321h-144v500h144v-52c15.333 23.333 32.666 38.5 51.999 45.5
s37.666 10.5 54.999 10.5c18.667 0 36.5 -3 53.5 -9s32 -16.167 45 -30.5s23.167 -33.333 30.5 -57s11 -52.834 11 -87.501c0 -8.66699 -0.166992 -19.5 -0.5 -32.5s-0.833008 -26.167 -1.5 -39.5s-1.16699 -26.333 -1.5 -39s-0.5 -23.334 -0.5 -32.001
c0 -28.667 3 -50.167 9 -64.5s19.333 -21.5 40 -21.5c22.667 0 38.5 8.33301 47.5 25s16.167 37.667 21.5 63h42c-5.33301 -40 -13.333 -72.167 -24 -96.5s-22.667 -43 -36 -56s-27.666 -21.667 -42.999 -26s-30.333 -6.5 -45 -6.5c-51.333 0 -88.5 17 -111.5 51
s-34.5 79.333 -34.5 136c0 6 0.166992 14.5 0.5 25.5s0.5 22.5 0.5 34.5s0.166992 23.5 0.5 34.5s0.5 19.833 0.5 26.5z" />
    <glyph glyph-name="o" unicode="o" horiz-adv-x="439" 
d="M244 505c46 0 82.665 -12.4971 109.998 -37.4971s45 -65.167 53 -120.5h7c9.33301 0 19.833 1.66699 31.5 5s23.834 7.66602 36.501 12.999s25 11.666 37 18.999s22.667 15 32 23l15 -27c-7.33301 -10.667 -16.5 -20.334 -27.5 -29.001s-23.5 -16.5 -37.5 -23.5
s-28.667 -13 -44 -18s-30.666 -8.83301 -45.999 -11.5c0.666992 -4.66699 1 -9.16699 1 -13.5v-13.5c0 -38.667 -3.33301 -74.834 -10 -108.501s-17.834 -63 -33.501 -88s-35.834 -44.667 -60.501 -59s-55 -21.5 -91 -21.5c-24.667 0 -48.167 3.83301 -70.5 11.5
s-42.166 20.334 -59.499 38.001s-31.166 41 -41.499 70s-15.5 64.5 -15.5 106.5c0 28.667 3 59.5 9 92.5s17 63.833 33 92.5s37.833 52.5 65.5 71.5s63.167 28.5 106.5 28.5zM244.998 88.0029c14 0 26.166 4.83398 36.499 14.501s18.833 23 25.5 40s11.5 37.167 14.5 60.5
s4.5 48.666 4.5 75.999v15c-16.667 3.33301 -27.334 9.66602 -32.001 18.999s-7 19.666 -7 30.999c0 14 2.33301 24.667 7 32s10.667 12.333 18 15c-7.33301 22.667 -16.166 37.334 -26.499 44.001s-19.166 10 -26.499 10c-14.667 0 -27.167 -6.83301 -37.5 -20.5
s-18.833 -31 -25.5 -52s-11.5 -44.167 -14.5 -69.5s-4.5 -49.666 -4.5 -72.999c0 -30 2.16699 -54.333 6.5 -73s9.83301 -33 16.5 -43s14 -16.833 22 -20.5s15.667 -5.5 23 -5.5z" />
    <glyph glyph-name="p" unicode="p" horiz-adv-x="468" 
d="M191 537l0.000976562 -75c11.333 12 25.666 22.167 42.999 30.5s38.333 12.5 63 12.5c22.667 0 44.167 -4.33301 64.5 -13s38.333 -22.5 54 -41.5s28.167 -44.167 37.5 -75.5s14 -69.333 14 -114c0 -32 -2.83301 -64 -8.5 -96s-15.5 -60.667 -29.5 -86
s-32.833 -45.833 -56.5 -61.5s-53.167 -23.5 -88.5 -23.5c-25.333 0 -45.333 3.5 -60 10.5s-25.667 15.167 -33 24.5v-243l-144 -36v787h144zM236.001 81c17.333 0 32 5.83301 44 17.5s21.5 26.834 28.5 45.501s12 39.5 15 62.5s4.5 45.833 4.5 68.5
c0 36.667 -3.16699 65.667 -9.5 87s-13.833 37.166 -22.5 47.499s-17.167 16.833 -25.5 19.5s-14.833 4 -19.5 4c-12 0 -23.667 -4.16699 -35 -12.5s-19.666 -20.833 -24.999 -37.5v-279c3.33301 -5.33301 8.66602 -10.5 15.999 -15.5s17 -7.5 29 -7.5z" />
    <glyph glyph-name="q" unicode="q" horiz-adv-x="486" 
d="M458 500l0.000976562 -714.001l-144 -36v299c-11.333 -15.333 -25.666 -28.333 -42.999 -39s-39 -16 -65 -16c-21.333 0 -42.333 4 -63 12s-39.5 21 -56.5 39s-30.667 41.833 -41 71.5s-15.5 66.167 -15.5 109.5c0 30.667 3.5 62.334 10.5 95.001s18 62.667 33 90
s34.667 49.833 59 67.5s53.833 26.5 88.5 26.5c8 0 16.667 -0.5 26 -1.5s18.166 -3.16699 26.499 -6.5s16.166 -8.33301 23.499 -15s13 -15.667 17 -27v45h144zM266.001 442.999c-16 0 -29.834 -6.83398 -41.501 -20.501s-21 -30.667 -28 -51s-12.167 -42.666 -15.5 -66.999
s-5 -47.5 -5 -69.5c0 -35.333 2.66699 -62.833 8 -82.5s11.833 -34 19.5 -43s15.834 -14.333 24.501 -16s16 -2.5 22 -2.5c13.333 0 26.5 6 39.5 18s21.167 29.667 24.5 53v246c-2.66699 6 -7.66699 13.333 -15 22s-18.333 13 -33 13z" />
    <glyph glyph-name="r" unicode="r" horiz-adv-x="376" 
d="M191 500l0.000976562 -62.002c14.667 17.333 31 32.833 49 46.5s37.667 20.5 59 20.5c12.667 0 24.167 -2.66699 34.5 -8s19.333 -12.333 27 -21s13.667 -18.167 18 -28.5s6.5 -20.833 6.5 -31.5c0 -14.667 -4.5 -28.167 -13.5 -40.5s-23.833 -18.5 -44.5 -18.5
c-15.333 0 -26 3.33301 -32 10s-10.667 13.834 -14 21.501s-6.83301 14.834 -10.5 21.501s-10.167 10 -19.5 10c-10 0 -19.833 -3.83301 -29.5 -11.5s-19.834 -17.167 -30.501 -28.5v-380h-144v500h144z" />
    <glyph glyph-name="s" unicode="s" horiz-adv-x="382" 
d="M471 179c-20.667 -31.333 -42.668 -56.999 -66.001 -76.999s-45 -37 -65 -51c-17.333 -20.667 -39 -35.334 -65 -44.001s-51 -13 -75 -13c-29.333 0 -55 4.66699 -77 14s-40.333 21.166 -55 35.499s-25.667 30.333 -33 48s-11 34.5 -11 50.5c0 18 3.5 33.333 10.5 46
s15.833 21.667 26.5 27c19.333 50 35.5 99.5 48.5 148.5s22.167 98.167 27.5 147.5l144 20c16.667 -64.667 30.667 -117.167 42 -157.5s20.333 -74 27 -101s11.334 -50.5 14.001 -70.5s4 -42.333 4 -67v-6c24 16.667 44.333 33.334 61 50.001h42zM139.999 170.001
c0 -10 -2.99902 -19.167 -8.99902 -27.5s-14.667 -12.5 -26 -12.5c-5.33301 0 -10.833 0.833008 -16.5 2.5s-10.167 5.16699 -13.5 10.5c5.33301 -23.333 13.833 -40.833 25.5 -52.5s28.5 -17.5 50.5 -17.5c19.333 0 36 5.16699 50 15.5s21 28.5 21 54.5
c0 18 -1 34.167 -3 48.5s-5.16699 30.5 -9.5 48.5s-10 39.333 -17 64l-25.5 93c-6.66699 -32 -14.834 -62.833 -24.501 -92.5l-30.5 -92.5c7.33301 -3.33301 13.833 -8.5 19.5 -15.5s8.5 -15.833 8.5 -26.5z" />
    <glyph glyph-name="t" unicode="t" horiz-adv-x="267" 
d="M191 658l-0.00195312 -158h61v-40h-61v-300c0 -28 3.83301 -46.5 11.5 -55.5s21.167 -13.5 40.5 -13.5s35.5 8.33301 48.5 25s20.5 37.667 22.5 63h42c-5.33301 -40.667 -14.666 -73.167 -27.999 -97.5s-28.333 -43 -45 -56s-33.667 -21.5 -51 -25.5
s-32.666 -6 -45.999 -6c-51.333 0 -87.333 14.167 -108 42.5s-31 65.833 -31 112.5v311h-32v40h32v138z" />
    <glyph glyph-name="u" unicode="u" 
d="M439 500l-0.00195312 -340.003c0 -25.333 3.33301 -43.166 10 -53.499s18.667 -15.5 36 -15.5c25.333 0 43.833 8.66699 55.5 26s18.834 38 21.501 62h42c-5.33301 -40.667 -14.666 -73.167 -27.999 -97.5s-28.333 -43 -45 -56s-33.667 -21.5 -51 -25.5s-33 -6 -47 -6
c-36 0 -63.167 8.33301 -81.5 25s-30.833 40 -37.5 70c-8 -21.333 -17.667 -38.166 -29 -50.499s-23 -21.833 -35 -28.5s-24 -11 -36 -13s-23 -3 -33 -3c-47.333 0 -81.5 14 -102.5 42s-31.5 65.667 -31.5 113v351h144v-340c0 -25.333 3.5 -43.166 10.5 -53.499
s17.167 -15.5 30.5 -15.5c18 0 33 8.33301 45 25s18 37.667 18 63v321h144z" />
    <glyph glyph-name="v" unicode="v" horiz-adv-x="414" 
d="M309 520c34 0 58.4971 -16.667 73.4971 -50s22.5 -79.333 22.5 -138c0 -38 -3.33301 -77 -10 -117s-18 -76.333 -34 -109s-37.167 -59.5 -63.5 -80.5s-59.166 -31.5 -98.499 -31.5c-48 0 -85.333 15 -112 45s-40 70.333 -40 121v340h144v-340
c0 -24 3.33301 -41.5 10 -52.5s17.667 -16.5 33 -16.5c19.333 0 36 7.66699 50 23s25.5 35 34.5 59s15.667 50.667 20 80s6.5 58 6.5 86c0 30.667 -2.66699 59.334 -8 86.001c-1.33301 -3.33301 -5.66602 -5.83301 -12.999 -7.5s-13 -2.5 -17 -2.5
c-7.33301 0 -13.833 2 -19.5 6s-10.667 9.16699 -15 15.5s-7.66602 13.166 -9.99902 20.499s-3.5 14.333 -3.5 21c0 12 4.16699 22 12.5 30s20.833 12 37.5 12z" />
    <glyph glyph-name="w" unicode="w" horiz-adv-x="661" 
d="M556 520c34 0 58.4951 -16.6689 73.4951 -50.002s22.5 -79.333 22.5 -138c0 -38 -3.33301 -77 -10 -117s-18 -76.333 -34 -109s-37.167 -59.5 -63.5 -80.5s-59.166 -31.5 -98.499 -31.5c-33.333 0 -61.666 7.33301 -84.999 22s-40.666 35.334 -51.999 62.001
c-8.66699 -18.667 -18.334 -33.5 -29.001 -44.5s-21.667 -19.5 -33 -25.5s-22.666 -9.83301 -33.999 -11.5s-22 -2.5 -32 -2.5c-47.333 0 -81.5 14 -102.5 42s-31.5 65.667 -31.5 113v351h144v-340c0 -25.333 3.5 -43.166 10.5 -53.499s17.167 -15.5 30.5 -15.5
c18 0 32.333 8.33301 43 25s17 37.667 19 63v321h144v-340c0 -24 3.33301 -41.5 10 -52.5s17.667 -16.5 33 -16.5c19.333 0 36 7.66699 50 23s25.5 35 34.5 59s15.667 50.667 20 80s6.5 58 6.5 86c0 30.667 -2.66699 59.334 -8 86.001
c-1.33301 -3.33301 -5.66602 -5.83301 -12.999 -7.5s-13 -2.5 -17 -2.5c-7.33301 0 -13.833 2 -19.5 6s-10.667 9.16699 -15 15.5s-7.66602 13.166 -9.99902 20.499s-3.5 14.333 -3.5 21c0 12 4.16699 22 12.5 30s20.833 12 37.5 12z" />
    <glyph glyph-name="x" unicode="x" horiz-adv-x="522" 
d="M417 178c11.333 -32.667 23.1709 -55.3311 35.5039 -67.998s26.5 -19 42.5 -19c20 0 36.5 7.83301 49.5 23.5s20.833 37.167 23.5 64.5h42c-5.33301 -40 -14.5 -72 -27.5 -96s-27.333 -42.667 -43 -56s-31.5 -22.166 -47.5 -26.499s-29.667 -6.5 -41 -6.5
c-33.333 0 -63 13.667 -89 41s-50.667 71.666 -74 132.999l-103 -168h-72l153 228l-40 112c-12 33.333 -22 55.5 -30 66.5s-16.333 16.5 -25 16.5c-10 0 -19.833 -5 -29.5 -15s-18.5 -25 -26.5 -45s-14.5 -45.333 -19.5 -76s-7.5 -66.667 -7.5 -108h-42
c0 37.333 2.5 75.333 7.5 114s13.667 73.667 26 105s29.166 57 50.499 77s48.666 30 81.999 30c20 0 37.333 -3.5 52 -10.5s27.167 -16.333 37.5 -28s19.166 -24.5 26.499 -38.5s13.333 -28 18 -42l26 -78c20 28 35.5 52.667 46.5 74s16.5 40.666 16.5 57.999
c0 6 -0.333008 10.667 -1 14c-4.66699 -0.666992 -7.33398 -1.16699 -8.00098 -1.5s-3 -0.5 -7 -0.5c-21.333 0 -37 6 -47 18s-15 25 -15 39c0 17.333 6.33301 30.833 19 40.5s27 14.5 43 14.5c18.667 0 36 -7.16699 52 -21.5s24 -37.5 24 -69.5
c0 -31.333 -9.5 -67.333 -28.5 -108s-43.167 -81.334 -72.5 -122.001z" />
    <glyph glyph-name="y" unicode="y" horiz-adv-x="486" 
d="M438 500l0.00195312 -464.004c14 5.33301 26.333 11.666 37 18.999s20 16.5 28 27.5s14.5 24.333 19.5 40s8.83301 34.5 11.5 56.5h42c-3.33301 -33.333 -9.5 -60.833 -18.5 -82.5s-20 -39.5 -33 -53.5s-27 -25 -42 -33s-29.833 -14.333 -44.5 -19v-71
c0 -35.333 -4.33301 -64.166 -13 -86.499s-19.834 -39.666 -33.501 -51.999s-28.667 -20.666 -45 -24.999s-32.166 -6.5 -47.499 -6.5c-19.333 0 -37.5 2.66699 -54.5 8s-31.667 12.833 -44 22.5s-22.166 21.5 -29.499 35.5s-11 29.667 -11 47
c0 18 3.83301 34.167 11.5 48.5s17.834 26.833 30.501 37.5s27 19.834 43 27.501s32.333 14.167 49 19.5v55c-8.66699 -12.667 -17.834 -22.667 -27.501 -30s-19.334 -13 -29.001 -17s-19.334 -6.66699 -29.001 -8s-18.834 -2 -27.501 -2c-47.333 0 -81.5 14 -102.5 42
s-31.5 65.667 -31.5 113v351h144v-340c0 -25.333 3.5 -43.166 10.5 -53.499s17.167 -15.5 30.5 -15.5c18 0 32.333 8.33301 43 25s17 37.667 19 63v321h144zM213.002 -128.004c0 -13.333 4.50098 -24 13.501 -32s18.167 -12 27.5 -12c12 0 21.667 7.33301 29 22s11 37 11 67
v29c-22.667 -9.33301 -41.834 -20 -57.501 -32s-23.5 -26 -23.5 -42z" />
    <glyph glyph-name="z" unicode="z" horiz-adv-x="428" 
d="M365 91c-8 0.666992 -13.9971 3.50195 -17.9971 8.50195s-6 10.833 -6 17.5c0 8.66699 3.66699 17.167 11 25.5s19.333 12.5 36 12.5c18.667 0 32.667 -6.16699 42 -18.5s14 -26.833 14 -43.5c0 -10.667 -2 -21.5 -6 -32.5s-10.333 -21 -19 -30
s-19.334 -16.333 -32.001 -22s-27.334 -8.5 -44.001 -8.5h-276l196 446h-74c-14.667 0 -26.834 -0.833008 -36.501 -2.5s-14.5 -5.5 -14.5 -11.5c0 -2.66699 0.833008 -4 2.5 -4s3.66699 -0.666992 6 -2s4.33301 -4 6 -8s2.5 -11 2.5 -21
c0 -14.667 -4.5 -25.334 -13.5 -32.001s-19.167 -10 -30.5 -10c-13.333 0 -26.166 4.5 -38.499 13.5s-18.5 22.833 -18.5 41.5c0 10 2 20.167 6 30.5s10 20 18 29s18 16.333 30 22s26 8.5 42 8.5h275l-191 -423c4 0 9.66699 -0.333008 17 -1
s15.166 -1.33398 23.499 -2.00098l25 -2c8.33301 -0.666992 15.833 -1 22.5 -1c12 0 22.167 1.33301 30.5 4s12.5 8 12.5 16z" />
    <glyph glyph-name="braceleft" unicode="{" horiz-adv-x="285" 
d="M261 -235c-10 -2.66699 -19.5 -4.66406 -28.5 -5.99707s-19.167 -2 -30.5 -2c-24 0 -44.167 3.16699 -60.5 9.5s-29.166 15 -38.499 26s-16 24 -20 39s-6 31.167 -6 48.5c0 21.333 2.16699 44.166 6.5 68.499s9.16602 48.666 14.499 72.999s10.166 48 14.499 71
s6.5 44.167 6.5 63.5c0 21.333 -4.33301 38.833 -13 52.5s-25 20.5 -49 20.5c-9.33301 0 -20 -1 -32 -3v56c12 -2 22.667 -3 32 -3c24 0 40.333 6.83301 49 20.5s13 31.167 13 52.5c0 18.667 -2.16699 39.667 -6.5 63s-9.16602 47.166 -14.499 71.499
s-10.166 48.666 -14.499 72.999s-6.5 47.166 -6.5 68.499c0 17.333 2 33.5 6 48.5s10.667 28 20 39s22.166 19.667 38.499 26s36.5 9.5 60.5 9.5c11.333 0 21.5 -0.666992 30.5 -2s18.5 -3.33301 28.5 -6v-54c-8 1.33301 -15.5 2.33301 -22.5 3s-14.167 1 -21.5 1
c-30.667 0 -50.667 -7.33301 -60 -22s-14 -35.667 -14 -63c0 -25.333 2.16699 -50.666 6.5 -75.999s9.33301 -50 15 -74s10.667 -46.667 15 -68s6.5 -40.333 6.5 -57s-2.5 -31.167 -7.5 -43.5s-12.167 -24.166 -21.5 -35.499c9.33301 -11.333 16.5 -23.166 21.5 -35.499
s7.5 -26.833 7.5 -43.5s-2.16699 -35.667 -6.5 -57s-9.33301 -44 -15 -68s-10.667 -48.833 -15 -74.5s-6.5 -50.834 -6.5 -75.501c0 -27.333 4.66699 -48.333 14 -63s29.333 -22 60 -22c7.33301 0 14.5 0.333008 21.5 1s14.5 1.66699 22.5 3v-54z" />
    <glyph glyph-name="bar" unicode="|" horiz-adv-x="235" 
d="M164 -250h-93v1001h93v-1001z" />
    <glyph glyph-name="braceright" unicode="}" horiz-adv-x="285" 
d="M24 -181c8 -1.33301 15.5 -2.33594 22.5 -3.00293s14.167 -1 21.5 -1c30.667 0 50.667 7.33301 60 22s14 35.667 14 63c0 24.667 -2.16699 49.834 -6.5 75.501s-9.33301 50.5 -15 74.5s-10.667 46.667 -15 68s-6.5 40.333 -6.5 57s2.5 31.167 7.5 43.5
s12.167 24.166 21.5 35.499c-9.33301 11.333 -16.5 23.166 -21.5 35.499s-7.5 26.833 -7.5 43.5s2.16699 35.667 6.5 57s9.33301 44 15 68s10.667 48.667 15 74s6.5 50.666 6.5 75.999c0 27.333 -4.66699 48.333 -14 63s-29.333 22 -60 22
c-7.33301 0 -14.5 -0.333008 -21.5 -1s-14.5 -1.66699 -22.5 -3v54c10 2.66699 19.5 4.66699 28.5 6s19.167 2 30.5 2c24 0 44.167 -3.16699 60.5 -9.5s29.166 -15 38.499 -26s16 -24 20 -39s6 -31.167 6 -48.5c0 -21.333 -2.16699 -44.166 -6.5 -68.499
s-9.16602 -48.666 -14.499 -72.999s-10.166 -48.166 -14.499 -71.499s-6.5 -44.333 -6.5 -63c0 -21.333 4.33301 -38.833 13 -52.5s25 -20.5 49 -20.5c9.33301 0 20 1 32 3v-56c-12 2 -22.667 3 -32 3c-24 0 -40.333 -6.83301 -49 -20.5s-13 -31.167 -13 -52.5
c0 -19.333 2.16699 -40.5 6.5 -63.5s9.16602 -46.667 14.499 -71s10.166 -48.666 14.499 -72.999s6.5 -47.166 6.5 -68.499c0 -17.333 -2 -33.5 -6 -48.5s-10.667 -28 -20 -39s-22.166 -19.667 -38.499 -26s-36.5 -9.5 -60.5 -9.5c-11.333 0 -21.5 0.666992 -30.5 2
s-18.5 3.33301 -28.5 6v54z" />
    <glyph glyph-name="asciitilde" unicode="~" horiz-adv-x="438" 
d="M412 669c-0.666992 -12 -4.66797 -23.834 -12.001 -35.501s-17.333 -22.334 -30 -32.001s-27.5 -17.5 -44.5 -23.5s-34.833 -9 -53.5 -9c-16.667 0 -32.5 2 -47.5 6s-29.833 8.16699 -44.5 12.5l-42.5 12.5c-13.667 4 -27.5 6 -41.5 6
c-25.333 0 -45.666 -8.66699 -60.999 -26l-6 2c9.33301 32 26.5 56.333 51.5 73s56.5 25 94.5 25c18 0 34.5 -1.66699 49.5 -5s29.167 -7.16602 42.5 -11.499s26.333 -8.16602 39 -11.499s26.334 -5 41.001 -5c12.667 0 24.167 2 34.5 6s18.166 9.66699 23.499 17z" />
    <glyph glyph-name="exclamdown" unicode="&#xa1;" horiz-adv-x="255" 
d="M170 221l29 -469h-144l30 469h85zM208 373c0 -22 -7.66699 -40.833 -23 -56.5s-34 -23.5 -56 -23.5s-40.833 7.83301 -56.5 23.5s-23.5 34.5 -23.5 56.5s7.83301 40.667 23.5 56s34.5 23 56.5 23s40.667 -7.66699 56 -23s23 -34 23 -56z" />
    <glyph glyph-name="cent" unicode="&#xa2;" horiz-adv-x="392" 
d="M210 145c-24 1.33301 -47 5.99902 -69 13.999s-41.333 20.333 -58 37s-30 38.334 -40 65.001s-15 59.667 -15 99c0 70 15.833 125.667 47.5 167s76.5 64.333 134.5 69v122h39v-122c28 -2 52.167 -10 72.5 -24s30.5 -35.667 30.5 -65c0 -6 -0.666992 -11.833 -2 -17.5
s-4 -11 -8 -16s-10 -9.16699 -18 -12.5s-18.333 -5.33301 -31 -6c5.33301 12.667 8 25.667 8 39c0 15.333 -4.16699 29.333 -12.5 42s-21.5 19.667 -39.5 21v-350c26.667 0.666992 48.667 4.5 66 11.5s33.666 22.167 48.999 45.5c-2.66699 -42 -13.167 -71.167 -31.5 -87.5
s-46.166 -26.5 -83.499 -30.5v-173h-39v172zM134 364.999c0 -16.667 1.16504 -32.998 3.49805 -48.998s6.5 -30.833 12.5 -44.5s13.833 -25.834 23.5 -36.501s21.834 -18.334 36.501 -23.001v337c-12 -6 -22.833 -15.167 -32.5 -27.5s-17.667 -26.833 -24 -43.5
s-11.166 -34.667 -14.499 -54s-5 -39 -5 -59z" />
    <glyph glyph-name="sterling" unicode="&#xa3;" horiz-adv-x="488" 
d="M407 422c-0.666992 -12 -4.66797 -23.833 -12.001 -35.5s-17.333 -22.334 -30 -32.001s-27.5 -17.5 -44.5 -23.5s-34.833 -9 -53.5 -9h-9.5c-3 0 -6.16699 0.333008 -9.5 1v-232c16.667 2 33 3 49 3s32.667 1.5 50 4.5s35.5 8.83301 54.5 17.5s39.833 22.667 62.5 42
c0.666992 -6.66699 1.16699 -13.167 1.5 -19.5s0.5 -12.5 0.5 -18.5c0 -37.333 -6.33301 -66.666 -19 -87.999s-30.667 -32 -54 -32h-295v359h-7c-25.333 0 -45.666 -8.66699 -60.999 -26l-6 2c10.667 40 35.334 68.333 74.001 85v299l150 31v-330l46 -13.5
c14.667 -4.33301 30.667 -6.5 48 -6.5c12.667 0 24.167 2 34.5 6s18.166 9.66699 23.499 17z" />
    <glyph glyph-name="currency" unicode="&#xa4;" horiz-adv-x="458" 
d="M83 528l56.001 -56.001c27.333 20 57.666 30 90.999 30c16.667 0 32.5 -2.5 47.5 -7.5s28.833 -12.167 41.5 -21.5l56 56l36 -36l-55 -55c20 -27.333 30 -58 30 -92c0 -33.333 -10 -63.666 -30 -90.999l55 -55l-36 -36l-55 55c-12.667 -9.33301 -26.5 -16.5 -41.5 -21.5
s-31.167 -7.5 -48.5 -7.5c-34 0 -64.667 10 -92 30l-56 -56l-36 36l56 56c-9.33301 12.667 -16.5 26.5 -21.5 41.5s-7.5 30.833 -7.5 47.5c0 17.333 2.5 33.5 7.5 48.5s12.167 28.833 21.5 41.5l-57 57zM230.001 445.999c-28 0 -51.667 -9.66699 -71 -29s-29 -43 -29 -71
s9.66699 -51.667 29 -71s43 -29 71 -29s51.667 9.66699 71 29s29 43 29 71s-9.66699 51.667 -29 71s-43 29 -71 29z" />
    <glyph glyph-name="yen" unicode="&#xa5;" horiz-adv-x="711" 
d="M666 192l-0.00195312 -50h-129v-142h-160v142h-98v50h98v65h-98v50h98l-151 376c-35.333 -14 -62.333 -36 -81 -66s-28 -65.667 -28 -107c0 -21.333 1.5 -38.5 4.5 -51.5s6.33301 -23.833 10 -32.5s7.5 -15.334 11.5 -20.001s7 -9 9 -13c-40 0 -71.667 9.16699 -95 27.5
s-35 49.5 -35 93.5c0 32 8.33301 62.167 25 90.5s38.834 53.333 66.501 75s59.334 38.834 95.001 51.501s72.5 19 110.5 19c7.33301 0 14.5 -0.166992 21.5 -0.5s13.833 -0.833008 20.5 -1.5l143 -359l96 356h66l-129 -438h129v-50h-129v-65h129z" />
    <glyph glyph-name="brokenbar" unicode="&#xa6;" horiz-adv-x="235" 
d="M164 222v-472h-93v472h93zM71 301v451h93v-451h-93z" />
    <glyph glyph-name="section" unicode="&#xa7;" horiz-adv-x="520" 
d="M437 639c0 -20.667 -4.3291 -36.6641 -12.9961 -47.9971s-21.667 -17 -39 -17c-6 0 -12.333 1 -19 3s-13.667 6.33301 -21 13c7.33301 5.33301 13 13.166 17 23.499s6 20.833 6 31.5c0 17.333 -5.66699 33 -17 47s-28.333 21 -51 21c-24 0 -42.5 -8.66699 -55.5 -26
s-19.5 -38 -19.5 -62c0 -25.333 6.66699 -47 20 -65s30 -34.333 50 -49s41.667 -29 65 -43s45 -30 65 -48s36.667 -38.667 50 -62s20 -52 20 -86c0 -32.667 -6.83301 -61.5 -20.5 -86.5s-34.5 -41.167 -62.5 -48.5c2 -11.333 3 -22.666 3 -33.999
c0 -50 -15.5 -88.667 -46.5 -116s-75.833 -41 -134.5 -41c-17.333 0 -37.333 1.66699 -60 5s-44.334 10.5 -65.001 21.5s-38 26.667 -52 47s-21 47.5 -21 81.5c0 33.333 7 58.166 21 74.499s31.667 24.5 53 24.5c20 0 37.167 -5.5 51.5 -16.5s26.833 -22.167 37.5 -33.5
c-26 -2.66699 -43.667 -8.5 -53 -17.5s-14 -23.167 -14 -42.5c0 -12 1.66699 -23.667 5 -35s8.83301 -21.333 16.5 -30s17.667 -15.667 30 -21s27.166 -8 44.499 -8c27.333 0 45.666 6.5 54.999 19.5s14 31.167 14 54.5c0 32 -6.16699 59.333 -18.5 82
s-27.833 42.5 -46.5 59.5s-39 32.333 -61 46s-42.333 28 -61 43s-34.167 31.833 -46.5 50.5s-18.5 41 -18.5 67c0 27.333 6.66699 50.666 20 69.999s31 34.333 53 45c-8.66699 21.333 -13 43.666 -13 66.999c0 26.667 5.16699 49.5 15.5 68.5s23.833 34.5 40.5 46.5
s35.667 20.833 57 26.5s43 8.5 65 8.5c9.33301 0 22.666 -1 39.999 -3s34.5 -6.66699 51.5 -14s31.667 -18.333 44 -33s18.5 -35 18.5 -61zM402.004 227.003c0 32.667 -9.16797 59.999 -27.501 81.999s-40.5 42.167 -66.5 60.5s-53.5 36.166 -82.5 53.499
s-53.833 37.333 -74.5 60c-6.66699 -5.33301 -10 -13.666 -10 -24.999c0 -14 4.83301 -27.167 14.5 -39.5s22.334 -24.666 38.001 -36.999s33 -25 52 -38s38 -27.167 57 -42.5s36.667 -32 53 -50s29.833 -38.333 40.5 -61c4 10 6 22.333 6 37z" />
    <glyph glyph-name="dieresis" unicode="&#xa8;" horiz-adv-x="392" 
d="M56 634c0 16.667 5.83301 31 17.5 43s26.167 18 43.5 18c16.667 0 31 -6 43 -18s18 -26.333 18 -43c0 -17.333 -6 -31.833 -18 -43.5s-26.333 -17.5 -43 -17.5c-17.333 0 -31.833 5.83301 -43.5 17.5s-17.5 26.167 -17.5 43.5zM236 634c0 16.667 5.83301 31 17.5 43
s26.167 18 43.5 18c16.667 0 31 -6 43 -18s18 -26.333 18 -43c0 -17.333 -6 -31.833 -18 -43.5s-26.333 -17.5 -43 -17.5c-17.333 0 -31.833 5.83301 -43.5 17.5s-17.5 26.167 -17.5 43.5z" />
    <glyph glyph-name="copyright" unicode="&#xa9;" horiz-adv-x="554" 
d="M136 336c0 22.667 4.33301 43 13 61s20 33.5 34 46.5s30 23 48 30s36 10.5 54 10.5c26 0 50.5 -7.66699 73.5 -23s39.5 -39.333 49.5 -72l-47 -18c-3.33301 20 -12.833 35 -28.5 45s-32.5 15 -50.5 15c-11.333 0 -22.5 -1.83301 -33.5 -5.5s-20.667 -9.33398 -29 -17.001
s-15.166 -17.167 -20.499 -28.5s-8 -24.333 -8 -39c0 -15.333 2.5 -29.5 7.5 -42.5s11.667 -24.167 20 -33.5s18.333 -16.833 30 -22.5s24.167 -8.5 37.5 -8.5c15.333 0 29.833 4 43.5 12s24.167 19 31.5 33l44 -29c-14 -21.333 -31.833 -38 -53.5 -50
s-44.834 -18 -69.501 -18c-20 0 -39 4.16699 -57 12.5s-33.5 19.5 -46.5 33.5s-23.333 30.333 -31 49s-11.5 38.334 -11.5 59.001zM277 76c-33.333 0 -64.666 6.66699 -93.999 20s-55 31.5 -77 54.5s-39.333 50 -52 81s-19 64.167 -19 99.5c0 36 6.33301 69.5 19 100.5
s30 58 52 81s47.667 41.167 77 54.5s60.666 20 93.999 20c32.667 0 63.667 -6.5 93 -19.5s55 -31 77 -54s39.5 -50 52.5 -81s19.5 -64.5 19.5 -100.5s-6.5 -69.5 -19.5 -100.5s-30.5 -58 -52.5 -81s-47.667 -41.167 -77 -54.5s-60.333 -20 -93 -20zM81 331
c0 -30 5.16699 -58 15.5 -84s24.5 -48.5 42.5 -67.5s39 -34 63 -45s49.667 -16.5 77 -16.5c26.667 0 52 5.5 76 16.5s45 26 63 45s32.167 41.5 42.5 67.5s15.5 54 15.5 84s-5.16699 58 -15.5 84s-24.5 48.5 -42.5 67.5s-39 34 -63 45s-49.333 16.5 -76 16.5
c-27.333 0 -53 -5.5 -77 -16.5s-45 -26 -63 -45s-32.167 -41.5 -42.5 -67.5s-15.5 -54 -15.5 -84z" />
    <glyph glyph-name="ordfeminine" unicode="&#xaa;" horiz-adv-x="355" 
d="M282 556c0 -11.333 1.49902 -20.502 4.49902 -27.502s10.167 -10.5 21.5 -10.5h7c2.66699 0 5.33398 0.666992 8.00098 2c-1.33301 -12 -3.83301 -21.333 -7.5 -28s-7.66699 -11.667 -12 -15s-8.83301 -5.33301 -13.5 -6s-9 -1 -13 -1c-20 0 -34.833 4.66699 -44.5 14
s-17.5 22.666 -23.5 39.999c-6 -13.333 -15 -26.166 -27 -38.499s-28.667 -18.5 -50 -18.5c-16.667 0 -30.834 3.83301 -42.501 11.5s-21.167 17.5 -28.5 29.5s-12.666 25.667 -15.999 41s-5 31 -5 47c0 16.667 2 33.834 6 51.501s10.167 33.834 18.5 48.501
s19.333 26.5 33 35.5s30.167 13.5 49.5 13.5c12 0 22.167 -1.5 30.5 -4.5s15.5 -6.83301 21.5 -11.5v11h86zM169.999 710.998c-8.66699 0 -16.332 -3.33301 -22.999 -10s-12.167 -15.334 -16.5 -26.001s-7.66602 -22.667 -9.99902 -36s-3.5 -26.333 -3.5 -39
c0 -17.333 1.5 -31.666 4.5 -42.999s6.83301 -20.333 11.5 -27s9.5 -11.334 14.5 -14.001s9.5 -4 13.5 -4c9.33301 0 17.166 4.83301 23.499 14.5s11.166 20.834 14.499 33.501v142c-11.333 6 -21 9 -29 9z" />
    <glyph glyph-name="guillemotleft" unicode="&#xab;" horiz-adv-x="514" 
d="M247 404l-143 -151l167 -140l-31 -44l-219 185l175 195zM455 404l-143 -151l167 -140l-31 -44l-219 185l175 195z" />
    <glyph glyph-name="logicalnot" unicode="&#xac;" horiz-adv-x="466" 
d="M404 51h-111v171h-252v79h363v-250z" />
    <glyph glyph-name="uni00AD" unicode="&#xad;" horiz-adv-x="319" 
d="M260 222h-201v79h201v-79z" />
    <glyph glyph-name="registered" unicode="&#xae;" horiz-adv-x="554" 
d="M277 79c-33.333 0 -64.666 6.66699 -93.999 20s-55 31.5 -77 54.5s-39.333 50 -52 81s-19 64.167 -19 99.5c0 36 6.33301 69.5 19 100.5s30 58 52 81s47.667 41.167 77 54.5s60.666 20 93.999 20c32.667 0 63.667 -6.5 93 -19.5s55 -31 77 -54s39.5 -50 52.5 -81
s19.5 -64.5 19.5 -100.5s-6.5 -69.5 -19.5 -100.5s-30.5 -58 -52.5 -81s-47.667 -41.167 -77 -54.5s-60.333 -20 -93 -20zM81 334c0 -30 5.16699 -58 15.5 -84s24.5 -48.5 42.5 -67.5s39 -34 63 -45s49.667 -16.5 77 -16.5c26.667 0 52 5.5 76 16.5s45 26 63 45
s32.167 41.5 42.5 67.5s15.5 54 15.5 84s-5.16699 58 -15.5 84s-24.5 48.5 -42.5 67.5s-39 34 -63 45s-49.333 16.5 -76 16.5c-27.333 0 -53 -5.5 -77 -16.5s-45 -26 -63 -45s-32.167 -41.5 -42.5 -67.5s-15.5 -54 -15.5 -84zM182 483h97c35.333 0 62.5 -7.16699 81.5 -21.5
s28.5 -35.166 28.5 -62.499c0 -18.667 -5.5 -34.834 -16.5 -48.501s-25.167 -23.167 -42.5 -28.5l65 -125l-47 -7l-62 125h-59v-123h-46zM227 353l45.001 0.000976562c7.33301 0 15.166 0.5 23.499 1.5s16 3.16699 23 6.5s12.833 7.83301 17.5 13.5s7 13.167 7 22.5
c0 17.333 -6 29.166 -18 35.499s-26.333 9.5 -43 9.5h-55v-89z" />
    <glyph glyph-name="degree" unicode="&#xb0;" horiz-adv-x="319" 
d="M166 702c22 0 40.1709 -4.49805 54.5039 -13.498s25.666 -21 33.999 -36s14.166 -32 17.499 -51s5 -38.167 5 -57.5c0 -18.667 -2 -38 -6 -58s-10.333 -38.333 -19 -55s-19.834 -30.334 -33.501 -41.001s-30.167 -16 -49.5 -16s-36.833 2.83301 -52.5 8.5s-29 15 -40 28
s-19.5 30.167 -25.5 51.5s-9 47.666 -9 78.999c0 22.667 2.66699 43.667 8 63s13.166 36.333 23.499 51s23.333 26.167 39 34.5s33.5 12.5 53.5 12.5zM114.004 549.002c0 -10 0.332031 -22.8301 0.999023 -38.4971s2.5 -30.834 5.5 -45.501s7.83301 -27.334 14.5 -38.001
s16.334 -16 29.001 -16c9.33301 0 17.333 3.33301 24 10s12.334 15.5 17.001 26.5s8 23.833 10 38.5s3 30 3 46c0 26.667 -1.5 48.667 -4.5 66s-6.83301 31.166 -11.5 41.499s-9.83398 17.5 -15.501 21.5s-11.167 6 -16.5 6c-12 0 -24.333 -10 -37 -30s-19 -49.333 -19 -88z
" />
    <glyph glyph-name="plusminus" unicode="&#xb1;" horiz-adv-x="478" 
d="M296 421h128v-112h-129v-123h-111v123h-129v112h129v122h113zM422 68h-367v79h367v-79z" />
    <glyph glyph-name="twosuperior" unicode="&#xb2;" horiz-adv-x="344" 
d="M106 416c20 0 40.8291 -1.66797 62.4961 -5.00098s41.167 -5 58.5 -5c10 0 18.333 0.833008 25 2.5s12.167 4.16699 16.5 7.5s8.5 7.33301 12.5 12l14 16c2 -13.333 3.5 -23.666 4.5 -30.999s1.5 -14.666 1.5 -21.999c0 -21.333 -4.66699 -35.5 -14 -42.5
s-23.666 -10.5 -42.999 -10.5c-12 0 -24.333 0.833008 -37 2.5s-24.667 3.5 -36 5.5l-32 5.5c-10 1.66699 -18 2.5 -24 2.5c-11.333 0 -21.166 -0.5 -29.499 -1.5s-18.166 -4.16699 -29.499 -9.5c-1.33301 4.66699 -3 9.33398 -5 14.001s-3 11.667 -3 21
c0 17.333 3.83301 33 11.5 47s17 27.667 28 41s23.167 26.666 36.5 39.999s25.5 27.5 36.5 42.5s20.333 31.333 28 49s11.5 37.5 11.5 59.5c0 7.33301 -0.5 14.666 -1.5 21.999s-3.33301 14 -7 20s-8.5 10.833 -14.5 14.5s-14 5.5 -24 5.5
c-12.667 0 -23.5 -3.33301 -32.5 -10s-13.5 -17.667 -13.5 -33c0 -6.66699 1.5 -13.5 4.5 -20.5s9.16699 -12.167 18.5 -15.5c-6 -6.66699 -12.833 -11.5 -20.5 -14.5s-15.167 -4.5 -22.5 -4.5c-14 0 -24 5.5 -30 16.5s-9 22.5 -9 34.5c0 23.333 9.5 42 28.5 56
s47.833 21 86.5 21c24 0 43.833 -2.83301 59.5 -8.5s28 -13.167 37 -22.5s15.333 -20 19 -32s5.5 -24.333 5.5 -37c0 -30.667 -7.66699 -56.5 -23 -77.5s-33.166 -40 -53.499 -57l-60 -48.5c-19.667 -15.333 -33.5 -32 -41.5 -50z" />
    <glyph glyph-name="threesuperior" unicode="&#xb3;" horiz-adv-x="347" 
d="M147 480c-16 -1.33301 -26.6582 -6.50586 -31.9912 -15.5059s-8 -19.833 -8 -32.5c0 -12 1.66699 -21.667 5 -29s7.66602 -13 12.999 -17s11.166 -6.66699 17.499 -8s12.166 -2 17.499 -2c12.667 0 23 2 31 6s14.5 9.33301 19.5 16s8.5 14.334 10.5 23.001
s3 17.334 3 26.001c0 25.333 -8 49.833 -24 73.5s-41 40.5 -75 50.5c26 6.66699 46.167 19.334 60.5 38.001s21.5 37.667 21.5 57c0 14 -4.16699 26.5 -12.5 37.5s-21.833 16.5 -40.5 16.5c-26 0 -39 -10.667 -39 -32c0 -9.33301 2.66699 -19 8 -29s13 -16.333 23 -19
c-12 -12.667 -25.667 -19 -41 -19c-14 0 -26.167 5.33301 -36.5 16s-15.5 24 -15.5 40c0 20.667 9.16699 37.834 27.5 51.501s44.5 20.5 78.5 20.5c20.667 0 38.667 -2.66699 54 -8s28.166 -12.166 38.499 -20.499s18.166 -18 23.499 -29s8 -22.167 8 -33.5
c0 -17.333 -5.5 -33.666 -16.5 -48.999s-26.833 -28.333 -47.5 -39c32 -8.66699 55.5 -22.334 70.5 -41.001s22.5 -38.667 22.5 -60c0 -11.333 -2.33301 -24.333 -7 -39s-12.834 -28.5 -24.501 -41.5s-27.667 -24 -48 -33s-45.833 -13.5 -76.5 -13.5
c-3.33301 0 -11.333 0.5 -24 1.5s-25.834 4.66699 -39.501 11s-25.834 16 -36.501 29s-16 31.5 -16 55.5c0 21.333 4.83301 38 14.5 50s24.167 18 43.5 18c11.333 0 21.166 -2.16699 29.499 -6.5s14.833 -11.166 19.5 -20.499z" />
    </font>
</defs>
</svg>
