<?xml version="1.0" standalone="no"?>
<!DOCTYPE svg PUBLIC "-//W3C//DTD SVG 1.1//EN" "http://www.w3.org/Graphics/SVG/1.1/DTD/svg11.dtd" >
<svg>
<metadata>
Created by FontForge 20090914 at Mon Aug  1 08:27:04 2022
 By www-data
Copyright (c) 2011 by Pablo Impallari. www.impallari.com. All rights reserved.
</metadata>
<defs>
<font id="LobsterTwo" horiz-adv-x="485" >
  <font-face 
    font-family="Lobster Two"
    font-weight="400"
    font-stretch="normal"
    units-per-em="1000"
    panose-1="2 0 5 6 0 0 0 2 0 3"
    ascent="800"
    descent="-200"
    x-height="500"
    cap-height="750"
    bbox="-133 -250.004 1168 1000"
    underline-thickness="50"
    underline-position="-50"
    unicode-range="U+0020-U+FB04"
  />
<missing-glyph horiz-adv-x="385" 
 />
    <glyph glyph-name="IJ" unicode="IJ" horiz-adv-x="660" 
d="M357 54c25.333 -1.33301 44.8301 -8.16797 58.4971 -20.501s20.5 -32.833 20.5 -61.5c0 -2 -0.166992 -4.16699 -0.5 -6.5s-0.5 -4.83301 -0.5 -7.5c-9.33301 8.66699 -19 15 -29 19s-19.667 6 -29 6c-17.333 0 -30.5 -7.16699 -39.5 -21.5s-13.5 -30.166 -13.5 -47.499
c0 -10 1.5 -19.667 4.5 -29s7.66699 -17.833 14 -25.5s14.5 -13.834 24.5 -18.501s21.667 -7 35 -7c12.667 0 25 2.5 37 7.5s22.667 12.833 32 23.5s16.833 24.334 22.5 41.001s8.5 36.667 8.5 60v757l112 27v-710c0 -38 -3.33301 -72.167 -10 -102.5s-18 -56.333 -34 -78
s-37.167 -38.167 -63.5 -49.5s-59.166 -17 -98.499 -17c-28 0 -52.167 4.16699 -72.5 12.5s-37 19.333 -50 33s-22.5 29 -28.5 46s-9 34.167 -9 51.5c0 23.333 5 44.666 15 63.999h-16v691c-44.667 -12.667 -80 -34.334 -106 -65.001s-39 -69 -39 -115
c0 -18 1.33301 -33.167 4 -45.5s6 -23 10 -32s8.83301 -16.667 14.5 -23s11.5 -12.166 17.5 -17.499c-40 0 -71.667 9.16699 -95 27.5s-35 49.5 -35 93.5c0 32 8.33301 62.167 25 90.5s38.834 53.333 66.501 75s59.334 38.834 95.001 51.501s72.5 19 110.5 19
c7.33301 0 14.5 -0.166992 21.5 -0.5s13.833 -0.833008 20.5 -1.5v-694z" />
    <glyph glyph-name="ij" unicode="ij" horiz-adv-x="450" 
d="M380 500v-478.998c16.667 5.33301 31.5 11.333 44.5 18s24.333 15.667 34 27s17.667 26 24 44s11.166 41 14.499 69h37c-5.33301 -35.333 -12.166 -64.166 -20.499 -86.499s-18.666 -40.333 -30.999 -54s-27 -24.334 -44 -32.001s-36.5 -14.834 -58.5 -21.501v-64
c0 -31.333 -3.33301 -57.833 -10 -79.5s-15.834 -39.334 -27.501 -53.001s-25 -23.5 -40 -29.5s-30.833 -9 -47.5 -9c-33.333 0 -59.333 9.5 -78 28.5s-28 42.167 -28 69.5c0 17.333 3.83301 33 11.5 47s17.667 26.833 30 38.5s26.333 22 42 31s31.5 16.833 47.5 23.5v512
h100zM147 500.002l0.00195312 -340.004c0 -8 0.166992 -17.167 0.5 -27.5s2 -20.166 5 -29.499s7.33301 -17.166 13 -23.499s14.167 -9.5 25.5 -9.5c5.33301 0 11.833 0.666992 19.5 2s13.5 2.66602 17.5 3.99902c0.666992 -3.33301 1.16699 -6.33301 1.5 -9
s0.5 -5.66699 0.5 -9c0 -11.333 -2.5 -21.166 -7.5 -29.499s-11.5 -15 -19.5 -20s-17 -8.66699 -27 -11s-20 -3.5 -30 -3.5c-20 0 -36.333 4.16699 -49 12.5s-22.834 19.333 -30.501 33s-12.834 28.834 -15.501 45.501s-4 33.334 -4 50.001v365h100zM29.002 643.998
c0 18 6.33301 33.667 19 47s28.334 20 47.001 20c18 0 33.667 -6.66699 47 -20s20 -29 20 -47c0 -18.667 -6.66699 -34.334 -20 -47.001s-29 -19 -47 -19c-18.667 0 -34.334 6.33301 -47.001 19s-19 28.334 -19 47.001zM262.002 643.998c0 18 6.33301 33.667 19 47
s28.334 20 47.001 20c18 0 33.667 -6.66699 47 -20s20 -29 20 -47c0 -18.667 -6.66699 -34.334 -20 -47.001s-29 -19 -47 -19c-18.667 0 -34.334 6.33301 -47.001 19s-19 28.334 -19 47.001zM236.002 -198.002c18 0 29.834 6.83301 35.501 20.5s8.5 32.167 8.5 55.5v70
c-33.333 -15.333 -57 -30.5 -71 -45.5s-21 -31.833 -21 -50.5c0 -15.333 4.16699 -27.5 12.5 -36.5s20.166 -13.5 35.499 -13.5z" />
    <glyph glyph-name="ff" unicode="ff" horiz-adv-x="484" 
d="M197 750c25.333 0 48.168 -5.33008 68.501 -15.9971s36.166 -29.334 47.499 -56.001c12.667 23.333 29.667 41.166 51 53.499s46 18.5 74 18.5c19.333 0 37.5 -3 54.5 -9s31.667 -15.333 44 -28s22 -28.334 29 -47.001s10.5 -40.667 10.5 -66h-39
c-4 26.667 -11.167 47.667 -21.5 63s-27.5 23 -51.5 23c-16 0 -28.667 -3.5 -38 -10.5s-16.666 -16.5 -21.999 -28.5s-8.83301 -26.5 -10.5 -43.5s-2.5 -35.5 -2.5 -55.5v-48h81v-35h-81v-545c0 -35.333 -4.33301 -64 -13 -86s-19.834 -39.333 -33.501 -52
s-28.834 -21.167 -45.501 -25.5s-33 -6.5 -49 -6.5c-29.333 0 -53.166 5.83301 -71.499 17.5s-34.5 27.5 -48.5 47.5c-11.333 -24.667 -26.333 -41.667 -45 -51s-39.667 -14 -63 -14c-36.667 0 -63.5 8.5 -80.5 25.5s-25.5 38.167 -25.5 63.5c0 32 12.167 60 36.5 84
s55.5 44.667 93.5 62v591c0 58 14 101.5 42 130.5s64.333 43.5 109 43.5zM146.002 21.0029c24 7.33301 48.333 13.667 73 19l72 15v410h-145v-444zM291.002 22.0039c-28 -5.33301 -53.999 -10.832 -77.999 -16.499s-46.333 -11.5 -67 -17.5v-68c0 -28 -2 -52 -6 -72
c24 -30.667 51.667 -46 83 -46c8.66699 0 17.167 1.33301 25.5 4s15.666 8.16699 21.999 16.5s11.333 20.166 15 35.499s5.5 35.333 5.5 60v104zM146.003 500.005h145.001v76c0 42 -5.83301 70.833 -17.5 86.5s-28.834 23.5 -51.501 23.5c-16.667 0 -30 -3.33301 -40 -10
s-17.667 -16.167 -23 -28.5s-8.83301 -27 -10.5 -44s-2.5 -35.5 -2.5 -55.5v-48zM1.00391 -197.995c19.333 0 31.667 10.332 37 30.999s8 49 8 85v30c-30.667 -15.333 -53.5 -31.5 -68.5 -48.5s-22.5 -33.5 -22.5 -49.5c0 -13.333 4.33301 -24.666 13 -33.999
s19.667 -14 33 -14z" />
    <glyph glyph-name="fi" unicode="fi" horiz-adv-x="456" 
d="M146 465l0.00195312 -544.999c0 -34 -3.16699 -61.833 -9.5 -83.5s-15 -39 -26 -52s-24.167 -22 -39.5 -27s-31.666 -7.5 -48.999 -7.5c-36.667 0 -63.5 8.5 -80.5 25.5s-25.5 38.833 -25.5 65.5c0 18.667 3.83301 35.5 11.5 50.5s17.5 28.5 29.5 40.5
s25.833 22.5 41.5 31.5s31.5 16.833 47.5 23.5v574c0 21.333 3.16699 43.166 9.5 65.499s16.666 42.5 30.999 60.5s33 32.833 56 44.5s51.5 17.5 85.5 17.5c26 0 48.333 -3.33301 67 -10s34.334 -15.834 47.001 -27.501s22 -24.834 28 -39.501s9 -30 9 -46
c0 -23.333 -5.33301 -39.5 -16 -48.5s-22.334 -13.5 -35.001 -13.5c-13.333 0 -25.333 4.16699 -36 12.5s-16 19.5 -16 33.5c0 9.33301 2.5 19 7.5 29s11.833 15.667 20.5 17c-4 18.667 -12.833 31.334 -26.5 38.001s-27.834 10 -42.501 10
c-18 0 -32.833 -4.16699 -44.5 -12.5s-20.834 -19.666 -27.501 -33.999s-11.167 -31 -13.5 -50s-3.5 -38.833 -3.5 -59.5v-48h81v-35h-81zM386.002 500.001v-339.999c0 -6.66699 0.333008 -15 1 -25s2.5 -19.833 5.5 -29.5s7.5 -18 13.5 -25s14.333 -10.5 25 -10.5
c32.667 0 56.667 36.333 72 109h37c-7.33301 -42 -16.666 -75.167 -27.999 -99.5s-23.333 -42.833 -36 -55.5s-25.667 -20.834 -39 -24.501s-25.333 -5.5 -36 -5.5c-23.333 0 -42.333 4.5 -57 13.5s-26.334 20.5 -35.001 34.5s-14.667 29.667 -18 47s-5 34 -5 50v361h100z
M46.002 -50.998c-30 -14.667 -52.666 -30.668 -67.999 -48.001s-23 -34.333 -23 -51c0 -13.333 4.33301 -24.666 13 -33.999s19.667 -14 33 -14c19.333 0 31.666 10.333 36.999 31s8 49 8 85v31z" />
    <glyph glyph-name="fl" unicode="fl" horiz-adv-x="456" 
d="M146 500h80.9961v-35h-81v-545c0 -36 -2 -65 -6 -87s-10.167 -39.167 -18.5 -51.5s-18.666 -20.666 -30.999 -24.999s-26.833 -6.5 -43.5 -6.5c-18 0 -34.833 2 -50.5 6s-29.5 10.333 -41.5 19s-21.5 19.334 -28.5 32.001s-10.5 28 -10.5 46
c0 14.667 3.83301 28.5 11.5 41.5s17.667 25.167 30 36.5s26.333 21.5 42 30.5s31.167 17.167 46.5 24.5v575c0 20 1.33301 41 4 63s8.83398 42.167 18.501 60.5s23.834 33.666 42.501 45.999s44.334 18.5 77.001 18.5c22.667 0 42.5 -1.16699 59.5 -3.5
s32.833 -5.83301 47.5 -10.5s29.167 -10 43.5 -16s30.5 -12.333 48.5 -19v-540c0 -6.66699 0.333008 -15 1 -25s2.5 -19.833 5.5 -29.5s7.5 -18 13.5 -25s14.333 -10.5 25 -10.5c32.667 0 56.667 36.333 72 109h37c-7.33301 -42 -16.666 -75.167 -27.999 -99.5
s-23.333 -42.833 -36 -55.5s-25.667 -20.834 -39 -24.501s-25.333 -5.5 -36 -5.5c-23.333 0 -42.333 4.5 -57 13.5s-26.334 20.5 -35.001 34.5s-14.667 29.667 -18 47s-5 34 -5 50v542c-7.33301 1.33301 -15.166 2.5 -23.499 3.5s-20.833 1.5 -37.5 1.5
c-18 0 -32.167 -3.33301 -42.5 -10s-18.333 -16 -24 -28s-9.33398 -26.5 -11.001 -43.5s-2.5 -35.833 -2.5 -56.5v-48zM1.99609 -198c18.667 0 30.667 10.666 36 31.999s8 49.333 8 84v31c-30 -14.667 -52.667 -30.667 -68 -48s-23 -34.333 -23 -51
c0 -13.333 4.16699 -24.666 12.5 -33.999s19.833 -14 34.5 -14z" />
    <glyph glyph-name="ffi" unicode="ffi" horiz-adv-x="696" 
d="M391 500h81.0039v-35h-81v-545c0 -35.333 -4.33301 -64 -13 -86s-19.834 -39.333 -33.501 -52s-28.834 -21.167 -45.501 -25.5s-33 -6.5 -49 -6.5c-29.333 0 -53.166 5.83301 -71.499 17.5s-34.5 27.5 -48.5 47.5c-11.333 -24.667 -26.333 -41.667 -45 -51
s-39.667 -14 -63 -14c-36.667 0 -63.5 8.5 -80.5 25.5s-25.5 38.167 -25.5 63.5c0 32 12.167 60 36.5 84s55.5 44.667 93.5 62v591c0 58 14 101.5 42 130.5s64.333 43.5 109 43.5c27.333 0 51.5 -6.16699 72.5 -18.5s36.833 -33.833 47.5 -64.5
c13.333 23.333 32.666 42.833 57.999 58.5s58 23.5 98 23.5c26 0 48.333 -3.33301 67 -10s34.334 -15.834 47.001 -27.501s22 -24.834 28 -39.501s9 -30 9 -46c0 -23.333 -5.33301 -39.5 -16 -48.5s-22.334 -13.5 -35.001 -13.5c-13.333 0 -25.333 4.16699 -36 12.5
s-16 19.5 -16 33.5c0 9.33301 2.5 19 7.5 29s11.833 15.667 20.5 17c-4 18.667 -12.833 31.334 -26.5 38.001s-27.834 10 -42.501 10c-18 0 -32.833 -4.16699 -44.5 -12.5s-20.834 -19.666 -27.501 -33.999s-11.167 -31 -13.5 -50s-3.5 -38.833 -3.5 -59.5v-48zM146.004 21
c24 7.33301 48.333 13.667 73 19l72 15v410h-145v-444zM626.004 500.001v-339.999c0 -6.66699 0.333008 -15 1 -25s2.5 -19.833 5.5 -29.5s7.5 -18 13.5 -25s14.333 -10.5 25 -10.5c32.667 0 56.667 36.333 72 109h37c-7.33301 -42 -16.666 -75.167 -27.999 -99.5
s-23.333 -42.833 -36 -55.5s-25.667 -20.834 -39 -24.501s-25.333 -5.5 -36 -5.5c-23.333 0 -42.333 4.5 -57 13.5s-26.334 20.5 -35.001 34.5s-14.667 29.667 -18 47s-5 34 -5 50v361h100zM291.004 22.002c-28 -5.33301 -53.999 -10.832 -77.999 -16.499
s-46.333 -11.5 -67 -17.5v-68c0 -28 -2 -52 -6 -72c24 -30.667 51.667 -46 83 -46c8.66699 0 17.167 1.33301 25.5 4s15.666 8.16699 21.999 16.5s11.333 20.166 15 35.499s5.5 35.333 5.5 60v104zM146.005 500.003h145.001v76c0 42 -5.83301 70.833 -17.5 86.5
s-28.834 23.5 -51.501 23.5c-16.667 0 -30 -3.33301 -40 -10s-17.667 -16.167 -23 -28.5s-8.83301 -27 -10.5 -44s-2.5 -35.5 -2.5 -55.5v-48zM1.00586 -197.997c19.333 0 31.667 10.332 37 30.999s8 49 8 85v30c-30.667 -15.333 -53.5 -31.5 -68.5 -48.5
s-22.5 -33.5 -22.5 -49.5c0 -13.333 4.33301 -24.666 13 -33.999s19.667 -14 33 -14z" />
    <glyph glyph-name="ffl" unicode="ffl" horiz-adv-x="701" 
d="M391 500h81.001v-35h-81v-545c0 -35.333 -4.33301 -64 -13 -86s-19.834 -39.333 -33.501 -52s-28.834 -21.167 -45.501 -25.5s-33 -6.5 -49 -6.5c-29.333 0 -53.166 5.83301 -71.499 17.5s-34.5 27.5 -48.5 47.5c-11.333 -24.667 -26.333 -41.667 -45 -51
s-39.667 -14 -63 -14c-36.667 0 -63.5 8.5 -80.5 25.5s-25.5 38.167 -25.5 63.5c0 32 12.167 60 36.5 84s55.5 44.667 93.5 62v591c0 58 14 101.5 42 130.5s64.333 43.5 109 43.5c25.333 0 47.833 -5.16699 67.5 -15.5s35.167 -28.166 46.5 -53.499
c9.33301 19.333 23.5 35.5 42.5 48.5s45.5 19.5 79.5 19.5c22.667 0 42.5 -1.16699 59.5 -3.5s32.833 -5.83301 47.5 -10.5s29.167 -10 43.5 -16s30.5 -12.333 48.5 -19v-540c0 -6.66699 0.333008 -15 1 -25s2.5 -19.833 5.5 -29.5s7.5 -18 13.5 -25s14.333 -10.5 25 -10.5
c32.667 0 56.667 36.333 72 109h37c-7.33301 -42 -16.666 -75.167 -27.999 -99.5s-23.333 -42.833 -36 -55.5s-25.667 -20.834 -39 -24.501s-25.333 -5.5 -36 -5.5c-23.333 0 -42.333 4.5 -57 13.5s-26.334 20.5 -35.001 34.5s-14.667 29.667 -18 47s-5 34 -5 50v542
c-7.33301 1.33301 -15.166 2.5 -23.499 3.5s-20.833 1.5 -37.5 1.5c-18 0 -32.167 -3.33301 -42.5 -10s-18.333 -16 -24 -28s-9.33398 -26.5 -11.001 -43.5s-2.5 -35.833 -2.5 -56.5v-48zM146.001 21c24 7.33301 48.333 13.667 73 19l72 15v410h-145v-444zM291.001 22.001
c-28 -5.33301 -53.999 -10.832 -77.999 -16.499s-46.333 -11.5 -67 -17.5v-68c0 -28 -2 -52 -6 -72c24 -30.667 51.667 -46 83 -46c8.66699 0 17.167 1.33301 25.5 4s15.666 8.16699 21.999 16.5s11.333 20.166 15 35.499s5.5 35.333 5.5 60v104zM146.002 500.002h145.001
v76c0 42 -5.83301 70.833 -17.5 86.5s-28.834 23.5 -51.501 23.5c-16.667 0 -30 -3.33301 -40 -10s-17.667 -16.167 -23 -28.5s-8.83301 -27 -10.5 -44s-2.5 -35.5 -2.5 -55.5v-48zM1.00293 -197.998c19.333 0 31.667 10.332 37 30.999s8 49 8 85v30
c-30.667 -15.333 -53.5 -31.5 -68.5 -48.5s-22.5 -33.5 -22.5 -49.5c0 -13.333 4.33301 -24.666 13 -33.999s19.667 -14 33 -14z" />
    <glyph glyph-name="E_x" unicode="Ex" horiz-adv-x="776" 
d="M535 462l80.998 -206l31 43c10.667 15.333 20.334 31.166 29.001 47.499s15.834 32.666 21.501 48.999s8.5 31.833 8.5 46.5v9c0 2.66699 -0.333008 5.33398 -1 8.00098c-6 -2.66699 -13 -4 -21 -4c-14.667 0 -27.5 4.83301 -38.5 14.5s-16.5 22.5 -16.5 38.5
c0 14.667 5 27 15 37s22.667 15 38 15c19.333 0 35.666 -8.5 48.999 -25.5s20 -41.5 20 -73.5c0 -38 -10.167 -76 -30.5 -114s-49.5 -82.333 -87.5 -133l14 -35c4.66699 -11.333 9.33398 -23.333 14.001 -36s10 -24.5 16 -35.5s12.833 -20 20.5 -27s16.5 -10.5 26.5 -10.5
c16.667 0 31.5 10.167 44.5 30.5s22.833 46.5 29.5 78.5h35c-7.33301 -42 -16.5 -75.167 -27.5 -99.5s-22.5 -42.833 -34.5 -55.5s-24.333 -20.834 -37 -24.501s-24.334 -5.5 -35.001 -5.5c-32.667 0 -60 10.833 -82 32.5s-43.667 56.834 -65 105.501
c-14.667 -24 -32.667 -45.167 -54 -63.5s-44.833 -34 -70.5 -47s-52.667 -22.833 -81 -29.5s-56.5 -10 -84.5 -10c-40.667 0 -75 6.83301 -103 20.5s-50.667 31.167 -68 52.5s-29.833 45.5 -37.5 72.5s-11.5 53.833 -11.5 80.5c0 50 11.833 93 35.5 129
s56.834 62.667 99.501 80c-32 20 -55 43 -69 69s-21 53.333 -21 82c0 22 4 44 12 66s20.333 41.667 37 59s37.167 31.5 61.5 42.5s53.166 16.5 86.499 16.5c18 0 36.167 -2 54.5 -6s34.833 -10.833 49.5 -20.5s26.5 -22.667 35.5 -39s13.5 -36.833 13.5 -61.5
c0 -25.333 -5 -45.333 -15 -60s-23.333 -22 -40 -22c-18 0 -35.667 9 -53 27c9.33301 4 18.5 12.167 27.5 24.5s13.5 28.166 13.5 47.499c0 12.667 -2.33301 23.5 -7 32.5s-10.834 16.5 -18.501 22.5s-16.167 10.333 -25.5 13s-19 4 -29 4c-18 0 -34 -4 -48 -12
s-25.667 -18.5 -35 -31.5s-16.5 -27.667 -21.5 -44s-7.5 -32.833 -7.5 -49.5c0 -9.33301 1.16699 -21.666 3.5 -36.999s7.33301 -31 15 -47s18.834 -31 33.501 -45s34.667 -24 60 -30c-44 -10 -77.833 -32.5 -101.5 -67.5s-35.5 -76.5 -35.5 -124.5
c0 -24 3.16699 -46.167 9.5 -66.5s16 -37.666 29 -51.999s29.667 -25.666 50 -33.999s44.833 -12.5 73.5 -12.5c24.667 0 48.334 3 71.001 9s43.5 14 62.5 24s35.833 21.667 50.5 35s26.667 27.666 36 42.999l-2 7l-112 283h114z" />
    <glyph glyph-name="F_i" unicode="Fi" horiz-adv-x="766" 
d="M628 615c-16 0 -32.832 2 -50.499 6s-35.667 8.66699 -54 14s-37.333 11.166 -57 17.499s-39.834 11.833 -60.501 16.5v-234h128v-59h-128v-376h-109v682c-48.667 -2 -85 -15.333 -109 -40s-36 -59 -36 -103c0 -12 1.16699 -25.167 3.5 -39.5s5.5 -28.166 9.5 -41.499
s8.5 -25.5 13.5 -36.5s10.167 -19.5 15.5 -25.5c-40.667 0 -69.667 10.333 -87 31s-26 56 -26 106c0 28.667 5.33301 56 16 82s27.167 49 49.5 69s50.833 36 85.5 48s76.334 18 125.001 18c22 0 42 -1 60 -3s35.333 -4.33301 52 -7s33.667 -5 51 -7s36.666 -3 57.999 -3
s43.833 1.33301 67.5 4s48.167 7.66699 73.5 15c0 -22 -1.16699 -41.333 -3.5 -58s-6.83301 -30.667 -13.5 -42s-16 -19.833 -28 -25.5s-27.333 -8.5 -46 -8.5zM696.001 500v-339.999c0 -6.66699 0.333008 -15 1 -25s2.5 -19.833 5.5 -29.5s7.5 -18 13.5 -25
s14.333 -10.5 25 -10.5c32.667 0 56.667 36.333 72 109h37c-7.33301 -42 -16.666 -75.167 -27.999 -99.5s-23.333 -42.833 -36 -55.5s-25.667 -20.834 -39 -24.501s-25.333 -5.5 -36 -5.5c-23.333 0 -42.333 4.5 -57 13.5s-26.334 20.5 -35.001 34.5s-14.667 29.667 -18 47
s-5 34 -5 50v361h100z" />
    <glyph glyph-name="T_h" unicode="Th" horiz-adv-x="983" 
d="M913 156c0 -5.33301 0.333008 -12.8311 1 -22.498s2.33398 -19.167 5.00098 -28.5s7 -17.5 13 -24.5s14.667 -10.5 26 -10.5c15.333 0 29.166 8.66699 41.499 26s22.5 45 30.5 83h37c-7.33301 -42 -16.666 -75.167 -27.999 -99.5s-23.333 -42.833 -36 -55.5
s-25.334 -20.834 -38.001 -24.501s-24.334 -5.5 -35.001 -5.5c-21.333 0 -39.333 4.16699 -54 12.5s-26.667 19.5 -36 33.5s-16.166 30.333 -20.499 49s-6.5 38 -6.5 58c0 6 0.166992 17.167 0.5 33.5s0.666016 33.833 0.999023 52.5s0.666016 36.334 0.999023 53.001
s0.5 28.334 0.5 35.001c0 21.333 -1.66699 39 -5 53s-8 25 -14 33s-12.833 13.667 -20.5 17s-15.834 5 -24.501 5c-20.667 0 -38.5 -8.33301 -53.5 -25s-27.167 -44.667 -36.5 -84v-320h-100v644c-22 1.33301 -44.833 3.5 -68.5 6.5s-48.5 6.83301 -74.5 11.5v-662h-110v670
c-6.66699 0.666992 -13.167 1.16699 -19.5 1.5s-12.833 0.5 -19.5 0.5c-56 0 -99.5 -10.167 -130.5 -30.5s-46.5 -57.166 -46.5 -110.499c0 -40 5.16699 -70.5 15.5 -91.5s20.166 -36.833 29.499 -47.5c-16.667 0 -32.167 2.5 -46.5 7.5s-26.833 13.167 -37.5 24.5
s-19 26.166 -25 44.499s-9 41.166 -9 68.499s5.33301 53.666 16 78.999s27.834 47.833 51.501 67.5s54.334 35.5 92.001 47.5s83.834 18 138.501 18c26.667 0 50.167 -1.16699 70.5 -3.5s39.5 -5 57.5 -8s35.833 -5.66699 53.5 -8s36.834 -3.5 57.501 -3.5
c28 0 51.667 0.666992 71 2s35.333 4.66602 48 9.99902c-2.66699 -10 -4.83398 -20.5 -6.50098 -31.5s-3 -23 -4 -36s-1.83301 -27.5 -2.5 -43.5s-1 -34.667 -1 -56v-147c10 18 20.167 32.5 30.5 43.5s20.833 19.167 31.5 24.5s20.834 8.83301 30.501 10.5
s18.834 2.5 27.501 2.5c30 0 54.167 -5.66699 72.5 -17s32.166 -25.833 41.499 -43.5s15.5 -37 18.5 -58s4.5 -41.167 4.5 -60.5c0 -12 -0.333008 -25.167 -1 -39.5l-2 -44l-2 -45c-0.666992 -15 -1 -28.833 -1 -41.5z" />
    <glyph glyph-name="T_i" unicode="Ti" horiz-adv-x="720" 
d="M246 682c-52 0 -90.8311 -12.501 -116.498 -37.501s-38.5 -60.167 -38.5 -105.5c0 -12 1.16699 -25.167 3.5 -39.5s5.5 -28.166 9.5 -41.499s8.5 -25.5 13.5 -36.5s10.167 -19.5 15.5 -25.5c-40.667 0 -69.667 10.333 -87 31s-26 56 -26 106c0 28.667 5.33301 56 16 82
s27.167 49 49.5 69s50.833 36 85.5 48s76.334 18 125.001 18c22 0 42 -1 60 -3s35.333 -4.33301 52 -7s33.667 -5 51 -7s36.666 -3 57.999 -3c10.667 0 22.667 0.333008 36 1s27.166 1.66699 41.499 3s28.666 3.33301 42.999 6s27.833 5.66699 40.5 9
c0 -22 -1.16699 -41.333 -3.5 -58s-6.83301 -30.667 -13.5 -42s-16 -19.833 -28 -25.5s-27.333 -8.5 -46 -8.5c-24.667 0 -51.667 4 -81 12l-92 26v-653h-108v677c-10 1.33301 -20 2.5 -30 3.5s-20 1.5 -30 1.5zM650.002 499.999v-339.999c0 -6.66699 0.333008 -15 1 -25
s2.5 -19.833 5.5 -29.5s7.5 -18 13.5 -25s14.333 -10.5 25 -10.5c32.667 0 56.667 36.333 72 109h37c-7.33301 -42 -16.666 -75.167 -27.999 -99.5s-23.333 -42.833 -36 -55.5s-25.667 -20.834 -39 -24.501s-25.333 -5.5 -36 -5.5c-23.333 0 -42.333 4.5 -57 13.5
s-26.334 20.5 -35.001 34.5s-14.667 29.667 -18 47s-5 34 -5 50v361h100z" />
    <glyph glyph-name="a_x" unicode="ax" horiz-adv-x="857" 
d="M415 500l0.000976562 -339.995c0 -32.667 4.66699 -55.834 14 -69.501s25 -20.5 47 -20.5c24 0 49 7.5 75 22.5s48.667 39.5 68 73.5c-2.66699 5.33301 -4.33398 9.66602 -5.00098 12.999l-127 321h114l96 -244l31 43c10.667 15.333 20.334 31.166 29.001 47.499
s15.834 32.666 21.501 48.999s8.5 31.833 8.5 46.5v9c0 2.66699 -0.333008 5.33398 -1 8.00098c-6 -2.66699 -13 -4 -21 -4c-14.667 0 -27.5 4.83301 -38.5 14.5s-16.5 22.5 -16.5 38.5c0 14.667 5 27 15 37s22.667 15 38 15c19.333 0 35.666 -8.5 48.999 -25.5
s20 -41.5 20 -73.5c0 -38 -10.167 -76 -30.5 -114s-49.5 -82.333 -87.5 -133l14 -35l14.5 -36c5 -12.667 10.5 -24.5 16.5 -35.5s12.667 -20 20 -27s16 -10.5 26 -10.5c16.667 0 31.5 10.167 44.5 30.5s22.833 46.5 29.5 78.5h35c-7.33301 -42 -16.5 -75.167 -27.5 -99.5
s-22.5 -42.833 -34.5 -55.5s-24.333 -20.834 -37 -24.501s-24.334 -5.5 -35.001 -5.5c-15.333 0 -29.5 2.5 -42.5 7.5s-25.167 12.667 -36.5 23s-22.166 23.666 -32.499 39.999s-20.833 35.833 -31.5 58.5c-15.333 -26.667 -31.5 -48.334 -48.5 -65.001
s-34.333 -29.834 -52 -39.501s-34.667 -16.167 -51 -19.5s-31.166 -5 -44.499 -5c-35.333 0 -61 8.83301 -77 26.5s-26.333 40.167 -31 67.5c-10 -26 -26.333 -48.167 -49 -66.5s-50 -27.5 -82 -27.5c-20 0 -40.167 4.16699 -60.5 12.5s-38.5 21.5 -54.5 39.5
s-29.167 41.333 -39.5 70s-15.5 63.334 -15.5 104.001c0 31.333 3.5 63.833 10.5 97.5s18 64.334 33 92.001s34.5 50.5 58.5 68.5s52.667 27 86 27c17.333 0 35.166 -3.66699 53.499 -11s32.166 -21.333 41.499 -42v48h100zM223.001 70.0049c12.667 0 24.666 3 35.999 9
s21.166 14 29.499 24s14.833 21.5 19.5 34.5s7 26.833 7 41.5v228c-4.66699 11.333 -11.667 21.333 -21 30s-22.666 13 -39.999 13c-21.333 0 -39.333 -7.16699 -54 -21.5s-26.667 -32.5 -36 -54.5s-16.166 -46.5 -20.499 -73.5s-6.5 -52.833 -6.5 -77.5
c0 -54 8.33301 -93 25 -117s37 -36 61 -36z" />
    <glyph glyph-name="a_z" unicode="a&#x7a;" horiz-adv-x="867" 
d="M415 500l0.00292969 -340.003c0 -8 0.333008 -17.167 1 -27.5s2.5 -20.166 5.5 -29.499s7.66699 -17.166 14 -23.499s15.5 -9.5 27.5 -9.5c5.33301 0 11.166 0.666992 17.499 2s11.5 2.66602 15.5 3.99902c0.666992 -3.33301 1.16699 -6.33301 1.5 -9
s0.5 -5.66699 0.5 -9c0 -20 -7.66699 -35.667 -23 -47s-32.666 -17 -51.999 -17c-20.667 0 -39.334 7.16699 -56.001 21.5s-28 38.5 -34 72.5c-10 -26 -26.333 -48.167 -49 -66.5s-50 -27.5 -82 -27.5c-20 0 -40.167 4.16699 -60.5 12.5s-38.5 21.5 -54.5 39.5
s-29.167 41.333 -39.5 70s-15.5 63.334 -15.5 104.001c0 31.333 3.5 63.833 10.5 97.5s18 64.334 33 92.001s34.5 50.5 58.5 68.5s52.667 27 86 27c17.333 0 35.166 -3.66699 53.499 -11s32.166 -21.333 41.499 -42v48h100zM821.003 84.9971
c-5.33301 1.33301 -9.66699 4.66895 -13 10.002s-5 10.666 -5 15.999c0 10.667 4.16699 18.834 12.5 24.501s17.833 8.5 28.5 8.5c14.667 0 28 -5 40 -15s18 -24.667 18 -44c0 -10 -2.66699 -20 -8 -30s-13 -19 -23 -27s-22 -14.667 -36 -20s-29.667 -8 -47 -8h-262l216 446
h-86c-14.667 0 -27.834 -0.833008 -39.501 -2.5s-17.5 -5.5 -17.5 -11.5c0 -6.66699 2.83301 -12 8.5 -16s8.5 -9.33301 8.5 -16c0 -7.33301 -4.16699 -14.333 -12.5 -21s-19.166 -10 -32.499 -10c-18.667 0 -32.834 7.16699 -42.501 21.5s-14.5 31.166 -14.5 50.499
c0 17.333 7.5 31.5 22.5 42.5s41.833 16.5 80.5 16.5h248l-214 -430c4 0 11.833 -0.333008 23.5 -1s24.167 -1.33398 37.5 -2.00098l39 -2c12.667 -0.666992 22.334 -1 29.001 -1c12 0 21.5 2 28.5 6s11.167 9 12.5 15zM223.002 70c12.667 0 24.666 3 35.999 9
s21.166 14 29.499 24s14.833 21.5 19.5 34.5s7 26.833 7 41.5v228c-4.66699 11.333 -11.667 21.333 -21 30s-22.666 13 -39.999 13c-21.333 0 -39.333 -7.16699 -54 -21.5s-26.667 -32.5 -36 -54.5s-16.166 -46.5 -20.499 -73.5s-6.5 -52.833 -6.5 -77.5
c0 -54 8.33301 -93 25 -117s37 -36 61 -36z" />
    <glyph glyph-name="b_s" unicode="bs" horiz-adv-x="759" 
d="M849 179c-19.333 -27.333 -39.665 -49.999 -60.998 -67.999s-41.666 -33.667 -60.999 -47c-8 -14.667 -17.667 -26.5 -29 -35.5s-23.333 -16 -36 -21s-25.167 -8.5 -37.5 -10.5s-23.833 -3 -34.5 -3c-29.333 0 -53.5 4.83301 -72.5 14.5s-34 21.667 -45 36
s-18.833 29.833 -23.5 46.5s-7 32.334 -7 47.001s1.83301 27 5.5 37s8.5 18 14.5 24s12.5 10.333 19.5 13s13.833 4 20.5 4c11.333 0 21.833 -4 31.5 -12s14.5 -20 14.5 -36c0 -13.333 -3.33301 -23.166 -10 -29.499s-14.334 -9.5 -23.001 -9.5s-16.667 4.66699 -24 14
c5.33301 -23.333 13 -41.5 23 -54.5s28.667 -19.5 56 -19.5c24 0 41.667 6 53 18s17 33.333 17 64c0 14 -1.16699 28.5 -3.5 43.5s-6.16602 33.667 -11.499 56l-20.5 83l-30.5 125.5c-16.667 -40 -40 -73.333 -70 -100s-61.667 -45 -95 -55v-18
c0 -38 -4.5 -74.667 -13.5 -110s-22.667 -66.5 -41 -93.5s-41.166 -48.5 -68.499 -64.5s-59.333 -24 -96 -24c-20.667 0 -39.834 3.16699 -57.501 9.5s-32.834 16.666 -45.501 30.999s-22.5 33.333 -29.5 57s-10.5 52.834 -10.5 87.501v507l100 14v-237
c11.333 11.333 24.666 20.666 39.999 27.999s33.666 11 54.999 11c15.333 0 31.5 -2.33301 48.5 -7s33 -12.834 48 -24.501s28.333 -27.5 40 -47.5s20.167 -45.333 25.5 -76c32.667 4 62.334 21.167 89.001 51.5s49.667 67.833 69 112.5l101 20l36.5 -143.5
c10.333 -39.667 19 -74.167 26 -103.5s12.167 -54.333 15.5 -75s5 -40 5 -58v-9.5c0 -3 -0.333008 -6.16699 -1 -9.5c11.333 7.33301 22.166 15.166 32.499 23.499l29.5 23.5h42zM320.001 263.001c0 6 -0.169922 12 -0.50293 18s-0.833008 11.667 -1.5 17
c-20.667 5.33301 -31 21 -31 47c0 16 4 27.667 12 35c-8.66699 21.333 -20 38.333 -34 51s-30.667 19 -50 19c-13.333 0 -25.666 -3.16699 -36.999 -9.5s-21.666 -14.5 -30.999 -24.5v-263c0 -60 19.667 -90 59 -90c18.667 0 35.167 5.5 49.5 16.5s26.333 25.833 36 44.5
s16.834 40 21.501 64s7 49 7 75z" />
    <glyph glyph-name="b_s_x" unicode="bsx" horiz-adv-x="1111" 
d="M855 500l96.0029 -244.001l31 43c10.667 15.333 20.334 31.166 29.001 47.499s15.834 32.666 21.501 48.999s8.5 31.833 8.5 46.5v9c0 2.66699 -0.333008 5.33398 -1 8.00098c-6 -2.66699 -13 -4 -21 -4c-14.667 0 -27.5 4.83301 -38.5 14.5s-16.5 22.5 -16.5 38.5
c0 14.667 5 27 15 37s22.667 15 38 15c19.333 0 35.666 -8.5 48.999 -25.5s20 -41.5 20 -73.5c0 -38 -10.167 -76 -30.5 -114s-49.5 -82.333 -87.5 -133l14 -35l14.5 -36c5 -12.667 10.5 -24.5 16.5 -35.5s12.667 -20 20 -27s16 -10.5 26 -10.5
c16.667 0 31.5 10.167 44.5 30.5s22.833 46.5 29.5 78.5h35c-7.33301 -42 -16.5 -75.167 -27.5 -99.5s-22.5 -42.833 -34.5 -55.5s-24.333 -20.834 -37 -24.501s-24.334 -5.5 -35.001 -5.5c-33.333 0 -61.5 12 -84.5 36s-45.833 63 -68.5 117
c-12 -12.667 -26 -24.667 -42 -36s-32 -21.666 -48 -30.999s-31.333 -17.666 -46 -24.999s-27 -13 -37 -17c-17.333 -18 -37 -29.833 -59 -35.5s-41.667 -8.5 -59 -8.5c-29.333 0 -53.5 4.83301 -72.5 14.5s-34 21.667 -45 36s-18.833 29.833 -23.5 46.5
s-7 32.334 -7 47.001s1.83301 27 5.5 37s8.5 18 14.5 24s12.5 10.333 19.5 13s13.833 4 20.5 4c11.333 0 21.833 -4 31.5 -12s14.5 -20 14.5 -36c0 -13.333 -3.33301 -23.166 -10 -29.499s-14.334 -9.5 -23.001 -9.5s-16.667 4.66699 -24 14
c5.33301 -23.333 13 -41.5 23 -54.5s28.667 -19.5 56 -19.5c24 0 41.667 6 53 18s17 33.333 17 64c0 14 -1.16699 28.5 -3.5 43.5s-6.16602 33.667 -11.499 56l-20.5 83l-30.5 125.5c-16.667 -40 -40 -73.333 -70 -100s-61.667 -45 -95 -55v-18
c0 -38 -4.5 -74.667 -13.5 -110s-22.667 -66.5 -41 -93.5s-41.166 -48.5 -68.499 -64.5s-59.333 -24 -96 -24c-20.667 0 -39.834 3.16699 -57.501 9.5s-32.834 16.666 -45.501 30.999s-22.5 33.333 -29.5 57s-10.5 52.834 -10.5 87.501v507l100 14v-237
c11.333 11.333 24.666 20.666 39.999 27.999s33.666 11 54.999 11c15.333 0 31.5 -2.33301 48.5 -7s33 -12.834 48 -24.501s28.333 -27.5 40 -47.5s20.167 -45.333 25.5 -76c32.667 4 62.334 21.167 89.001 51.5s49.667 67.833 69 112.5l101 20l36.5 -143.5
c10.333 -39.667 19 -74.167 26 -103.5s12.167 -54.333 15.5 -75s5 -40 5 -58c0 -9.33301 -0.5 -17.666 -1.5 -24.999s-2.16699 -14.666 -3.5 -21.999c12 5.33301 24.167 11.5 36.5 18.5s24 14.167 35 21.5s21.167 14.666 30.5 21.999s16.666 14 21.999 20l-124 314h114z
M320.003 262.999c0 6 -0.169922 12 -0.50293 18s-0.833008 11.667 -1.5 17c-20.667 5.33301 -31 21 -31 47c0 16 4 27.667 12 35c-8.66699 21.333 -20 38.333 -34 51s-30.667 19 -50 19c-13.333 0 -25.666 -3.16699 -36.999 -9.5s-21.666 -14.5 -30.999 -24.5v-263
c0 -60 19.667 -90 59 -90c18.667 0 35.167 5.5 49.5 16.5s26.333 25.833 36 44.5s16.834 40 21.501 64s7 49 7 75z" />
    <glyph glyph-name="b_s_z" unicode="bs&#x7a;" horiz-adv-x="1114" 
d="M47 686l100.002 13.999v-237c11.333 11.333 24.666 20.666 39.999 27.999s33.666 11 54.999 11c15.333 0 31.5 -2.33301 48.5 -7s33 -12.834 48 -24.501s28.333 -27.5 40 -47.5s20.167 -45.333 25.5 -76c32.667 4 62.334 21.167 89.001 51.5s49.667 67.833 69 112.5
l101 20l36.5 -143.5c10.333 -39.667 19 -74.167 26 -103.5s12.167 -54.333 15.5 -75s5 -40 5 -58c0 -34 -5.33301 -61.167 -16 -81.5s-24 -36.166 -40 -47.499s-33 -18.833 -51 -22.5s-34.333 -5.5 -49 -5.5c-29.333 0 -53.5 4.83301 -72.5 14.5s-34 21.667 -45 36
s-18.833 29.833 -23.5 46.5s-7 32.334 -7 47.001s1.83301 27 5.5 37s8.5 18 14.5 24s12.5 10.333 19.5 13s13.833 4 20.5 4c11.333 0 21.833 -4 31.5 -12s14.5 -20 14.5 -36c0 -13.333 -3.33301 -23.166 -10 -29.499s-14.334 -9.5 -23.001 -9.5s-16.667 4.66699 -24 14
c5.33301 -23.333 13 -41.5 23 -54.5s28.667 -19.5 56 -19.5c24 0 41.667 6 53 18s17 33.333 17 64c0 14 -1.16699 28.5 -3.5 43.5s-6.16602 33.667 -11.499 56l-20.5 83l-30.5 125.5c-16.667 -40 -40 -73.333 -70 -100s-61.667 -45 -95 -55v-18
c0 -38 -4.5 -74.667 -13.5 -110s-22.667 -66.5 -41 -93.5s-41.166 -48.5 -68.499 -64.5s-59.333 -24 -96 -24c-20.667 0 -39.834 3.16699 -57.501 9.5s-32.834 16.666 -45.501 30.999s-22.667 33.333 -30 57s-11 52.834 -11 87.501zM1068 84.999
c-5.33301 1.33301 -9.66699 4.66895 -13 10.002s-5 10.666 -5 15.999c0 10.667 4.16699 18.834 12.5 24.501s17.833 8.5 28.5 8.5c14.667 0 28 -5 40 -15s18 -24.667 18 -44c0 -10 -2.66699 -20 -8 -30s-13 -19 -23 -27s-22 -14.667 -36 -20s-29.667 -8 -47 -8h-262l216 446
h-86c-14.667 0 -27.834 -0.833008 -39.501 -2.5s-17.5 -5.5 -17.5 -11.5c0 -6.66699 2.83301 -12 8.5 -16s8.5 -9.33301 8.5 -16c0 -7.33301 -4.16699 -14.333 -12.5 -21s-19.166 -10 -32.499 -10c-18.667 0 -32.834 7.16699 -42.501 21.5s-14.5 31.166 -14.5 50.499
c0 17.333 7.5 31.5 22.5 42.5s41.833 16.5 80.5 16.5h248l-214 -430c4 0 11.833 -0.333008 23.5 -1s24.167 -1.33398 37.5 -2.00098l39 -2c12.667 -0.666992 22.334 -1 29.001 -1c12 0 21.5 2 28.5 6s11.167 9 12.5 15zM320.001 263.002c0 6 -0.169922 12 -0.50293 18
s-0.833008 11.667 -1.5 17c-20.667 5.33301 -31 21 -31 47c0 16 4 27.667 12 35c-8.66699 21.333 -20 38.333 -34 51s-30.667 19 -50 19c-13.333 0 -25.666 -3.16699 -36.999 -9.5s-21.666 -14.5 -30.999 -24.5v-263c0 -60 19.667 -90 59 -90c18.667 0 35.167 5.5 49.5 16.5
s26.333 25.833 36 44.5s16.834 40 21.501 64s7 49 7 75z" />
    <glyph glyph-name="c_x" unicode="cx" horiz-adv-x="751" 
d="M495 500l95.999 -243.998l31 43c10.667 15.333 20.334 31.166 29.001 47.499s15.834 32.666 21.501 48.999s8.5 31.833 8.5 46.5v9c0 2.66699 -0.333008 5.33398 -1 8.00098c-6 -2.66699 -13 -4 -21 -4c-14.667 0 -27.5 4.83301 -38.5 14.5s-16.5 22.5 -16.5 38.5
c0 14.667 5 27 15 37s22.667 15 38 15c19.333 0 35.666 -8.5 48.999 -25.5s20 -41.5 20 -73.5c0 -38 -10.167 -76 -30.5 -114s-49.5 -82.333 -87.5 -133l14 -35l14.5 -36c5 -12.667 10.5 -24.5 16.5 -35.5s12.667 -20 20 -27s16 -10.5 26 -10.5
c16.667 0 31.5 10.167 44.5 30.5s22.833 46.5 29.5 78.5h35c-7.33301 -42 -16.5 -75.167 -27.5 -99.5s-22.5 -42.833 -34.5 -55.5s-24.333 -20.834 -37 -24.501s-24.334 -5.5 -35.001 -5.5c-16.667 0 -31.667 2.83301 -45 8.5s-26 14.5 -38 26.5s-23.333 27.167 -34 45.5
s-21.667 40.5 -33 66.5c-36 -43.333 -78.833 -78.666 -128.5 -105.999s-102.167 -41 -157.5 -41c-27.333 0 -53.333 4 -78 12s-46.167 21.333 -64.5 40s-32.833 43.167 -43.5 73.5s-16 67.833 -16 112.5c0 18 1 37.167 3 57.5s5.66699 40.5 11 60.5s12.5 39.333 21.5 58
s20.5 35.167 34.5 49.5s30.667 25.833 50 34.5s42 13 68 13c40.667 0 71.834 -10.5 93.501 -31.5s32.5 -49.5 32.5 -85.5c0 -19.333 -3.16699 -34.5 -9.5 -45.5s-16.166 -16.5 -29.499 -16.5c-14.667 0 -27 7 -37 21c5.33301 4.66699 9.5 12 12.5 22s4.5 19.333 4.5 28
c0 17.333 -5 30.833 -15 40.5s-23 14.5 -39 14.5c-18.667 0 -34 -6.5 -46 -19.5s-21.667 -29.833 -29 -50.5s-12.5 -43.334 -15.5 -68.001s-4.5 -48.667 -4.5 -72c0 -37.333 3.16699 -67.333 9.5 -90s15.166 -40 26.499 -52s25 -20 41 -24s33.667 -6 53 -6
c48 0 92.167 9 132.5 27s74.5 46 102.5 84l-126 319h114z" />
    <glyph glyph-name="c_z" unicode="c&#x7a;" horiz-adv-x="731" 
d="M685 85c-5.33301 1.33301 -9.66699 4.66895 -13 10.002s-5 10.666 -5 15.999c0 10.667 4.16699 18.834 12.5 24.501s17.833 8.5 28.5 8.5c14.667 0 28 -5 40 -15s18 -24.667 18 -44c0 -10 -2.66699 -20 -8 -30s-13 -19 -23 -27s-22 -14.667 -36 -20s-29.667 -8 -47 -8
h-262l216 446h-75c-14.667 0 -27.834 -0.833008 -39.501 -2.5s-17.5 -5.5 -17.5 -11.5c0 -6.66699 2.83301 -12 8.5 -16s8.5 -9.33301 8.5 -16c0 -7.33301 -4.16699 -14.333 -12.5 -21s-19.166 -10 -32.499 -10c-18.667 0 -32.834 7.16699 -42.501 21.5
s-14.5 31.166 -14.5 50.499c0 17.333 7.5 31.5 22.5 42.5s41.833 16.5 80.5 16.5h237l-214 -430c4 0 11.833 -0.333008 23.5 -1s24.167 -1.33398 37.5 -2.00098l39 -2c12.667 -0.666992 22.334 -1 29.001 -1c12 0 21.5 2 28.5 6s11.167 9 12.5 15zM272.999 347.003
c5.33301 4.66699 9.49512 12 12.4951 22s4.5 19.333 4.5 28c0 17.333 -5 30.833 -15 40.5s-22.667 14.5 -38 14.5c-18.667 0 -34.167 -6.66699 -46.5 -20s-22.166 -30.166 -29.499 -50.499s-12.5 -42.666 -15.5 -66.999s-4.5 -47.833 -4.5 -70.5c0 -36 3 -65.333 9 -88
s14.333 -40.334 25 -53.001s23 -21.334 37 -26.001s28.667 -7 44 -7c43.333 0 79 15.667 107 47c0 -22.667 -3.83301 -41.834 -11.5 -57.501s-17.667 -28.334 -30 -38.001s-26.5 -16.667 -42.5 -21s-32.333 -6.5 -49 -6.5c-24 0 -47.667 3.83301 -71 11.5
s-44.166 20.834 -62.499 39.501s-33.166 43.167 -44.499 73.5s-17 68.5 -17 114.5c0 26 2.5 54.833 7.5 86.5s14.5 61.334 28.5 89.001s33.167 50.667 57.5 69s55.833 27.5 94.5 27.5c40.667 0 71.834 -10.5 93.501 -31.5s32.5 -49.5 32.5 -85.5
c0 -19.333 -3.16699 -34.5 -9.5 -45.5s-16.166 -16.5 -29.499 -16.5c-14.667 0 -27 7 -37 21z" />
    <glyph glyph-name="e_x" unicode="ex" horiz-adv-x="726" 
d="M495 500l96.002 -243.992l31 43c10.667 15.333 20.334 31.166 29.001 47.499s15.834 32.666 21.501 48.999s8.5 31.833 8.5 46.5v9c0 2.66699 -0.333008 5.33398 -1 8.00098c-6 -2.66699 -13 -4 -21 -4c-14.667 0 -27.5 4.83301 -38.5 14.5s-16.5 22.5 -16.5 38.5
c0 14.667 5 27 15 37s22.667 15 38 15c19.333 0 35.666 -8.5 48.999 -25.5s20 -41.5 20 -73.5c0 -38 -10.167 -76 -30.5 -114s-49.5 -82.333 -87.5 -133l14 -35l14.5 -36c5 -12.667 10.5 -24.5 16.5 -35.5s12.667 -20 20 -27s16 -10.5 26 -10.5
c16.667 0 31.5 10.167 44.5 30.5s22.833 46.5 29.5 78.5h35c-7.33301 -42 -16.5 -75.167 -27.5 -99.5s-22.5 -42.833 -34.5 -55.5s-24.333 -20.834 -37 -24.501s-24.334 -5.5 -35.001 -5.5c-16.667 0 -31.834 2.83301 -45.501 8.5s-26.5 14.5 -38.5 26.5
s-23.5 27.5 -34.5 46.5s-22.167 41.833 -33.5 68.5c-15.333 -22 -34 -42.333 -56 -61s-46 -34.5 -72 -47.5s-53 -23.167 -81 -30.5s-55.667 -11 -83 -11s-52.666 4 -75.999 12s-43.833 21 -61.5 39s-31.5 41.333 -41.5 70s-15 63.667 -15 105c0 29.333 3 60.666 9 93.999
s16.5 64.166 31.5 92.499s35 51.833 60 70.5s56.167 28 93.5 28c16 0 31.667 -2 47 -6s29.166 -10.833 41.499 -20.5s22.333 -22.334 30 -38.001s11.5 -35.167 11.5 -58.5c0 -52.667 -19.167 -94.167 -57.5 -124.5s-91.5 -49.5 -159.5 -57.5
c2 -26.667 6.5 -48.334 13.5 -65.001s16 -29.834 27 -39.501s23.833 -16.334 38.5 -20.001s30.667 -5.5 48 -5.5c19.333 0 39.666 2 60.999 6s42.5 10.333 63.5 19s41.167 20 60.5 34s37 30.667 53 50l-127 321h114zM246.002 456.008
c-17.333 0 -32.5 -6.3291 -45.5 -18.9961s-23.667 -29.334 -32 -50.001s-14.833 -43.834 -19.5 -69.501s-7 -51.834 -7 -78.501c45.333 7.33301 82.333 23.666 111 48.999s43 59 43 101c0 44.667 -16.667 67 -50 67z" />
    <glyph glyph-name="e_z" unicode="e&#x7a;" horiz-adv-x="754" 
d="M359 375c0 -46.667 -19.1699 -85.6611 -57.5029 -116.994s-91.5 -50.666 -159.5 -57.999c2.66699 -26.667 7.5 -48.334 14.5 -65.001s15.5 -29.834 25.5 -39.501s21.5 -16.334 34.5 -20.001s26.5 -5.5 40.5 -5.5c21.333 0 41.5 3.66699 60.5 11s34.833 20 47.5 38
c0.666992 -4.66699 1.16699 -9.16699 1.5 -13.5s0.5 -8.16602 0.5 -11.499c0 -15.333 -3.83301 -29 -11.5 -41s-18 -22.5 -31 -31.5s-28 -15.833 -45 -20.5s-34.833 -7 -53.5 -7c-22.667 0 -45.334 4.16699 -68.001 12.5s-43.167 21.666 -61.5 39.999
s-33.166 42.166 -44.499 71.499s-17 65 -17 107c0 28 3.16699 58.333 9.5 91s17 63 32 91s34.667 51.333 59 70s54.5 28 90.5 28c16.667 0 32.834 -1.83301 48.501 -5.5s29.834 -10.334 42.501 -20.001s22.834 -22.834 30.501 -39.501s11.5 -38.334 11.5 -65.001z
M707.997 85.0059c-5.33301 1.33301 -9.66699 4.66895 -13 10.002s-5 10.666 -5 15.999c0 10.667 4.16699 18.834 12.5 24.501s17.833 8.5 28.5 8.5c14.667 0 28 -5 40 -15s18 -24.667 18 -44c0 -10 -2.66699 -20 -8 -30s-13 -19 -23 -27s-22 -14.667 -36 -20
s-29.667 -8 -47 -8h-262l216 446h-86c-14.667 0 -27.834 -0.833008 -39.501 -2.5s-17.5 -5.5 -17.5 -11.5c0 -6.66699 2.83301 -12 8.5 -16s8.5 -9.33301 8.5 -16c0 -7.33301 -4.16699 -14.333 -12.5 -21s-19.166 -10 -32.499 -10c-18.667 0 -32.834 7.16699 -42.501 21.5
s-14.5 31.166 -14.5 50.499c0 17.333 7.5 31.5 22.5 42.5s41.833 16.5 80.5 16.5h248l-214 -430c4 0 11.833 -0.333008 23.5 -1s24.167 -1.33398 37.5 -2.00098l39 -2c12.667 -0.666992 22.334 -1 29.001 -1c12 0 21.5 2 28.5 6s11.167 9 12.5 15zM140.996 239.009
c47.333 7.33301 84.833 24.001 112.5 50.001s41.5 58 41.5 96c0 25.333 -4.33301 43.5 -13 54.5s-21 16.5 -37 16.5c-17.333 0 -32.5 -6.66699 -45.5 -20s-23.833 -30.5 -32.5 -51.5s-15.167 -44.333 -19.5 -70s-6.5 -50.834 -6.5 -75.501z" />
    <glyph glyph-name="eacute_x" unicode="&#xe9;x" horiz-adv-x="751" 
d="M495 500l96.002 -243.992l31 43c10.667 15.333 20.334 31.166 29.001 47.499s15.834 32.666 21.501 48.999s8.5 31.833 8.5 46.5v9c0 2.66699 -0.333008 5.33398 -1 8.00098c-6 -2.66699 -13 -4 -21 -4c-14.667 0 -27.5 4.83301 -38.5 14.5s-16.5 22.5 -16.5 38.5
c0 14.667 5 27 15 37s22.667 15 38 15c19.333 0 35.666 -8.5 48.999 -25.5s20 -41.5 20 -73.5c0 -38 -10.167 -76 -30.5 -114s-49.5 -82.333 -87.5 -133l14 -35l14.5 -36c5 -12.667 10.5 -24.5 16.5 -35.5s12.667 -20 20 -27s16 -10.5 26 -10.5
c16.667 0 31.5 10.167 44.5 30.5s22.833 46.5 29.5 78.5h35c-7.33301 -42 -16.5 -75.167 -27.5 -99.5s-22.5 -42.833 -34.5 -55.5s-24.333 -20.834 -37 -24.501s-24.334 -5.5 -35.001 -5.5c-16.667 0 -31.834 2.83301 -45.501 8.5s-26.5 14.5 -38.5 26.5
s-23.5 27.5 -34.5 46.5s-22.167 41.833 -33.5 68.5c-15.333 -22 -34 -42.333 -56 -61s-46 -34.5 -72 -47.5s-53 -23.167 -81 -30.5s-55.667 -11 -83 -11s-52.666 4 -75.999 12s-43.833 21 -61.5 39s-31.5 41.333 -41.5 70s-15 63.667 -15 105c0 29.333 3 60.666 9 93.999
s16.5 64.166 31.5 92.499s35 51.833 60 70.5s56.167 28 93.5 28c16 0 31.667 -2 47 -6s29.166 -10.833 41.499 -20.5s22.333 -22.334 30 -38.001s11.5 -35.167 11.5 -58.5c0 -52.667 -19.167 -94.167 -57.5 -124.5s-91.5 -49.5 -159.5 -57.5
c2 -26.667 6.5 -48.334 13.5 -65.001s16 -29.834 27 -39.501s23.833 -16.334 38.5 -20.001s30.667 -5.5 48 -5.5c19.333 0 39.666 2 60.999 6s42.5 10.333 63.5 19s41.167 20 60.5 34s37 30.667 53 50l-127 321h114zM246.002 456.008
c-17.333 0 -32.5 -6.3291 -45.5 -18.9961s-23.667 -29.334 -32 -50.001s-14.833 -43.834 -19.5 -69.501s-7 -51.834 -7 -78.501c45.333 7.33301 82.333 23.666 111 48.999s43 59 43 101c0 44.667 -16.667 67 -50 67zM247.002 750.012h85l-81 -189h-55z" />
    <glyph glyph-name="f_f_t" unicode="fft" horiz-adv-x="721" 
d="M197 750c25.333 0 47.8359 -5.16895 67.5029 -15.502s35.167 -28.166 46.5 -53.499c9.33301 19.333 23.5 35.5 42.5 48.5s45.5 19.5 79.5 19.5c22.667 0 42.5 -1.16699 59.5 -3.5s32.833 -5.83301 47.5 -10.5s29.167 -10 43.5 -16s30.5 -12.333 48.5 -19v-200h77v-35h-77
v-305c0 -8 0.333008 -17.167 1 -27.5s2.5 -20.166 5.5 -29.499s7.66699 -17.166 14 -23.499s15.166 -9.5 26.499 -9.5c18 0 35.167 9 51.5 27s29.166 45.333 38.499 82h37c-11.333 -42 -23.5 -75.167 -36.5 -99.5s-26.5 -42.833 -40.5 -55.5s-27.833 -20.834 -41.5 -24.501
s-26.167 -5.5 -37.5 -5.5c-24 0 -43.667 4.5 -59 13.5s-27.333 20.5 -36 34.5s-14.667 29.5 -18 46.5s-5 33.833 -5 50.5v326h-141v-545c0 -35.333 -4.33301 -64 -13 -86s-19.834 -39.333 -33.501 -52s-28.834 -21.167 -45.501 -25.5s-33 -6.5 -49 -6.5
c-29.333 0 -53.166 5.83301 -71.499 17.5s-34.5 27.5 -48.5 47.5c-11.333 -24.667 -26.333 -41.667 -45 -51s-39.667 -14 -63 -14c-36.667 0 -63.5 8.5 -80.5 25.5s-25.5 38.167 -25.5 63.5c0 32 12.167 60 36.5 84s55.5 44.667 93.5 62v591c0 58 14 101.5 42 130.5
s64.333 43.5 109 43.5zM146.003 20.998c24 7.33301 48.333 13.667 73 19l72 15v410h-145v-444zM291.003 21.999c-28 -5.33301 -53.999 -10.832 -77.999 -16.499s-46.333 -11.5 -67 -17.5v-68c0 -28 -2 -52 -6 -72c24 -30.667 51.667 -46 83 -46
c8.66699 0 17.167 1.33301 25.5 4s15.666 8.16699 21.999 16.5s11.333 20.166 15 35.499s5.5 35.333 5.5 60v104zM391.004 500h141v181c-7.33301 1.33301 -15.166 2.5 -23.499 3.5s-20.833 1.5 -37.5 1.5c-18 0 -32.167 -3.33301 -42.5 -10s-18.333 -16 -24 -28
s-9.33398 -26.5 -11.001 -43.5s-2.5 -35.833 -2.5 -56.5v-48zM146.004 500h145.001v79c-0.666992 40.667 -6.83398 68.667 -18.501 84s-28.5 23 -50.5 23c-16.667 0 -30 -3.33301 -40 -10s-17.667 -16.167 -23 -28.5s-8.83301 -27 -10.5 -44s-2.5 -35.5 -2.5 -55.5v-48z
M1.00488 -198c19.333 0 31.667 10.332 37 30.999s8 49 8 85v30c-30.667 -15.333 -53.5 -31.5 -68.5 -48.5s-22.5 -33.5 -22.5 -49.5c0 -13.333 4.33301 -24.666 13 -33.999s19.667 -14 33 -14z" />
    <glyph glyph-name="f_i_x" unicode="fix" horiz-adv-x="828" 
d="M572 500l96 -243.999l31 43c10.667 15.333 20.334 31.166 29.001 47.499s15.834 32.666 21.501 48.999s8.5 31.833 8.5 46.5v9c0 2.66699 -0.333008 5.33398 -1 8.00098c-6 -2.66699 -13 -4 -21 -4c-14.667 0 -27.5 4.83301 -38.5 14.5s-16.5 22.5 -16.5 38.5
c0 14.667 5 27 15 37s22.667 15 38 15c19.333 0 35.666 -8.5 48.999 -25.5s20 -41.5 20 -73.5c0 -38 -10.167 -76 -30.5 -114s-49.5 -82.333 -87.5 -133l14 -35l14.5 -36c5 -12.667 10.5 -24.5 16.5 -35.5s12.667 -20 20 -27s16 -10.5 26 -10.5
c16.667 0 31.5 10.167 44.5 30.5s22.833 46.5 29.5 78.5h35c-7.33301 -42 -16.5 -75.167 -27.5 -99.5s-22.5 -42.833 -34.5 -55.5s-24.333 -20.834 -37 -24.501s-24.334 -5.5 -35.001 -5.5c-31.333 0 -57.833 10.333 -79.5 31s-42.834 53.667 -63.501 99
c-34 -50 -68.333 -84.167 -103 -102.5s-67.667 -27.5 -99 -27.5c-25.333 0 -45.666 4.5 -60.999 13.5s-27.5 20.5 -36.5 34.5s-15 29.667 -18 47s-4.5 34 -4.5 50v361h100v-340c0 -11.333 0.5 -22.333 1.5 -33s3.5 -20.167 7.5 -28.5s9.83301 -15.166 17.5 -20.499
s18.5 -8 32.5 -8c21.333 0 44.833 7.5 70.5 22.5s50.5 38.833 74.5 71.5l-5 15l-127 321h114zM146 465.001l0.00195312 -544.999c0 -34 -3.16699 -61.833 -9.5 -83.5s-15 -39 -26 -52s-24.167 -22 -39.5 -27s-31.666 -7.5 -48.999 -7.5c-36.667 0 -63.5 8.5 -80.5 25.5
s-25.5 38.833 -25.5 65.5c0 18.667 3.83301 35.5 11.5 50.5s17.5 28.5 29.5 40.5s25.833 22.5 41.5 31.5s31.5 16.833 47.5 23.5v574c0 21.333 3.16699 43.166 9.5 65.499s16.666 42.5 30.999 60.5s33 32.833 56 44.5s51.5 17.5 85.5 17.5c26 0 48.333 -3.33301 67 -10
s34.334 -15.834 47.001 -27.501s22 -24.834 28 -39.501s9 -30 9 -46c0 -23.333 -5.33301 -39.5 -16 -48.5s-22.334 -13.5 -35.001 -13.5c-13.333 0 -25.333 4.16699 -36 12.5s-16 19.5 -16 33.5c0 9.33301 2.5 19 7.5 29s11.833 15.667 20.5 17
c-4 18.667 -12.833 31.334 -26.5 38.001s-27.834 10 -42.501 10c-18 0 -32.833 -4.16699 -44.5 -12.5s-20.834 -19.666 -27.501 -33.999s-11.167 -31 -13.5 -50s-3.5 -38.833 -3.5 -59.5v-48h81v-35h-81zM46.002 -50.998c-30 -14.667 -52.666 -30.668 -67.999 -48.001
s-23 -34.333 -23 -51c0 -13.333 4.33301 -24.666 13 -33.999s19.667 -14 33 -14c19.333 0 31.666 10.333 36.999 31s8 49 8 85v31z" />
    <glyph glyph-name="f_i_z" unicode="fi&#x7a;" horiz-adv-x="820" 
d="M146 465l0.00195312 -544.999c0 -34 -3.16699 -61.833 -9.5 -83.5s-15 -39 -26 -52s-24.167 -22 -39.5 -27s-31.666 -7.5 -48.999 -7.5c-36.667 0 -63.5 8.5 -80.5 25.5s-25.5 38.833 -25.5 65.5c0 18.667 3.83301 35.5 11.5 50.5s17.5 28.5 29.5 40.5
s25.833 22.5 41.5 31.5s31.5 16.833 47.5 23.5v574c0 21.333 3.16699 43.166 9.5 65.499s16.666 42.5 30.999 60.5s33 32.833 56 44.5s51.5 17.5 85.5 17.5c26 0 48.333 -3.33301 67 -10s34.334 -15.834 47.001 -27.501s22 -24.834 28 -39.501s9 -30 9 -46
c0 -23.333 -5.33301 -39.5 -16 -48.5s-22.334 -13.5 -35.001 -13.5c-13.333 0 -25.333 4.16699 -36 12.5s-16 19.5 -16 33.5c0 9.33301 2.5 19 7.5 29s11.833 15.667 20.5 17c-4 18.667 -12.833 31.334 -26.5 38.001s-27.834 10 -42.501 10
c-18 0 -32.833 -4.16699 -44.5 -12.5s-20.834 -19.666 -27.501 -33.999s-11.167 -31 -13.5 -50s-3.5 -38.833 -3.5 -59.5v-48h81v-35h-81zM774.002 85.001c-5.33301 1.33301 -9.66699 4.66895 -13 10.002s-5 10.666 -5 15.999c0 10.667 4.16699 18.834 12.5 24.501
s17.833 8.5 28.5 8.5c14.667 0 28 -5 40 -15s18 -24.667 18 -44c0 -10 -2.66699 -20 -8 -30s-13 -19 -23 -27s-22 -14.667 -36 -20s-29.667 -8 -47 -8h-262l216 446h-86c-14.667 0 -27.834 -0.833008 -39.501 -2.5s-17.5 -5.5 -17.5 -11.5c0 -6.66699 2.83301 -12 8.5 -16
s8.5 -9.33301 8.5 -16c0 -7.33301 -4.16699 -14.333 -12.5 -21s-19.166 -10 -32.499 -10c-18.667 0 -32.834 7.16699 -42.501 21.5s-14.5 31.166 -14.5 50.499c0 17.333 7.5 31.5 22.5 42.5s41.833 16.5 80.5 16.5h248l-214 -430c4 0 11.833 -0.333008 23.5 -1
s24.167 -1.33398 37.5 -2.00098l39 -2c12.667 -0.666992 22.334 -1 29.001 -1c12 0 21.5 2 28.5 6s11.167 9 12.5 15zM386.001 500.004l0.00195312 -340.004c0 -8 0.166992 -17.167 0.5 -27.5s2 -20.166 5 -29.499s7.33301 -17.166 13 -23.499s14.167 -9.5 25.5 -9.5
c5.33301 0 11.833 0.666992 19.5 2s13.5 2.66602 17.5 3.99902c0.666992 -3.33301 1.16699 -6.33301 1.5 -9s0.5 -5.66699 0.5 -9c0 -11.333 -2.5 -21.166 -7.5 -29.499s-11.5 -15 -19.5 -20s-17 -8.66699 -27 -11s-20 -3.5 -30 -3.5c-20 0 -36.333 4.16699 -49 12.5
s-22.834 19.333 -30.501 33s-12.834 28.834 -15.501 45.501s-4 33.334 -4 50.001v365h100zM46.0029 -51c-30 -14.667 -52.666 -30.668 -67.999 -48.001s-23 -34.333 -23 -51c0 -13.333 4.33301 -24.666 13 -33.999s19.667 -14 33 -14c19.333 0 31.666 10.333 36.999 31
s8 49 8 85v31z" />
    <glyph glyph-name="f_l_x" unicode="flx" horiz-adv-x="829" 
d="M573 500l95.9961 -244l31 43c10.667 15.333 20.334 31.166 29.001 47.499s15.834 32.666 21.501 48.999s8.5 31.833 8.5 46.5v9c0 2.66699 -0.333008 5.33398 -1 8.00098c-6 -2.66699 -13 -4 -21 -4c-14.667 0 -27.5 4.83301 -38.5 14.5s-16.5 22.5 -16.5 38.5
c0 14.667 5 27 15 37s22.667 15 38 15c19.333 0 35.666 -8.5 48.999 -25.5s20 -41.5 20 -73.5c0 -38 -10.167 -76 -30.5 -114s-49.5 -82.333 -87.5 -133l14 -35l14.5 -36c5 -12.667 10.5 -24.5 16.5 -35.5s12.667 -20 20 -27s16 -10.5 26 -10.5
c16.667 0 31.5 10.167 44.5 30.5s22.833 46.5 29.5 78.5h35c-7.33301 -42 -16.5 -75.167 -27.5 -99.5s-22.5 -42.833 -34.5 -55.5s-24.333 -20.834 -37 -24.501s-24.334 -5.5 -35.001 -5.5c-31.333 0 -57.833 10.333 -79.5 31s-42.834 53.667 -63.501 99
c-34 -50 -68.333 -84.167 -103 -102.5s-67.667 -27.5 -99 -27.5c-25.333 0 -45.666 4.5 -60.999 13.5s-27.5 20.5 -36.5 34.5s-15 29.667 -18 47s-4.5 34 -4.5 50v542c-7.33301 1.33301 -15.166 2.5 -23.499 3.5s-20.833 1.5 -37.5 1.5c-18 0 -32.167 -3.33301 -42.5 -10
s-18.333 -16 -24 -28s-9.33398 -26.5 -11.001 -43.5s-2.5 -35.833 -2.5 -56.5v-48h81v-35h-81v-545c0 -36 -2 -65 -6 -87s-10.167 -39.167 -18.5 -51.5s-18.666 -20.666 -30.999 -24.999s-26.833 -6.5 -43.5 -6.5c-18 0 -34.833 2 -50.5 6s-29.5 10.333 -41.5 19
s-21.5 19.334 -28.5 32.001s-10.5 28 -10.5 46c0 14.667 3.83301 28.5 11.5 41.5s17.667 25.167 30 36.5s26.333 21.5 42 30.5s31.167 17.167 46.5 24.5v575c0 20 1.33301 41 4 63s8.83398 42.167 18.501 60.5s23.834 33.666 42.501 45.999s44.334 18.5 77.001 18.5
c22.667 0 42.5 -1.16699 59.5 -3.5s32.833 -5.83301 47.5 -10.5s29.167 -10 43.5 -16s30.5 -12.333 48.5 -19v-540c0 -11.333 0.5 -22.333 1.5 -33s3.5 -20.167 7.5 -28.5s9.83301 -15.166 17.5 -20.499s18.5 -8 32.5 -8c21.333 0 44.833 7.5 70.5 22.5
s50.5 38.833 74.5 71.5l-132 336h114zM1.99609 -198c18.667 0 30.667 10.666 36 31.999s8 49.333 8 84v31c-30 -14.667 -52.667 -30.667 -68 -48s-23 -34.333 -23 -51c0 -13.333 4.16699 -24.666 12.5 -33.999s19.833 -14 34.5 -14z" />
    <glyph glyph-name="f_l_z" unicode="fl&#x7a;" horiz-adv-x="817" 
d="M146 500l80.998 -0.00488281v-35h-81v-545c0 -36 -2 -65 -6 -87s-10.167 -39.167 -18.5 -51.5s-18.666 -20.666 -30.999 -24.999s-26.833 -6.5 -43.5 -6.5c-18 0 -34.833 2 -50.5 6s-29.5 10.333 -41.5 19s-21.5 19.334 -28.5 32.001s-10.5 28 -10.5 46
c0 14.667 3.83301 28.5 11.5 41.5s17.667 25.167 30 36.5s26.333 21.5 42 30.5s31.167 17.167 46.5 24.5v575c0 20 1.33301 41 4 63s8.83398 42.167 18.501 60.5s23.834 33.666 42.501 45.999s44.334 18.5 77.001 18.5c22.667 0 42.5 -1.16699 59.5 -3.5
s32.833 -5.83301 47.5 -10.5s29.167 -10 43.5 -16s30.5 -12.333 48.5 -19v-540c0 -8 0.166992 -17.167 0.5 -27.5s2 -20.166 5 -29.499s7.33301 -17.166 13 -23.499s14.167 -9.5 25.5 -9.5c5.33301 0 11.833 0.666992 19.5 2s13.5 2.66602 17.5 3.99902
c0.666992 -3.33301 1.16699 -6.33301 1.5 -9s0.5 -5.66699 0.5 -9c0 -11.333 -2.5 -21.166 -7.5 -29.499s-11.5 -15 -19.5 -20s-17 -8.66699 -27 -11s-20 -3.5 -30 -3.5c-20 0 -36.333 4.16699 -49 12.5s-22.834 19.333 -30.501 33s-12.834 28.834 -15.501 45.501
s-4 33.334 -4 50.001v546c-7.33301 1.33301 -15.166 2.5 -23.499 3.5s-20.833 1.5 -37.5 1.5c-18 0 -32.167 -3.33301 -42.5 -10s-18.333 -16 -24 -28s-9.33398 -26.5 -11.001 -43.5s-2.5 -35.833 -2.5 -56.5v-48zM770.998 84.9951
c-5.33301 1.33301 -9.66699 4.66895 -13 10.002s-5 10.666 -5 15.999c0 10.667 4.16699 18.834 12.5 24.501s17.833 8.5 28.5 8.5c14.667 0 28 -5 40 -15s18 -24.667 18 -44c0 -10 -2.66699 -20 -8 -30s-13 -19 -23 -27s-22 -14.667 -36 -20s-29.667 -8 -47 -8h-262l216 446
h-86c-14.667 0 -27.834 -0.833008 -39.501 -2.5s-17.5 -5.5 -17.5 -11.5c0 -6.66699 2.83301 -12 8.5 -16s8.5 -9.33301 8.5 -16c0 -7.33301 -4.16699 -14.333 -12.5 -21s-19.166 -10 -32.499 -10c-18.667 0 -32.834 7.16699 -42.501 21.5s-14.5 31.166 -14.5 50.499
c0 17.333 7.5 31.5 22.5 42.5s41.833 16.5 80.5 16.5h248l-214 -430c4 0 11.833 -0.333008 23.5 -1s24.167 -1.33398 37.5 -2.00098l39 -2c12.667 -0.666992 22.334 -1 29.001 -1c12 0 21.5 2 28.5 6s11.167 9 12.5 15zM1.99707 -198.002c18.667 0 30.667 10.666 36 31.999
s8 49.333 8 84v31c-30 -14.667 -52.667 -30.667 -68 -48s-23 -34.333 -23 -51c0 -13.333 4.16699 -24.666 12.5 -33.999s19.833 -14 34.5 -14z" />
    <glyph glyph-name="f_t" unicode="ft" horiz-adv-x="476" 
d="M188 749c22.667 0 42.498 -1.16895 59.498 -3.50195s32.833 -5.83301 47.5 -10.5s29.167 -10 43.5 -16s30.5 -12.333 48.5 -19v-200h77v-35h-77v-305c0 -8 0.333008 -17.167 1 -27.5s2.5 -20.166 5.5 -29.499s7.66699 -17.166 14 -23.499s15.166 -9.5 26.499 -9.5
c18 0 35.167 9 51.5 27s29.166 45.333 38.499 82h37c-11.333 -42 -23.5 -75.167 -36.5 -99.5s-26.5 -42.833 -40.5 -55.5s-27.833 -20.834 -41.5 -24.501s-26.167 -5.5 -37.5 -5.5c-24 0 -43.667 4.5 -59 13.5s-27.333 20.5 -36 34.5s-14.667 29.5 -18 46.5
s-5 33.833 -5 50.5v326h-141v-545c0 -36 -2 -65 -6 -87s-10.167 -39.167 -18.5 -51.5s-18.666 -20.666 -30.999 -24.999s-26.833 -6.5 -43.5 -6.5c-18 0 -34.833 2 -50.5 6s-29.5 10.333 -41.5 19s-21.5 19.334 -28.5 32.001s-10.5 28 -10.5 46
c0 14.667 3.83301 28.5 11.5 41.5s17.667 25.167 30 36.5s26.333 21.5 42 30.5s31.167 17.167 46.5 24.5v575c0 20 1.33301 41 4 63s8.83398 42.167 18.501 60.5s23.834 33.666 42.501 45.999s44.334 18.5 77.001 18.5zM145.998 499.998h141v181
c-7.33301 1.33301 -15.166 2.5 -23.499 3.5s-20.833 1.5 -37.5 1.5c-18 0 -32.167 -3.33301 -42.5 -10s-18.333 -16 -24 -28s-9.33398 -26.5 -11.001 -43.5s-2.5 -35.833 -2.5 -56.5v-48zM1.99805 -198.002c18.667 0 30.667 10.666 36 31.999s8 49.333 8 84v31
c-30 -14.667 -52.667 -30.667 -68 -48s-23 -34.333 -23 -51c0 -13.333 4.16699 -24.666 12.5 -33.999s19.833 -14 34.5 -14z" />
    <glyph glyph-name="f_u" unicode="fu" horiz-adv-x="675" 
d="M605 500l0.00390625 -339.995c0 -6.66699 0.333008 -15 1 -25s2.5 -19.833 5.5 -29.5s7.5 -18 13.5 -25s14.333 -10.5 25 -10.5c32.667 0 56.667 36.333 72 109h37c-7.33301 -42 -16.666 -75.167 -27.999 -99.5s-23.333 -42.833 -36 -55.5s-25.667 -20.834 -39 -24.501
s-25.333 -5.5 -36 -5.5c-15.333 0 -28.5 2.66699 -39.5 8s-20.333 12.333 -28 21s-13.834 18.667 -18.501 30s-8.33398 23 -11.001 35c-12.667 -32.667 -29.334 -56.5 -50.001 -71.5s-42.334 -22.5 -65.001 -22.5c-19.333 0 -37.666 2.66699 -54.999 8
s-32.333 14.166 -45 26.499s-22.667 28.333 -30 48s-11 43.834 -11 72.501v316h-121v-545c0 -35.333 -3.5 -64 -10.5 -86s-16.167 -39.333 -27.5 -52s-24.5 -21.167 -39.5 -25.5s-30.833 -6.5 -47.5 -6.5c-36 0 -62.5 8.33301 -79.5 25s-25.5 40.667 -25.5 72
c0 16.667 3.83301 32 11.5 46s17.667 26.833 30 38.5s26.166 22 41.499 31s31 16.833 47 23.5v590c0 58 13.667 101.5 41 130.5s62.333 43.5 105 43.5c20 0 38.333 -3 55 -9s31.334 -15.333 44.001 -28s22.5 -28.334 29.5 -47.001s10.5 -40.667 10.5 -66h-39
c-4 26.667 -11.167 47.667 -21.5 63s-27.5 23 -51.5 23c-16 0 -28.667 -3.5 -38 -10.5s-16.666 -16.5 -21.999 -28.5s-8.83301 -26.5 -10.5 -43.5s-2.5 -35.5 -2.5 -55.5v-48h221v-340c0 -32.667 5.66699 -55.834 17 -69.501s25.666 -20.5 42.999 -20.5
c9.33301 0 18.666 2.5 27.999 7.5s17.666 12.167 24.999 21.5s13.333 20.666 18 33.999s7 28.666 7 45.999v321h100zM1.00391 -197.995c19.333 0 31.667 10.332 37 30.999s8 49 8 85v31c-30 -14.667 -52.667 -30.667 -68 -48s-23 -34.333 -23 -51
c0 -13.333 4.33301 -24.666 13 -33.999s19.667 -14 33 -14z" />
    <glyph glyph-name="f_x" unicode="fx" horiz-adv-x="631" 
d="M146 500l224.001 -0.00195312l96 -233c10 10.667 20.667 22.834 32 36.501s21.833 28.334 31.5 44.001s17.5 31.5 23.5 47.5s9 31.667 9 47v9c0 2.66699 -0.333008 5.33398 -1 8.00098c-6 -2.66699 -13 -4 -21 -4c-14.667 0 -27.5 4.83301 -38.5 14.5
s-16.5 22.5 -16.5 38.5c0 14.667 5 27 15 37s22.667 15 38 15c19.333 0 35.666 -8.5 48.999 -25.5s20 -41.5 20 -73.5c0 -38.667 -10.833 -78 -32.5 -118s-52.167 -78.333 -91.5 -115l20 -49l16.5 -39.5c5.66699 -13 11.667 -24.667 18 -35s13 -18.666 20 -24.999
s14.833 -9.5 23.5 -9.5c16 0 30.667 10.5 44 31.5s23 46.833 29 77.5h35c-7.33301 -42 -16.5 -75.167 -27.5 -99.5s-22.5 -42.833 -34.5 -55.5s-24.167 -20.834 -36.5 -24.501s-23.833 -5.5 -34.5 -5.5c-18.667 0 -35.334 3.66699 -50.001 11s-28.334 18.333 -41.001 33
s-25 33.334 -37 56.001s-24.667 49.667 -38 81c-11.333 -7.33301 -22.5 -15.666 -33.5 -24.999s-21 -19 -30 -29s-16.333 -20.5 -22 -31.5s-8.5 -21.833 -8.5 -32.5c0 -4.66699 0.333008 -8.33398 1 -11.001c3.33301 1.33301 8.33301 2 15 2c13.333 0 25.5 -4.5 36.5 -13.5
s16.5 -20.833 16.5 -35.5c0 -12 -4.5 -22.833 -13.5 -32.5s-22.5 -14.5 -40.5 -14.5c-17.333 0 -33.5 6 -48.5 18s-22.5 32 -22.5 60c0 18.667 3.83301 37.167 11.5 55.5s17.834 35.666 30.501 51.999s27 31.333 43 45s32 25.167 48 34.5l-103 248h-124v-545
c0 -34 -3.16699 -61.833 -9.5 -83.5s-15 -39 -26 -52s-24.167 -22 -39.5 -27s-31.666 -7.5 -48.999 -7.5c-36.667 0 -63.5 8.5 -80.5 25.5s-25.5 38.833 -25.5 65.5c0 18.667 3.83301 35.5 11.5 50.5s17.5 28.5 29.5 40.5s25.833 22.5 41.5 31.5s31.5 16.833 47.5 23.5v589
c0 58 13.667 101.5 41 130.5s62.666 43.5 105.999 43.5c19.333 0 37.5 -3 54.5 -9s31.667 -15.333 44 -28s22 -28.334 29 -47.001s10.5 -40.667 10.5 -66h-39c-4 26.667 -11.167 47.667 -21.5 63s-27.5 23 -51.5 23c-16 0 -28.667 -3.5 -38 -10.5
s-16.666 -16.5 -21.999 -28.5s-8.83301 -26.5 -10.5 -43.5s-2.5 -35.5 -2.5 -55.5v-48zM1.00098 -198.002c19.333 0 31.667 10.332 37 30.999s8 49 8 85v31c-30 -14.667 -52.667 -30.667 -68 -48s-23 -34.333 -23 -51c0 -13.333 4.33301 -24.666 13 -33.999
s19.667 -14 33 -14z" />
    <glyph glyph-name="g_p" unicode="gp" horiz-adv-x="907" 
d="M632 537l0.00390625 -76.999c12.667 13.333 27.5 24.166 44.5 32.499s36.833 12.5 59.5 12.5c23.333 0 45 -5 65 -15s37.5 -25.167 52.5 -45.5s26.833 -46.166 35.5 -77.499s13 -68.333 13 -111c0 -82.667 -15.667 -147 -47 -193s-74.333 -69 -129 -69
c-17.333 0 -33 1.83301 -47 5.5s-29.667 7.5 -47 11.5v-236l-101 -25v271c-41.333 -1.33301 -80 -7.33301 -116 -18v-82c0 -31.333 -3.33301 -57.833 -10 -79.5s-15.834 -39.334 -27.501 -53.001s-25 -23.5 -40 -29.5s-30.833 -9 -47.5 -9c-33.333 0 -59.333 9.66699 -78 29
s-28 42 -28 68c0 30 12.167 58.833 36.5 86.5s55.833 51.834 94.5 72.501v68c-12.667 -17.333 -28.5 -31.666 -47.5 -42.999s-41.167 -17 -66.5 -17c-20 0 -40 4 -60 12s-38 20.667 -54 38s-29.167 39.666 -39.5 66.999s-15.5 60.666 -15.5 99.999
c0 30.667 3.5 62.167 10.5 94.5s18.167 61.833 33.5 88.5s34.666 48.5 57.999 65.5s51.666 25.5 84.999 25.5c18 0 36.167 -3.66699 54.5 -11s32.166 -21.333 41.499 -42v48h100v-453c38 10.667 76.667 17.667 116 21v469h101zM701.004 440.001
c-14.667 0 -27.832 -4.16992 -39.499 -12.5029s-21.5 -20.166 -29.5 -35.499v-328c13.333 -1.33301 25.666 -2.66602 36.999 -3.99902s20.333 -2 27 -2c17.333 0 32.5 5.33301 45.5 16s24 25 33 43s15.833 39.333 20.5 64s7 51 7 79c0 34.667 -3.16699 63.667 -9.5 87
s-14.5 41.833 -24.5 55.5s-21 23.334 -33 29.001s-23.333 8.5 -34 8.5zM222.006 89.998c13.333 0 25.668 2.99902 37.001 8.99902s21.166 14 29.499 24s14.833 21.667 19.5 35s7 27 7 41v208c-4 10 -11 19.667 -21 29s-23.667 14 -41 14
c-20.667 0 -38.334 -6.83301 -53.001 -20.5s-26.667 -31 -36 -52s-16.166 -44.167 -20.499 -69.5s-6.5 -50 -6.5 -74c0 -51.333 8.33301 -88.166 25 -110.499s36.667 -33.5 60 -33.5zM271.008 -198.003c18 0 29.832 6.83105 35.499 20.498s8.5 32.167 8.5 55.5v81
c-28 -17.333 -50.333 -35.666 -67 -54.999s-25 -37.666 -25 -54.999c0 -11.333 3.83301 -22 11.5 -32s19.834 -15 36.501 -15z" />
    <glyph glyph-name="g_x" unicode="gx" horiz-adv-x="856" 
d="M600 500l95.999 -243.999l31 43c10.667 15.333 20.334 31.166 29.001 47.499s15.834 32.666 21.501 48.999s8.5 31.833 8.5 46.5v9c0 2.66699 -0.333008 5.33398 -1 8.00098c-6 -2.66699 -13 -4 -21 -4c-14.667 0 -27.5 4.83301 -38.5 14.5s-16.5 22.5 -16.5 38.5
c0 14.667 5 27 15 37s22.667 15 38 15c19.333 0 35.666 -8.5 48.999 -25.5s20 -41.5 20 -73.5c0 -38 -10.167 -76 -30.5 -114s-49.5 -82.333 -87.5 -133l14 -35l14.5 -36c5 -12.667 10.5 -24.5 16.5 -35.5s12.667 -20 20 -27s16 -10.5 26 -10.5
c16.667 0 31.5 10.167 44.5 30.5s22.833 46.5 29.5 78.5h35c-7.33301 -42 -16.5 -75.167 -27.5 -99.5s-22.5 -42.833 -34.5 -55.5s-24.333 -20.834 -37 -24.501s-24.334 -5.5 -35.001 -5.5c-16.667 0 -31.667 2.83301 -45 8.5s-26 14.334 -38 26.001s-23.333 26.667 -34 45
s-21.667 40.5 -33 66.5c-14.667 -24.667 -29.167 -45.167 -43.5 -61.5s-30 -30.166 -47 -41.499s-35.5 -21.166 -55.5 -29.499s-43 -16.5 -69 -24.5v-62c0 -31.333 -3.33301 -57.833 -10 -79.5s-15.834 -39.334 -27.501 -53.001s-25 -23.5 -40 -29.5s-30.833 -9 -47.5 -9
c-33.333 0 -59.333 9.5 -78 28.5s-28 42.5 -28 70.5c0 18 3.83301 34 11.5 48s17.667 26.667 30 38s26.333 21.166 42 29.499s31.5 15.833 47.5 22.5v86c-12.667 -17.333 -28.5 -31.5 -47.5 -42.5s-40.167 -16.5 -63.5 -16.5c-20 0 -40.167 3.83301 -60.5 11.5
s-38.666 20.167 -54.999 37.5s-29.666 40 -39.999 68s-15.5 62 -15.5 102c0 30 3.5 61 10.5 93s18.167 61.167 33.5 87.5s35 48.166 59 65.499s53 26 87 26c16 0 33 -3.5 51 -10.5s31.667 -20.5 41 -40.5v46h100v-481c26 8 47.5 15.667 64.5 23s32.333 16.5 46 27.5
s27 25.333 40 43s28.5 40.834 46.5 69.501l-125 318h114zM227.999 90.001c9.33301 0 18.832 2.33301 28.499 7s18.5 11.334 26.5 20.001s14.833 18.834 20.5 30.501s9.16699 24.167 10.5 37.5v225c-4.66699 10 -11.834 19.167 -21.501 27.5s-21.834 12.5 -36.501 12.5
c-21.333 0 -39.666 -6.83301 -54.999 -20.5s-27.666 -30.834 -36.999 -51.501s-16.166 -43.334 -20.499 -68.001s-6.5 -48 -6.5 -70c0 -54 7.83301 -92.5 23.5 -115.5s38.167 -34.5 67.5 -34.5zM269.998 -197.999c18 0 29.834 6.83203 35.501 20.499s8.5 32.167 8.5 55.5v70
c-28.667 -11.333 -51.167 -24.166 -67.5 -38.499s-24.5 -32.833 -24.5 -55.5c0 -16 4.16699 -28.667 12.5 -38s20.166 -14 35.499 -14z" />
    <glyph glyph-name="g_z" unicode="g&#x7a;" horiz-adv-x="851" 
d="M415 500v-578.999c0 -31.333 -3.33301 -57.833 -10 -79.5s-15.834 -39.334 -27.501 -53.001s-25 -23.5 -40 -29.5s-30.833 -9 -47.5 -9c-33.333 0 -59.333 9.5 -78 28.5s-28 42.167 -28 69.5c0 17.333 3.83301 33 11.5 47s17.667 26.833 30 38.5s26.333 22 42 31
s31.5 16.833 47.5 23.5v86c-12.667 -17.333 -28.5 -31.666 -47.5 -42.999s-40.5 -17 -64.5 -17c-20 0 -40.167 3.83301 -60.5 11.5s-38.666 20.167 -54.999 37.5s-29.666 40 -39.999 68s-15.5 62 -15.5 102c0 30 3.5 61 10.5 93s18.167 61.167 33.5 87.5
s35 48.166 59 65.499s53 26 87 26c8 0 16.5 -0.833008 25.5 -2.5s17.667 -4.5 26 -8.5s16.166 -9.5 23.499 -16.5s13.333 -15.5 18 -25.5v48h100zM805 85.001c-5.33301 1.33301 -9.66699 4.66895 -13 10.002s-5 10.666 -5 15.999c0 10.667 4.16699 18.834 12.5 24.501
s17.833 8.5 28.5 8.5c14.667 0 28 -5 40 -15s18 -24.667 18 -44c0 -10 -2.66699 -20 -8 -30s-13 -19 -23 -27s-22 -14.667 -36 -20s-29.667 -8 -47 -8h-262l216 446h-86c-14.667 0 -27.834 -0.833008 -39.501 -2.5s-17.5 -5.5 -17.5 -11.5c0 -6.66699 2.83301 -12 8.5 -16
s8.5 -9.33301 8.5 -16c0 -7.33301 -4.16699 -14.333 -12.5 -21s-19.166 -10 -32.499 -10c-18.667 0 -32.834 7.16699 -42.501 21.5s-14.5 31.166 -14.5 50.499c0 17.333 7.5 31.5 22.5 42.5s41.833 16.5 80.5 16.5h248l-214 -430c4 0 11.833 -0.333008 23.5 -1
s24.167 -1.33398 37.5 -2.00098l39 -2c12.667 -0.666992 22.334 -1 29.001 -1c12 0 21.5 2 28.5 6s11.167 9 12.5 15zM227.999 90.0039c10 0 20.167 2.83496 30.5 8.50195s19.666 13.334 27.999 23.001s15.166 21.167 20.499 34.5s8 27.666 8 42.999v208
c-4.66699 10.667 -11.834 20.5 -21.501 29.5s-22.167 13.5 -37.5 13.5c-21.333 0 -39.666 -6.83301 -54.999 -20.5s-27.666 -30.834 -36.999 -51.501s-16.166 -43.334 -20.499 -68.001s-6.5 -48 -6.5 -70c0 -54 7.83301 -92.5 23.5 -115.5s38.167 -34.5 67.5 -34.5z
M270.999 -197.994c18 0 29.834 6.83301 35.501 20.5s8.5 32.167 8.5 55.5v70c-33.333 -15.333 -57 -30.5 -71 -45.5s-21 -31.833 -21 -50.5c0 -15.333 4.16699 -27.5 12.5 -36.5s20.166 -13.5 35.499 -13.5z" />
    <glyph glyph-name="i_x" unicode="ix" horiz-adv-x="589" 
d="M333 500l96 -243.999l31 43c10.667 15.333 20.334 31.166 29.001 47.499s15.834 32.666 21.501 48.999s8.5 31.833 8.5 46.5v9c0 2.66699 -0.333008 5.33398 -1 8.00098c-6 -2.66699 -13 -4 -21 -4c-14.667 0 -27.5 4.83301 -38.5 14.5s-16.5 22.5 -16.5 38.5
c0 14.667 5 27 15 37s22.667 15 38 15c19.333 0 35.666 -8.5 48.999 -25.5s20 -41.5 20 -73.5c0 -38 -10.167 -76 -30.5 -114s-49.5 -82.333 -87.5 -133l14 -35l14.5 -36c5 -12.667 10.5 -24.5 16.5 -35.5s12.667 -20 20 -27s16 -10.5 26 -10.5
c16.667 0 31.5 10.167 44.5 30.5s22.833 46.5 29.5 78.5h35c-7.33301 -42 -16.5 -75.167 -27.5 -99.5s-22.5 -42.833 -34.5 -55.5s-24.333 -20.834 -37 -24.501s-24.334 -5.5 -35.001 -5.5c-31.333 0 -57.833 10.333 -79.5 31s-42.834 53.667 -63.501 99
c-34 -50 -68.333 -84.167 -103 -102.5s-67.667 -27.5 -99 -27.5c-25.333 0 -45.666 4.5 -60.999 13.5s-27.5 20.5 -36.5 34.5s-15 29.667 -18 47s-4.5 34 -4.5 50v361h100v-340c0 -11.333 0.5 -22.333 1.5 -33s3.5 -20.167 7.5 -28.5s9.83301 -15.166 17.5 -20.499
s18.5 -8 32.5 -8c21.333 0 44.833 7.5 70.5 22.5s50.5 38.833 74.5 71.5l-5 15l-127 321h114zM29 644.001c0 18 6.33301 33.667 19 47s28.334 20 47.001 20c18 0 33.667 -6.66699 47 -20s20 -29 20 -47c0 -18.667 -6.66699 -34.334 -20 -47.001s-29 -19 -47 -19
c-18.667 0 -34.334 6.33301 -47.001 19s-19 28.334 -19 47.001z" />
    <glyph glyph-name="i_z" unicode="i&#x7a;" horiz-adv-x="593" 
d="M29 644c0 18 6.33301 33.667 19 47s28.334 20 47.001 20c18 0 33.667 -6.66699 47 -20s20 -29 20 -47c0 -18.667 -6.66699 -34.334 -20 -47.001s-29 -19 -47 -19c-18.667 0 -34.334 6.33301 -47.001 19s-19 28.334 -19 47.001zM147 500l0.00195312 -340.004
c0 -8 0.166992 -17.167 0.5 -27.5s2 -20.166 5 -29.499s7.33301 -17.166 13 -23.499s14.167 -9.5 25.5 -9.5c5.33301 0 11.833 0.666992 19.5 2s13.5 2.66602 17.5 3.99902c0.666992 -3.33301 1.16699 -6.33301 1.5 -9s0.5 -5.66699 0.5 -9
c0 -11.333 -2.5 -21.166 -7.5 -29.499s-11.5 -15 -19.5 -20s-17 -8.66699 -27 -11s-20 -3.5 -30 -3.5c-20 0 -36.333 4.16699 -49 12.5s-22.834 19.333 -30.501 33s-12.834 28.834 -15.501 45.501s-4 33.334 -4 50.001v365h100zM547.002 84.9961
c-5.33301 1.33301 -9.66699 4.66895 -13 10.002s-5 10.666 -5 15.999c0 10.667 4.16699 18.834 12.5 24.501s17.833 8.5 28.5 8.5c14.667 0 28 -5 40 -15s18 -24.667 18 -44c0 -10 -2.66699 -20 -8 -30s-13 -19 -23 -27s-22 -14.667 -36 -20s-29.667 -8 -47 -8h-262l216 446
h-86c-14.667 0 -27.834 -0.833008 -39.501 -2.5s-17.5 -5.5 -17.5 -11.5c0 -6.66699 2.83301 -12 8.5 -16s8.5 -9.33301 8.5 -16c0 -7.33301 -4.16699 -14.333 -12.5 -21s-19.166 -10 -32.499 -10c-18.667 0 -32.834 7.16699 -42.501 21.5s-14.5 31.166 -14.5 50.499
c0 17.333 7.5 31.5 22.5 42.5s41.833 16.5 80.5 16.5h248l-214 -430c4 0 11.833 -0.333008 23.5 -1s24.167 -1.33398 37.5 -2.00098l39 -2c12.667 -0.666992 22.334 -1 29.001 -1c12 0 21.5 2 28.5 6s11.167 9 12.5 15z" />
    <glyph glyph-name="iacute_x" unicode="&#xed;x" horiz-adv-x="589" 
d="M333 500l96 -243.999l31 43c10.667 15.333 20.334 31.166 29.001 47.499s15.834 32.666 21.501 48.999s8.5 31.833 8.5 46.5v9c0 2.66699 -0.333008 5.33398 -1 8.00098c-6 -2.66699 -13 -4 -21 -4c-14.667 0 -27.5 4.83301 -38.5 14.5s-16.5 22.5 -16.5 38.5
c0 14.667 5 27 15 37s22.667 15 38 15c19.333 0 35.666 -8.5 48.999 -25.5s20 -41.5 20 -73.5c0 -38 -10.167 -76 -30.5 -114s-49.5 -82.333 -87.5 -133l14 -35l14.5 -36c5 -12.667 10.5 -24.5 16.5 -35.5s12.667 -20 20 -27s16 -10.5 26 -10.5
c16.667 0 31.5 10.167 44.5 30.5s22.833 46.5 29.5 78.5h35c-7.33301 -42 -16.5 -75.167 -27.5 -99.5s-22.5 -42.833 -34.5 -55.5s-24.333 -20.834 -37 -24.501s-24.334 -5.5 -35.001 -5.5c-31.333 0 -57.833 10.333 -79.5 31s-42.834 53.667 -63.501 99
c-34 -50 -68.333 -84.167 -103 -102.5s-67.667 -27.5 -99 -27.5c-25.333 0 -45.666 4.5 -60.999 13.5s-27.5 20.5 -36.5 34.5s-15 29.667 -18 47s-4.5 34 -4.5 50v361h100v-340c0 -11.333 0.5 -22.333 1.5 -33s3.5 -20.167 7.5 -28.5s9.83301 -15.166 17.5 -20.499
s18.5 -8 32.5 -8c22 0 45.667 7.5 71 22.5s50 39.167 74 72.5l-132 335h114zM121 750.001h85l-81 -189h-55z" />
    <glyph glyph-name="iacute_z" unicode="&#xed;&#x7a;" horiz-adv-x="593" 
d="M147 500l0.00195312 -340.004c0 -8 0.166992 -17.167 0.5 -27.5s2 -20.166 5 -29.499s7.33301 -17.166 13 -23.499s14.167 -9.5 25.5 -9.5c5.33301 0 11.833 0.666992 19.5 2s13.5 2.66602 17.5 3.99902c0.666992 -3.33301 1.16699 -6.33301 1.5 -9s0.5 -5.66699 0.5 -9
c0 -11.333 -2.5 -21.166 -7.5 -29.499s-11.5 -15 -19.5 -20s-17 -8.66699 -27 -11s-20 -3.5 -30 -3.5c-20 0 -36.333 4.16699 -49 12.5s-22.834 19.333 -30.501 33s-12.834 28.834 -15.501 45.501s-4 33.334 -4 50.001v365h100zM547.002 84.9961
c-5.33301 1.33301 -9.66699 4.66895 -13 10.002s-5 10.666 -5 15.999c0 10.667 4.16699 18.834 12.5 24.501s17.833 8.5 28.5 8.5c14.667 0 28 -5 40 -15s18 -24.667 18 -44c0 -10 -2.66699 -20 -8 -30s-13 -19 -23 -27s-22 -14.667 -36 -20s-29.667 -8 -47 -8h-262l216 446
h-86c-14.667 0 -27.834 -0.833008 -39.501 -2.5s-17.5 -5.5 -17.5 -11.5c0 -6.66699 2.83301 -12 8.5 -16s8.5 -9.33301 8.5 -16c0 -7.33301 -4.16699 -14.333 -12.5 -21s-19.166 -10 -32.499 -10c-18.667 0 -32.834 7.16699 -42.501 21.5s-14.5 31.166 -14.5 50.499
c0 17.333 7.5 31.5 22.5 42.5s41.833 16.5 80.5 16.5h248l-214 -430c4 0 11.833 -0.333008 23.5 -1s24.167 -1.33398 37.5 -2.00098l39 -2c12.667 -0.666992 22.334 -1 29.001 -1c12 0 21.5 2 28.5 6s11.167 9 12.5 15zM119.001 749.999h85l-81 -189h-55z" />
    <glyph glyph-name="j_x" unicode="jx" horiz-adv-x="560" 
d="M333 500l96.001 -244l31 43c10.667 15.333 20.334 31.166 29.001 47.499s15.834 32.666 21.501 48.999s8.5 31.833 8.5 46.5v9c0 2.66699 -0.333008 5.33398 -1 8.00098c-6 -2.66699 -13 -4 -21 -4c-14.667 0 -27.5 4.83301 -38.5 14.5s-16.5 22.5 -16.5 38.5
c0 14.667 5 27 15 37s22.667 15 38 15c19.333 0 35.666 -8.5 48.999 -25.5s20 -41.5 20 -73.5c0 -38 -10.167 -76 -30.5 -114s-49.5 -82.333 -87.5 -133l14 -35l14.5 -36c5 -12.667 10.5 -24.5 16.5 -35.5s12.667 -20 20 -27s16 -10.5 26 -10.5
c16.667 0 31.5 10.167 44.5 30.5s22.833 46.5 29.5 78.5h35c-7.33301 -42 -16.5 -75.167 -27.5 -99.5s-22.5 -42.833 -34.5 -55.5s-24.333 -20.834 -37 -24.501s-24.334 -5.5 -35.001 -5.5c-16.667 0 -31.667 2.83301 -45 8.5s-26 14.334 -38 26.001s-23.333 26.667 -34 45
s-21.667 40.5 -33 66.5c-14.667 -24.667 -29.167 -45.167 -43.5 -61.5s-30 -30.166 -47 -41.499s-35.5 -21.166 -55.5 -29.499s-43 -16.5 -69 -24.5v-62c0 -31.333 -3.33301 -57.833 -10 -79.5s-15.834 -39.334 -27.501 -53.001s-25 -23.5 -40 -29.5s-30.833 -9 -47.5 -9
c-33.333 0 -59.333 9.5 -78 28.5s-28 42.5 -28 70.5c0 18 3.83301 34 11.5 48s17.667 26.667 30 38s26.333 21.166 42 29.499s31.5 15.833 47.5 22.5v513h100v-481c26 8 47.5 15.667 64.5 23s32.333 16.5 46 27.5s27 25.333 40 43s28.5 40.834 46.5 69.501l-125 318h114z
M29.001 644c0 18 6.33301 33.667 19 47s28.334 20 47.001 20c18 0 33.667 -6.66699 47 -20s20 -29 20 -47c0 -18.667 -6.66699 -34.334 -20 -47.001s-29 -19 -47 -19c-18.667 0 -34.334 6.33301 -47.001 19s-19 28.334 -19 47.001zM3.00098 -198
c18 0 29.834 6.83203 35.501 20.499s8.5 32.167 8.5 55.5v70c-28 -11.333 -50.333 -24.166 -67 -38.499s-25 -32.833 -25 -55.5c0 -16 4.16699 -28.667 12.5 -38s20.166 -14 35.499 -14z" />
    <glyph glyph-name="j_z" unicode="j&#x7a;" horiz-adv-x="571" 
d="M147 500l0.000976562 -578.999c0 -31.333 -3.33301 -57.833 -10 -79.5s-15.834 -39.334 -27.501 -53.001s-25 -23.5 -40 -29.5s-30.833 -9 -47.5 -9c-33.333 0 -59.333 9.5 -78 28.5s-28 42.167 -28 69.5c0 17.333 3.83301 33 11.5 47s17.667 26.833 30 38.5
s26.333 22 42 31s31.5 16.833 47.5 23.5v512h100zM525.001 85.001c-5.33301 1.33301 -9.66699 4.66895 -13 10.002s-5 10.666 -5 15.999c0 10.667 4.16699 18.834 12.5 24.501s17.833 8.5 28.5 8.5c14.667 0 28 -5 40 -15s18 -24.667 18 -44c0 -10 -2.66699 -20 -8 -30
s-13 -19 -23 -27s-22 -14.667 -36 -20s-29.667 -8 -47 -8h-262l216 446h-86c-14.667 0 -27.834 -0.833008 -39.501 -2.5s-17.5 -5.5 -17.5 -11.5c0 -6.66699 2.83301 -12 8.5 -16s8.5 -9.33301 8.5 -16c0 -7.33301 -4.16699 -14.333 -12.5 -21s-19.166 -10 -32.499 -10
c-18.667 0 -32.834 7.16699 -42.501 21.5s-14.5 31.166 -14.5 50.499c0 17.333 7.5 31.5 22.5 42.5s41.833 16.5 80.5 16.5h248l-214 -430c4 0 11.833 -0.333008 23.5 -1s24.167 -1.33398 37.5 -2.00098l39 -2c12.667 -0.666992 22.334 -1 29.001 -1c12 0 21.5 2 28.5 6
s11.167 9 12.5 15zM29 644.004c0 18 6.33301 33.667 19 47s28.334 20 47.001 20c18 0 33.667 -6.66699 47 -20s20 -29 20 -47c0 -18.667 -6.66699 -34.334 -20 -47.001s-29 -19 -47 -19c-18.667 0 -34.334 6.33301 -47.001 19s-19 28.334 -19 47.001zM3 -197.996
c18 0 29.834 6.83301 35.501 20.5s8.5 32.167 8.5 55.5v70c-33.333 -15.333 -57 -30.5 -71 -45.5s-21 -31.833 -21 -50.5c0 -15.333 4.16699 -27.5 12.5 -36.5s20.166 -13.5 35.499 -13.5z" />
    <glyph glyph-name="l_x" unicode="lx" horiz-adv-x="589" 
d="M333 500l96 -243.999l31 43c10.667 15.333 20.334 31.166 29.001 47.499s15.834 32.666 21.501 48.999s8.5 31.833 8.5 46.5v9c0 2.66699 -0.333008 5.33398 -1 8.00098c-6 -2.66699 -13 -4 -21 -4c-14.667 0 -27.5 4.83301 -38.5 14.5s-16.5 22.5 -16.5 38.5
c0 14.667 5 27 15 37s22.667 15 38 15c19.333 0 35.666 -8.5 48.999 -25.5s20 -41.5 20 -73.5c0 -38 -10.167 -76 -30.5 -114s-49.5 -82.333 -87.5 -133l14 -35l14.5 -36c5 -12.667 10.5 -24.5 16.5 -35.5s12.667 -20 20 -27s16 -10.5 26 -10.5
c16.667 0 31.5 10.167 44.5 30.5s22.833 46.5 29.5 78.5h35c-7.33301 -42 -16.5 -75.167 -27.5 -99.5s-22.5 -42.833 -34.5 -55.5s-24.333 -20.834 -37 -24.501s-24.334 -5.5 -35.001 -5.5c-31.333 0 -57.833 10.333 -79.5 31s-42.834 53.667 -63.501 99
c-34 -50 -68.333 -84.167 -103 -102.5s-67.667 -27.5 -99 -27.5c-25.333 0 -45.666 4.5 -60.999 13.5s-27.5 20.5 -36.5 34.5s-15 29.667 -18 47s-4.5 34 -4.5 50v547l100 14v-540c0 -11.333 0.5 -22.333 1.5 -33s3.5 -20.167 7.5 -28.5s9.83301 -15.166 17.5 -20.499
s18.5 -8 32.5 -8c21.333 0 44.833 7.5 70.5 22.5s50.5 38.833 74.5 71.5l-5 15l-127 321h114z" />
    <glyph glyph-name="l_z" unicode="l&#x7a;" horiz-adv-x="592" 
d="M147 700l0.00195312 -540.004c0 -8 0.166992 -17.167 0.5 -27.5s2 -20.166 5 -29.499s7.33301 -17.166 13 -23.499s14.167 -9.5 25.5 -9.5c5.33301 0 11.833 0.666992 19.5 2s13.5 2.66602 17.5 3.99902c0.666992 -3.33301 1.16699 -6.33301 1.5 -9s0.5 -5.66699 0.5 -9
c0 -11.333 -2.5 -21.166 -7.5 -29.499s-11.5 -15 -19.5 -20s-17 -8.66699 -27 -11s-20 -3.5 -30 -3.5c-20 0 -36.333 4.16699 -49 12.5s-22.834 19.333 -30.501 33s-12.834 28.834 -15.501 45.501s-4 33.334 -4 50.001v551zM546.002 84.9961
c-5.33301 1.33301 -9.66699 4.66895 -13 10.002s-5 10.666 -5 15.999c0 10.667 4.16699 18.834 12.5 24.501s17.833 8.5 28.5 8.5c14.667 0 28 -5 40 -15s18 -24.667 18 -44c0 -10 -2.66699 -20 -8 -30s-13 -19 -23 -27s-22 -14.667 -36 -20s-29.667 -8 -47 -8h-262l216 446
h-86c-14.667 0 -27.834 -0.833008 -39.501 -2.5s-17.5 -5.5 -17.5 -11.5c0 -6.66699 2.83301 -12 8.5 -16s8.5 -9.33301 8.5 -16c0 -7.33301 -4.16699 -14.333 -12.5 -21s-19.166 -10 -32.499 -10c-18.667 0 -32.834 7.16699 -42.501 21.5s-14.5 31.166 -14.5 50.499
c0 17.333 7.5 31.5 22.5 42.5s41.833 16.5 80.5 16.5h248l-214 -430c4 0 11.833 -0.333008 23.5 -1s24.167 -1.33398 37.5 -2.00098l39 -2c12.667 -0.666992 22.334 -1 29.001 -1c12 0 21.5 2 28.5 6s11.167 9 12.5 15z" />
    <glyph glyph-name="m_x" unicode="mx" horiz-adv-x="1055" 
d="M146 500l0.00390625 -68.998c8.66699 16.667 17.834 29.834 27.501 39.501s19.334 17 29.001 22s19 8.33301 28 10s17.5 2.5 25.5 2.5c35.333 0 62 -8.83301 80 -26.5s30.667 -38.167 38 -61.5c9.33301 20.667 19.333 36.834 30 48.501s21 20.5 31 26.5
s19.5 9.66699 28.5 11s17.167 2 24.5 2c30.667 0 55 -5.83301 73 -17.5s31.833 -26.334 41.5 -44.001s16 -37.167 19 -58.5s4.5 -41.666 4.5 -60.999c0 -23.333 -1 -50 -3 -80s-3 -61.667 -3 -95c0 -6.66699 0.333008 -14.5 1 -23.5s2.66699 -17.667 6 -26
s8.66602 -15.333 15.999 -21s17.666 -8.5 30.999 -8.5c10.667 0 22.167 2.16699 34.5 6.5s24.666 11.166 36.999 20.499s24 21.166 35 35.499s20.833 31.166 29.5 50.499l-125 317h114l96 -244l31 43c10.667 15.333 20.334 31.166 29.001 47.499
s15.834 32.666 21.501 48.999s8.5 31.833 8.5 46.5v9c0 2.66699 -0.333008 5.33398 -1 8.00098c-6 -2.66699 -13 -4 -21 -4c-14.667 0 -27.5 4.83301 -38.5 14.5s-16.5 22.5 -16.5 38.5c0 14.667 5 27 15 37s22.667 15 38 15c19.333 0 35.666 -8.5 48.999 -25.5
s20 -41.5 20 -73.5c0 -38 -10.167 -76 -30.5 -114s-49.5 -82.333 -87.5 -133l14 -35l14.5 -36c5 -12.667 10.5 -24.5 16.5 -35.5s12.667 -20 20 -27s16 -10.5 26 -10.5c16.667 0 31.5 10.167 44.5 30.5s22.833 46.5 29.5 78.5h35c-7.33301 -42 -16.5 -75.167 -27.5 -99.5
s-22.5 -42.833 -34.5 -55.5s-24.333 -20.834 -37 -24.501s-24.334 -5.5 -35.001 -5.5c-32.667 0 -60 11 -82 33s-44 58 -66 108c-16 -28.667 -32.333 -52.167 -49 -70.5s-33.167 -32.666 -49.5 -42.999s-32.333 -17.5 -48 -21.5s-30.167 -6 -43.5 -6
c-22 0 -40.667 4.16699 -56 12.5s-27.833 19.666 -37.5 33.999s-16.5 30.666 -20.5 48.999s-6 37.5 -6 57.5c0 6 0.166992 17.167 0.5 33.5s0.666016 33.833 0.999023 52.5s0.666016 36.334 0.999023 53.001s0.5 28.334 0.5 35.001c0 21.333 -1.66699 39 -5 53s-8 25 -14 33
s-12.833 13.667 -20.5 17s-15.834 5 -24.501 5c-20.667 0 -37.5 -8.33301 -50.5 -25s-22.167 -44.667 -27.5 -84v-320h-100v334c0 12 -0.5 23.667 -1.5 35s-3.5 21.5 -7.5 30.5s-9.66699 16.167 -17 21.5s-17.333 8 -30 8c-21.333 0 -37.5 -8.83301 -48.5 -26.5
s-21.167 -45.167 -30.5 -82.5v-320h-100v500h100z" />
    <glyph glyph-name="m_z" unicode="m&#x7a;" horiz-adv-x="1071" 
d="M146 500l0.00488281 -69.002c17.333 32 35.666 52.333 54.999 61s37.666 13 54.999 13s32.5 -2.33301 45.5 -7s24.167 -11 33.5 -19s17.166 -17.333 23.499 -28s11.5 -22.334 15.5 -35.001c9.33301 20 19 35.833 29 47.5s20 20.667 30 27s19.833 10.333 29.5 12
s18.5 2.5 26.5 2.5c30 0 54.167 -5.66699 72.5 -17s32.166 -25.833 41.499 -43.5s15.5 -37 18.5 -58s4.5 -41.167 4.5 -60.5c0 -12 -0.333008 -25.167 -1 -39.5l-2 -44l-2 -45c-0.666992 -15 -1 -28.833 -1 -41.5c0 -5.33301 0.333008 -12.833 1 -22.5
s2.33398 -19.167 5.00098 -28.5s7 -17.5 13 -24.5s14.667 -10.5 26 -10.5c18 0 32 3 42 9v-7c0 -16.667 -2.33301 -30.167 -7 -40.5s-10.5 -18.166 -17.5 -23.499s-14.667 -9 -23 -11s-15.833 -3 -22.5 -3c-21.333 0 -39.333 4.16699 -54 12.5s-26.667 19.5 -36 33.5
s-16.166 30.333 -20.499 49s-6.5 38 -6.5 58c0 6 0.166992 17.167 0.5 33.5s0.666016 33.833 0.999023 52.5s0.666016 36.334 0.999023 53.001s0.5 28.334 0.5 35.001c0 21.333 -1.66699 39 -5 53s-8 25 -14 33s-12.833 13.667 -20.5 17s-15.834 5 -24.501 5
c-20.667 0 -37.5 -8.33301 -50.5 -25s-22.167 -44.667 -27.5 -84v-320h-100v334c0 12 -0.5 23.667 -1.5 35s-3.5 21.5 -7.5 30.5s-9.66699 16.167 -17 21.5s-17.333 8 -30 8c-21.333 0 -37.5 -8.83301 -48.5 -26.5s-21.167 -45.167 -30.5 -82.5v-320h-100v500h100z
M1025 84.998c-5.33301 1.33301 -9.66699 4.66895 -13 10.002s-5 10.666 -5 15.999c0 10.667 4.16699 18.834 12.5 24.501s17.833 8.5 28.5 8.5c14.667 0 28 -5 40 -15s18 -24.667 18 -44c0 -10 -2.66699 -20 -8 -30s-13 -19 -23 -27s-22 -14.667 -36 -20s-29.667 -8 -47 -8
h-262l216 446h-86c-14.667 0 -27.834 -0.833008 -39.501 -2.5s-17.5 -5.5 -17.5 -11.5c0 -6.66699 2.83301 -12 8.5 -16s8.5 -9.33301 8.5 -16c0 -7.33301 -4.16699 -14.333 -12.5 -21s-19.166 -10 -32.499 -10c-18.667 0 -32.834 7.16699 -42.501 21.5
s-14.5 31.166 -14.5 50.499c0 17.333 7.5 31.5 22.5 42.5s41.833 16.5 80.5 16.5h248l-214 -430c4 0 11.833 -0.333008 23.5 -1s24.167 -1.33398 37.5 -2.00098l39 -2c12.667 -0.666992 22.334 -1 29.001 -1c12 0 21.5 2 28.5 6s11.167 9 12.5 15z" />
    <glyph glyph-name="n_z" unicode="n&#x7a;" horiz-adv-x="838" 
d="M146 500l0.00292969 -76.0039c10 18 20.167 32.5 30.5 43.5s20.833 19.167 31.5 24.5s20.834 8.83301 30.501 10.5s18.834 2.5 27.501 2.5c30 0 54.167 -5.66699 72.5 -17s32.166 -25.833 41.499 -43.5s15.5 -37.167 18.5 -58.5s4.5 -42 4.5 -62
c0 -22 -0.833008 -48.667 -2.5 -80s-2.5 -61.666 -2.5 -90.999c0 -6.66699 0.333008 -14.667 1 -24s2.66699 -18.333 6 -27s8.33301 -16.167 15 -22.5s16.334 -9.5 29.001 -9.5c4.66699 0 10.334 0.5 17.001 1.5s11.667 3.16699 15 6.5v-7c0 -18 -2.33301 -32 -7 -42
s-10.334 -17.667 -17.001 -23s-14 -8.66602 -22 -9.99902s-15 -2 -21 -2c-20.667 0 -38.334 4.16699 -53.001 12.5s-26.834 19.5 -36.501 33.5s-16.667 30.167 -21 48.5s-6.5 37.833 -6.5 58.5c0 6 0.166992 17.167 0.5 33.5s0.666016 33.833 0.999023 52.5
s0.666016 36.334 0.999023 53.001s0.5 28.334 0.5 35.001c0 21.333 -1.66699 39 -5 53s-8 25 -14 33s-12.833 13.667 -20.5 17s-15.834 5 -24.501 5c-20.667 0 -38.5 -8.33301 -53.5 -25s-27.167 -44.667 -36.5 -84v-320h-100v500h100zM792.003 84.9961
c-5.33301 1.33301 -9.66699 4.66895 -13 10.002s-5 10.666 -5 15.999c0 10.667 4.16699 18.834 12.5 24.501s17.833 8.5 28.5 8.5c14.667 0 28 -5 40 -15s18 -24.667 18 -44c0 -10 -2.66699 -20 -8 -30s-13 -19 -23 -27s-22 -14.667 -36 -20s-29.667 -8 -47 -8h-262l216 446
h-86c-14.667 0 -27.834 -0.833008 -39.501 -2.5s-17.5 -5.5 -17.5 -11.5c0 -6.66699 2.83301 -12 8.5 -16s8.5 -9.33301 8.5 -16c0 -7.33301 -4.16699 -14.333 -12.5 -21s-19.166 -10 -32.499 -10c-18.667 0 -32.834 7.16699 -42.501 21.5s-14.5 31.166 -14.5 50.499
c0 17.333 7.5 31.5 22.5 42.5s41.833 16.5 80.5 16.5h248l-214 -430c4 0 11.833 -0.333008 23.5 -1s24.167 -1.33398 37.5 -2.00098l39 -2c12.667 -0.666992 22.334 -1 29.001 -1c12 0 21.5 2 28.5 6s11.167 9 12.5 15z" />
    <glyph glyph-name="o_ae" unicode="o&#xe6;" horiz-adv-x="1048" 
d="M229 505c24 0 44.6729 -3.49512 62.0059 -10.4951s32.166 -16.667 44.499 -29s22.166 -26.833 29.499 -43.5s13 -34.667 17 -54h5c20 0 37 3.33301 51 10s26.5 15.167 37.5 25.5s21.5 21.333 31.5 33s21.167 22.667 33.5 33s26.666 18.833 42.999 25.5s36.833 10 61.5 10
c23.333 0 47.5 -3.66699 72.5 -11s49.833 -19 74.5 -35c14 12 30.5 22.667 49.5 32s41.5 14 67.5 14c15.333 0 30.666 -2 45.999 -6s29.333 -11 42 -21s22.834 -23.667 30.501 -41s11.5 -39.333 11.5 -66c0 -46 -18.167 -82.667 -54.5 -110s-88.833 -43.666 -157.5 -48.999
c3.33301 -24.667 7.33301 -45.834 12 -63.501s11.334 -32.334 20.001 -44.001s19.5 -20.334 32.5 -26.001s29.5 -8.5 49.5 -8.5c32 0 62 8.33301 90 25s50.667 44.667 68 84h32c-8 -24.667 -19 -48.167 -33 -70.5s-30.5 -42 -49.5 -59s-40.333 -30.5 -64 -40.5
s-48.834 -15 -75.501 -15c-30.667 0 -59 7.33301 -85 22s-48 39 -66 73c-4 -12.667 -8.83301 -24.834 -14.5 -36.501s-13.167 -21.834 -22.5 -30.501s-20.833 -15.5 -34.5 -20.5s-30.5 -7.5 -50.5 -7.5c-17.333 0 -35.333 2.33301 -54 7s-35.834 13.167 -51.501 25.5
s-28.5 29 -38.5 50s-15 48.167 -15 81.5c0 24 4.83301 44.5 14.5 61.5s23 30.667 40 41s37.333 17.833 61 22.5s49.5 7 77.5 7c14 0 25.667 -0.333008 35 -1s17.666 -1.66699 24.999 -3c2 8 3.5 17.5 4.5 28.5s1.5 21.167 1.5 30.5c0 12.667 -1.5 25.5 -4.5 38.5
s-8.33301 25 -16 36s-18.5 20 -32.5 27s-32 10.5 -54 10.5c-28 0 -50.5 -6 -67.5 -18s-33 -25.833 -48 -41.5s-31.833 -31 -50.5 -46s-43.334 -25.5 -74.001 -31.5c2 -20 3 -41 3 -63c0 -82 -15 -146.333 -45 -193s-72 -70 -126 -70c-22 0 -44.167 4 -66.5 12
s-42.5 21.333 -60.5 40s-32.5 42.667 -43.5 72s-16.5 65.666 -16.5 108.999c0 29.333 3.16699 60.333 9.5 93s17 62.667 32 90s35 50 60 68s56.167 27 93.5 27zM239.006 70.0049c35.333 0 61.334 17.5029 78.001 52.5029s25 84.5 25 148.5v23
c0 7.33301 -0.666992 14.666 -2 21.999c-8.66699 0 -16.5 0.5 -23.5 1.5s-13 3.33301 -18 7s-8.83301 9 -11.5 16s-4 16.833 -4 29.5c0 13.333 3.33301 22.833 10 28.5s15.334 9.16699 26.001 10.5c-8 15.333 -17.5 26 -28.5 32s-22.833 9 -35.5 9
c-20.667 0 -38.167 -6.83301 -52.5 -20.5s-26 -31.167 -35 -52.5s-15.5 -44.833 -19.5 -70.5s-6 -50.834 -6 -75.501c0 -32.667 3 -59.334 9 -80.001s13.667 -37 23 -49s19.666 -20.333 30.999 -25s22.666 -7 33.999 -7zM925.007 456.008
c-17.333 0 -32.334 -4.83008 -45.001 -14.4971s-23.167 -22.834 -31.5 -39.501s-14.666 -36 -18.999 -58s-6.5 -45 -6.5 -69v-12c0 -4 0.333008 -8 1 -12c48 5.33301 85.167 19.666 111.5 42.999s39.5 53.666 39.5 90.999c0 25.333 -4.33301 43.5 -13 54.5
s-21 16.5 -37 16.5zM709.006 239.011c-16 0 -31.5 -1.83398 -46.5 -5.50098s-28.5 -9.16699 -40.5 -16.5s-21.667 -16.666 -29 -27.999s-11 -24.333 -11 -39c0 -22 7 -40.833 21 -56.5s30.667 -23.5 50 -23.5c22.667 0 41.167 11.5 55.5 34.5s21.5 56.5 21.5 100.5v16
c0 5.33301 -0.333008 11 -1 17c-4 0.666992 -7.5 1 -10.5 1h-9.5z" />
    <glyph glyph-name="o_s" unicode="os" horiz-adv-x="759" 
d="M849 179c-19.333 -27.333 -39.666 -50.0059 -60.999 -68.0059s-41.666 -33.667 -60.999 -47c-8 -14.667 -17.667 -26.5 -29 -35.5s-23.333 -16 -36 -21s-25.167 -8.5 -37.5 -10.5s-23.833 -3 -34.5 -3c-29.333 0 -53.5 4.83301 -72.5 14.5s-34 21.667 -45 36
s-18.833 29.833 -23.5 46.5s-7 32.334 -7 47.001s1.83301 27 5.5 37s8.5 18 14.5 24s12.5 10.333 19.5 13s13.833 4 20.5 4c11.333 0 21.833 -4 31.5 -12s14.5 -20 14.5 -36c0 -13.333 -3.33301 -23.166 -10 -29.499s-14.334 -9.5 -23.001 -9.5s-16.667 4.66699 -24 14
c5.33301 -23.333 13 -41.5 23 -54.5s28.667 -19.5 56 -19.5c24 0 41.667 6 53 18s17 33.333 17 64c0 14 -1.16699 28.5 -3.5 43.5s-6.16602 33.667 -11.499 56l-20.5 83l-30.5 125.5c-18 -44 -44 -79.5 -78 -106.5s-69 -44.5 -105 -52.5c0 -6 0.166992 -11.833 0.5 -17.5
s0.5 -11.167 0.5 -16.5c0 -90 -15 -157.833 -45 -203.5s-72.333 -68.5 -127 -68.5c-22 0 -44 4 -66 12s-42 21.333 -60 40s-32.5 42.834 -43.5 72.501s-16.5 66.167 -16.5 109.5c0 28.667 3.16699 59.334 9.5 92.001s17 62.667 32 90s35.167 50 60.5 68s57 27 95 27
c26 0 48 -4.16699 66 -12.5s33 -19.666 45 -33.999s21.5 -31.166 28.5 -50.499s12.167 -39.666 15.5 -60.999h6c18 0 35 4.16699 51 12.5s31.167 19.833 45.5 34.5s27.666 32 39.999 52s23.5 41.667 33.5 65l101 20l36.5 -143.5c10.333 -39.667 19 -74.167 26 -103.5
s12.167 -54.333 15.5 -75s5 -40 5 -58v-9.5c0 -3 -0.333008 -6.16699 -1 -9.5c11.333 7.33301 22.166 15.166 32.499 23.499l29.5 23.5h42zM239 69.9941c35.333 0 61.333 17.5049 78 52.5049s25 84.5 25 148.5v12c0 4 -0.333008 8 -1 12
c-19.333 1.33301 -33.166 5.66602 -41.499 12.999s-12.5 19.666 -12.5 36.999c0 15.333 3.33301 26.166 10 32.499s16.667 9.83301 30 10.5c-8 23.333 -18.167 39.5 -30.5 48.5s-26.166 13.5 -41.499 13.5c-20.667 0 -38.167 -6.83301 -52.5 -20.5s-26 -31.167 -35 -52.5
s-15.5 -44.833 -19.5 -70.5s-6 -50.834 -6 -75.501c0 -32.667 3 -59.334 9 -80.001s13.667 -37 23 -49s19.666 -20.333 30.999 -25s22.666 -7 33.999 -7z" />
    <glyph glyph-name="o_s_x" unicode="osx" horiz-adv-x="1111" 
d="M855 500l96.002 -244.008l31 43c10.667 15.333 20.334 31.166 29.001 47.499s15.834 32.666 21.501 48.999s8.5 31.833 8.5 46.5v9c0 2.66699 -0.333008 5.33398 -1 8.00098c-6 -2.66699 -13 -4 -21 -4c-14.667 0 -27.5 4.83301 -38.5 14.5s-16.5 22.5 -16.5 38.5
c0 14.667 5 27 15 37s22.667 15 38 15c19.333 0 35.666 -8.5 48.999 -25.5s20 -41.5 20 -73.5c0 -38 -10.167 -76 -30.5 -114s-49.5 -82.333 -87.5 -133l14 -35l14.5 -36c5 -12.667 10.5 -24.5 16.5 -35.5s12.667 -20 20 -27s16 -10.5 26 -10.5
c16.667 0 31.5 10.167 44.5 30.5s22.833 46.5 29.5 78.5h35c-7.33301 -42 -16.5 -75.167 -27.5 -99.5s-22.5 -42.833 -34.5 -55.5s-24.333 -20.834 -37 -24.501s-24.334 -5.5 -35.001 -5.5c-33.333 0 -61.5 12 -84.5 36s-45.833 63 -68.5 117
c-12 -12.667 -26 -24.667 -42 -36s-32 -21.666 -48 -30.999s-31.333 -17.666 -46 -24.999s-27 -13 -37 -17c-17.333 -18 -37 -29.833 -59 -35.5s-41.667 -8.5 -59 -8.5c-29.333 0 -53.5 4.83301 -72.5 14.5s-34 21.667 -45 36s-18.833 29.833 -23.5 46.5
s-7 32.334 -7 47.001s1.83301 27 5.5 37s8.5 18 14.5 24s12.5 10.333 19.5 13s13.833 4 20.5 4c11.333 0 21.833 -4 31.5 -12s14.5 -20 14.5 -36c0 -13.333 -3.33301 -23.166 -10 -29.499s-14.334 -9.5 -23.001 -9.5s-16.667 4.66699 -24 14
c5.33301 -23.333 13 -41.5 23 -54.5s28.667 -19.5 56 -19.5c24 0 41.667 6 53 18s17 33.333 17 64c0 14 -1.16699 28.5 -3.5 43.5s-6.16602 33.667 -11.499 56l-20.5 83l-30.5 125.5c-18 -44 -44 -79.5 -78 -106.5s-69 -44.5 -105 -52.5c0 -6 0.166992 -11.833 0.5 -17.5
s0.5 -11.167 0.5 -16.5c0 -90 -15 -157.833 -45 -203.5s-72.333 -68.5 -127 -68.5c-22 0 -44 4 -66 12s-42 21.333 -60 40s-32.5 42.834 -43.5 72.501s-16.5 66.167 -16.5 109.5c0 28.667 3.16699 59.334 9.5 92.001s17 62.667 32 90s35.167 50 60.5 68s57 27 95 27
c26 0 48 -4.16699 66 -12.5s33 -19.666 45 -33.999s21.5 -31.166 28.5 -50.499s12.167 -39.666 15.5 -60.999h6c18 0 35 4.16699 51 12.5s31.167 19.833 45.5 34.5s27.666 32 39.999 52s23.5 41.667 33.5 65l101 20l36.5 -143.5c10.333 -39.667 19 -74.167 26 -103.5
s12.167 -54.333 15.5 -75s5 -40 5 -58c0 -9.33301 -0.5 -17.666 -1.5 -24.999s-2.16699 -14.666 -3.5 -21.999c12 5.33301 24.167 11.5 36.5 18.5s24 14.167 35 21.5s21.167 14.666 30.5 21.999s16.666 14 21.999 20l-124 314h114zM239.002 69.9922
c35.333 0 61.333 17.5049 78 52.5049s25 84.5 25 148.5v12c0 4 -0.333008 8 -1 12c-19.333 1.33301 -33.166 5.66602 -41.499 12.999s-12.5 19.666 -12.5 36.999c0 15.333 3.33301 26.166 10 32.499s16.667 9.83301 30 10.5c-8 23.333 -18.167 39.5 -30.5 48.5
s-26.166 13.5 -41.499 13.5c-20.667 0 -38.167 -6.83301 -52.5 -20.5s-26 -31.167 -35 -52.5s-15.5 -44.833 -19.5 -70.5s-6 -50.834 -6 -75.501c0 -32.667 3 -59.334 9 -80.001s13.667 -37 23 -49s19.666 -20.333 30.999 -25s22.666 -7 33.999 -7z" />
    <glyph glyph-name="o_s_z" unicode="os&#x7a;" horiz-adv-x="1105" 
d="M231 505c26 0 48.001 -4.1748 66.001 -12.5078s33 -19.666 45 -33.999s21.5 -31.166 28.5 -50.499s12.167 -39.666 15.5 -60.999h6c18 0 35 4.16699 51 12.5s31.167 19.833 45.5 34.5s27.666 32 39.999 52s23.5 41.667 33.5 65l101 20l36.5 -143.5
c10.333 -39.667 19 -74.167 26 -103.5s12.167 -54.333 15.5 -75s5 -40 5 -58c0 -34 -5.33301 -61.167 -16 -81.5s-24 -36.166 -40 -47.499s-33 -18.833 -51 -22.5s-34.333 -5.5 -49 -5.5c-29.333 0 -53.5 4.83301 -72.5 14.5s-34 21.667 -45 36s-18.833 29.833 -23.5 46.5
s-7 32.334 -7 47.001s1.83301 27 5.5 37s8.5 18 14.5 24s12.5 10.333 19.5 13s13.833 4 20.5 4c11.333 0 21.833 -4 31.5 -12s14.5 -20 14.5 -36c0 -13.333 -3.33301 -23.166 -10 -29.499s-14.334 -9.5 -23.001 -9.5s-16.667 4.66699 -24 14
c5.33301 -23.333 13 -41.5 23 -54.5s28.667 -19.5 56 -19.5c24 0 41.667 6 53 18s17 33.333 17 64c0 14 -1.16699 28.5 -3.5 43.5s-6.16602 33.667 -11.499 56l-20.5 83l-30.5 125.5c-18 -44 -44 -79.5 -78 -106.5s-69 -44.5 -105 -52.5c0 -6 0.166992 -11.833 0.5 -17.5
s0.5 -11.167 0.5 -16.5c0 -90 -15 -157.833 -45 -203.5s-72.333 -68.5 -127 -68.5c-22 0 -44 4 -66 12s-42 21.333 -60 40s-32.5 42.834 -43.5 72.501s-16.5 66.167 -16.5 109.5c0 28.667 3.16699 59.334 9.5 92.001s17 62.667 32 90s35.167 50 60.5 68s57 27 95 27z
M1059 84.9922c-5.33301 1.33301 -9.66699 4.66895 -13 10.002s-5 10.666 -5 15.999c0 10.667 4.16699 18.834 12.5 24.501s17.833 8.5 28.5 8.5c14.667 0 28 -5 40 -15s18 -24.667 18 -44c0 -10 -2.66699 -20 -8 -30s-13 -19 -23 -27s-22 -14.667 -36 -20s-29.667 -8 -47 -8
h-262l216 446h-86c-14.667 0 -27.834 -0.833008 -39.501 -2.5s-17.5 -5.5 -17.5 -11.5c0 -6.66699 2.83301 -12 8.5 -16s8.5 -9.33301 8.5 -16c0 -7.33301 -4.16699 -14.333 -12.5 -21s-19.166 -10 -32.499 -10c-18.667 0 -32.834 7.16699 -42.501 21.5
s-14.5 31.166 -14.5 50.499c0 17.333 7.5 31.5 22.5 42.5s41.833 16.5 80.5 16.5h248l-214 -430c4 0 11.833 -0.333008 23.5 -1s24.167 -1.33398 37.5 -2.00098l39 -2c12.667 -0.666992 22.334 -1 29.001 -1c12 0 21.5 2 28.5 6s11.167 9 12.5 15zM239 69.9951
c35.333 0 61.333 17.5049 78 52.5049s25 84.5 25 148.5v12c0 4 -0.333008 8 -1 12c-19.333 1.33301 -33.166 5.66602 -41.499 12.999s-12.5 19.666 -12.5 36.999c0 15.333 3.33301 26.166 10 32.499s16.667 9.83301 30 10.5c-8 23.333 -18.167 39.5 -30.5 48.5
s-26.166 13.5 -41.499 13.5c-20.667 0 -38.167 -6.83301 -52.5 -20.5s-26 -31.167 -35 -52.5s-15.5 -44.833 -19.5 -70.5s-6 -50.834 -6 -75.501c0 -32.667 3 -59.334 9 -80.001s13.667 -37 23 -49s19.666 -20.333 30.999 -25s22.666 -7 33.999 -7z" />
    <glyph glyph-name="o_x" unicode="ox" horiz-adv-x="856" 
d="M601 500l91.0049 -232.001c10 10.667 20.667 22.834 32 36.501s21.666 28.167 30.999 43.5s17 31 23 47s9 31.667 9 47v9c0 2.66699 -0.333008 5.33398 -1 8.00098c-6 -2.66699 -13 -4 -21 -4c-14.667 0 -27.5 4.83301 -38.5 14.5s-16.5 22.5 -16.5 38.5
c0 14.667 5 27 15 37s22.667 15 38 15c19.333 0 35.666 -8.5 48.999 -25.5s20 -41.5 20 -73.5c0 -38.667 -10.833 -78 -32.5 -118s-52.167 -78.333 -91.5 -115l20 -49l14.5 -36c5 -12.667 10.5 -24.5 16.5 -35.5s12.667 -20 20 -27s16 -10.5 26 -10.5
c16.667 0 31.5 10.167 44.5 30.5s22.833 46.5 29.5 78.5h35c-7.33301 -42 -16.5 -75.167 -27.5 -99.5s-22.5 -42.833 -34.5 -55.5s-24.333 -20.834 -37 -24.501s-24.334 -5.5 -35.001 -5.5c-18 0 -34.333 3.5 -49 10.5s-28.5 17.667 -41.5 32s-25.5 33 -37.5 56
s-24.333 50.5 -37 82.5c-11.333 -7.33301 -22.5 -15.666 -33.5 -24.999s-21 -19 -30 -29s-16.333 -20.5 -22 -31.5s-8.5 -21.833 -8.5 -32.5c0 -4.66699 0.333008 -8.33398 1 -11.001c3.33301 1.33301 8.33301 2 15 2c13.333 0 25.5 -4.5 36.5 -13.5
s16.5 -20.833 16.5 -35.5c0 -12 -4.5 -22.833 -13.5 -32.5s-22.833 -14.5 -41.5 -14.5c-17.333 0 -33.333 6 -48 18s-22 32.667 -22 62c0 18 3.83301 36 11.5 54s17.667 35.167 30 51.5s26.5 31.333 42.5 45s32.333 25.5 49 35.5l-75 189c-14 -27.333 -33.333 -50 -58 -68
s-49.667 -30.667 -75 -38c1.33301 -7.33301 2 -14.666 2 -21.999v-22c0 -82 -15 -146.333 -45 -193s-72 -70 -126 -70c-22 0 -44.167 4 -66.5 12s-42.5 21.333 -60.5 40s-32.5 42.667 -43.5 72s-16.5 65.666 -16.5 108.999c0 29.333 3.16699 60.333 9.5 93s17 62.667 32 90
s35 50 60 68s56.167 27 93.5 27c26 0 48.167 -4 66.5 -12s33.666 -19 45.999 -33s22 -30.5 29 -49.5s12.167 -39.5 15.5 -61.5c27.333 3.33301 50.666 14.333 69.999 33s36.333 41 51 67l-20 51h114zM239.005 69.999c35.333 0 61.333 17.5049 78 52.5049s25 84.5 25 148.5
v12c0 4 -0.333008 8 -1 12c-19.333 1.33301 -33.166 5.66602 -41.499 12.999s-12.5 19.666 -12.5 36.999c0 15.333 3.33301 26.166 10 32.499s16.667 9.83301 30 10.5c-8 23.333 -18.167 39.5 -30.5 48.5s-26.166 13.5 -41.499 13.5c-20.667 0 -38.167 -6.83301 -52.5 -20.5
s-26 -31.167 -35 -52.5s-15.5 -44.833 -19.5 -70.5s-6 -50.834 -6 -75.501c0 -32.667 3 -59.334 9 -80.001s13.667 -37 23 -49s19.666 -20.333 30.999 -25s22.666 -7 33.999 -7z" />
    <glyph glyph-name="oacute_s" unicode="&#xf3;s" horiz-adv-x="759" 
d="M849 179c-19.333 -27.333 -39.666 -50.0059 -60.999 -68.0059s-41.666 -33.667 -60.999 -47c-8 -14.667 -17.667 -26.5 -29 -35.5s-23.333 -16 -36 -21s-25.167 -8.5 -37.5 -10.5s-23.833 -3 -34.5 -3c-29.333 0 -53.5 4.83301 -72.5 14.5s-34 21.667 -45 36
s-18.833 29.833 -23.5 46.5s-7 32.334 -7 47.001s1.83301 27 5.5 37s8.5 18 14.5 24s12.5 10.333 19.5 13s13.833 4 20.5 4c11.333 0 21.833 -4 31.5 -12s14.5 -20 14.5 -36c0 -13.333 -3.33301 -23.166 -10 -29.499s-14.334 -9.5 -23.001 -9.5s-16.667 4.66699 -24 14
c5.33301 -23.333 13 -41.5 23 -54.5s28.667 -19.5 56 -19.5c24 0 41.667 6 53 18s17 33.333 17 64c0 14 -1.16699 28.5 -3.5 43.5s-6.16602 33.667 -11.499 56l-20.5 83l-30.5 125.5c-18 -44 -44 -79.5 -78 -106.5s-69 -44.5 -105 -52.5c0 -6 0.166992 -11.833 0.5 -17.5
s0.5 -11.167 0.5 -16.5c0 -90 -15 -157.833 -45 -203.5s-72.333 -68.5 -127 -68.5c-22 0 -44 4 -66 12s-42 21.333 -60 40s-32.5 42.834 -43.5 72.501s-16.5 66.167 -16.5 109.5c0 28.667 3.16699 59.334 9.5 92.001s17 62.667 32 90s35.167 50 60.5 68s57 27 95 27
c26 0 48 -4.16699 66 -12.5s33 -19.666 45 -33.999s21.5 -31.166 28.5 -50.499s12.167 -39.666 15.5 -60.999h6c18 0 35 4.16699 51 12.5s31.167 19.833 45.5 34.5s27.666 32 39.999 52s23.5 41.667 33.5 65l101 20l36.5 -143.5c10.333 -39.667 19 -74.167 26 -103.5
s12.167 -54.333 15.5 -75s5 -40 5 -58v-9.5c0 -3 -0.333008 -6.16699 -1 -9.5c11.333 7.33301 22.166 15.166 32.499 23.499l29.5 23.5h42zM239 69.9941c35.333 0 61.333 17.5049 78 52.5049s25 84.5 25 148.5v12c0 4 -0.333008 8 -1 12
c-19.333 1.33301 -33.166 5.66602 -41.499 12.999s-12.5 19.666 -12.5 36.999c0 15.333 3.33301 26.166 10 32.499s16.667 9.83301 30 10.5c-8 23.333 -18.167 39.5 -30.5 48.5s-26.166 13.5 -41.499 13.5c-20.667 0 -38.167 -6.83301 -52.5 -20.5s-26 -31.167 -35 -52.5
s-15.5 -44.833 -19.5 -70.5s-6 -50.834 -6 -75.501c0 -32.667 3 -59.334 9 -80.001s13.667 -37 23 -49s19.666 -20.333 30.999 -25s22.666 -7 33.999 -7zM257 749.999h85l-81 -189h-55z" />
    <glyph glyph-name="oacute_s_x" unicode="&#xf3;sx" horiz-adv-x="1112" 
d="M231 505c26 0 48.001 -4.1748 66.001 -12.5078s33 -19.666 45 -33.999s21.5 -31.166 28.5 -50.499s12.167 -39.666 15.5 -60.999h6c18 0 35 4.16699 51 12.5s31.167 19.833 45.5 34.5s27.666 32 39.999 52s23.5 41.667 33.5 65l101 20l36.5 -143.5
c10.333 -39.667 19 -74.167 26 -103.5s12.167 -54.333 15.5 -75s5 -40 5 -58c0 -34 -5.33301 -61.167 -16 -81.5s-24 -36.166 -40 -47.499s-33 -18.833 -51 -22.5s-34.333 -5.5 -49 -5.5c-29.333 0 -53.5 4.83301 -72.5 14.5s-34 21.667 -45 36s-18.833 29.833 -23.5 46.5
s-7 32.334 -7 47.001s1.83301 27 5.5 37s8.5 18 14.5 24s12.5 10.333 19.5 13s13.833 4 20.5 4c11.333 0 21.833 -4 31.5 -12s14.5 -20 14.5 -36c0 -13.333 -3.33301 -23.166 -10 -29.499s-14.334 -9.5 -23.001 -9.5s-16.667 4.66699 -24 14
c5.33301 -23.333 13 -41.5 23 -54.5s28.667 -19.5 56 -19.5c24 0 41.667 6 53 18s17 33.333 17 64c0 14 -1.16699 28.5 -3.5 43.5s-6.16602 33.667 -11.499 56l-20.5 83l-30.5 125.5c-18 -44 -44 -79.5 -78 -106.5s-69 -44.5 -105 -52.5c0 -6 0.166992 -11.833 0.5 -17.5
s0.5 -11.167 0.5 -16.5c0 -90 -15 -157.833 -45 -203.5s-72.333 -68.5 -127 -68.5c-22 0 -44 4 -66 12s-42 21.333 -60 40s-32.5 42.834 -43.5 72.501s-16.5 66.167 -16.5 109.5c0 28.667 3.16699 59.334 9.5 92.001s17 62.667 32 90s35.167 50 60.5 68s57 27 95 27z
M1061 84.9922c-5.33301 1.33301 -9.66699 4.66895 -13 10.002s-5 10.666 -5 15.999c0 10.667 4.16699 18.834 12.5 24.501s17.833 8.5 28.5 8.5c14.667 0 28 -5 40 -15s18 -24.667 18 -44c0 -10 -2.66699 -20 -8 -30s-13 -19 -23 -27s-22 -14.667 -36 -20s-29.667 -8 -47 -8
h-262l216 446h-86c-14.667 0 -27.834 -0.833008 -39.501 -2.5s-17.5 -5.5 -17.5 -11.5c0 -6.66699 2.83301 -12 8.5 -16s8.5 -9.33301 8.5 -16c0 -7.33301 -4.16699 -14.333 -12.5 -21s-19.166 -10 -32.499 -10c-18.667 0 -32.834 7.16699 -42.501 21.5
s-14.5 31.166 -14.5 50.499c0 17.333 7.5 31.5 22.5 42.5s41.833 16.5 80.5 16.5h248l-214 -430c4 0 11.833 -0.333008 23.5 -1s24.167 -1.33398 37.5 -2.00098l39 -2c12.667 -0.666992 22.334 -1 29.001 -1c12 0 21.5 2 28.5 6s11.167 9 12.5 15zM239 69.9951
c35.333 0 61.333 17.5049 78 52.5049s25 84.5 25 148.5v12c0 4 -0.333008 8 -1 12c-19.333 1.33301 -33.166 5.66602 -41.499 12.999s-12.5 19.666 -12.5 36.999c0 15.333 3.33301 26.166 10 32.499s16.667 9.83301 30 10.5c-8 23.333 -18.167 39.5 -30.5 48.5
s-26.166 13.5 -41.499 13.5c-20.667 0 -38.167 -6.83301 -52.5 -20.5s-26 -31.167 -35 -52.5s-15.5 -44.833 -19.5 -70.5s-6 -50.834 -6 -75.501c0 -32.667 3 -59.334 9 -80.001s13.667 -37 23 -49s19.666 -20.333 30.999 -25s22.666 -7 33.999 -7zM253 750h85l-81 -189h-55
z" />
    <glyph glyph-name="oacute_s_z" unicode="&#xf3;s&#x7a;" horiz-adv-x="1107" 
d="M231 505c26 0 48.001 -4.1748 66.001 -12.5078s33 -19.666 45 -33.999s21.5 -31.166 28.5 -50.499s12.167 -39.666 15.5 -60.999h6c18 0 35 4.16699 51 12.5s31.167 19.833 45.5 34.5s27.666 32 39.999 52s23.5 41.667 33.5 65l101 20l36.5 -143.5
c10.333 -39.667 19 -74.167 26 -103.5s12.167 -54.333 15.5 -75s5 -40 5 -58c0 -34 -5.33301 -61.167 -16 -81.5s-24 -36.166 -40 -47.499s-33 -18.833 -51 -22.5s-34.333 -5.5 -49 -5.5c-29.333 0 -53.5 4.83301 -72.5 14.5s-34 21.667 -45 36s-18.833 29.833 -23.5 46.5
s-7 32.334 -7 47.001s1.83301 27 5.5 37s8.5 18 14.5 24s12.5 10.333 19.5 13s13.833 4 20.5 4c11.333 0 21.833 -4 31.5 -12s14.5 -20 14.5 -36c0 -13.333 -3.33301 -23.166 -10 -29.499s-14.334 -9.5 -23.001 -9.5s-16.667 4.66699 -24 14
c5.33301 -23.333 13 -41.5 23 -54.5s28.667 -19.5 56 -19.5c24 0 41.667 6 53 18s17 33.333 17 64c0 14 -1.16699 28.5 -3.5 43.5s-6.16602 33.667 -11.499 56l-20.5 83l-30.5 125.5c-18 -44 -44 -79.5 -78 -106.5s-69 -44.5 -105 -52.5c0 -6 0.166992 -11.833 0.5 -17.5
s0.5 -11.167 0.5 -16.5c0 -90 -15 -157.833 -45 -203.5s-72.333 -68.5 -127 -68.5c-22 0 -44 4 -66 12s-42 21.333 -60 40s-32.5 42.834 -43.5 72.501s-16.5 66.167 -16.5 109.5c0 28.667 3.16699 59.334 9.5 92.001s17 62.667 32 90s35.167 50 60.5 68s57 27 95 27z
M1061 84.9922c-5.33301 1.33301 -9.66699 4.66895 -13 10.002s-5 10.666 -5 15.999c0 10.667 4.16699 18.834 12.5 24.501s17.833 8.5 28.5 8.5c14.667 0 28 -5 40 -15s18 -24.667 18 -44c0 -10 -2.66699 -20 -8 -30s-13 -19 -23 -27s-22 -14.667 -36 -20s-29.667 -8 -47 -8
h-262l216 446h-86c-14.667 0 -27.834 -0.833008 -39.501 -2.5s-17.5 -5.5 -17.5 -11.5c0 -6.66699 2.83301 -12 8.5 -16s8.5 -9.33301 8.5 -16c0 -7.33301 -4.16699 -14.333 -12.5 -21s-19.166 -10 -32.499 -10c-18.667 0 -32.834 7.16699 -42.501 21.5
s-14.5 31.166 -14.5 50.499c0 17.333 7.5 31.5 22.5 42.5s41.833 16.5 80.5 16.5h248l-214 -430c4 0 11.833 -0.333008 23.5 -1s24.167 -1.33398 37.5 -2.00098l39 -2c12.667 -0.666992 22.334 -1 29.001 -1c12 0 21.5 2 28.5 6s11.167 9 12.5 15zM239 69.9951
c35.333 0 61.333 17.5049 78 52.5049s25 84.5 25 148.5v12c0 4 -0.333008 8 -1 12c-19.333 1.33301 -33.166 5.66602 -41.499 12.999s-12.5 19.666 -12.5 36.999c0 15.333 3.33301 26.166 10 32.499s16.667 9.83301 30 10.5c-8 23.333 -18.167 39.5 -30.5 48.5
s-26.166 13.5 -41.499 13.5c-20.667 0 -38.167 -6.83301 -52.5 -20.5s-26 -31.167 -35 -52.5s-15.5 -44.833 -19.5 -70.5s-6 -50.834 -6 -75.501c0 -32.667 3 -59.334 9 -80.001s13.667 -37 23 -49s19.666 -20.333 30.999 -25s22.666 -7 33.999 -7zM259 750h85l-81 -189h-55
z" />
    <glyph glyph-name="oacute_x" unicode="&#xf3;x" horiz-adv-x="856" 
d="M601 500l91.0049 -232.001c10 10.667 20.667 22.834 32 36.501s21.666 28.167 30.999 43.5s17 31 23 47s9 31.667 9 47v9c0 2.66699 -0.333008 5.33398 -1 8.00098c-6 -2.66699 -13 -4 -21 -4c-14.667 0 -27.5 4.83301 -38.5 14.5s-16.5 22.5 -16.5 38.5
c0 14.667 5 27 15 37s22.667 15 38 15c19.333 0 35.666 -8.5 48.999 -25.5s20 -41.5 20 -73.5c0 -38.667 -10.833 -78 -32.5 -118s-52.167 -78.333 -91.5 -115l20 -49l14.5 -36c5 -12.667 10.5 -24.5 16.5 -35.5s12.667 -20 20 -27s16 -10.5 26 -10.5
c16.667 0 31.5 10.167 44.5 30.5s22.833 46.5 29.5 78.5h35c-7.33301 -42 -16.5 -75.167 -27.5 -99.5s-22.5 -42.833 -34.5 -55.5s-24.333 -20.834 -37 -24.501s-24.334 -5.5 -35.001 -5.5c-18 0 -34.333 3.5 -49 10.5s-28.5 17.667 -41.5 32s-25.5 33 -37.5 56
s-24.333 50.5 -37 82.5c-11.333 -7.33301 -22.5 -15.666 -33.5 -24.999s-21 -19 -30 -29s-16.333 -20.5 -22 -31.5s-8.5 -21.833 -8.5 -32.5c0 -4.66699 0.333008 -8.33398 1 -11.001c3.33301 1.33301 8.33301 2 15 2c13.333 0 25.5 -4.5 36.5 -13.5
s16.5 -20.833 16.5 -35.5c0 -12 -4.5 -22.833 -13.5 -32.5s-22.833 -14.5 -41.5 -14.5c-17.333 0 -33.333 6 -48 18s-22 32.667 -22 62c0 18 3.83301 36 11.5 54s17.667 35.167 30 51.5s26.5 31.333 42.5 45s32.333 25.5 49 35.5l-75 189c-14 -27.333 -33.333 -50 -58 -68
s-49.667 -30.667 -75 -38c1.33301 -7.33301 2 -14.666 2 -21.999v-22c0 -82 -15 -146.333 -45 -193s-72 -70 -126 -70c-22 0 -44.167 4 -66.5 12s-42.5 21.333 -60.5 40s-32.5 42.667 -43.5 72s-16.5 65.666 -16.5 108.999c0 29.333 3.16699 60.333 9.5 93s17 62.667 32 90
s35 50 60 68s56.167 27 93.5 27c26 0 48.167 -4 66.5 -12s33.666 -19 45.999 -33s22 -30.5 29 -49.5s12.167 -39.5 15.5 -61.5c27.333 3.33301 50.666 14.333 69.999 33s36.333 41 51 67l-20 51h114zM239.005 69.999c35.333 0 61.333 17.5049 78 52.5049s25 84.5 25 148.5
v12c0 4 -0.333008 8 -1 12c-19.333 1.33301 -33.166 5.66602 -41.499 12.999s-12.5 19.666 -12.5 36.999c0 15.333 3.33301 26.166 10 32.499s16.667 9.83301 30 10.5c-8 23.333 -18.167 39.5 -30.5 48.5s-26.166 13.5 -41.499 13.5c-20.667 0 -38.167 -6.83301 -52.5 -20.5
s-26 -31.167 -35 -52.5s-15.5 -44.833 -19.5 -70.5s-6 -50.834 -6 -75.501c0 -32.667 3 -59.334 9 -80.001s13.667 -37 23 -49s19.666 -20.333 30.999 -25s22.666 -7 33.999 -7zM264.005 750.004h85l-81 -189h-55z" />
    <glyph glyph-name="r_x" unicode="rx" horiz-adv-x="736" 
d="M481 500l91.0029 -232.001c10 10.667 20.667 22.834 32 36.501s21.666 28.167 30.999 43.5s17 31 23 47s9 31.667 9 47v9c0 2.66699 -0.333008 5.33398 -1 8.00098c-6 -2.66699 -13 -4 -21 -4c-14.667 0 -27.5 4.83301 -38.5 14.5s-16.5 22.5 -16.5 38.5
c0 14.667 5 27 15 37s22.667 15 38 15c19.333 0 35.666 -8.5 48.999 -25.5s20 -41.5 20 -73.5c0 -38.667 -10.833 -78 -32.5 -118s-52.167 -78.333 -91.5 -115l20 -49l14.5 -36c5 -12.667 10.5 -24.5 16.5 -35.5s12.667 -20 20 -27s16 -10.5 26 -10.5
c16.667 0 31.5 10.167 44.5 30.5s22.833 46.5 29.5 78.5h35c-7.33301 -42 -16.5 -75.167 -27.5 -99.5s-22.5 -42.833 -34.5 -55.5s-24.333 -20.834 -37 -24.501s-24.334 -5.5 -35.001 -5.5c-18 0 -34.333 3.5 -49 10.5s-28.5 17.667 -41.5 32s-25.5 33 -37.5 56
s-24.333 50.5 -37 82.5c-11.333 -7.33301 -22.5 -15.666 -33.5 -24.999s-21 -19 -30 -29s-16.333 -20.5 -22 -31.5s-8.5 -21.833 -8.5 -32.5c0 -4.66699 0.333008 -8.33398 1 -11.001c3.33301 1.33301 8.33301 2 15 2c13.333 0 25.5 -4.5 36.5 -13.5
s16.5 -20.833 16.5 -35.5c0 -12 -4.5 -22.833 -13.5 -32.5s-22.833 -14.5 -41.5 -14.5c-17.333 0 -33.333 6 -48 18s-22 32.667 -22 62c0 18 3.83301 36 11.5 54s17.667 35.167 30 51.5s26.5 31.333 42.5 45s32.333 25.5 49 35.5l-111 282h114zM146.003 499.999
l0.00195312 -83.999l23.5 34c7.66699 10.667 16.167 20 25.5 28s19.666 14.5 30.999 19.5s24 7.5 38 7.5c22.667 0 39.334 -5.83301 50.001 -17.5s16 -25.834 16 -42.501c0 -10 -1.66699 -18.333 -5 -25s-7.33301 -12 -12 -16s-9.66699 -6.83301 -15 -8.5s-10 -2.5 -14 -2.5
c-6 0 -10.833 1.33301 -14.5 4s-7.33398 5.5 -11.001 8.5s-7.83398 5.83301 -12.501 8.5s-10.667 4 -18 4c-15.333 0 -30 -5.33301 -44 -16s-26.667 -22 -38 -34v-368h-100v500h100z" />
    <glyph glyph-name="r_z" unicode="r&#x7a;" horiz-adv-x="600" 
d="M554 85c-5.33301 1.33301 -9.66699 4.66797 -13 10.001s-5 11 -5 17c0 9.33301 4 17 12 23s17.667 9 29 9c14.667 0 28 -5.16699 40 -15.5s18 -24.166 18 -41.499c0 -10.667 -2.66699 -21.167 -8 -31.5s-13 -19.666 -23 -27.999s-22 -15 -36 -20s-29.667 -7.5 -47 -7.5
h-262l216 446h-138c4 -5.33301 6 -11.333 6 -18c0 -11.333 -5 -22.333 -15 -33s-21.667 -16 -35 -16c-10.667 0 -18.5 2 -23.5 6s-9 8.5 -12 13.5s-6.5 9.5 -10.5 13.5s-10.333 6 -19 6c-15.333 0 -30 -5.5 -44 -16.5s-26.667 -22.167 -38 -33.5v-368h-100v500h100v-84
c14 20 26.833 35.667 38.5 47s24.667 19.666 39 24.999s31.333 8.66602 51 9.99902s44.834 2 75.501 2h248l-214 -430c4 0 11.833 -0.333008 23.5 -1s24.167 -1.33398 37.5 -2.00098l38.5 -2c12.333 -0.666992 21.166 -1 26.499 -1c26 0 40.667 7 44 21z" />
    <glyph glyph-name="s_x" unicode="sx" horiz-adv-x="692" 
d="M245 531l40 -156.5c10.667 -40.333 19.167 -74.333 25.5 -102s10.833 -52.167 13.5 -73.5s4 -45 4 -71c0 -3.33301 -0.166992 -6.16602 -0.5 -8.49902s-0.5 -5.16602 -0.5 -8.49902c22 9.33301 44.5 21 67.5 35s40.167 27.333 51.5 40l-124 314h114l96 -244l31 43
c10.667 15.333 20.334 31.166 29.001 47.499s15.834 32.666 21.501 48.999s8.5 31.833 8.5 46.5v9c0 2.66699 -0.333008 5.33398 -1 8.00098c-6 -2.66699 -13 -4 -21 -4c-14.667 0 -27.5 4.83301 -38.5 14.5s-16.5 22.5 -16.5 38.5c0 14.667 5 27 15 37s22.667 15 38 15
c19.333 0 35.666 -8.5 48.999 -25.5s20 -41.5 20 -73.5c0 -38 -10.167 -76 -30.5 -114s-49.5 -82.333 -87.5 -133l14 -35l14.5 -36c5 -12.667 10.5 -24.5 16.5 -35.5s12.667 -20 20 -27s16 -10.5 26 -10.5c16.667 0 31.5 10.167 44.5 30.5s22.833 46.5 29.5 78.5h35
c-7.33301 -42 -16.5 -75.167 -27.5 -99.5s-22.5 -42.833 -34.5 -55.5s-24.333 -20.834 -37 -24.501s-24.334 -5.5 -35.001 -5.5c-33.333 0 -61.5 12 -84.5 36s-45.833 63 -68.5 117c-12 -12 -25.333 -23 -40 -33s-29.5 -19.167 -44.5 -27.5s-29.333 -15.666 -43 -21.999
l-34.5 -15.5c-17.333 -20 -38 -34.167 -62 -42.5s-45.667 -12.5 -65 -12.5c-29.333 0 -53.5 4.66699 -72.5 14s-34.167 21.166 -45.5 35.499s-19.333 30.333 -24 48s-7 34.5 -7 50.5c0 17.333 3.5 32.5 10.5 45.5s15.5 22.167 25.5 27.5l51 148.5
c16.667 49 27.667 98.167 33 147.5zM222 139c0 20.667 -1.16602 39.001 -3.49902 55.001s-5.83301 33.667 -10.5 53l-17.5 70.5c-7 27.667 -15.167 63.167 -24.5 106.5c-4 -37.333 -12.167 -73 -24.5 -107s-23.5 -69 -33.5 -105c6 -4 11.167 -9.5 15.5 -16.5
s6.5 -16.167 6.5 -27.5c0 -12.667 -3.33301 -22.334 -10 -29.001s-14 -10 -22 -10c-10.667 0 -19.667 4.66699 -27 14c5.33301 -23.333 14.666 -41.5 27.999 -54.5s31 -19.5 53 -19.5c21.333 0 38.333 5.5 51 16.5s19 28.833 19 53.5z" />
    <glyph glyph-name="s_z" unicode="s&#x7a;" horiz-adv-x="690" 
d="M245 531l40 -156.498c10.667 -40.333 19.167 -74.333 25.5 -102s10.833 -52.167 13.5 -73.5s4 -45 4 -71c0 -24.667 -5.33301 -45.5 -16 -62.5s-24 -30.833 -40 -41.5s-33 -18.334 -51 -23.001s-34 -7 -48 -7c-29.333 0 -53.5 4.66699 -72.5 14
s-34.167 21.166 -45.5 35.499s-19.333 30.333 -24 48s-7 34.5 -7 50.5c0 17.333 3.5 32.5 10.5 45.5s15.5 22.167 25.5 27.5l51 148.5c16.667 49 27.667 98.167 33 147.5zM222 139.002c0 20.667 -1.16602 39.001 -3.49902 55.001s-5.83301 33.667 -10.5 53l-17.5 70.5
c-7 27.667 -15.167 63.167 -24.5 106.5c-4 -37.333 -12.167 -73 -24.5 -107s-23.5 -69 -33.5 -105c6 -4 11.167 -9.5 15.5 -16.5s6.5 -16.167 6.5 -27.5c0 -12.667 -3.33301 -22.334 -10 -29.001s-14 -10 -22 -10c-10.667 0 -19.667 4.66699 -27 14
c5.33301 -23.333 14.666 -41.5 27.999 -54.5s31 -19.5 53 -19.5c21.333 0 38.333 5.5 51 16.5s19 28.833 19 53.5zM644.001 85.0029c-5.33301 1.33301 -9.66699 4.66895 -13 10.002s-5 10.666 -5 15.999c0 10.667 4.16699 18.834 12.5 24.501s17.833 8.5 28.5 8.5
c14.667 0 28 -5 40 -15s18 -24.667 18 -44c0 -10 -2.66699 -20 -8 -30s-13 -19 -23 -27s-22 -14.667 -36 -20s-29.667 -8 -47 -8h-262l216 446h-86c-14.667 0 -27.834 -0.833008 -39.501 -2.5s-17.5 -5.5 -17.5 -11.5c0 -6.66699 2.83301 -12 8.5 -16s8.5 -9.33301 8.5 -16
c0 -7.33301 -4.16699 -14.333 -12.5 -21s-19.166 -10 -32.499 -10c-18.667 0 -32.834 7.16699 -42.501 21.5s-14.5 31.166 -14.5 50.499c0 17.333 7.5 31.5 22.5 42.5s41.833 16.5 80.5 16.5h248l-214 -430c4 0 11.833 -0.333008 23.5 -1s24.167 -1.33398 37.5 -2.00098
l39 -2c12.667 -0.666992 22.334 -1 29.001 -1c12 0 21.5 2 28.5 6s11.167 9 12.5 15z" />
    <glyph glyph-name="t_x" unicode="tx" horiz-adv-x="589" 
d="M147 652l0.000976562 -151.999h186l96 -244l31 43c10.667 15.333 20.334 31.166 29.001 47.499s15.834 32.666 21.501 48.999s8.5 31.833 8.5 46.5v9c0 2.66699 -0.333008 5.33398 -1 8.00098c-6 -2.66699 -13 -4 -21 -4c-14.667 0 -27.5 4.83301 -38.5 14.5
s-16.5 22.5 -16.5 38.5c0 14.667 5 27 15 37s22.667 15 38 15c19.333 0 35.666 -8.5 48.999 -25.5s20 -41.5 20 -73.5c0 -38 -10.167 -76 -30.5 -114s-49.5 -82.333 -87.5 -133l14 -35l14.5 -36c5 -12.667 10.5 -24.5 16.5 -35.5s12.667 -20 20 -27s16 -10.5 26 -10.5
c16.667 0 31.5 10.167 44.5 30.5s22.833 46.5 29.5 78.5h35c-7.33301 -42 -16.5 -75.167 -27.5 -99.5s-22.5 -42.833 -34.5 -55.5s-24.333 -20.834 -37 -24.501s-24.334 -5.5 -35.001 -5.5c-31.333 0 -57.833 10.333 -79.5 31s-42.834 53.667 -63.501 99
c-16 -27.333 -32.667 -49.5 -50 -66.5s-35 -30.167 -53 -39.5s-35.667 -15.666 -53 -18.999s-33.333 -5 -48 -5c-24 0 -43.667 4.5 -59 13.5s-27.333 20.5 -36 34.5s-14.667 29.5 -18 46.5s-5 33.833 -5 50.5v326h-34v35h34v138zM194.001 70.001
c28.667 0 57.502 7.99902 86.502 23.999s52.5 40 70.5 72c-2.66699 5.33301 -4.33398 9.66602 -5.00098 12.999l-113 286h-86v-305c0 -8 0.333008 -17.167 1 -27.5s2.5 -20.166 5.5 -29.499s7.66699 -17.166 14 -23.499s15.166 -9.5 26.499 -9.5z" />
    <glyph glyph-name="t_z" unicode="t&#x7a;" horiz-adv-x="640" 
d="M594 85c-5.33301 1.33301 -9.66699 4.66895 -13 10.002s-5 10.666 -5 15.999c0 10.667 4.16699 18.834 12.5 24.501s17.833 8.5 28.5 8.5c14.667 0 28 -5 40 -15s18 -24.667 18 -44c0 -10 -2.66699 -20 -8 -30s-13 -19 -23 -27s-22 -14.667 -36 -20s-29.667 -8 -47 -8
h-262l216 446h-86c-14.667 0 -27.834 -0.833008 -39.501 -2.5s-17.5 -5.5 -17.5 -11.5c0 -6.66699 2.83301 -12 8.5 -16s8.5 -9.33301 8.5 -16c0 -7.33301 -4.16699 -14.333 -12.5 -21s-19.166 -10 -32.499 -10c-18.667 0 -32.834 7.16699 -42.501 21.5
s-14.5 31.166 -14.5 50.499c0 17.333 7.5 31.5 22.5 42.5s41.833 16.5 80.5 16.5h248l-214 -430c4 0 11.833 -0.333008 23.5 -1s24.167 -1.33398 37.5 -2.00098l39 -2c12.667 -0.666992 22.334 -1 29.001 -1c12 0 21.5 2 28.5 6s11.167 9 12.5 15zM146.999 652.003
l0.00195312 -152.004h77v-35h-77v-305c0 -8 0.166992 -17.167 0.5 -27.5s2 -20.166 5 -29.499s7.33301 -17.166 13 -23.499s14.167 -9.5 25.5 -9.5c5.33301 0 11.833 0.666992 19.5 2s13.5 2.66602 17.5 3.99902c0.666992 -3.33301 1.16699 -6.33301 1.5 -9
s0.5 -5.66699 0.5 -9c0 -11.333 -2.5 -21.166 -7.5 -29.499s-11.5 -15 -19.5 -20s-17 -8.66699 -27 -11s-20 -3.5 -30 -3.5c-20 0 -36.333 4.16699 -49 12.5s-22.834 19.333 -30.501 33s-12.834 28.834 -15.501 45.501s-4 33.334 -4 50.001v330h-34v35h34v138z" />
    <glyph glyph-name="u_v" unicode="uv" horiz-adv-x="851" 
d="M384 500l0.00195312 -499.997h-86v77c-13.333 -29.333 -29.833 -50.5 -49.5 -63.5s-40.167 -19.5 -61.5 -19.5c-19.333 0 -37.666 2.66699 -54.999 8s-32.333 14.166 -45 26.499s-22.667 28.333 -30 48s-11 43.834 -11 72.501v351h100v-340
c0 -32.667 5.66699 -55.834 17 -69.501s25.666 -20.5 42.999 -20.5c9.33301 0 18.666 2.5 27.999 7.5s17.666 12.167 24.999 21.5s13.333 20.666 18 33.999s7 28.666 7 45.999v321h100zM820.002 337.003c0 -38 -3.16992 -77.168 -9.50293 -117.501
s-16.833 -77.166 -31.5 -110.499s-33.667 -60.833 -57 -82.5s-52.333 -32.5 -87 -32.5c-17.333 0 -34.166 3 -50.499 9s-31 14.667 -44 26s-23.333 25.666 -31 42.999s-11.5 37 -11.5 59v319l-24 11v39h124v-340c0 -11.333 0.666992 -22.333 2 -33
s4.16602 -20.167 8.49902 -28.5s10.333 -15.166 18 -20.499s17.5 -8 29.5 -8c20.667 0 38 7.5 52 22.5s25.5 34.5 34.5 58.5s15.5 50.833 19.5 80.5s6 59.167 6 88.5c0 18.667 -0.666992 37.167 -2 55.5s-3.66602 34.833 -6.99902 49.5
c-3.33301 -3.33301 -7.66602 -5.5 -12.999 -6.5s-9.66602 -1.5 -12.999 -1.5c-16 0 -28 5.66699 -36 17s-12 23.333 -12 36c0 13.333 4.33301 25.166 13 35.499s21.334 15.5 38.001 15.5c11.333 0 22.166 -3.33301 32.499 -10s19.333 -17.167 27 -31.5
s13.667 -33.166 18 -56.499s6.5 -52 6.5 -86z" />
    <glyph glyph-name="u_x" unicode="ux" horiz-adv-x="826" 
d="M570 500l96.001 -243.99l31 43c10.667 15.333 20.334 31.166 29.001 47.499s15.834 32.666 21.501 48.999s8.5 31.833 8.5 46.5v9c0 2.66699 -0.333008 5.33398 -1 8.00098c-6 -2.66699 -13 -4 -21 -4c-14.667 0 -27.5 4.83301 -38.5 14.5s-16.5 22.5 -16.5 38.5
c0 14.667 5 27 15 37s22.667 15 38 15c19.333 0 35.666 -8.5 48.999 -25.5s20 -41.5 20 -73.5c0 -38 -10.167 -76 -30.5 -114s-49.5 -82.333 -87.5 -133l14 -35l14.5 -36c5 -12.667 10.5 -24.5 16.5 -35.5s12.667 -20 20 -27s16 -10.5 26 -10.5
c16.667 0 31.5 10.167 44.5 30.5s22.833 46.5 29.5 78.5h35c-7.33301 -42 -16.5 -75.167 -27.5 -99.5s-22.5 -42.833 -34.5 -55.5s-24.333 -20.834 -37 -24.501s-24.334 -5.5 -35.001 -5.5c-15.333 0 -29.5 2.5 -42.5 7.5s-25.167 12.667 -36.5 23
s-22.166 23.666 -32.499 39.999s-20.833 35.833 -31.5 58.5c-15.333 -26.667 -31.5 -48.334 -48.5 -65.001s-34.333 -29.834 -52 -39.501s-34.667 -16.167 -51 -19.5s-31.166 -5 -44.499 -5c-35.333 0 -61 8.83301 -77 26.5s-26.333 39.834 -31 66.501
c-12.667 -32.667 -29.5 -56.334 -50.5 -71.001s-42.5 -22 -64.5 -22c-19.333 0 -37.666 2.66699 -54.999 8s-32.333 14.166 -45 26.499s-22.667 28.333 -30 48s-11 43.834 -11 72.501v351h100v-340c0 -32.667 5.66699 -55.834 17 -69.501s25.666 -20.5 42.999 -20.5
c9.33301 0 18.666 2.5 27.999 7.5s17.666 12.167 24.999 21.5s13.333 20.666 18 33.999s7 28.666 7 45.999v321h100v-340c0 -32.667 4.66699 -55.834 14 -69.501s25 -20.5 47 -20.5c24 0 49 7.5 75 22.5s48.667 39.5 68 73.5
c-2.66699 5.33301 -4.33398 9.66602 -5.00098 12.999l-127 321h114z" />
    <glyph glyph-name="y_p" unicode="yp" horiz-adv-x="876" 
d="M601 537l0.00292969 -76.998c12.667 13.333 27.5 24.166 44.5 32.499s36.833 12.5 59.5 12.5c23.333 0 45 -5 65 -15s37.5 -25.167 52.5 -45.5s26.833 -46.166 35.5 -77.499s13 -68.333 13 -111c0 -82.667 -15.667 -147 -47 -193s-74.333 -69 -129 -69
c-17.333 0 -33 1.83301 -47 5.5s-29.667 7.5 -47 11.5v-236l-101 -25v271c-41.333 -1.33301 -80 -7.33301 -116 -18v-82c0 -31.333 -3.33301 -57.833 -10 -79.5s-15.834 -39.334 -27.501 -53.001s-25 -23.5 -40 -29.5s-30.833 -9 -47.5 -9c-33.333 0 -59.333 9.66699 -78 29
s-28 42 -28 68c0 30 12.167 58.833 36.5 86.5s55.833 51.834 94.5 72.501v45c-13.333 -19.333 -28.5 -33.666 -45.5 -42.999s-34.167 -14 -51.5 -14c-19.333 0 -37.666 2.66699 -54.999 8s-32.333 14.166 -45 26.499s-22.667 28.333 -30 48s-11 43.834 -11 72.501v351h100
v-340c0 -32.667 5.66699 -55.834 17 -69.501s25.666 -20.5 42.999 -20.5c9.33301 0 18.666 2.5 27.999 7.5s17.666 12.167 24.999 21.5s13.333 20.666 18 33.999s7 28.666 7 45.999v321h100v-453c38 10.667 76.667 17.667 116 21v469h101zM670.003 440.002
c-14.667 0 -27.832 -4.16992 -39.499 -12.5029s-21.5 -20.166 -29.5 -35.499v-328c13.333 -1.33301 25.666 -2.66602 36.999 -3.99902s20.333 -2 27 -2c17.333 0 32.5 5.33301 45.5 16s24 25 33 43s15.833 39.333 20.5 64s7 51 7 79c0 34.667 -3.16699 63.667 -9.5 87
s-14.5 41.833 -24.5 55.5s-21 23.334 -33 29.001s-23.333 8.5 -34 8.5zM240.005 -198.001c18 0 29.832 6.83105 35.499 20.498s8.5 32.167 8.5 55.5v81c-28 -17.333 -50.333 -35.666 -67 -54.999s-25 -37.666 -25 -54.999c0 -11.333 3.83301 -22 11.5 -32
s19.834 -15 36.501 -15z" />
    <glyph glyph-name="y_x" unicode="yx" horiz-adv-x="826" 
d="M570 500l96.0029 -244.001l31 43c10.667 15.333 20.334 31.166 29.001 47.499s15.834 32.666 21.501 48.999s8.5 31.833 8.5 46.5v9c0 2.66699 -0.333008 5.33398 -1 8.00098c-6 -2.66699 -13 -4 -21 -4c-14.667 0 -27.5 4.83301 -38.5 14.5s-16.5 22.5 -16.5 38.5
c0 14.667 5 27 15 37s22.667 15 38 15c19.333 0 35.666 -8.5 48.999 -25.5s20 -41.5 20 -73.5c0 -38 -10.167 -76 -30.5 -114s-49.5 -82.333 -87.5 -133l14 -35l14.5 -36c5 -12.667 10.5 -24.5 16.5 -35.5s12.667 -20 20 -27s16 -10.5 26 -10.5
c16.667 0 31.5 10.167 44.5 30.5s22.833 46.5 29.5 78.5h35c-7.33301 -42 -16.5 -75.167 -27.5 -99.5s-22.5 -42.833 -34.5 -55.5s-24.333 -20.834 -37 -24.501s-24.334 -5.5 -35.001 -5.5c-16.667 0 -31.667 2.83301 -45 8.5s-26 14.334 -38 26.001s-23.333 26.667 -34 45
s-21.667 40.5 -33 66.5c-14.667 -24.667 -29.167 -45.167 -43.5 -61.5s-30 -30.166 -47 -41.499s-35.5 -21.166 -55.5 -29.499s-43 -16.5 -69 -24.5v-62c0 -31.333 -3.33301 -57.833 -10 -79.5s-15.834 -39.334 -27.501 -53.001s-25 -23.5 -40 -29.5s-30.833 -9 -47.5 -9
c-33.333 0 -59.333 9.5 -78 28.5s-28 42.5 -28 70.5c0 18 3.83301 34 11.5 48s17.667 26.667 30 38s26.333 21.166 42 29.499s31.5 15.833 47.5 22.5v64c-13.333 -19.333 -28.5 -33.666 -45.5 -42.999s-34.167 -14 -51.5 -14c-19.333 0 -37.666 2.66699 -54.999 8
s-32.333 14.166 -45 26.499s-22.667 28.333 -30 48s-11 43.834 -11 72.501v351h100v-340c0 -32.667 5.66699 -55.834 17 -69.501s25.666 -20.5 42.999 -20.5c9.33301 0 18.666 2.33301 27.999 7s17.666 11.5 24.999 20.5s13.333 19.833 18 32.5s7 27.334 7 44.001v326h100
v-481c26 8 47.5 15.667 64.5 23s32.333 16.5 46 27.5s27 25.333 40 43s28.5 40.834 46.5 69.501l-125 318h114zM240.003 -198.001c18 0 29.834 6.83203 35.501 20.499s8.5 32.167 8.5 55.5v70c-28.667 -11.333 -51.167 -24.166 -67.5 -38.499s-24.5 -32.833 -24.5 -55.5
c0 -16 4.16699 -28.667 12.5 -38s20.166 -14 35.499 -14z" />
    <glyph glyph-name="y_z" unicode="y&#x7a;" horiz-adv-x="832" 
d="M384 500l0.00292969 -578.997c0 -31.333 -3.33301 -57.833 -10 -79.5s-15.834 -39.334 -27.501 -53.001s-25 -23.5 -40 -29.5s-30.833 -9 -47.5 -9c-33.333 0 -59.333 9.5 -78 28.5s-28 42.167 -28 69.5c0 17.333 3.83301 33 11.5 47s17.667 26.833 30 38.5
s26.333 22 42 31s31.5 16.833 47.5 23.5v63c-13.333 -19.333 -28.5 -33.666 -45.5 -42.999s-34.167 -14 -51.5 -14c-19.333 0 -37.666 2.66699 -54.999 8s-32.333 14.166 -45 26.499s-22.667 28.333 -30 48s-11 43.834 -11 72.501v351h100v-340
c0 -32.667 5.66699 -55.834 17 -69.501s25.666 -20.5 42.999 -20.5c9.33301 0 18.666 2.5 27.999 7.5s17.666 12.167 24.999 21.5s13.333 20.666 18 33.999s7 28.666 7 45.999v321h100zM786.003 85.0029c-5.33301 1.33301 -9.66699 4.66895 -13 10.002s-5 10.666 -5 15.999
c0 10.667 4.16699 18.834 12.5 24.501s17.833 8.5 28.5 8.5c14.667 0 28 -5 40 -15s18 -24.667 18 -44c0 -10 -2.66699 -20 -8 -30s-13 -19 -23 -27s-22 -14.667 -36 -20s-29.667 -8 -47 -8h-262l216 446h-86c-14.667 0 -27.834 -0.833008 -39.501 -2.5
s-17.5 -5.5 -17.5 -11.5c0 -6.66699 2.83301 -12 8.5 -16s8.5 -9.33301 8.5 -16c0 -7.33301 -4.16699 -14.333 -12.5 -21s-19.166 -10 -32.499 -10c-18.667 0 -32.834 7.16699 -42.501 21.5s-14.5 31.166 -14.5 50.499c0 17.333 7.5 31.5 22.5 42.5s41.833 16.5 80.5 16.5
h248l-214 -430c4 0 11.833 -0.333008 23.5 -1s24.167 -1.33398 37.5 -2.00098l39 -2c12.667 -0.666992 22.334 -1 29.001 -1c12 0 21.5 2 28.5 6s11.167 9 12.5 15zM240.002 -197.994c18 0 29.834 6.83301 35.501 20.5s8.5 32.167 8.5 55.5v70
c-33.333 -15.333 -57 -30.5 -71 -45.5s-21 -31.833 -21 -50.5c0 -15.333 4.16699 -27.5 12.5 -36.5s20.166 -13.5 35.499 -13.5z" />
    <glyph glyph-name=".notdef" horiz-adv-x="385" 
 />
    <glyph glyph-name="space" unicode=" " horiz-adv-x="215" 
 />
    <glyph glyph-name="exclam" unicode="!" horiz-adv-x="239" 
d="M91 231l-28 469h112l-31 -469h-53zM54 61c0 18 6.33301 33.667 19 47s28.334 20 47.001 20c18 0 33.667 -6.66699 47 -20s20 -29 20 -47c0 -18.667 -6.66699 -34.334 -20 -47.001s-29 -19 -47 -19c-18.667 0 -34.334 6.33301 -47.001 19s-19 28.334 -19 47.001z" />
    <glyph glyph-name="quotedbl" unicode="&#x22;" horiz-adv-x="331" 
d="M62 750h85l-51 -189h-55zM221 750h85l-51 -189h-55z" />
    <glyph glyph-name="numbersign" unicode="#" horiz-adv-x="526" 
d="M330 141h-141v-168h-32v168h-124v66h123v126h-123v66h120v319h36v-319h141v319h36v-319h127v-66h-127v-126h127v-66h-127v-168h-36v168zM189 207h141v126h-141v-126z" />
    <glyph glyph-name="dollar" unicode="$" horiz-adv-x="379" 
d="M181 107c-22 0.666992 -42.333 3.99805 -61 9.99805s-34.834 14.333 -48.501 25s-24.334 24 -32.001 40s-11.5 34.333 -11.5 55c0 22 4.83301 39 14.5 51s21.167 18 34.5 18c16 0 31.667 -7.66699 47 -23c-11.333 -1.33301 -19.166 -7.5 -23.499 -18.5
s-6.5 -22.167 -6.5 -33.5c0 -14 2.5 -26.5 7.5 -37.5s11.5 -20.333 19.5 -28s16.833 -13.5 26.5 -17.5s19.167 -6.33301 28.5 -7v206l-44.5 29.5c-15 9.66699 -28.667 20.334 -41 32.001s-22.333 24.834 -30 39.501s-11.5 31.667 -11.5 51c0 16 3.16699 30.5 9.5 43.5
s15 24.333 26 34s23.667 17.5 38 23.5s29.833 9.66699 46.5 11v107h41v-107c14.667 -1.33301 29.334 -4.16602 44.001 -8.49902s27.834 -10.5 39.501 -18.5s21.167 -18.333 28.5 -31s11 -27.667 11 -45c0 -12 -2.33301 -24.5 -7 -37.5s-12.334 -19.5 -23.001 -19.5
c-3.33301 0 -8.33301 1.16699 -15 3.5s-14.334 7.16602 -23.001 14.499c5.33301 6 9.16602 13.167 11.499 21.5s3.5 16.166 3.5 23.499c0 17.333 -6 32.333 -18 45s-30.667 20.334 -56 23.001v-171l49 -30c16.667 -10.667 31.834 -22.834 45.501 -36.501
s24.834 -29.667 33.501 -48s13 -39.5 13 -63.5c0 -20 -3.83301 -37.667 -11.5 -53s-18.167 -28.166 -31.5 -38.499s-29 -18.5 -47 -24.5s-37.667 -9.33301 -59 -10v-134h-14zM264 221.998c0 23.333 -5.83301 43.333 -17.5 60s-26.834 31.667 -45.501 45v-185
c18.667 2.66699 33.834 11 45.501 25s17.5 32.333 17.5 55zM122 511.998c0 -17.333 4.83301 -32.334 14.5 -45.001s21.167 -24.334 34.5 -35.001v148c-18 -5.33301 -30.667 -14.666 -38 -27.999s-11 -26.666 -11 -39.999z" />
    <glyph glyph-name="percent" unicode="%" horiz-adv-x="614" 
d="M214 0h-60l247 750h60zM147 702c22 0 40.333 -4.66504 55 -13.998s26.167 -21.5 34.5 -36.5s14.166 -32 17.499 -51s5 -38.5 5 -58.5c0 -19.333 -2.16699 -39 -6.5 -59s-11.333 -38 -21 -54s-22 -29.167 -37 -39.5s-33.5 -15.5 -55.5 -15.5
c-34 0 -61.333 13.167 -82 39.5s-31 68.166 -31 125.499c0 23.333 2.66699 45 8 65s13.333 37.167 24 51.5s23.334 25.666 38.001 33.999s31.667 12.5 51 12.5zM82 535.002c0 -9.33301 0.498047 -20.8379 1.49805 -34.5049s3.66699 -27 8 -40s10.833 -24.167 19.5 -33.5
s20.334 -14 35.001 -14c10 0 18.833 3.33301 26.5 10s14.167 15.834 19.5 27.501s9.33301 25.334 12 41.001s4 32.5 4 50.5c0 24.667 -1.66699 45.334 -5 62.001s-7.66602 29.834 -12.999 39.501s-11.333 16.5 -18 20.5s-13.667 6 -21 6c-10.667 0 -20.167 -3.5 -28.5 -10.5
s-15.5 -16.667 -21.5 -29s-10.667 -26.666 -14 -42.999s-5 -33.833 -5 -52.5zM479.998 327.997c22 0 40.167 -4.66504 54.5 -13.998s25.666 -21.5 33.999 -36.5s14.166 -32 17.499 -51s5 -38.5 5 -58.5c0 -19.333 -2.16699 -39 -6.5 -59s-11.166 -38 -20.499 -54
s-21.666 -29.167 -36.999 -39.5s-34 -15.5 -56 -15.5c-34 0 -61.333 13.167 -82 39.5s-31 68.166 -31 125.499c0 23.333 2.83301 45 8.5 65s13.667 37.167 24 51.5s23 25.666 38 33.999s32.167 12.5 51.5 12.5zM414.998 160.999
c0 -9.33301 0.500977 -20.8379 1.50098 -34.5049s3.66699 -27 8 -40s10.666 -24.167 18.999 -33.5s19.833 -14 34.5 -14c10 0 19 3.33301 27 10s14.667 15.834 20 27.501s9.33301 25.334 12 41.001s4 32.5 4 50.5c0 24.667 -1.66699 45.334 -5 62.001
s-7.66602 29.834 -12.999 39.501s-11.333 16.5 -18 20.5s-13.667 6 -21 6c-10.667 0 -20.334 -3.5 -29.001 -10.5s-16 -16.667 -22 -29s-10.5 -26.666 -13.5 -42.999s-4.5 -33.833 -4.5 -52.5z" />
    <glyph glyph-name="ampersand" unicode="&#x26;" horiz-adv-x="643" 
d="M637 413c0.666992 -2 1 -4.16602 1 -6.49902v-6.5c0 -12 -3.33301 -24.167 -10 -36.5s-15.834 -23.5 -27.501 -33.5s-25.5 -18.5 -41.5 -25.5s-33.667 -11.167 -53 -12.5c-1.33301 -48 -7.66602 -91.167 -18.999 -129.5s-27.666 -70.833 -48.999 -97.5
s-47.333 -47.167 -78 -61.5s-66 -21.5 -106 -21.5s-74 6.83301 -102 20.5s-50.5 31.167 -67.5 52.5s-29.333 45.5 -37 72.5s-11.5 53.833 -11.5 80.5c0 52.667 12.5 96.5 37.5 131.5s57.5 60.833 97.5 77.5c-32 20 -55 43 -69 69s-21 53.333 -21 82c0 22 4 44 12 66
s20.333 41.667 37 59s37.167 31.5 61.5 42.5s53.166 16.5 86.499 16.5c18 0 36.167 -2 54.5 -6s34.833 -10.833 49.5 -20.5s26.5 -22.667 35.5 -39s13.5 -36.833 13.5 -61.5c0 -25.333 -5 -45.333 -15 -60s-23.333 -22 -40 -22c-18 0 -35.667 9 -53 27
c9.33301 4 18.5 12.167 27.5 24.5s13.5 28.166 13.5 47.499c0 12.667 -2.33301 23.5 -7 32.5s-10.834 16.5 -18.501 22.5s-16.167 10.333 -25.5 13s-19 4 -29 4c-18 0 -34 -4 -48 -12s-25.667 -18.5 -35 -31.5s-16.5 -27.833 -21.5 -44.5s-7.5 -34 -7.5 -52
c0 -8 1 -19.333 3 -34s6.66699 -30 14 -46s18.5 -31 33.5 -45s35.5 -24.333 61.5 -31c-44 -10 -77.833 -32.5 -101.5 -67.5s-35.5 -76.5 -35.5 -124.5s12.833 -87.5 38.5 -118.5s65.5 -46.5 119.5 -46.5c32.667 0 59.834 6 81.501 18s39 28.5 52 49.5s22.333 45.5 28 73.5
s9.16699 58 10.5 90l-38 4c-12.667 1.33301 -24.667 2 -36 2c-44 0 -72.333 -15 -85 -45l-7 1c2 36 16.5 65.167 43.5 87.5s64.5 33.5 112.5 33.5c15.333 0 29 -0.833008 41 -2.5s24 -2.5 36 -2.5c19.333 0 37.333 3.33301 54 10s27.667 17.667 33 33h6z" />
    <glyph glyph-name="quotesingle" unicode="'" horiz-adv-x="172" 
d="M62 750h85l-51 -189h-55z" />
    <glyph glyph-name="parenleft" unicode="(" horiz-adv-x="270" 
d="M257 723c-25.333 -13.333 -47.834 -36.1699 -67.501 -68.5029s-36 -70.166 -49 -113.499s-22.833 -90.166 -29.5 -140.499s-10 -100.166 -10 -149.499c0 -30 2 -65.167 6 -105.5s11.833 -82 23.5 -125s28.334 -85.833 50.001 -128.5s50.5 -82 86.5 -118l-22 -24
c-70 62.667 -122 137.167 -156 223.5s-51 178.5 -51 276.5c0 51.333 4.33301 102.833 13 154.5s21.667 100 39 145s39 85.167 65 120.5s56 62 90 80z" />
    <glyph glyph-name="parenright" unicode=")" horiz-adv-x="270" 
d="M14 -223c25.333 13.333 47.668 36.1699 67.001 68.5029s35.5 70.166 48.5 113.499s22.833 90.166 29.5 140.499s10 100.166 10 149.499c0 30 -2 65.167 -6 105.5s-11.833 82 -23.5 125s-28.334 85.833 -50.001 128.5s-50.5 82 -86.5 118l23 24
c69.333 -62.667 121 -137.167 155 -223.5s51 -178.5 51 -276.5c0 -51.333 -4.33301 -102.833 -13 -154.5s-21.667 -100 -39 -145s-39 -85.167 -65 -120.5s-56 -62 -90 -80z" />
    <glyph glyph-name="asterisk" unicode="*" horiz-adv-x="396" 
d="M224 752v-146l116 67l24 -40l-120 -69l120 -69l-24 -40l-116 67v-146h-52v146l-116 -67l-24 40l119 69l-119 69l24 40l116 -67v146h52z" />
    <glyph glyph-name="plus" unicode="+" horiz-adv-x="430" 
d="M399 247h-142v-143h-83v143h-143v70h143v122h83v-122h142v-70z" />
    <glyph glyph-name="comma" unicode="," horiz-adv-x="216" 
d="M39 69c0 8.66699 2.00391 16.668 6.00391 24.001s9.16699 13.5 15.5 18.5s13.333 9 21 12s15.167 4.5 22.5 4.5c25.333 0 43.5 -7.66699 54.5 -23s16.5 -34.333 16.5 -57c0 -16 -2.5 -32.833 -7.5 -50.5s-11.667 -34.667 -20 -51s-18 -31 -29 -44
s-22.833 -22.5 -35.5 -28.5c-6 3.33301 -9.83301 7.16602 -11.5 11.499s-2.5 8.5 -2.5 12.5c0 6.66699 1.16699 13.5 3.5 20.5s4.83301 13.833 7.5 20.5s5.16699 13.334 7.5 20.001s3.5 13 3.5 19c0 10 -1.33301 17.167 -4 21.5s-5.83398 7.66602 -9.50098 9.99902
s-7.83398 4 -12.501 5s-8.83398 3.33301 -12.501 7s-6.83398 9 -9.50098 16s-4 17.5 -4 31.5z" />
    <glyph glyph-name="hyphen" unicode="-" horiz-adv-x="318" 
d="M259 231h-200v70h200v-70z" />
    <glyph glyph-name="period" unicode="." horiz-adv-x="209" 
d="M38 61c0 18 6.33301 33.667 19 47s28.334 20 47.001 20c18 0 33.667 -6.66699 47 -20s20 -29 20 -47c0 -18.667 -6.66699 -34.334 -20 -47.001s-29 -19 -47 -19c-18.667 0 -34.334 6.33301 -47.001 19s-19 28.334 -19 47.001z" />
    <glyph glyph-name="slash" unicode="/" horiz-adv-x="504" 
d="M65 -250h-50l425 1000h50z" />
    <glyph glyph-name="zero" unicode="0" horiz-adv-x="588" 
d="M304 750c44.667 0 82.002 -10.1689 112.002 -30.502s54.333 -47.166 73 -80.499s32 -71.666 40 -114.999s12 -88 12 -134c0 -48 -4.33301 -95.667 -13 -143s-22.834 -89.833 -42.501 -127.5s-45.5 -68 -77.5 -91s-71.333 -34.5 -118 -34.5
c-35.333 0 -67.833 7.33301 -97.5 22s-55.334 37 -77.001 67s-38.667 68 -51 114s-18.5 100.333 -18.5 163c0 58 5.5 111 16.5 159s27.333 89.167 49 123.5s48.667 60.833 81 79.5s69.5 28 111.5 28zM171.002 362.998c0 -35.333 2.16699 -70.501 6.5 -105.501
s11.666 -66.5 21.999 -94.5s23.833 -50.667 40.5 -68s37.334 -26 62.001 -26s45.667 9.16699 63 27.5s31.333 43 42 74s18.334 66.667 23.001 107s7 82.5 7 126.5c0 58.667 -3.66699 107.167 -11 145.5s-16.833 68.666 -28.5 90.999s-24.834 37.833 -39.501 46.5
s-29 13 -43 13c-23.333 0 -44 -9.5 -62 -28.5s-33 -44.167 -45 -75.5s-21.167 -67.166 -27.5 -107.499s-9.5 -82.166 -9.5 -125.499z" />
    <glyph glyph-name="one" unicode="1" horiz-adv-x="308" 
d="M231 0l-108 -0.000976562v618h-112l3 52c12.667 0 26.667 0.833008 42 2.5s32 5.33398 50 11.001s37.333 13.5 58 23.5s43 23.667 67 41v-748z" />
    <glyph glyph-name="two" unicode="2" horiz-adv-x="505" 
d="M147 96c28.667 0 59.5029 -3 92.5029 -9s66.167 -9 99.5 -9c18 0 33.333 1.33301 46 4s23.5 6.83398 32.5 12.501s16.833 12.834 23.5 21.501s13.667 19 21 31c4.66699 -11.333 8.33398 -23 11.001 -35s4 -23.667 4 -35c0 -16.667 -2.83301 -30.5 -8.5 -41.5
s-13.167 -19.833 -22.5 -26.5s-20.5 -11.334 -33.5 -14.001s-26.833 -4 -41.5 -4c-19.333 0 -39.666 1.66699 -60.999 5s-42 7 -62 11l-56 11c-17.333 3.33301 -32 5 -44 5c-16.667 0 -33.167 -1.83301 -49.5 -5.5s-32.833 -10.167 -49.5 -19.5
c-2 3.33301 -4.66699 9.5 -8 18.5s-5 22.833 -5 41.5c0 32.667 7.16699 62.667 21.5 90s32.166 53.833 53.499 79.5s44.333 51 69 76s47.667 51.333 69 79s39.166 57.167 53.499 88.5s21.5 66.333 21.5 105c0 36.667 -7.66699 66.5 -23 89.5s-40 34.5 -74 34.5
c-31.333 0 -55 -9 -71 -27s-24 -38.667 -24 -62c0 -10.667 2.33301 -23.5 7 -38.5s13.667 -27.167 27 -36.5c-8 -9.33301 -16.5 -15.833 -25.5 -19.5s-17.5 -5.5 -25.5 -5.5c-12 0 -22.333 2.83301 -31 8.5s-15.834 13.334 -21.501 23.001s-10 20.5 -13 32.5
s-4.5 24 -4.5 36c0 43.333 16.833 77.166 50.5 101.499s80.5 36.5 140.5 36.5c41.333 0 75.166 -5.66699 101.499 -17s47.166 -26 62.499 -44s26 -38.167 32 -60.5s9 -44.5 9 -66.5c0 -40.667 -7.83301 -77 -23.5 -109s-35.167 -61.333 -58.5 -88
s-48.833 -51.167 -76.5 -73.5l-78.5 -65c-24.667 -21 -45.667 -42.333 -63 -64s-27.333 -44.834 -30 -69.501c10 2.66699 22 4 36 4z" />
    <glyph glyph-name="three" unicode="3" horiz-adv-x="533" 
d="M196 257c-28.667 -1.33301 -48.002 -10.167 -58.002 -26.5s-15 -35.166 -15 -56.499c0 -22 3.83301 -40.167 11.5 -54.5s17.167 -25.5 28.5 -33.5s24 -13.667 38 -17s27.333 -5 40 -5c24.667 0 45.667 4.5 63 13.5s31.5 20.833 42.5 35.5s19 31.167 24 49.5
s7.5 36.5 7.5 54.5c0 23.333 -4 46.333 -12 69s-20 43.334 -36 62.001s-36.333 34.167 -61 46.5s-53.667 20.166 -87 23.499c28.667 6.66699 53.834 16.334 75.501 29.001s39.834 26.834 54.501 42.501s25.5 32.167 32.5 49.5s10.5 34.666 10.5 51.999
c0 14 -2.33301 27.5 -7 40.5s-11.667 24.5 -21 34.5s-20.666 18 -33.999 24s-28.666 9 -45.999 9c-28.667 0 -50.334 -7.33301 -65.001 -22s-22 -31.667 -22 -51c0 -14 4.16699 -27.833 12.5 -41.5s21.166 -26.5 38.499 -38.5c-18 -20.667 -38.333 -31 -61 -31
c-21.333 0 -39.666 8.83301 -54.999 26.5s-23 41.5 -23 71.5c0 22.667 5 42.667 15 60s23.333 31.5 40 42.5s36 19.333 58 25s44.667 8.5 68 8.5c24.667 0 49.167 -3.16699 73.5 -9.5s46 -15.833 65 -28.5s34.333 -29 46 -49s17.5 -43.333 17.5 -70
c0 -17.333 -2.66699 -34.833 -8 -52.5s-12.833 -34.167 -22.5 -49.5s-21.334 -29.333 -35.001 -42s-28.834 -23 -45.501 -31c56.667 -22.667 97.5 -49.667 122.5 -81s37.5 -68.666 37.5 -111.999c0 -30.667 -6.83301 -59.834 -20.5 -87.501s-32.334 -52 -56.001 -73
s-51.167 -37.833 -82.5 -50.5s-65 -19 -101 -19c-17.333 0 -38.166 2.16699 -62.499 6.5s-47.666 13.166 -69.999 26.499s-41.5 32.666 -57.5 57.999s-24 59 -24 101c0 38 8 67.333 24 88s38.333 31 67 31c6 0 12.5 -0.5 19.5 -1.5s14 -3.33301 21 -7
s13.5 -8.66699 19.5 -15s11 -14.5 15 -24.5z" />
    <glyph glyph-name="four" unicode="4" horiz-adv-x="476" 
d="M376 750l-0.000976562 -401h83l-2 -59h-81v-290h-108v290h-258c2.66699 24.667 9.83398 49.5 21.501 74.5l36 78c12.333 27 23.5 55.333 33.5 85s15 62.167 15 97.5c0 10 -0.5 21 -1.5 33s-2.33301 23.5 -4 34.5s-3.66699 21.5 -6 31.5s-4.83301 18 -7.5 24
c32 -0.666992 56.833 -13 74.5 -37s26.5 -55.667 26.5 -95c0 -29.333 -4.5 -55.666 -13.5 -78.999s-19.667 -45.5 -32 -66.5l-37.5 -61c-12.667 -19.667 -22.667 -39.834 -30 -60.501h183v386z" />
    <glyph glyph-name="five" unicode="5" horiz-adv-x="505" 
d="M420 749c4 -10 7.16309 -19.333 9.49609 -28s3.5 -18 3.5 -28c0 -22.667 -7 -41.167 -21 -55.5s-38.333 -21.5 -73 -21.5c-13.333 0 -27.166 1 -41.499 3s-28.5 4.33301 -42.5 7l-40.5 8l-35.5 7l-41 -207c21.333 11.333 41.833 19.333 61.5 24s39.834 7 60.501 7
c36 0 67.333 -6.33301 94 -19s48.667 -29.667 66 -51s30.166 -45.833 38.499 -73.5s12.5 -56.5 12.5 -86.5c0 -31.333 -4.66699 -61.5 -14 -90.5s-23.5 -54.667 -42.5 -77s-43 -40.166 -72 -53.499s-63.5 -20 -103.5 -20c-23.333 0 -47.166 2.83301 -71.499 8.5
s-46.5 15.167 -66.5 28.5s-36.5 31.166 -49.5 53.499s-19.5 50.5 -19.5 84.5c0 38 7.66699 66.167 23 84.5s34.333 27.5 57 27.5c14.667 0 28.667 -4.16699 42 -12.5s24 -21.166 32 -38.499c-44.667 -4 -67 -26.667 -67 -68c0 -16.667 3.16699 -31.334 9.5 -44.001
s14.666 -23.5 24.999 -32.5s22.333 -15.833 36 -20.5s27.834 -7 42.501 -7c22.667 0 42 5.16699 58 15.5s29 23.666 39 39.999s17.333 34.5 22 54.5s7 40 7 60c0 52.667 -14.333 93 -43 121s-66 42 -112 42c-30 0 -57.667 -4.83301 -83 -14.5s-45.666 -20.167 -60.999 -31.5
l70 387l79.5 -11.5c21.667 -3 44.834 -4.5 69.501 -4.5c26.667 0 50.5 2.33301 71.5 7s44.5 13.334 70.5 26.001z" />
    <glyph glyph-name="six" unicode="6" horiz-adv-x="544" 
d="M210 330c-9.33301 11.333 -14 23.332 -14 35.999c0 10.667 2.83301 21.167 8.5 31.5s13.834 19.666 24.501 27.999s23.667 15 39 20s32.666 7.5 51.999 7.5c28 0 53.667 -5.33301 77 -16s43.5 -25.334 60.5 -44.001s30.333 -41 40 -67s14.5 -54.333 14.5 -85
c0 -30 -4.66699 -59.833 -14 -89.5s-23.666 -56.167 -42.999 -79.5s-43.666 -42.166 -72.999 -56.499s-63.666 -21.5 -102.999 -21.5c-33.333 0 -64.5 6 -93.5 18s-54 31.167 -75 57.5s-37.5 60.333 -49.5 102s-18 92.167 -18 151.5c0 56 5.83301 109.667 17.5 161
s29.167 96.833 52.5 136.5s52.5 71.167 87.5 94.5s76.167 35 123.5 35c22.667 0 43.167 -2.66699 61.5 -8s33.833 -12.5 46.5 -21.5s22.334 -19.167 29.001 -30.5s10 -23 10 -35c0 -6 -1 -12.5 -3 -19.5s-5 -13.5 -9 -19.5s-9.33301 -10.833 -16 -14.5
s-14.667 -5.5 -24 -5.5c-4.66699 0 -8.83398 0.333008 -12.501 1s-7.83398 1.66699 -12.501 3c6.66699 8.66699 10 20.334 10 35.001c0 18 -7 34 -21 48s-32.333 21 -55 21c-27.333 0 -52 -11.167 -74 -33.5s-40.667 -51.666 -56 -87.999s-27.333 -78 -36 -125
s-13 -94.833 -13 -143.5c0 -33.333 2.16699 -64.833 6.5 -94.5s11.666 -55.5 21.999 -77.5s24.5 -39.5 42.5 -52.5s40.667 -19.5 68 -19.5c26 0 47.5 5.5 64.5 16.5s30.667 25 41 42s17.666 35.5 21.999 55.5s6.5 39.333 6.5 58c0 42 -9.66699 76.833 -29 104.5
s-48.333 41.5 -87 41.5c-19.333 0 -36.833 -4.33301 -52.5 -13s-30.167 -23.667 -43.5 -45z" />
    <glyph glyph-name="seven" unicode="7" horiz-adv-x="448" 
d="M444 732c0.666992 -1.33301 1.00391 -2.67285 1.00391 -4.00586v-4c0 -16 -5.5 -35 -16.5 -57s-24.833 -46.5 -41.5 -73.5l-54 -88c-19.333 -31.667 -37.333 -65.667 -54 -102s-30.5 -74.666 -41.5 -114.999s-16.5 -82.166 -16.5 -125.499
c0 -41.333 4.16699 -74.166 12.5 -98.499s15.833 -43.5 22.5 -57.5c-20.667 -10.667 -40.334 -16 -59.001 -16c-20 0 -36.5 5.33301 -49.5 16s-23.333 24 -31 40s-13.167 33.333 -16.5 52s-5 36 -5 52c0 34.667 5.83301 68.834 17.5 102.501s26.167 66.334 43.5 98.001
s36.166 62 56.499 91l57 81.5c17.667 25.333 32.334 48.166 44.001 68.499s17.5 38.166 17.5 53.499c-16 4 -36.167 8.16699 -60.5 12.5s-48.166 6.5 -71.499 6.5c-10 0 -21.167 -0.666992 -33.5 -2s-23.833 -4.16602 -34.5 -8.49902s-19.5 -10.5 -26.5 -18.5
s-10.5 -18.333 -10.5 -31v-8c0 -2.66699 0.666992 -5.66699 2 -9c-11.333 0 -21.833 2.66699 -31.5 8s-18.334 12.5 -26.001 21.5s-13.667 19.167 -18 30.5s-6.5 23.333 -6.5 36c0 13.333 2.66699 24.333 8 33s12.5 15.334 21.5 20.001s19.667 7.83398 32 9.50098
s25.166 2.5 38.499 2.5c20 0 40.5 -1.33301 61.5 -4s42.167 -5.5 63.5 -8.5s42.666 -5.83301 63.999 -8.5s42.333 -4 63 -4c11.333 0 23.666 0.5 36.999 1.5s27 3.16699 41 6.5z" />
    <glyph glyph-name="eight" unicode="8" horiz-adv-x="529" 
d="M262 66c18 0 34.167 4.16504 48.5 12.498s26.5 19.333 36.5 33s17.5 29.167 22.5 46.5s7.5 35 7.5 53c0 69.333 -40 124.666 -120 165.999c-16.667 -6 -32.167 -14.5 -46.5 -25.5s-26.666 -23.833 -36.999 -38.5s-18.333 -30.667 -24 -48s-8.5 -34.666 -8.5 -51.999
c0 -16 2.66699 -32.667 8 -50s13.166 -33.166 23.499 -47.499s23 -26.166 38 -35.499s32.167 -14 51.5 -14zM261 -6.00195c-34 0 -64.8311 5.50684 -92.498 16.5068s-51.167 26.167 -70.5 45.5s-34.166 42.666 -44.499 69.999s-15.5 57 -15.5 89
c0 50.667 12.5 93.167 37.5 127.5s60.5 59.166 106.5 74.499c-36.667 20.667 -63.667 45.667 -81 75s-26 59.666 -26 90.999c0 21.333 4 42 12 62s20 37.833 36 53.5s35.667 28.167 59 37.5s50.333 14 81 14c28.667 0 54.667 -4.33301 78 -13s43.166 -20.334 59.499 -35.001
s28.833 -31.834 37.5 -51.501s13 -40.834 13 -63.501c0 -30 -8.16699 -60.833 -24.5 -92.5s-42.166 -57.5 -77.499 -77.5c26 -8.66699 48 -19.834 66 -33.501s32.667 -29.167 44 -46.5s19.666 -36 24.999 -56s8 -40.333 8 -61c0 -30.667 -5.16699 -59.667 -15.5 -87
s-25.333 -51.333 -45 -72s-43.834 -37 -72.501 -49s-61.334 -18 -98.001 -18zM262.002 450.005c14.667 8.66699 28 19.167 40 31.5s22 25.5 30 39.5s14.167 28.333 18.5 43s6.5 28.667 6.5 42c0 12.667 -2 25 -6 37s-9.83301 22.5 -17.5 31.5s-17 16.167 -28 21.5
s-23.833 8 -38.5 8c-30 0 -53.5 -10.833 -70.5 -32.5s-25.5 -47.5 -25.5 -77.5c0 -26 7.16699 -52 21.5 -78s37.5 -48 69.5 -66z" />
    <glyph glyph-name="nine" unicode="9" horiz-adv-x="543" 
d="M333 434c9.33301 -11.333 13.9961 -23.3301 13.9961 -35.9971c0 -10.667 -2.83301 -21.167 -8.5 -31.5s-13.834 -19.666 -24.501 -27.999s-23.667 -15 -39 -20s-32.666 -7.5 -51.999 -7.5c-28 0 -53.667 5 -77 15s-43.5 24 -60.5 42s-30.333 39.333 -40 64
s-14.5 51.667 -14.5 81c0 28.667 4.83301 57.167 14.5 85.5s24.167 53.833 43.5 76.5s43.5 40.834 72.5 54.501s62.833 20.5 101.5 20.5c33.333 0 64.5 -6 93.5 -18s54.167 -31.167 75.5 -57.5s38 -60.333 50 -102s18 -92.167 18 -151.5c0 -56 -5.83301 -109.667 -17.5 -161
s-29.167 -96.833 -52.5 -136.5s-52.666 -71.167 -87.999 -94.5s-76.666 -35 -123.999 -35c-22.667 0 -43 4.16699 -61 12.5s-33.167 18.666 -45.5 30.999s-21.833 25.666 -28.5 39.999s-10 27.5 -10 39.5c0 6 1 12.5 3 19.5s5 13.5 9 19.5s9.33301 10.833 16 14.5
s14.667 5.5 24 5.5c4.66699 0 8.83398 -0.333008 12.501 -1s7.83398 -1.66699 12.501 -3c-6.66699 -8.66699 -10 -20.334 -10 -35.001c0 -18 7 -34 21 -48s32.333 -21 55 -21c26.667 0 51 9.66699 73 29s40.833 45.5 56.5 78.5s27.667 71.333 36 115s12.5 90.167 12.5 139.5
c0 33.333 -2.16699 65.666 -6.5 96.999s-11.666 59.166 -21.999 83.499s-24.5 43.833 -42.5 58.5s-40.667 22 -68 22c-24.667 0 -45.5 -6 -62.5 -18s-30.833 -27 -41.5 -45s-18.334 -37.5 -23.001 -58.5s-7 -40.167 -7 -57.5c0 -39.333 9.66699 -71.833 29 -97.5
s48.333 -38.5 87 -38.5c19.333 0 36.833 4.33301 52.5 13s30.167 23.667 43.5 45z" />
    <glyph glyph-name="colon" unicode=":" horiz-adv-x="251" 
d="M59 386c0 18 6.33301 33.667 19 47s28.334 20 47.001 20c18 0 33.667 -6.66699 47 -20s20 -29 20 -47c0 -18.667 -6.66699 -34.334 -20 -47.001s-29 -19 -47 -19c-18.667 0 -34.334 6.33301 -47.001 19s-19 28.334 -19 47.001zM59 145c0 18 6.33301 33.667 19 47
s28.334 20 47.001 20c18 0 33.667 -6.66699 47 -20s20 -29 20 -47c0 -18.667 -6.66699 -34.334 -20 -47.001s-29 -19 -47 -19c-18.667 0 -34.334 6.33301 -47.001 19s-19 28.334 -19 47.001z" />
    <glyph glyph-name="semicolon" unicode=";" horiz-adv-x="247" 
d="M56 152c0 8.66699 2.00391 16.668 6.00391 24.001s9.16699 13.5 15.5 18.5s13.333 9 21 12s15.167 4.5 22.5 4.5c25.333 0 43.5 -7.66699 54.5 -23s16.5 -34.333 16.5 -57c0 -16 -2.5 -32.833 -7.5 -50.5s-11.667 -34.667 -20 -51s-18 -31 -29 -44
s-22.833 -22.5 -35.5 -28.5c-6 3.33301 -9.83301 7.16602 -11.5 11.499s-2.5 8.5 -2.5 12.5c0 6.66699 1.16699 13.5 3.5 20.5s4.83301 13.833 7.5 20.5s5.16699 13.334 7.5 20.001s3.5 13 3.5 19c0 10 -1.33301 17.167 -4 21.5s-5.83398 7.66602 -9.50098 9.99902
s-7.83398 4 -12.501 5s-8.83398 3.33301 -12.501 7s-6.83398 9 -9.50098 16s-4 17.5 -4 31.5zM55.0039 386.001c0 18 6.33301 33.667 19 47s28.334 20 47.001 20c18 0 33.667 -6.66699 47 -20s20 -29 20 -47c0 -18.667 -6.66699 -34.334 -20 -47.001s-29 -19 -47 -19
c-18.667 0 -34.334 6.33301 -47.001 19s-19 28.334 -19 47.001z" />
    <glyph glyph-name="less" unicode="&#x3c;" horiz-adv-x="359" 
d="M302 374l-219 -120l219 -96v-57l-275 124v54l275 150v-55z" />
    <glyph glyph-name="equal" unicode="=" horiz-adv-x="466" 
d="M403 316h-340v80h340v-80zM403 133h-340v80h340v-80z" />
    <glyph glyph-name="greater" unicode="&#x3e;" horiz-adv-x="359" 
d="M57 429l275 -150v-54l-275 -124v57l219 96l-219 120v55z" />
    <glyph glyph-name="question" unicode="?" horiz-adv-x="415" 
d="M392 546c0 -24 -4.49805 -45.3252 -13.498 -63.9922s-20.167 -35.834 -33.5 -51.501s-28 -30.667 -44 -45s-30.833 -29 -44.5 -44s-25.334 -31.333 -35.001 -49s-15.167 -37.834 -16.5 -60.501h-46c-2 10 -3 19.333 -3 28c0 27.333 7.33301 51.833 22 73.5
s31 43.167 49 64.5s34.333 43.666 49 66.999s22 50.666 22 81.999c0 20 -3.16699 37 -9.5 51s-14.5 25.167 -24.5 33.5s-21.333 14.5 -34 18.5s-25.334 6 -38.001 6c-12 0 -23.5 -2 -34.5 -6s-20.667 -9.5 -29 -16.5s-15.166 -15.333 -20.499 -25s-8 -20.5 -8 -32.5
c0 -14.667 6.66699 -30.334 20 -47.001s34.666 -27.334 63.999 -32.001c-5.33301 -14 -13.833 -24.5 -25.5 -31.5s-24.5 -10.5 -38.5 -10.5c-11.333 0 -22.833 2.16699 -34.5 6.5s-22.167 11 -31.5 20s-16.833 20.167 -22.5 33.5s-8.5 28.666 -8.5 45.999
c0 16 3.16699 32.167 9.5 48.5s16.5 31.166 30.5 44.499s32.333 24.333 55 33s50.667 13 84 13c32 0 59.833 -4 83.5 -12s43.5 -19 59.5 -33s27.833 -30.333 35.5 -49s11.5 -38.667 11.5 -60zM116.002 61.0078c0 18 6.33301 33.667 19 47s28.334 20 47.001 20
c18 0 33.667 -6.66699 47 -20s20 -29 20 -47c0 -18.667 -6.66699 -34.334 -20 -47.001s-29 -19 -47 -19c-18.667 0 -34.334 6.33301 -47.001 19s-19 28.334 -19 47.001z" />
    <glyph glyph-name="at" unicode="@" horiz-adv-x="565" 
d="M238 -38c-23.333 0 -47.1582 3.33105 -71.4912 9.99805s-46.333 17.834 -66 33.501s-35.667 36.334 -48 62.001s-18.5 57.834 -18.5 96.501c0 54.667 9 105.834 27 153.501s42.5 89.167 73.5 124.5s67.167 63.333 108.5 84s85.333 31 132 31
c15.333 0 32.166 -1.66699 50.499 -5s35.5 -10.5 51.5 -21.5s29.333 -26.833 40 -47.5s16 -48.334 16 -83.001c0 -32.667 -4.5 -64.667 -13.5 -96s-21.333 -59.5 -37 -84.5s-34.167 -45.167 -55.5 -60.5s-44 -23 -68 -23c-12 0 -22 2.33301 -30 7s-14.333 10.667 -19 18
c-7.33301 -11.333 -16.5 -21 -27.5 -29s-23.5 -12 -37.5 -12c-18 0 -33 7.16699 -45 21.5s-18 36.5 -18 66.5c0 22 3.66699 46 11 72s17.166 50.333 29.499 73s26.666 41.5 42.999 56.5s33.5 22.5 51.5 22.5c9.33301 0 17.333 -1.66699 24 -5s11.667 -7.33301 15 -12l4 15
l55 -6l-45 -192c-1.33301 -4 -2.83301 -9.33301 -4.5 -16s-2.5 -13.334 -2.5 -20.001c0 -5.33301 1.16699 -10 3.5 -14s6.16602 -6 11.499 -6c12.667 0 25.5 7.16699 38.5 21.5s24.5 32.166 34.5 53.499s18.167 44.5 24.5 69.5s9.5 48.5 9.5 70.5
c0 15.333 -1.83301 30.333 -5.5 45s-9.83398 27.834 -18.501 39.501s-20.167 21 -34.5 28s-32.5 10.5 -54.5 10.5c-38 0 -72.833 -10.5 -104.5 -31.5s-58.834 -47.667 -81.501 -80s-40.334 -68 -53.001 -107s-19 -76.167 -19 -111.5c0 -21.333 2.5 -41.333 7.5 -60
s13.333 -34.667 25 -48s27.334 -23.833 47.001 -31.5s44.167 -11.5 73.5 -11.5c35.333 0 66.666 7.5 93.999 22.5s46.666 34.5 57.999 58.5c9.33301 -4 15.5 -10.167 18.5 -18.5s4.5 -16.5 4.5 -24.5c0 -16 -4.83301 -30.667 -14.5 -44s-23.334 -24.833 -41.001 -34.5
s-39.167 -17.167 -64.5 -22.5s-53.333 -8 -84 -8zM302.008 196.998c0 6.66699 0.99707 13 2.99707 19l43 168c-2.66699 4 -5.66699 7.5 -9 10.5s-7.33301 4.5 -12 4.5c-13.333 0 -25.666 -6.66699 -36.999 -20s-21.166 -29.333 -29.499 -48s-14.833 -38 -19.5 -58
s-7 -36.333 -7 -49c0 -4.66699 0.5 -10 1.5 -16s2.5 -11.667 4.5 -17s5 -9.83301 9 -13.5s9 -5.5 15 -5.5c9.33301 0 16.833 2.33301 22.5 7s10.834 10.667 15.501 18z" />
    <glyph glyph-name="A" unicode="A" horiz-adv-x="603" 
d="M447 0l-0.00292969 359.999c-25.333 12 -54.166 22.167 -86.499 30.5s-65.166 14.5 -98.499 18.5c-8 -29.333 -15.333 -59.5 -22 -90.5s-12.334 -61.667 -17.001 -92s-8.33398 -60 -11.001 -89s-4 -56.5 -4 -82.5c0 -29.333 2.16699 -58 6.5 -86s13.833 -55.667 28.5 -83
c-15.333 0 -31.333 1.66699 -48 5s-32 10.833 -46 22.5s-25.5 28.334 -34.5 50.001s-13.5 50.834 -13.5 87.501c0 23.333 1.66699 49.333 5 78s8.33301 58.667 15 90s14.834 63.5 24.501 96.5s20.5 65.5 32.5 97.5c-19.333 -0.666992 -37.5 -2.33398 -54.5 -5.00098
s-31.667 -6.5 -44 -11.5s-22.166 -10.833 -29.499 -17.5s-11 -14 -11 -22c0 -2.66699 0.333008 -4.66699 1 -6c17.333 -5.33301 26 -16.333 26 -33c0 -12 -4.33301 -20.333 -13 -25s-18 -7 -28 -7c-16.667 0 -32.167 4.83301 -46.5 14.5s-21.5 26.5 -21.5 50.5
c0 16 4.83301 30.333 14.5 43s23 23.5 40 32.5s37 15.833 60 20.5s48.167 7 75.5 7c7.33301 0 15 -0.166992 23 -0.5s16 -0.833008 24 -1.5c16.667 40 35.334 78.167 56.001 114.5s43 68 67 95s49.333 48.5 76 64.5s54.667 24 84 24c10 0 22.5 -1 37.5 -3
s29.167 -5.66699 42.5 -11v-736h-110zM271.997 441.999c33.333 -6 65.332 -13.5 95.999 -22.5s57 -18.833 79 -29.5v312c-16.667 -1.33301 -33 -8.83301 -49 -22.5s-31.5 -32.167 -46.5 -55.5s-29.167 -50.5 -42.5 -81.5s-25.666 -64.5 -36.999 -100.5z" />
    <glyph glyph-name="B" unicode="B" horiz-adv-x="670" 
d="M102 508c0 -18 1.49707 -33.6699 4.49707 -47.0029s6.5 -24.5 10.5 -33.5s7.83301 -16.167 11.5 -21.5s6.5 -9.66602 8.5 -12.999c-37.333 0 -66.666 9.5 -87.999 28.5s-32 48.167 -32 87.5c0 33.333 8.5 64.666 25.5 93.999s40 54.833 69 76.5s63 38.834 102 51.501
s80.5 19 124.5 19c39.333 0 73.5 -4.83301 102.5 -14.5s53 -22.834 72 -39.501s33.167 -35.667 42.5 -57s14 -43.333 14 -66c0 -25.333 -6.66699 -50.5 -20 -75.5s-32.666 -46.167 -57.999 -63.5c51.333 -5.33301 92.5 -25.666 123.5 -60.999s46.5 -84.666 46.5 -147.999
c0 -21.333 -2.33301 -45.833 -7 -73.5s-13.167 -54 -25.5 -79s-29.5 -46.167 -51.5 -63.5s-50 -26 -84 -26c-14.667 0 -28.667 1.83301 -42 5.5s-25.166 9 -35.499 16s-18.5 16 -24.5 27s-9 23.5 -9 37.5c0 4 0.333008 9.5 1 16.5s1.66699 12.833 3 17.5
c9.33301 -14.667 21 -24.834 35 -30.501s27 -8.5 39 -8.5c16.667 0 30.5 4.66699 41.5 14s19.5 21.333 25.5 36s10.167 30.834 12.5 48.501s3.5 35.167 3.5 52.5c0 63.333 -12.167 109 -36.5 137s-58.166 42 -101.499 42c-8 0 -18 -0.333008 -30 -1s-23.667 -1.66699 -35 -3
v-390h-108v641l108 15v-226h14c18.667 0 36.167 4.5 52.5 13.5s30.5 20.833 42.5 35.5s21.333 30.834 28 48.501s10 35.167 10 52.5c0 39.333 -13.333 71.5 -40 96.5s-66.334 37.5 -119.001 37.5c-28.667 0 -56.667 -4.16699 -84 -12.5s-51.5 -21 -72.5 -38
s-37.833 -38.5 -50.5 -64.5s-19 -56.333 -19 -91z" />
    <glyph glyph-name="C" unicode="C" horiz-adv-x="505" 
d="M580 170c-17.333 -60.667 -49.3359 -106.831 -96.0029 -138.498s-101.667 -47.5 -165 -47.5c-86 0 -152.833 30.333 -200.5 91s-71.5 152.334 -71.5 275.001c0 46 4 92.667 12 140s22 90.166 42 128.499s46.833 69.833 80.5 94.5s76.167 37 127.5 37
c25.333 0 49.333 -3.33301 72 -10s42.5 -16.5 59.5 -29.5s30.5 -29.167 40.5 -48.5s15 -42 15 -68c0 -21.333 -4 -38.333 -12 -51s-21.667 -19 -41 -19c-9.33301 0 -18.166 1.5 -26.499 4.5s-15.166 7.5 -20.499 13.5c6 4.66699 11.5 14.334 16.5 29.001
s7.5 31.334 7.5 50.001c0 32 -7.66699 55.5 -23 70.5s-35.666 22.5 -60.999 22.5c-30 0 -55.833 -9.83301 -77.5 -29.5s-39.5 -45.834 -53.5 -78.501s-24.167 -69.667 -30.5 -111s-9.5 -84 -9.5 -128c0 -54.667 4.66699 -101.334 14 -140.001s23 -70.334 41 -95.001
s40.167 -42.834 66.5 -54.501s56.5 -17.5 90.5 -17.5c43.333 0 79.333 9.5 108 28.5s52 49.5 70 91.5z" />
    <glyph glyph-name="D" unicode="D" horiz-adv-x="705" 
d="M350 656l0.000976562 -577.999c12.667 -9.33301 24.834 -16 36.501 -20s22.834 -6 33.501 -6c26 0 47.833 9.5 65.5 28.5s32.167 43.667 43.5 74s19.5 64.166 24.5 101.499s7.5 74 7.5 110c0 62 -4.33301 115 -13 159s-22.667 80 -42 108s-44.333 48.5 -75 61.5
s-67.667 19.5 -111 19.5c-30 0 -58.667 -4.66699 -86 -14s-51.333 -22.833 -72 -40.5s-37.167 -39.334 -49.5 -65.001s-18.5 -54.834 -18.5 -87.501c0 -19.333 2.16699 -35.666 6.5 -48.999s9.33301 -24.333 15 -33s11.667 -15.5 18 -20.5s11.5 -8.83301 15.5 -11.5
c-40.667 0 -72.667 9.33301 -96 28s-35 50 -35 94c0 30.667 8 60.334 24 89.001s38.167 53.667 66.5 75s61.666 38.5 99.999 51.5s80.166 19.5 125.499 19.5c64 0 118 -10.833 162 -32.5s79.667 -50.334 107 -86.001s47 -76.5 59 -122.5s18 -93.333 18 -142
c0 -47.333 -4.83301 -93.666 -14.5 -138.999s-23 -85.833 -40 -121.5s-37.167 -64.5 -60.5 -86.5s-49 -33 -77 -33c-20 0 -41.333 4.66699 -64 14s-47.334 24 -74.001 44v-45h-108v641z" />
    <glyph glyph-name="E" unicode="E" horiz-adv-x="447" 
d="M521 170c-9.33301 -30 -23 -56.666 -41 -79.999s-39 -43 -63 -59s-50 -28.167 -78 -36.5s-56.333 -12.5 -85 -12.5c-38 0 -70.5 6.83301 -97.5 20.5s-49 31.167 -66 52.5s-29.5 45.5 -37.5 72.5s-12 54.167 -12 81.5c0 49.333 11.833 92 35.5 128
s56.834 62.667 99.501 80c-32 20 -55 43 -69 69s-21 53.333 -21 82c0 22 4 44 12 66s20.333 41.667 37 59s37.167 31.5 61.5 42.5s53.166 16.5 86.499 16.5c18 0 36.167 -2 54.5 -6s34.833 -10.833 49.5 -20.5s26.5 -22.667 35.5 -39s13.5 -36.833 13.5 -61.5
c0 -25.333 -5 -45.333 -15 -60s-23.333 -22 -40 -22c-18 0 -35.667 9 -53 27c9.33301 4 18.5 12.167 27.5 24.5s13.5 28.166 13.5 47.499c0 12.667 -2.33301 23.5 -7 32.5s-10.834 16.5 -18.501 22.5s-16.167 10.333 -25.5 13s-19 4 -29 4c-18 0 -34 -4 -48 -12
s-25.667 -18.5 -35 -31.5s-16.5 -27.667 -21.5 -44s-7.5 -32.833 -7.5 -49.5c0 -7.33301 0.833008 -18.5 2.5 -33.5s6.33398 -30.667 14.001 -47s19 -32 34 -47s35.5 -25.5 61.5 -31.5c-44 -10 -77.833 -32.5 -101.5 -67.5s-35.5 -76.5 -35.5 -124.5
s12.833 -87.5 38.5 -118.5s65.167 -46.5 118.5 -46.5c24 0 46.167 3.16699 66.5 9.5s38.333 15 54 26s29.167 23.667 40.5 38s20 29.5 26 45.5z" />
    <glyph glyph-name="F" unicode="F" horiz-adv-x="554" 
d="M479 646c-21.333 0 -43.1709 1.83203 -65.5039 5.49902s-44.833 7.83398 -67.5 12.501v-229h148v-59h-148v-376h-108v682c-3.33301 0.666992 -6.5 1 -9.5 1h-9.5c-17.333 0 -33.666 -2.33301 -48.999 -7s-28.5 -12.667 -39.5 -24s-19.667 -26.5 -26 -45.5
s-9.5 -42.833 -9.5 -71.5c0 -36 4.5 -66.167 13.5 -90.5s19.5 -41.5 31.5 -51.5c-79.333 0 -119 43.667 -119 131c0 32 5.33301 61.667 16 89s27.334 51.166 50.001 71.499s51.5 36.333 86.5 48s76.833 17.5 125.5 17.5c16.667 0 32.5 -0.666992 47.5 -2l43.5 -4l43 -4
c14.667 -1.33301 30.334 -2 47.001 -2s32.334 0.833008 47.001 2.5s28.667 4.83398 42 9.50098c-1.33301 -23.333 -4.5 -41.833 -9.5 -55.5s-11.5 -24 -19.5 -31s-17.167 -11.667 -27.5 -14s-21.5 -3.5 -33.5 -3.5z" />
    <glyph glyph-name="G" unicode="G" horiz-adv-x="593" 
d="M557 418v-375.997c0 -38.667 -4 -73.334 -12 -104.001s-20.167 -56.834 -36.5 -78.501s-37.333 -38.167 -63 -49.5s-56.5 -17 -92.5 -17c-33.333 0 -61.166 4.66699 -83.499 14s-40.166 21.333 -53.499 36s-22.666 31.167 -27.999 49.5s-8 36.166 -8 53.499
c0 14.667 1.83301 29.167 5.5 43.5s10 27.333 19 39s21 21.167 36 28.5s33.5 11 55.5 11c26.667 0 48.667 -5.83301 66 -17.5s26 -29.167 26 -52.5c0 -3.33301 -0.333008 -7.5 -1 -12.5s-2 -10.167 -4 -15.5c-11.333 12.667 -22.833 20.5 -34.5 23.5s-21.167 4.5 -28.5 4.5
c-23.333 0 -40.333 -6.33301 -51 -19s-16 -28.667 -16 -48c0 -14 2.66699 -27.167 8 -39.5s12.5 -22.833 21.5 -31.5s19.667 -15.5 32 -20.5s25.166 -7.5 38.499 -7.5c11.333 0 22.666 2.16699 33.999 6.5s21.5 11.5 30.5 21.5s16.333 23.667 22 41s8.5 39 8.5 65v238
c-17.333 -32 -40.333 -55.833 -69 -71.5s-61.334 -23.5 -98.001 -23.5s-70.167 7.5 -100.5 22.5s-56.5 36 -78.5 63s-39 59.667 -51 98s-18 81.166 -18 128.499c0 44 5.66699 86 17 126s29.333 75.167 54 105.5s56 54.5 94 72.5s83.667 27 137 27c24 0 48 -2.16699 72 -6.5
s45.833 -12 65.5 -23s35.667 -25.833 48 -44.5s18.5 -42.334 18.5 -71.001c0 -8.66699 -0.833008 -17.834 -2.5 -27.501s-4.83398 -18.667 -9.50098 -27s-11.167 -15.166 -19.5 -20.499s-19.5 -8 -33.5 -8c-12 0 -22.167 2.16699 -30.5 6.5s-19.5 10.833 -33.5 19.5
c1.33301 0 4.33301 1 9 3s9.5 5.5 14.5 10.5s9.5 12.167 13.5 21.5s6 21.333 6 36c0 32.667 -10 56.334 -30 71.001s-44.667 22 -74 22c-32.667 0 -61.167 -8.16699 -85.5 -24.5s-44.666 -37.833 -60.999 -64.5s-28.5 -57.334 -36.5 -92.001s-12 -70 -12 -106
c0 -34.667 3.66699 -67.167 11 -97.5s17.666 -56.666 30.999 -78.999s29.833 -39.833 49.5 -52.5s41.834 -19 66.501 -19c44 0 78.333 20.833 103 62.5s39.667 100.834 45 177.501z" />
    <glyph glyph-name="H" unicode="H" horiz-adv-x="694" 
d="M648 748l-0.00292969 -747.998h-109v376h-216v-376h-109v697c-36.667 -14.667 -65.5 -38.167 -86.5 -70.5s-31.5 -70.833 -31.5 -115.5c0 -23.333 1.5 -42 4.5 -56s6.83301 -25.333 11.5 -34s9.66699 -15 15 -19s10.333 -7 15 -9c-17.333 0 -33.5 2.16699 -48.5 6.5
s-28 11.5 -39 21.5s-19.833 22.833 -26.5 38.5s-10 34.834 -10 57.501c0 31.333 7.33301 61.166 22 89.499s34.334 53.166 59.001 74.499s52.834 38.166 84.501 50.499s64.5 18.5 98.5 18.5c7.33301 0 14.333 -0.166992 21 -0.5s13.334 -0.833008 20.001 -1.5v-313h216v282z
" />
    <glyph glyph-name="I" unicode="I" horiz-adv-x="403" 
d="M357 0l-110.002 -0.000976562v691c-44.667 -12.667 -80 -34.334 -106 -65.001s-39 -69 -39 -115c0 -18 1.33301 -33.167 4 -45.5s6 -23 10 -32s8.83301 -16.667 14.5 -23s11.5 -12.166 17.5 -17.499c-40 0 -71.667 9.16699 -95 27.5s-35 49.5 -35 93.5
c0 32 8.33301 62.167 25 90.5s38.834 53.333 66.501 75s59.334 38.834 95.001 51.501s72.5 19 110.5 19c7.33301 0 14.5 -0.166992 21.5 -0.5s13.833 -0.833008 20.5 -1.5v-748z" />
    <glyph glyph-name="J" unicode="J" horiz-adv-x="433" 
d="M387 750l-0.000976562 -710.001c0 -38 -3.33301 -72.167 -10 -102.5s-18 -56.333 -34 -78s-37.167 -38.167 -63.5 -49.5s-59.166 -17 -98.499 -17c-32 0 -59.5 3.83301 -82.5 11.5s-41.667 18.167 -56 31.5s-24.833 29.333 -31.5 48s-10 38.667 -10 60
c0 14 1.83301 28.333 5.5 43s10 28 19 40s20.833 21.833 35.5 29.5s33.334 11.5 56.001 11.5c27.333 0 48.333 -6.16699 63 -18.5s22 -33.5 22 -63.5c0 -2 -0.166992 -4.16699 -0.5 -6.5s-0.5 -4.83301 -0.5 -7.5c-9.33301 8.66699 -19 15 -29 19s-19.667 6 -29 6
c-17.333 0 -32.5 -6.5 -45.5 -19.5s-19.5 -31.833 -19.5 -56.5c0 -14 2.83301 -26.333 8.5 -37s13.167 -19.667 22.5 -27s19.666 -13 30.999 -17s23 -6 35 -6c12.667 0 25 2.5 37 7.5s22.667 12.833 32 23.5s16.833 24.334 22.5 41.001s8.5 36.667 8.5 60v726
c-46 -11.333 -81.5 -33 -106.5 -65s-37.5 -72 -37.5 -120c0 -17.333 1.5 -32.5 4.5 -45.5s6.83301 -24 11.5 -33s9.66699 -16.333 15 -22s10.333 -10.167 15 -13.5c-40 0 -71.667 9.33301 -95 28s-35 48 -35 88c0 34 8.33301 65.667 25 95s39 54.833 67 76.5
s60 38.667 96 51s73 18.5 111 18.5h41z" />
    <glyph glyph-name="K" unicode="K" horiz-adv-x="648" 
d="M356 425l178.996 319.996h88l-224 -321c9.33301 0.666992 17.5 1.16699 24.5 1.5s13.167 0.5 18.5 0.5c34 0 61.333 -4.33301 82 -13s36.834 -20.5 48.501 -35.5s19.334 -32.667 23.001 -53s5.5 -42.166 5.5 -65.499c0 -12 -0.333008 -25 -1 -39
s-1.16699 -27.833 -1.5 -41.5s-0.833008 -26.834 -1.5 -39.501s-1 -24 -1 -34c0 -30 5.5 -53.667 16.5 -71s24.5 -28.666 40.5 -33.999c-20 -6 -36.333 -10.333 -49 -13s-25 -4 -37 -4c-30 0 -52.167 9.66699 -66.5 29s-21.5 44 -21.5 74c0 12.667 0.5 27 1.5 43
s2.33301 32.167 4 48.5s3 32.333 4 48s1.5 29.834 1.5 42.501c0 22.667 -2.5 41.834 -7.5 57.501s-11.667 28 -20 37s-18.333 15.5 -30 19.5s-24.167 6 -37.5 6c-11.333 0 -24.333 -1.66699 -39 -5v-383h-110v692c-46 -13.333 -82.5 -35.5 -109.5 -66.5
s-40.5 -69.833 -40.5 -116.5c0 -21.333 2.5 -42 7.5 -62s16.5 -38 34.5 -54c-16 0 -31.333 2.16699 -46 6.5s-27.5 11.333 -38.5 21s-19.833 22.167 -26.5 37.5s-10 34 -10 56c0 32 8.33301 62.167 25 90.5s38.834 53.333 66.501 75s59.334 38.834 95.001 51.501
s72.5 19 110.5 19c7.33301 0 14.5 -0.166992 21.5 -0.5s13.833 -0.833008 20.5 -1.5v-323z" />
    <glyph glyph-name="L" unicode="L" horiz-adv-x="453" 
d="M356 735l0.000976562 -715.002c21.333 -4.66699 42.166 -12 62.499 -22l62.5 -30c21.333 -10 43.833 -18.667 67.5 -26s49.5 -11 77.5 -11c23.333 0 49 6.66699 77 20c2 -9.33301 3 -18.333 3 -27c0 -14 -2.5 -27.167 -7.5 -39.5s-12.333 -23.166 -22 -32.499
s-21.334 -16.833 -35.001 -22.5s-28.834 -8.5 -45.501 -8.5c-26 0 -51.667 8.16699 -77 24.5s-51 34.333 -77 54s-53.167 37.667 -81.5 54s-58.5 24.5 -90.5 24.5h-11.5c-3.66699 0 -7.5 -0.333008 -11.5 -1v704c-44.667 -12.667 -80 -34.334 -106 -65.001s-39 -69 -39 -115
c0 -18 1.33301 -33.167 4 -45.5s6 -23 10 -32s8.83301 -16.667 14.5 -23s11.5 -12.166 17.5 -17.499c-40 0 -71.667 9.16699 -95 27.5s-35 49.5 -35 93.5c0 32 8.33301 62.167 25 90.5s38.834 53.333 66.501 75s59.334 38.834 95.001 51.501s72.5 19 110.5 19
c7.33301 0 14.5 -0.166992 21.5 -0.5s13.833 -0.833008 20.5 -1.5z" />
    <glyph glyph-name="M" unicode="M" horiz-adv-x="752" 
d="M355 0l-89 514.001l-81 -514h-60l110 700c-42 -9.33301 -74.333 -29.5 -97 -60.5s-34 -74.5 -34 -130.5c0 -22.667 1.5 -41.167 4.5 -55.5s6.5 -25.833 10.5 -34.5s8.16699 -14.834 12.5 -18.501s7.5 -6.16699 9.5 -7.5c-36 0 -65 9.16699 -87 27.5
s-33 47.166 -33 86.499c0 32.667 8 63.834 24 93.501s36.333 55.5 61 77.5s51.834 39.5 81.501 52.5s58.5 19.5 86.5 19.5c10.667 0 21.167 -1 31.5 -3s20.166 -5.66699 29.499 -11l100 -581l117 581h114l56 -736h-114l-40 524l-106 -524h-107z" />
    <glyph glyph-name="N" unicode="N" horiz-adv-x="709" 
d="M663 748l-0.000976562 -747.998h-134l-251 563v-563h-67v689c-36.667 -12.667 -65.334 -32.834 -86.001 -60.501s-31 -63.834 -31 -108.501c0 -20.667 1.66699 -38.167 5 -52.5s7.33301 -26.333 12 -36s9.83398 -17.5 15.501 -23.5s10.834 -11 15.501 -15
c-42 0 -72.833 10.167 -92.5 30.5s-29.5 53.166 -29.5 98.499c0 27.333 5.5 54.5 16.5 81.5s26.5 51.333 46.5 73s44 39.334 72 53.001s59 20.5 93 20.5c11.333 0 23 -1 35 -3s23.667 -5.66699 35 -11l278 -642v654h67z" />
    <glyph glyph-name="O" unicode="O" horiz-adv-x="702" 
d="M393 656c-16.667 -10 -31.498 -27.498 -44.498 -52.498s-23.833 -53.833 -32.5 -86.5s-15.167 -67.5 -19.5 -104.5s-6.5 -72.5 -6.5 -106.5c0 -22 1.33301 -46.667 4 -74s8.16699 -53 16.5 -77s20.166 -44.167 35.499 -60.5s35.666 -24.5 60.999 -24.5
c27.333 0 50.333 9.5 69 28.5s33.834 44 45.501 75s20.167 66.167 25.5 105.5s8 79.333 8 120c0 64.667 -5.83301 117.5 -17.5 158.5s-27.167 73.167 -46.5 96.5s-41.833 39.166 -67.5 47.499s-52.834 12.5 -81.501 12.5c-33.333 0 -64.5 -4.66699 -93.5 -14
s-54.333 -23.333 -76 -42s-38.667 -42 -51 -70s-18.5 -60.667 -18.5 -98c0 -19.333 1.33301 -35 4 -47s5.66699 -21.5 9 -28.5s6.83301 -12.167 10.5 -15.5s6.16699 -5.33301 7.5 -6c-36 0 -64.333 9.16699 -85 27.5s-31 46.166 -31 83.499c0 34 8.83301 66 26.5 96
s41.834 56 72.501 78s66.667 39.5 108 52.5s85.666 19.5 132.999 19.5c61.333 0 112.333 -10.667 153 -32s73.334 -49.5 98.001 -84.5s42 -75 52 -120s15 -91.5 15 -139.5c0 -44 -4.16699 -88.5 -12.5 -133.5s-22.833 -85.833 -43.5 -122.5s-48 -66.5 -82 -89.5
s-76.667 -34.5 -128 -34.5c-33.333 0 -64.666 5.66699 -93.999 17s-55 30 -77 56s-39.5 60 -52.5 102s-19.5 93.667 -19.5 155c0 38 3 77 9 117s15.667 76.5 29 109.5s31.166 60.167 53.499 81.5s50.166 32 83.499 32c7.33301 0 15.333 -0.5 24 -1.5
s17.667 -3.16699 27 -6.5z" />
    <glyph glyph-name="P" unicode="P" horiz-adv-x="601" 
d="M340 656l-0.00195312 -339.999c29.333 0 54.5 6.16699 75.5 18.5s38.167 28.166 51.5 47.499s23.166 41.166 29.499 65.499s9.5 48.5 9.5 72.5c0 21.333 -2.16699 43.333 -6.5 66s-13.5 43.5 -27.5 62.5s-34 34.667 -60 47s-60.667 18.5 -104 18.5
c-29.333 0 -57 -4.5 -83 -13.5s-48.5 -22 -67.5 -39s-34 -38 -45 -63s-16.5 -53.833 -16.5 -86.5c0 -20.667 1.66699 -38 5 -52s7.33301 -25.667 12 -35s9.33398 -16.5 14.001 -21.5s8.33398 -8.5 11.001 -10.5c-37.333 0 -66.666 9.33301 -87.999 28s-32 49.667 -32 93
c0 32 8.33301 62.167 25 90.5s39 53.333 67 75s60.333 38.834 97 51.501s75.334 19 116.001 19c44 0 83.333 -5.5 118 -16.5s63.667 -26.333 87 -46s41.166 -42.5 53.499 -68.5s18.5 -54 18.5 -84c0 -28 -5 -56.833 -15 -86.5s-25 -56.5 -45 -80.5
s-44.833 -43.833 -74.5 -59.5s-64.167 -23.5 -103.5 -23.5h-22v-285h-108v641z" />
    <glyph glyph-name="Q" unicode="Q" horiz-adv-x="727" 
d="M392 656c-16.667 -10 -31.4971 -27.498 -44.4971 -52.498s-23.833 -53.833 -32.5 -86.5s-15.167 -67.834 -19.5 -105.501s-6.5 -73.834 -6.5 -108.501c0 -12 0.333008 -25 1 -39s2 -28.5 4 -43.5s4.66699 -29.667 8 -44s8 -27.833 14 -40.5c16 5.33301 31.333 9 46 11
s26.667 3 36 3c19.333 0 36.5 -3 51.5 -9s29.167 -13.667 42.5 -23c22 31.333 37.833 72.5 47.5 123.5s14.5 105.167 14.5 162.5c0 64 -5.33301 116 -16 156s-25.167 71.5 -43.5 94.5s-39.833 38.667 -64.5 47s-51 12.5 -79 12.5c-33.333 0 -65 -4.66699 -95 -14
s-56.5 -23.5 -79.5 -42.5s-41.167 -42.5 -54.5 -70.5s-20 -61 -20 -99c0 -18 1.33301 -33 4 -45s5.83398 -21.5 9.50098 -28.5s7.16699 -12.167 10.5 -15.5s5.66602 -5.33301 6.99902 -6c-36 0 -64.333 9.33301 -85 28s-31 46 -31 82c0 34 9.33301 66 28 96
s43.834 56.167 75.501 78.5s68.667 40 111 53s87.166 19.5 134.499 19.5c61.333 0 112 -10.667 152 -32s71.667 -49.333 95 -84s39.5 -74.167 48.5 -118.5s13.5 -89.833 13.5 -136.5c0 -31.333 -1.83301 -62.5 -5.5 -93.5s-9.83398 -61 -18.501 -90s-20 -56 -34 -81
s-31.333 -46.5 -52 -64.5c10 -10 20.333 -19.833 31 -29.5s22 -18.167 34 -25.5s24.833 -13.166 38.5 -17.499s28.834 -6.5 45.501 -6.5c5.33301 0 9.83301 0.166992 13.5 0.5s7.16699 0.833008 10.5 1.5c-5.33301 -23.333 -14.166 -39.833 -26.499 -49.5
s-29.166 -14.5 -50.499 -14.5c-18.667 0 -35.334 3 -50.001 9s-27.834 14 -39.501 24s-22.334 21.333 -32.001 34s-18.834 25.667 -27.501 39c-14.667 -6.66699 -30.667 -11.834 -48 -15.501s-36 -5.5 -56 -5.5c-33.333 0 -64.666 5.66699 -93.999 17s-55 30 -77 56
s-39.333 60 -52 102s-19 93.667 -19 155c0 38 3 77 9 117s15.667 76.5 29 109.5s31.166 60.167 53.499 81.5s50.166 32 83.499 32c7.33301 0 15.333 -0.5 24 -1.5s17.667 -3.16699 27 -6.5zM389.003 120.002c-7.33301 0 -16 -1.00098 -26 -3.00098s-19.667 -5.66699 -29 -11
c8.66699 -11.333 18.834 -20.166 30.501 -26.499s25.5 -9.5 41.5 -9.5c19.333 0 37.333 5.66699 54 17c-9.33301 10 -19.833 18 -31.5 24s-24.834 9 -39.501 9z" />
    <glyph glyph-name="R" unicode="R" horiz-adv-x="652" 
d="M339 656l-0.00292969 -232.999h26c20 0 37.833 4.5 53.5 13.5s29 20.667 40 35s19.333 30.666 25 48.999s8.5 36.5 8.5 54.5c0 16 -2.5 32.167 -7.5 48.5s-13.833 31.333 -26.5 45s-30.334 24.667 -53.001 33s-51.334 12.5 -86.001 12.5
c-31.333 0 -60.166 -4.66699 -86.499 -14s-49.166 -22.833 -68.499 -40.5s-34.5 -39.167 -45.5 -64.5s-16.5 -54 -16.5 -86c0 -23.333 1.33301 -42.166 4 -56.499s5.83398 -25.5 9.50098 -33.5s7.33398 -13.833 11.001 -17.5l8.5 -8.5c-14 0 -28 2.16699 -42 6.5
s-26.667 11.166 -38 20.499s-20.5 21.833 -27.5 37.5s-10.5 34.5 -10.5 56.5c0 31.333 8 61.166 24 89.499s38 53.333 66 75s60.667 39 98 52s77 19.5 119 19.5c40 0 75.833 -4 107.5 -12s58.5 -19.333 80.5 -34s38.833 -32.167 50.5 -52.5s17.5 -42.5 17.5 -66.5
c0 -14 -2 -28.333 -6 -43s-9.83301 -29.334 -17.5 -44.001s-17.167 -28.334 -28.5 -41.001s-24.666 -24 -39.999 -34c24.667 -4 44.5 -11 59.5 -21s26.5 -22.167 34.5 -36.5s13.167 -30.666 15.5 -48.999s3.5 -37.5 3.5 -57.5c0 -12 -0.333008 -25 -1 -39
s-1.16699 -27.833 -1.5 -41.5s-0.833008 -26.834 -1.5 -39.501s-1 -24 -1 -34c0 -30 5.5 -53.667 16.5 -71s24.5 -28.666 40.5 -33.999c-20 -6 -36.333 -10.333 -49 -13s-25 -4 -37 -4c-30 0 -52.167 9.66699 -66.5 29s-21.5 44 -21.5 74c0 12.667 0.5 27 1.5 43
s2.33301 32.167 4 48.5s3 32.333 4 48s1.5 29.834 1.5 42.501c0 22.667 -2.5 41.834 -7.5 57.501s-11.667 28 -20 37s-18.333 15.5 -30 19.5s-24.167 6 -37.5 6c-7.33301 0 -16.5 -0.666992 -27.5 -2s-20.5 -3 -28.5 -5v-381h-108v641z" />
    <glyph glyph-name="S" unicode="S" horiz-adv-x="493" 
d="M440 612c0 -26.667 -5.49707 -47.3359 -16.4971 -62.0029s-25.5 -22 -43.5 -22c-9.33301 0 -17.166 1.66699 -23.499 5s-12.833 8.66602 -19.5 15.999c9.33301 6.66699 16.5 16.334 21.5 29.001s7.5 26 7.5 40c0 11.333 -1.83301 22.666 -5.5 33.999
s-9.5 21.5 -17.5 30.5s-18 16.333 -30 22s-26.333 8.5 -43 8.5c-17.333 0 -32.833 -3.16699 -46.5 -9.5s-25 -15 -34 -26s-15.833 -23.833 -20.5 -38.5s-7 -30.334 -7 -47.001c0 -32 7.83301 -57.667 23.5 -77s35.167 -35.666 58.5 -48.999s48.833 -26 76.5 -38
s53.167 -26.833 76.5 -44.5s42.833 -40 58.5 -67s23.5 -62.833 23.5 -107.5c0 -40 -6.66699 -74.167 -20 -102.5s-30.833 -51.166 -52.5 -68.499s-46.5 -30 -74.5 -38s-56.667 -12 -86 -12c-26 0 -51.667 3 -77 9s-48 15.5 -68 28.5s-36.167 29.667 -48.5 50
s-18.5 44.833 -18.5 73.5c0 16.667 2.33301 33.667 7 51s11.5 33 20.5 47s20.333 25.5 34 34.5s29.5 13.5 47.5 13.5c14.667 0 27.167 -4 37.5 -12s19.5 -23 27.5 -45c-16 -0.666992 -29.167 -4 -39.5 -10s-18.5 -13.333 -24.5 -22s-10.167 -18 -12.5 -28
s-3.5 -19.333 -3.5 -28c0 -18 4 -33.667 12 -47s18.167 -24.5 30.5 -33.5s25.666 -15.667 39.999 -20s28.166 -6.5 41.499 -6.5c30.667 0 56 11.667 76 35s30 57 30 101c0 37.333 -7.16699 66.833 -21.5 88.5s-32.5 39.834 -54.5 54.501s-45.5 27.334 -70.5 38.001
s-48.5 23.334 -70.5 38.001s-40.167 33.5 -54.5 56.5s-21.5 53.833 -21.5 92.5c0 33.333 5.66699 62.666 17 87.999s26.166 46.5 44.499 63.5s39.666 29.667 63.999 38s49.5 12.5 75.5 12.5c11.333 0 26.833 -1.33301 46.5 -4s39 -8.66699 58 -18s35.333 -23.166 49 -41.499
s20.5 -42.833 20.5 -73.5z" />
    <glyph glyph-name="T" unicode="T" horiz-adv-x="671" 
d="M582 630c-24 0 -49.8389 2.33496 -77.5059 7.00195s-56.5 10.334 -86.5 17.001v-654h-108v670c-7.33301 1.33301 -14.166 2 -20.499 2h-19.5c-56 0 -98.833 -10.167 -128.5 -30.5s-44.5 -57.166 -44.5 -110.499c0 -40 4.5 -70.5 13.5 -91.5s18.167 -36.833 27.5 -47.5
c-16.667 0 -32.167 2.5 -46.5 7.5s-26.833 13.167 -37.5 24.5s-19 26.166 -25 44.499s-9 41.166 -9 68.499s5.33301 53.666 16 78.999s27.834 47.833 51.501 67.5s54.334 35.5 92.001 47.5s83.834 18 138.501 18c26.667 0 50.834 -1.16699 72.501 -3.5s42 -5 61 -8
s37.833 -5.66699 56.5 -8s38.334 -3.5 59.001 -3.5c28 0 51.5 2.16699 70.5 6.5s34.833 9.16602 47.5 14.499c2 -12 3 -23.333 3 -34c0 -55.333 -35.333 -83 -106 -83z" />
    <glyph glyph-name="U" unicode="U" horiz-adv-x="770" 
d="M725 748l-0.00390625 -542c0 -18.667 -2.83301 -40.334 -8.5 -65.001s-17.167 -48 -34.5 -70s-41.833 -40.5 -73.5 -55.5s-73.167 -22.5 -124.5 -22.5s-92.5 7.5 -123.5 22.5s-54.833 33.333 -71.5 55s-27.834 44.667 -33.501 69s-8.5 46.166 -8.5 65.499v502
c-50 -11.333 -88.667 -34.166 -116 -68.499s-41 -78.5 -41 -132.5c0 -19.333 1.66699 -35.5 5 -48.5s7 -23.833 11 -32.5s8 -15.334 12 -20.001s6.66699 -8.33398 8 -11.001c-13.333 0 -26.666 2.5 -39.999 7.5s-25.166 12.333 -35.499 22s-18.666 22 -24.999 37
s-9.5 32.5 -9.5 52.5c0 32 8.33301 62.333 25 91s39.167 53.834 67.5 75.501s61 38.834 98 51.501s75.833 19 116.5 19c7.33301 0 14.333 -0.333008 21 -1s15.334 -2 26.001 -4v-538c0 -30 3.5 -54.167 10.5 -72.5s16.167 -32.166 27.5 -41.499s24.333 -15.5 39 -18.5
s29.667 -4.5 45 -4.5s30.333 1.5 45 4.5s27.834 9.33301 39.501 19s21 23.667 28 42s10.5 42.833 10.5 73.5v539h110z" />
    <glyph glyph-name="V" unicode="V" horiz-adv-x="644" 
d="M453 80l139 665.002h57l-168 -745h-111l-149 693c-26.667 0 -48.834 -4.5 -66.501 -13.5s-31.667 -21 -42 -36s-17.666 -32 -21.999 -51s-6.5 -38.5 -6.5 -58.5c0 -28.667 4 -54.334 12 -77.001s19.667 -43.667 35 -63c-13.333 0 -26.666 2 -39.999 6s-25.333 11 -36 21
s-19.334 23.5 -26.001 40.5s-10 38.5 -10 64.5c0 30 5.66699 58.667 17 86s28 51.166 50 71.499s49 36.5 81 48.5s68.667 18 110 18c7.33301 0 14.5 -0.333008 21.5 -1s14.167 -1.66699 21.5 -3z" />
    <glyph glyph-name="W" unicode="W" horiz-adv-x="996" 
d="M463 80l128.999 665.002h74l143 -665l129 665h57l-158 -745h-111l-120 542l-115 -542h-111l-159 693c-25.333 0 -46.666 -4.5 -63.999 -13.5s-31.333 -21 -42 -36s-18.5 -32 -23.5 -51s-7.5 -38.5 -7.5 -58.5c0 -28.667 4 -54.334 12 -77.001s19.667 -43.667 35 -63
c-13.333 0 -26.666 2 -39.999 6s-25.333 11 -36 21s-19.334 23.5 -26.001 40.5s-10 38.5 -10 64.5c0 30 5.66699 58.667 17 86s28 51.166 50 71.499s49 36.5 81 48.5s68.667 18 110 18c7.33301 0 14.5 -0.333008 21.5 -1s14.167 -1.66699 21.5 -3z" />
    <glyph glyph-name="X" unicode="X" horiz-adv-x="615" 
d="M522 0l-131 301l-122 -301h-47l143 360l-153 354c-18.667 -5.33301 -35.5 -14.166 -50.5 -26.499s-27.833 -27.333 -38.5 -45s-18.834 -37 -24.501 -58s-8.5 -42.833 -8.5 -65.5c0 -30.667 3.83301 -55.334 11.5 -74.001s16.167 -32.667 25.5 -42
c-16.667 0 -31.667 1.66699 -45 5s-24.5 9.66602 -33.5 18.999s-16 21.833 -21 37.5s-7.5 36.167 -7.5 61.5c0 33.333 6.83301 63.833 20.5 91.5s31.834 51.334 54.501 71.001s49 35 79 46s61.333 16.5 94 16.5c14 0 27.667 -1 41 -3l129 -301l118 298h47l-140 -357
l167 -388h-108z" />
    <glyph glyph-name="Y" unicode="Y" horiz-adv-x="608" 
d="M358 0l-0.00292969 308.001l-157 406c-23.333 -6 -42.5 -15.5 -57.5 -28.5s-27.167 -27.833 -36.5 -44.5s-15.833 -34.667 -19.5 -54s-5.5 -38.333 -5.5 -57c0 -52.667 16.667 -98.334 50 -137.001c-35.333 0 -62.833 10 -82.5 30s-29.5 53.667 -29.5 101
c0 30.667 5.5 59.667 16.5 87s26.833 51.333 47.5 72s45.834 37 75.501 49s62.834 18 99.501 18c7.33301 0 14.333 -0.166992 21 -0.5s13.334 -0.833008 20.001 -1.5l145 -384l129 381h52l-160 -437v-308h-108z" />
    <glyph glyph-name="Z" unicode="Z" horiz-adv-x="489" 
d="M399 71c-8 5.33301 -14.168 11.833 -18.501 19.5s-6.5 15.167 -6.5 22.5c0 12.667 4.5 22.5 13.5 29.5s20.167 10.5 33.5 10.5c6.66699 0 13.834 -1.33301 21.501 -4s14.834 -6.5 21.501 -11.5s12 -11.167 16 -18.5s6 -16 6 -26c0 -11.333 -2.5 -22.5 -7.5 -33.5
s-12.167 -21 -21.5 -30s-20.5 -16.167 -33.5 -21.5s-27.833 -8 -44.5 -8h-361l329 705c-4 0 -11.833 0.333008 -23.5 1s-24.834 1.33398 -39.501 2.00098s-29.334 1.16699 -44.001 1.5s-26.667 0.5 -36 0.5c-10.667 0 -21 -0.333008 -31 -1s-19 -1.66699 -27 -3
s-14.333 -3.33301 -19 -6s-7.33398 -6 -8.00098 -10c16 -10.667 24 -24.334 24 -41.001c0 -10.667 -3.83301 -20.334 -11.5 -29.001s-18.167 -13 -31.5 -13c-8 0 -16 1.66699 -24 5s-15.333 8 -22 14s-12.167 13.333 -16.5 22s-6.5 18.334 -6.5 29.001
c0 18.667 9.83301 35.5 29.5 50.5s46.5 22.5 80.5 22.5h340l-328 -697c15.333 0 34.833 -0.5 58.5 -1.5s47.834 -1.5 72.501 -1.5c14 0 27.5 0.333008 40.5 1s24.833 1.66699 35.5 3s19.334 3.5 26.001 6.5s11 6.5 13 10.5z" />
    <glyph glyph-name="bracketleft" unicode="[" horiz-adv-x="285" 
d="M265 -250h-194v1000h193v-62h-120v-876h121v-62z" />
    <glyph glyph-name="backslash" unicode="\" horiz-adv-x="504" 
d="M14 750h50l425 -1000h-50z" />
    <glyph glyph-name="bracketright" unicode="]" horiz-adv-x="285" 
d="M20 -188h121v876h-120v62h193v-1000h-194v62z" />
    <glyph glyph-name="asciicircum" unicode="^" horiz-adv-x="421" 
d="M197 561l-86 101l-141 -101h-34l166 167h21l96 -167h-22z" />
    <glyph glyph-name="underscore" unicode="_" horiz-adv-x="438" 
d="M394 0h-350v70h350v-70z" />
    <glyph glyph-name="grave" unicode="`" horiz-adv-x="201" 
d="M28 561h-55l-101 189h85z" />
    <glyph glyph-name="a" unicode="a" 
d="M415 500v-339.998c0 -6.66699 0.333008 -15 1 -25s2.5 -19.833 5.5 -29.5s7.5 -18 13.5 -25s14.333 -10.5 25 -10.5c32.667 0 56.667 36.333 72 109h37c-7.33301 -42 -16.666 -75.167 -27.999 -99.5s-23.333 -42.833 -36 -55.5s-25.667 -20.834 -39 -24.501
s-25.333 -5.5 -36 -5.5c-15.333 0 -28.5 2.66699 -39.5 8s-20.333 12.333 -28 21s-13.834 18.667 -18.501 30s-8.33398 23.333 -11.001 36c-10 -26 -26.167 -48.333 -48.5 -67s-49.5 -28 -81.5 -28c-20 0 -40.167 4 -60.5 12s-38.666 21.167 -54.999 39.5
s-29.666 42 -39.999 71s-15.5 64.5 -15.5 106.5c0 30.667 3.5 62.667 10.5 96s18.167 63.666 33.5 90.999s35 50 59 68s53 27 87 27c8 0 16.5 -0.833008 25.5 -2.5s17.667 -4.5 26 -8.5s16.166 -9.5 23.499 -16.5s13.333 -15.5 18 -25.5v48h100zM228 70.002
c10 0 20.167 2.83398 30.5 8.50098s19.666 13.334 27.999 23.001s15.166 21.167 20.499 34.5s8 27.666 8 42.999v228c-4.66699 10.667 -11.834 20.5 -21.501 29.5s-22.167 13.5 -37.5 13.5c-21.333 0 -39.666 -7.16699 -54.999 -21.5s-27.666 -32.333 -36.999 -54
s-16.166 -45.334 -20.499 -71.001s-6.5 -50.167 -6.5 -73.5c0 -57.333 7.83301 -98.333 23.5 -123s38.167 -37 67.5 -37z" />
    <glyph glyph-name="b" unicode="b" horiz-adv-x="418" 
d="M47 686l100.002 14.001v-237c11.333 11.333 24.666 20.666 39.999 27.999s33.666 11 54.999 11c18 0 36.667 -3.16699 56 -9.5s37.333 -17.5 54 -33.5s30.334 -38 41.001 -66s16 -63.667 16 -107c0 -38 -4.5 -74.667 -13.5 -110s-22.667 -66.5 -41 -93.5
s-41.166 -48.5 -68.499 -64.5s-59.333 -24 -96 -24c-20.667 0 -39.834 3.16699 -57.501 9.5s-32.834 16.666 -45.501 30.999s-22.667 33.333 -30 57s-11 52.834 -11 87.501zM320.002 263.001c0 26 -2.33594 50.333 -7.00293 73s-11.5 42.5 -20.5 59.5s-20 30.333 -33 40
s-27.833 14.5 -44.5 14.5c-13.333 0 -25.666 -3.16699 -36.999 -9.5s-21.666 -14.5 -30.999 -24.5v-263c0 -60 19.667 -90 59 -90c18.667 0 35.167 5.5 49.5 16.5s26.333 25.833 36 44.5s16.834 40 21.501 64s7 49 7 75z" />
    <glyph glyph-name="c" unicode="c" horiz-adv-x="364" 
d="M273 347c5.33301 4.66699 9.50195 12.165 12.502 22.498s4.5 20.166 4.5 29.499c0 15.333 -4.83301 28 -14.5 38s-23.167 15 -40.5 15c-18 0 -33 -6.66699 -45 -20s-21.667 -30.166 -29 -50.499s-12.5 -43 -15.5 -68s-4.5 -49.5 -4.5 -73.5
c0 -35.333 3.16699 -64 9.5 -86s14.833 -39.167 25.5 -51.5s23.167 -20.833 37.5 -25.5s29.5 -7 45.5 -7c35.333 0 65.166 8.83301 89.499 26.5s45.166 45.167 62.499 82.5h34c-8 -24.667 -19.333 -48.167 -34 -70.5s-31.667 -42 -51 -59s-40.333 -30.5 -63 -40.5
s-46.334 -15 -71.001 -15c-23.333 0 -46.333 4 -69 12s-43 21.167 -61 39.5s-32.667 42.333 -44 72s-17 66.167 -17 109.5c0 28 2.5 58.167 7.5 90.5s14.333 62.333 28 90s32.5 50.834 56.5 69.501s55 28 93 28c42 0 74 -10.167 96 -30.5s33 -50.166 33 -89.499
c0 -16.667 -3.16699 -30.667 -9.5 -42s-16.166 -17 -29.499 -17c-14.667 0 -27 7 -37 21z" />
    <glyph glyph-name="d" unicode="d" 
d="M415 700v-539.998c0 -6.66699 0.333008 -15 1 -25s2.5 -19.833 5.5 -29.5s7.5 -18 13.5 -25s14.333 -10.5 25 -10.5c32.667 0 56.667 36.333 72 109h37c-7.33301 -42 -16.666 -75.167 -27.999 -99.5s-23.333 -42.833 -36 -55.5s-25.667 -20.834 -39 -24.501
s-25.333 -5.5 -36 -5.5c-15.333 0 -28.5 2.66699 -39.5 8s-20.333 12.333 -28 21s-13.834 18.667 -18.501 30s-8.33398 23.333 -11.001 36c-10 -26 -26.167 -48.333 -48.5 -67s-49.5 -28 -81.5 -28c-20 0 -40.167 4 -60.5 12s-38.666 21.167 -54.999 39.5
s-29.666 42 -39.999 71s-15.5 64.5 -15.5 106.5c0 30.667 3.5 62.667 10.5 96s18.167 63.666 33.5 90.999s35 50 59 68s53 27 87 27c8 0 16.5 -0.833008 25.5 -2.5s17.667 -4.5 26 -8.5s16.166 -9.5 23.499 -16.5s13.333 -15.5 18 -25.5v234zM228 70.002
c10 0 20.167 2.83398 30.5 8.50098s19.666 13.334 27.999 23.001s15.166 21.167 20.499 34.5s8 27.666 8 42.999v228c-4.66699 10.667 -11.834 20.5 -21.501 29.5s-22.167 13.5 -37.5 13.5c-21.333 0 -39.666 -7.16699 -54.999 -21.5s-27.666 -32.333 -36.999 -54
s-16.166 -45.334 -20.499 -71.001s-6.5 -50.167 -6.5 -73.5c0 -57.333 7.83301 -98.333 23.5 -123s38.167 -37 67.5 -37z" />
    <glyph glyph-name="e" unicode="e" horiz-adv-x="368" 
d="M359 375c0 -46.667 -19.1689 -85.6611 -57.502 -116.994s-91.5 -50.666 -159.5 -57.999c2.66699 -26.667 7.5 -48.334 14.5 -65.001s15.5 -29.834 25.5 -39.501s21.5 -16.334 34.5 -20.001s26.5 -5.5 40.5 -5.5c32 0 62 8.33301 90 25s50.667 44.667 68 84h32
c-8.66699 -24.667 -20.667 -48.167 -36 -70.5s-33.333 -42 -54 -59s-43 -30.5 -67 -40.5s-48.667 -15 -74 -15c-23.333 0 -45.833 4 -67.5 12s-40.834 21.167 -57.501 39.5s-30.167 42.166 -40.5 71.499s-15.5 65.333 -15.5 108c0 28 3.16699 58.333 9.5 91s17 63 32 91
s34.667 51.333 59 70s54.5 28 90.5 28c16.667 0 32.834 -1.83301 48.501 -5.5s29.834 -10.334 42.501 -20.001s22.834 -22.834 30.501 -39.501s11.5 -38.334 11.5 -65.001zM140.998 239.006c47.333 7.33301 84.833 24.001 112.5 50.001s41.5 58 41.5 96
c0 25.333 -4.33301 43.5 -13 54.5s-21 16.5 -37 16.5c-17.333 0 -32.5 -6.66699 -45.5 -20s-23.833 -30.5 -32.5 -51.5s-15.167 -44.333 -19.5 -70s-6.5 -50.834 -6.5 -75.501z" />
    <glyph glyph-name="f" unicode="f" horiz-adv-x="239" 
d="M146 500l80.999 0.000976562v-35h-81v-545c0 -35.333 -3.5 -64 -10.5 -86s-16.167 -39.333 -27.5 -52s-24.5 -21.167 -39.5 -25.5s-30.833 -6.5 -47.5 -6.5c-36 0 -62.5 8.33301 -79.5 25s-25.5 40.667 -25.5 72c0 16.667 3.83301 32 11.5 46s17.667 26.833 30 38.5
s26.166 22 41.499 31s31 16.833 47 23.5v590c0 58 13.667 101.5 41 130.5s62.333 43.5 105 43.5c20 0 38.333 -3 55 -9s31.334 -15.333 44.001 -28s22.5 -28.334 29.5 -47.001s10.5 -40.667 10.5 -66h-39c-4 26.667 -11.167 47.667 -21.5 63s-27.5 23 -51.5 23
c-16 0 -28.667 -3.5 -38 -10.5s-16.666 -16.5 -21.999 -28.5s-8.83301 -26.5 -10.5 -43.5s-2.5 -35.5 -2.5 -55.5v-48zM0.999023 -197.999c19.333 0 31.667 10.332 37 30.999s8 49 8 85v31c-30 -14.667 -52.667 -30.667 -68 -48s-23 -34.333 -23 -51
c0 -13.333 4.33301 -24.666 13 -33.999s19.667 -14 33 -14z" />
    <glyph glyph-name="g" unicode="g" 
d="M415 500l-0.000976562 -478.998c16.667 5.33301 31.5 11.333 44.5 18s24.333 15.667 34 27s17.667 26 24 44s11.166 41 14.499 69h37c-5.33301 -35.333 -12.166 -64.166 -20.499 -86.499s-18.666 -40.333 -30.999 -54s-27 -24.334 -44 -32.001
s-36.5 -14.834 -58.5 -21.501v-64c0 -31.333 -3.33301 -57.833 -10 -79.5s-15.834 -39.334 -27.501 -53.001s-25 -23.5 -40 -29.5s-30.833 -9 -47.5 -9c-33.333 0 -59.333 9.5 -78 28.5s-28 42.167 -28 69.5c0 17.333 3.83301 33 11.5 47s17.667 26.833 30 38.5
s26.333 22 42 31s31.5 16.833 47.5 23.5v86c-12.667 -17.333 -28.5 -31.666 -47.5 -42.999s-40.5 -17 -64.5 -17c-20 0 -40.167 3.83301 -60.5 11.5s-38.666 20.167 -54.999 37.5s-29.666 40 -39.999 68s-15.5 62 -15.5 102c0 30 3.5 61 10.5 93s18.167 61.167 33.5 87.5
s35 48.166 59 65.499s53 26 87 26c8 0 16.5 -0.833008 25.5 -2.5s17.667 -4.5 26 -8.5s16.166 -9.5 23.499 -16.5s13.333 -15.5 18 -25.5v48h100zM227.999 90.002c10 0 20.167 2.66895 30.5 8.00195s19.666 12.666 27.999 21.999s15.166 20.333 20.499 33s8 26.334 8 41.001
v213c-4.66699 10.667 -11.834 20.5 -21.501 29.5s-22.167 13.5 -37.5 13.5c-21.333 0 -39.666 -6.83301 -54.999 -20.5s-27.666 -30.834 -36.999 -51.501s-16.166 -43.334 -20.499 -68.001s-6.5 -48 -6.5 -70c0 -54 7.83301 -92.5 23.5 -115.5s38.167 -34.5 67.5 -34.5z
M270.999 -197.996c18 0 29.834 6.83301 35.501 20.5s8.5 32.167 8.5 55.5v70c-33.333 -15.333 -57 -30.5 -71 -45.5s-21 -31.833 -21 -50.5c0 -15.333 4.16699 -27.5 12.5 -36.5s20.166 -13.5 35.499 -13.5z" />
    <glyph glyph-name="h" unicode="h" horiz-adv-x="467" 
d="M146 700l0.00195312 -276.001c10 18 20.167 32.5 30.5 43.5s20.833 19.167 31.5 24.5s20.834 8.83301 30.501 10.5s18.834 2.5 27.501 2.5c30 0 54.167 -5.66699 72.5 -17s32.166 -25.833 41.499 -43.5s15.5 -37 18.5 -58s4.5 -41.167 4.5 -60.5
c0 -12 -0.333008 -25.167 -1 -39.5l-2 -44l-2 -45c-0.666992 -15 -1 -28.833 -1 -41.5c0 -5.33301 0.333008 -12.833 1 -22.5s2.33398 -19.167 5.00098 -28.5s7 -17.5 13 -24.5s14.667 -10.5 26 -10.5c15.333 0 29.166 8.66699 41.499 26s22.5 45 30.5 83h37
c-7.33301 -42 -16.666 -75.167 -27.999 -99.5s-23.333 -42.833 -36 -55.5s-25.334 -20.834 -38.001 -24.501s-24.334 -5.5 -35.001 -5.5c-21.333 0 -39.333 4.16699 -54 12.5s-26.667 19.5 -36 33.5s-16.166 30.333 -20.499 49s-6.5 38 -6.5 58
c0 6 0.166992 17.167 0.5 33.5s0.666016 33.833 0.999023 52.5s0.666016 36.334 0.999023 53.001s0.5 28.334 0.5 35.001c0 21.333 -1.66699 39 -5 53s-8 25 -14 33s-12.833 13.667 -20.5 17s-15.834 5 -24.501 5c-20.667 0 -38.5 -8.33301 -53.5 -25
s-27.167 -44.667 -36.5 -84v-320h-100v686z" />
    <glyph glyph-name="i" unicode="i" horiz-adv-x="217" 
d="M147 500v-339.999c0 -6.66699 0.333008 -15 1 -25s2.5 -19.833 5.5 -29.5s7.5 -18 13.5 -25s14.333 -10.5 25 -10.5c32.667 0 56.667 36.333 72 109h37c-7.33301 -42 -16.666 -75.167 -27.999 -99.5s-23.333 -42.833 -36 -55.5s-25.667 -20.834 -39 -24.501
s-25.333 -5.5 -36 -5.5c-23.333 0 -42.333 4.5 -57 13.5s-26.334 20.5 -35.001 34.5s-14.667 29.667 -18 47s-5 34 -5 50v361h100zM29 644.001c0 18 6.33301 33.667 19 47s28.334 20 47.001 20c18 0 33.667 -6.66699 47 -20s20 -29 20 -47
c0 -18.667 -6.66699 -34.334 -20 -47.001s-29 -19 -47 -19c-18.667 0 -34.334 6.33301 -47.001 19s-19 28.334 -19 47.001z" />
    <glyph glyph-name="j" unicode="j" horiz-adv-x="217" 
d="M147 500v-478.998c16.667 5.33301 31.5 11.333 44.5 18s24.333 15.667 34 27s17.667 26 24 44s11.166 41 14.499 69h37c-5.33301 -35.333 -12.166 -64.166 -20.499 -86.499s-18.666 -40.333 -30.999 -54s-27 -24.334 -44 -32.001s-36.5 -14.834 -58.5 -21.501v-64
c0 -31.333 -3.33301 -57.833 -10 -79.5s-15.834 -39.334 -27.501 -53.001s-25 -23.5 -40 -29.5s-30.833 -9 -47.5 -9c-33.333 0 -59.333 9.5 -78 28.5s-28 42.167 -28 69.5c0 17.333 3.83301 33 11.5 47s17.667 26.833 30 38.5s26.333 22 42 31s31.5 16.833 47.5 23.5v512
h100zM29 644.002c0 18 6.33301 33.667 19 47s28.334 20 47.001 20c18 0 33.667 -6.66699 47 -20s20 -29 20 -47c0 -18.667 -6.66699 -34.334 -20 -47.001s-29 -19 -47 -19c-18.667 0 -34.334 6.33301 -47.001 19s-19 28.334 -19 47.001zM3 -197.998
c18 0 29.834 6.83301 35.501 20.5s8.5 32.167 8.5 55.5v70c-33.333 -15.333 -57 -30.5 -71 -45.5s-21 -31.833 -21 -50.5c0 -15.333 4.16699 -27.5 12.5 -36.5s20.166 -13.5 35.499 -13.5z" />
    <glyph glyph-name="k" unicode="k" horiz-adv-x="457" 
d="M146 700l-0.000976562 -363.001l172 163h97l-167 -135h10c30 0 53.833 -5 71.5 -15s31.334 -22.833 41.001 -38.5s16 -32.667 19 -51s4.5 -35.5 4.5 -51.5c0 -6.66699 -0.166992 -14.167 -0.5 -22.5l-1 -25c-0.333008 -8.33301 -0.666016 -16 -0.999023 -23
s-0.5 -12.5 -0.5 -16.5c0 -4.66699 0.333008 -10 1 -16s2.33398 -11.667 5.00098 -17s6.66699 -9.83301 12 -13.5s12.333 -5.5 21 -5.5c17.333 0 32.166 8.66699 44.499 26s22.5 45 30.5 83h37c-8 -43.333 -17.667 -77.166 -29 -101.499s-23.5 -42.833 -36.5 -55.5
s-26 -20.5 -39 -23.5s-24.5 -4.5 -34.5 -4.5c-20 0 -37.167 3 -51.5 9s-26 14.167 -35 24.5s-15.667 22.5 -20 36.5s-6.5 28.667 -6.5 44v17.5c0 9 0.166992 18.5 0.5 28.5s0.5 19.5 0.5 28.5v18.5c0 34.667 -6.33301 58 -19 70s-27.334 18 -44.001 18
c-17.333 0 -32.833 -5.66699 -46.5 -17s-25.5 -31.333 -35.5 -60v-212h-100v686z" />
    <glyph glyph-name="l" unicode="l" horiz-adv-x="216" 
d="M147 700v-539.999c0 -6.66699 0.333008 -15 1 -25s2.5 -19.833 5.5 -29.5s7.5 -18 13.5 -25s14.333 -10.5 25 -10.5c32.667 0 56.667 36.333 72 109h37c-7.33301 -42 -16.666 -75.167 -27.999 -99.5s-23.333 -42.833 -36 -55.5s-25.667 -20.834 -39 -24.501
s-25.333 -5.5 -36 -5.5c-23.333 0 -42.333 4.5 -57 13.5s-26.334 20.5 -35.001 34.5s-14.667 29.667 -18 47s-5 34 -5 50v547z" />
    <glyph glyph-name="m" unicode="m" horiz-adv-x="693" 
d="M146 500l0.00683594 -69c17.333 32 35.666 52.333 54.999 61s37.666 13 54.999 13s32.5 -2.33301 45.5 -7s24.167 -11 33.5 -19s17.166 -17.333 23.499 -28s11.5 -22.334 15.5 -35.001c9.33301 20 19 35.833 29 47.5s20 20.667 30 27s19.833 10.333 29.5 12
s18.5 2.5 26.5 2.5c30 0 54.167 -5.66699 72.5 -17s32.166 -25.833 41.499 -43.5s15.5 -37 18.5 -58s4.5 -41.167 4.5 -60.5c0 -12 -0.333008 -25.167 -1 -39.5l-2 -44l-2 -45c-0.666992 -15 -1 -28.833 -1 -41.5c0 -5.33301 0.333008 -12.833 1 -22.5
s2.33398 -19.167 5.00098 -28.5s7 -17.5 13 -24.5s14.667 -10.5 26 -10.5c15.333 0 29.166 8.66699 41.499 26s22.5 45 30.5 83h37c-7.33301 -42 -16.666 -75.167 -27.999 -99.5s-23.333 -42.833 -36 -55.5s-25.334 -20.834 -38.001 -24.501s-24.334 -5.5 -35.001 -5.5
c-21.333 0 -39.333 4.16699 -54 12.5s-26.667 19.5 -36 33.5s-16.166 30.333 -20.499 49s-6.5 38 -6.5 58c0 6 0.166992 17.167 0.5 33.5s0.666016 33.833 0.999023 52.5s0.666016 36.334 0.999023 53.001s0.5 28.334 0.5 35.001c0 21.333 -1.66699 39 -5 53s-8 25 -14 33
s-12.833 13.667 -20.5 17s-15.834 5 -24.501 5c-20.667 0 -37.5 -8.33301 -50.5 -25s-22.167 -44.667 -27.5 -84v-320h-100v334c0 12 -0.5 23.667 -1.5 35s-3.5 21.5 -7.5 30.5s-9.66699 16.167 -17 21.5s-17.333 8 -30 8c-21.333 0 -37.5 -8.83301 -48.5 -26.5
s-21.167 -45.167 -30.5 -82.5v-320h-100v500h100z" />
    <glyph glyph-name="n" unicode="n" horiz-adv-x="467" 
d="M146 500l0.00195312 -76.001c10 18 20.167 32.5 30.5 43.5s20.833 19.167 31.5 24.5s20.834 8.83301 30.501 10.5s18.834 2.5 27.501 2.5c30 0 54.167 -5.66699 72.5 -17s32.166 -25.833 41.499 -43.5s15.5 -37 18.5 -58s4.5 -41.167 4.5 -60.5
c0 -12 -0.333008 -25.167 -1 -39.5l-2 -44l-2 -45c-0.666992 -15 -1 -28.833 -1 -41.5c0 -5.33301 0.333008 -12.833 1 -22.5s2.33398 -19.167 5.00098 -28.5s7 -17.5 13 -24.5s14.667 -10.5 26 -10.5c15.333 0 29.166 8.66699 41.499 26s22.5 45 30.5 83h37
c-7.33301 -42 -16.666 -75.167 -27.999 -99.5s-23.333 -42.833 -36 -55.5s-25.334 -20.834 -38.001 -24.501s-24.334 -5.5 -35.001 -5.5c-21.333 0 -39.333 4.16699 -54 12.5s-26.667 19.5 -36 33.5s-16.166 30.333 -20.499 49s-6.5 38 -6.5 58
c0 6 0.166992 17.167 0.5 33.5s0.666016 33.833 0.999023 52.5s0.666016 36.334 0.999023 53.001s0.5 28.334 0.5 35.001c0 21.333 -1.66699 39 -5 53s-8 25 -14 33s-12.833 13.667 -20.5 17s-15.834 5 -24.501 5c-20.667 0 -38.5 -8.33301 -53.5 -25
s-27.167 -44.667 -36.5 -84v-320h-100v500h100z" />
    <glyph glyph-name="o" unicode="o" horiz-adv-x="419" 
d="M229 505c26 0 48.333 -3.99805 67 -11.998s34 -19.167 46 -33.5s21.5 -31.166 28.5 -50.499s12.167 -40 15.5 -62h6c28 0 53.667 5.66699 77 17s43.333 25.666 60 42.999l15 -27c-13.333 -21.333 -34.5 -39 -63.5 -53s-58.833 -23.667 -89.5 -29
c0 -6.66699 0.166992 -13.334 0.5 -20.001s0.5 -13.667 0.5 -21c0 -82 -15 -146.333 -45 -193s-72 -70 -126 -70c-22 0 -44.167 4 -66.5 12s-42.5 21.333 -60.5 40s-32.5 42.667 -43.5 72s-16.5 65.666 -16.5 108.999c0 29.333 3.16699 60.333 9.5 93s17 62.667 32 90
s35 50 60 68s56.167 27 93.5 27zM239 70.002c35.333 0 61.333 17.5049 78 52.5049s25 84.5 25 148.5v12c0 4 -0.333008 8 -1 12c-19.333 1.33301 -33.166 5.66602 -41.499 12.999s-12.5 19.666 -12.5 36.999c0 15.333 3.33301 26.166 10 32.499s16.667 9.83301 30 10.5
c-8 23.333 -18.167 39.5 -30.5 48.5s-26.166 13.5 -41.499 13.5c-20.667 0 -38.167 -6.83301 -52.5 -20.5s-26 -31.167 -35 -52.5s-15.5 -44.833 -19.5 -70.5s-6 -50.834 -6 -75.501c0 -32.667 3 -59.334 9 -80.001s13.667 -37 23 -49s19.666 -20.333 30.999 -25
s22.666 -7 33.999 -7z" />
    <glyph glyph-name="p" unicode="p" horiz-adv-x="423" 
d="M147 537v-76.998c12.667 13.333 27.5 24.166 44.5 32.499s36.833 12.5 59.5 12.5c23.333 0 45 -5 65 -15s37.5 -25.167 52.5 -45.5s26.833 -46 35.5 -77s13 -67.833 13 -110.5c0 -83.333 -15.667 -148 -47 -194s-73 -69 -125 -69c-22 0 -40.833 4.16699 -56.5 12.5
s-29.5 20.166 -41.5 35.499v-267l-101 -25v787h101zM216 440.002c-14.667 0 -27.834 -4.16895 -39.501 -12.502s-21.5 -20.166 -29.5 -35.499v-300c9.33301 -12 19.833 -20.667 31.5 -26s23.167 -8 34.5 -8c16.667 0 31.334 5.33301 44.001 16s23.5 25.167 32.5 43.5
s15.833 39.833 20.5 64.5s7 51 7 79c0 34.667 -3.16699 63.5 -9.5 86.5s-14.5 41.333 -24.5 55s-21 23.334 -33 29.001s-23.333 8.5 -34 8.5z" />
    <glyph glyph-name="q" unicode="q" horiz-adv-x="445" 
d="M415 500l-0.00195312 -724.999l-101 -25v303c-12.667 -17.333 -28.5 -31.5 -47.5 -42.5s-40.167 -16.5 -63.5 -16.5c-20 0 -40.167 4 -60.5 12s-38.666 21.167 -54.999 39.5s-29.666 42 -39.999 71s-15.5 64.5 -15.5 106.5c0 30.667 3.5 62.667 10.5 96
s18.167 63.666 33.5 90.999s35 50 59 68s53 27 87 27c16 0 33 -3.5 51 -10.5s31.667 -20.5 41 -40.5v46h101zM227.998 70.001c9.33301 0 18.832 2.33203 28.499 6.99902s18.5 11.334 26.5 20.001s14.833 18.834 20.5 30.501s9.16699 24.167 10.5 37.5v245
c-4.66699 10 -11.834 19.167 -21.501 27.5s-21.834 12.5 -36.501 12.5c-21.333 0 -39.666 -7.16699 -54.999 -21.5s-27.666 -32.333 -36.999 -54s-16.166 -45.334 -20.499 -71.001s-6.5 -50.167 -6.5 -73.5c0 -57.333 7.83301 -98.333 23.5 -123s38.167 -37 67.5 -37z" />
    <glyph glyph-name="r" unicode="r" horiz-adv-x="336" 
d="M146 500l0.00195312 -83.999l23.5 34c7.66699 10.667 16.167 20 25.5 28s19.666 14.5 30.999 19.5s24 7.5 38 7.5c22.667 0 39.334 -5.83301 50.001 -17.5s16 -25.834 16 -42.501c0 -10 -1.66699 -18.333 -5 -25s-7.33301 -12 -12 -16s-9.66699 -6.83301 -15 -8.5
s-10 -2.5 -14 -2.5c-6 0 -10.833 1.33301 -14.5 4s-7.33398 5.5 -11.001 8.5s-7.83398 5.83301 -12.501 8.5s-10.667 4 -18 4c-15.333 0 -30 -5.33301 -44 -16s-26.667 -22 -38 -34v-368h-100v500h100z" />
    <glyph glyph-name="s" unicode="s" horiz-adv-x="342" 
d="M431 179c-19.333 -26.667 -39.168 -48.8301 -59.501 -66.4971s-40.166 -33.167 -59.499 -46.5c-7.33301 -13.333 -16.666 -24.5 -27.999 -33.5s-23.5 -16.333 -36.5 -22s-26 -9.83398 -39 -12.501s-24.833 -4 -35.5 -4c-29.333 0 -53.5 4.66699 -72.5 14
s-34.167 21.166 -45.5 35.499s-19.333 30.333 -24 48s-7 34.5 -7 50.5c0 17.333 3.5 32.5 10.5 45.5s15.5 22.167 25.5 27.5l51 148.5c16.667 49 27.667 98.167 33 147.5l101 20l39.5 -155c10.333 -40 18.666 -73.833 24.999 -101.5s11 -52 14 -73s4.5 -44.167 4.5 -69.5
c11.333 7.33301 22 15.166 32 23.499l29 23.5h42zM221.998 139.004c0 20.667 -1.16602 39.001 -3.49902 55.001s-5.83301 33.667 -10.5 53l-17.5 70.5c-7 27.667 -15.167 63.167 -24.5 106.5c-4 -37.333 -12.167 -73 -24.5 -107s-23.5 -69 -33.5 -105
c6 -4 11.167 -9.5 15.5 -16.5s6.5 -16.167 6.5 -27.5c0 -12.667 -3.33301 -22.334 -10 -29.001s-14 -10 -22 -10c-10.667 0 -19.667 4.66699 -27 14c5.33301 -23.333 14.666 -41.5 27.999 -54.5s31 -19.5 53 -19.5c21.333 0 38.333 5.5 51 16.5s19 28.833 19 53.5z" />
    <glyph glyph-name="t" unicode="t" horiz-adv-x="236" 
d="M147 652l0.00195312 -152.001h77v-35h-77v-305c0 -8 0.333008 -17.167 1 -27.5s2.5 -20.166 5.5 -29.499s7.66699 -17.166 14 -23.499s15.166 -9.5 26.499 -9.5c18 0 35.167 9 51.5 27s29.166 45.333 38.499 82h37c-11.333 -42 -23.5 -75.167 -36.5 -99.5
s-26.5 -42.833 -40.5 -55.5s-27.833 -20.834 -41.5 -24.501s-26.167 -5.5 -37.5 -5.5c-24 0 -43.667 4.5 -59 13.5s-27.333 20.5 -36 34.5s-14.667 29.5 -18 46.5s-5 33.833 -5 50.5v326h-34v35h34v138z" />
    <glyph glyph-name="u" unicode="u" horiz-adv-x="454" 
d="M384 500l0.00488281 -339.996c0 -6.66699 0.333008 -15 1 -25s2.5 -19.833 5.5 -29.5s7.5 -18 13.5 -25s14.333 -10.5 25 -10.5c32.667 0 56.667 36.333 72 109h37c-7.33301 -42 -16.666 -75.167 -27.999 -99.5s-23.333 -42.833 -36 -55.5s-25.667 -20.834 -39 -24.501
s-25.333 -5.5 -36 -5.5c-15.333 0 -28.5 2.66699 -39.5 8s-20.333 12.333 -28 21s-13.834 18.667 -18.501 30s-8.33398 23 -11.001 35c-12.667 -32.667 -29.334 -56.5 -50.001 -71.5s-42.334 -22.5 -65.001 -22.5c-19.333 0 -37.666 2.66699 -54.999 8
s-32.333 14.166 -45 26.499s-22.667 28.333 -30 48s-11 43.834 -11 72.501v351h100v-340c0 -32.667 5.66699 -55.834 17 -69.501s25.666 -20.5 42.999 -20.5c9.33301 0 18.666 2.5 27.999 7.5s17.666 12.167 24.999 21.5s13.333 20.666 18 33.999s7 28.666 7 45.999v321h100
z" />
    <glyph glyph-name="v" unicode="v" horiz-adv-x="399" 
d="M368 337c0 -38 -3.16992 -77.168 -9.50293 -117.501s-16.833 -77.166 -31.5 -110.499s-33.667 -60.833 -57 -82.5s-52.333 -32.5 -87 -32.5c-17.333 0 -34.166 3 -50.499 9s-31 14.667 -44 26s-23.333 25.666 -31 42.999s-11.5 37 -11.5 59v369h100v-340
c0 -11.333 0.666992 -22.333 2 -33s4.16602 -20.167 8.49902 -28.5s10.333 -15.166 18 -20.499s17.5 -8 29.5 -8c20.667 0 38 7.5 52 22.5s25.5 34.5 34.5 58.5s15.5 50.833 19.5 80.5s6 59.167 6 88.5c0 18.667 -0.666992 37.167 -2 55.5s-3.66602 34.833 -6.99902 49.5
c-3.33301 -3.33301 -7.66602 -5.5 -12.999 -6.5s-9.66602 -1.5 -12.999 -1.5c-16 0 -28 5.66699 -36 17s-12 23.333 -12 36c0 13.333 4.33301 25.166 13 35.499s21.334 15.5 38.001 15.5c11.333 0 22.166 -3.33301 32.499 -10s19.333 -17.167 27 -31.5
s13.667 -33.166 18 -56.499s6.5 -52 6.5 -86z" />
    <glyph glyph-name="w" unicode="w" horiz-adv-x="623" 
d="M146 500l-0.000976562 -339.999c0 -32.667 5.66699 -55.834 17 -69.501s25.666 -20.5 42.999 -20.5c9.33301 0 18.666 2.5 27.999 7.5s17.666 12.167 24.999 21.5s13.333 20.666 18 33.999s7 28.666 7 45.999v321h100v-340c0 -11.333 0.666992 -22.333 2 -33
s4.16602 -20.167 8.49902 -28.5s10.333 -15.166 18 -20.499s17.5 -8 29.5 -8c20.667 0 38 7.5 52 22.5s25.5 34.5 34.5 58.5s15.5 50.833 19.5 80.5s6 59.167 6 88.5c0 18.667 -0.666992 37.167 -2 55.5s-3.66602 34.833 -6.99902 49.5
c-3.33301 -3.33301 -7.66602 -5.5 -12.999 -6.5s-9.66602 -1.5 -12.999 -1.5c-16 0 -28 5.66699 -36 17s-12 23.333 -12 36c0 13.333 4.33301 25.166 13 35.499s21.334 15.5 38.001 15.5c11.333 0 22.166 -3.33301 32.499 -10s19.333 -17.167 27 -31.5
s13.667 -33.166 18 -56.499s6.5 -52 6.5 -86c0 -38 -3.16699 -77.167 -9.5 -117.5s-16.833 -77.166 -31.5 -110.499s-33.667 -60.833 -57 -82.5s-52.333 -32.5 -87 -32.5c-26 0 -50.667 6.66699 -74 20s-40.666 32.666 -51.999 57.999
c-13.333 -27.333 -29.5 -47.166 -48.5 -59.499s-38.833 -18.5 -59.5 -18.5c-19.333 0 -37.666 2.66699 -54.999 8s-32.333 14.166 -45 26.499s-22.667 28.333 -30 48s-11 43.834 -11 72.501v351h100z" />
    <glyph glyph-name="x" unicode="x" horiz-adv-x="498" 
d="M352 275c9.33301 12.667 18.499 25.9971 27.499 39.9971s17.167 28.333 24.5 43s13.166 29 17.499 43s6.5 27.667 6.5 41v9c0 2.66699 -0.333008 5.33398 -1 8.00098c-6 -2.66699 -13 -4 -21 -4c-14.667 0 -27.5 4.83301 -38.5 14.5s-16.5 22.5 -16.5 38.5
c0 14.667 5 27 15 37s22.667 15 38 15c19.333 0 35.666 -8.5 48.999 -25.5s20 -41.5 20 -73.5c0 -35.333 -9.16699 -71 -27.5 -107s-44.166 -77 -77.499 -123l20 -53c12 -32.667 24 -58.834 36 -78.501s26.667 -29.5 44 -29.5c10 0 19.5 3.16699 28.5 9.5s17 14.5 24 24.5
s12.667 21.333 17 34s7.16602 25.334 8.49902 38.001h30c-3.33301 -39.333 -10.833 -70.833 -22.5 -94.5s-25 -42 -40 -55s-30.167 -21.667 -45.5 -26s-28.333 -6.5 -39 -6.5c-30 0 -55.833 13.5 -77.5 40.5s-43.5 70.5 -65.5 130.5l-105 -165h-68l155 216l-44 124
c-12 34 -22 57.5 -30 70.5s-16.667 19.5 -26 19.5c-37.333 0 -66 -84.333 -86 -253h-37c4 20 7.83301 42 11.5 66s7.83398 48.167 12.501 72.5s10.334 47.833 17.001 70.5s15.167 42.834 25.5 60.501s22.5 31.834 36.5 42.501s31 16 51 16c29.333 0 52.333 -11.167 69 -33.5
s31.334 -50.833 44.001 -85.5z" />
    <glyph glyph-name="y" unicode="y" horiz-adv-x="454" 
d="M384 500l0.00195312 -478.999c16.667 5.33301 31.5 11.333 44.5 18s24.333 15.667 34 27s17.667 26 24 44s11.166 41 14.499 69h37c-5.33301 -35.333 -12.166 -64.166 -20.499 -86.499s-18.666 -40.333 -30.999 -54s-27 -24.334 -44 -32.001s-36.5 -14.834 -58.5 -21.501
v-64c0 -31.333 -3.33301 -57.833 -10 -79.5s-15.834 -39.334 -27.501 -53.001s-25 -23.5 -40 -29.5s-30.833 -9 -47.5 -9c-33.333 0 -59.333 9.5 -78 28.5s-28 42.167 -28 69.5c0 17.333 3.83301 33 11.5 47s17.667 26.833 30 38.5s26.333 22 42 31s31.5 16.833 47.5 23.5
v63c-13.333 -19.333 -28.5 -33.666 -45.5 -42.999s-34.167 -14 -51.5 -14c-19.333 0 -37.666 2.66699 -54.999 8s-32.333 14.166 -45 26.499s-22.667 28.333 -30 48s-11 43.834 -11 72.501v351h100v-340c0 -32.667 5.66699 -55.834 17 -69.501s25.666 -20.5 42.999 -20.5
c9.33301 0 18.666 2.33301 27.999 7s17.666 11.5 24.999 20.5s13.333 19.833 18 32.5s7 27.334 7 44.001v326h100zM240.002 -197.999c18 0 29.834 6.83301 35.501 20.5s8.5 32.167 8.5 55.5v70c-33.333 -15.333 -57 -30.5 -71 -45.5s-21 -31.833 -21 -50.5
c0 -15.333 4.16699 -27.5 12.5 -36.5s20.166 -13.5 35.499 -13.5z" />
    <glyph glyph-name="z" unicode="z" horiz-adv-x="414" 
d="M368 85c-5.33301 1.33301 -9.66699 4.66895 -13 10.002s-5 10.666 -5 15.999c0 10.667 4.16699 18.834 12.5 24.501s17.833 8.5 28.5 8.5c14.667 0 28 -5 40 -15s18 -24.667 18 -44c0 -10 -2.66699 -20 -8 -30s-13 -19 -23 -27s-22 -14.667 -36 -20s-29.667 -8 -47 -8
h-262l216 446h-86c-14.667 0 -27.834 -0.833008 -39.501 -2.5s-17.5 -5.5 -17.5 -11.5c0 -6.66699 2.83301 -12 8.5 -16s8.5 -9.33301 8.5 -16c0 -7.33301 -4.16699 -14.333 -12.5 -21s-19.166 -10 -32.499 -10c-18.667 0 -32.834 7.16699 -42.501 21.5
s-14.5 31.166 -14.5 50.499c0 17.333 7.5 31.5 22.5 42.5s41.833 16.5 80.5 16.5h248l-214 -430c4 0 11.833 -0.333008 23.5 -1s24.167 -1.33398 37.5 -2.00098l39 -2c12.667 -0.666992 22.334 -1 29.001 -1c12 0 21.5 2 28.5 6s11.167 9 12.5 15z" />
    <glyph glyph-name="braceleft" unicode="{" horiz-adv-x="257" 
d="M231 -236c-14 -4 -28.667 -5.99121 -44 -5.99121c-23.333 0 -43 4.66699 -59 14s-28.667 21 -38 35s-16 29.5 -20 46.5s-6 33.5 -6 49.5c0 21.333 2.83301 43.333 8.5 66s11.834 45.167 18.501 67.5s12.834 44 18.501 65s8.5 41.167 8.5 60.5c0 8 -0.666992 16 -2 24
s-4 15.167 -8 21.5s-9.33301 11.5 -16 15.5s-15.334 6 -26.001 6c-8.66699 0 -19 -1 -31 -3v56c12 -2 22.333 -3 31 -3c10.667 0 19.334 2 26.001 6s12 9.16699 16 15.5s6.66699 13.5 8 21.5s2 16 2 24c0 18.667 -2.83301 38.667 -8.5 60s-11.834 43.166 -18.501 65.499
s-12.834 44.833 -18.501 67.5s-8.5 44.667 -8.5 66c0 16 2 32.5 6 49.5s10.667 32.5 20 46.5s22 25.667 38 35s35.667 14 59 14c15.333 0 30 -2 44 -6v-47c-5.33301 0.666992 -10.5 1.5 -15.5 2.5s-9.83301 1.5 -14.5 1.5c-15.333 0 -28.166 -2.5 -38.499 -7.5
s-18.5 -12 -24.5 -21s-10.333 -19.5 -13 -31.5s-4 -25 -4 -39c0 -24 2.83301 -48 8.5 -72s11.834 -47.833 18.501 -71.5s12.834 -46.834 18.501 -69.501s8.5 -44.334 8.5 -65.001c0 -12.667 -1.5 -24.834 -4.5 -36.501s-8.16699 -22.834 -15.5 -33.501
c7.33301 -10.667 12.5 -21.834 15.5 -33.501s4.5 -23.834 4.5 -36.501c0 -20.667 -2.83301 -42.334 -8.5 -65.001s-11.834 -45.834 -18.501 -69.501s-12.834 -47.5 -18.501 -71.5s-8.5 -48 -8.5 -72c0 -14 1.33301 -27 4 -39s7 -22.5 13 -31.5s14.167 -16 24.5 -21
s23.166 -7.5 38.499 -7.5c4.66699 0 9.5 0.5 14.5 1.5s10.167 1.83301 15.5 2.5v-47z" />
    <glyph glyph-name="bar" unicode="|" horiz-adv-x="195" 
d="M124 -250h-53v1001h53v-1001z" />
    <glyph glyph-name="braceright" unicode="}" horiz-adv-x="257" 
d="M27 -189c5.33301 -0.666992 10.332 -1.50879 14.999 -2.50879s9.33398 -1.5 14.001 -1.5c30.667 0 51.667 9.5 63 28.5s17 42.5 17 70.5c0 24 -2.83301 48 -8.5 72s-11.834 47.833 -18.501 71.5s-12.834 46.834 -18.501 69.501s-8.5 44.334 -8.5 65.001
c0 12.667 1.5 24.834 4.5 36.501s8.16699 22.834 15.5 33.501c-7.33301 10.667 -12.5 21.834 -15.5 33.501s-4.5 23.834 -4.5 36.501c0 20.667 2.83301 42.334 8.5 65.001s11.834 45.834 18.501 69.501s12.834 47.5 18.501 71.5s8.5 48 8.5 72c0 28 -5.66699 51.5 -17 70.5
s-32.333 28.5 -63 28.5c-4.66699 0 -9.5 -0.5 -14.5 -1.5s-10.167 -1.83301 -15.5 -2.5v47c14 4 28.667 6 44 6c23.333 0 42.833 -4.66699 58.5 -14s28.334 -21 38.001 -35s16.5 -29.5 20.5 -46.5s6 -33.5 6 -49.5c0 -21.333 -2.83301 -43.333 -8.5 -66
s-11.834 -45.167 -18.501 -67.5s-12.834 -44.166 -18.501 -65.499s-8.5 -41.333 -8.5 -60c0 -8 0.666992 -16 2 -24s4 -15.167 8 -21.5s9.33301 -11.5 16 -15.5s15.334 -6 26.001 -6c8.66699 0 19 1 31 3v-56c-12 2 -22.333 3 -31 3c-10.667 0 -19.334 -2 -26.001 -6
s-12 -9.16699 -16 -15.5s-6.66699 -13.5 -8 -21.5s-2 -16 -2 -24c0 -19.333 2.83301 -39.5 8.5 -60.5s11.834 -42.667 18.501 -65s12.834 -44.833 18.501 -67.5s8.5 -44.667 8.5 -66c0 -16 -2 -32.5 -6 -49.5s-10.833 -32.5 -20.5 -46.5s-22.334 -25.667 -38.001 -35
s-35.167 -14 -58.5 -14c-14.667 0 -29 2 -43 6v47z" />
    <glyph glyph-name="asciitilde" unicode="~" horiz-adv-x="401" 
d="M375 671c0 -10.667 -3.49707 -21.3301 -10.4971 -31.9971s-16.167 -20.334 -27.5 -29.001s-24.666 -15.667 -39.999 -21s-31.333 -8 -48 -8c-14.667 0 -28.834 1.66699 -42.501 5s-27 7.16602 -40 11.499s-25.833 8.16602 -38.5 11.499s-25 5 -37 5
c-22.667 0 -41 -8 -55 -24l-5 2c8.66699 29.333 24.167 51.333 46.5 66s50.5 22 84.5 22c16.667 0 31.667 -1.5 45 -4.5s26 -6.33301 38 -10s23.667 -7 35 -10s23.666 -4.5 36.999 -4.5c11.333 0 21.666 1.66699 30.999 5s16.666 8.33301 21.999 15h5z" />
    <glyph glyph-name="exclamdown" unicode="&#xa1;" horiz-adv-x="226" 
d="M141 221l28 -469h-112l31 469h53zM178 391c0 -18 -6.33301 -33.667 -19 -47s-28.334 -20 -47.001 -20c-18 0 -33.667 6.66699 -47 20s-20 29 -20 47c0 18.667 6.66699 34.334 20 47.001s29 19 47 19c18.667 0 34.334 -6.33301 47.001 -19s19 -28.334 19 -47.001z" />
    <glyph glyph-name="cent" unicode="&#xa2;" horiz-adv-x="373" 
d="M341 255c0 -19.333 -3.33105 -35.5 -9.99805 -48.5s-15.334 -23.833 -26.001 -32.5s-22.667 -15.334 -36 -20.001s-26.666 -8 -39.999 -10l-4 -171h-27l-3 170c-20.667 1.33301 -41 6 -61 14s-37.833 20.167 -53.5 36.5s-28.334 37.5 -38.001 63.5s-14.5 57.667 -14.5 95
c0 23.333 2.33301 48.5 7 75.5s13 52.5 25 76.5s28.167 44.833 48.5 62.5s46.166 28.834 77.499 33.501l-2 118h58l-3 -118c29.333 -3.33301 53.166 -13.833 71.499 -31.5s27.5 -42.5 27.5 -74.5c0 -14.667 -2.83301 -27.167 -8.5 -37.5s-14.5 -15.5 -26.5 -15.5
c-7.33301 0 -13.666 1.83301 -18.999 5.5s-10.333 8.16699 -15 13.5c5.33301 4 9.33301 10.5 12 19.5s4 18.167 4 27.5c0 12.667 -4.5 23.667 -13.5 33s-20.167 15.333 -33.5 18l-8 -347h6c21.333 0 40.833 4 58.5 12s33.167 18.667 46.5 32zM123.002 364
c0 -40.667 4.66602 -73.5 13.999 -98.5s28 -41.5 56 -49.5l-6 330c-11.333 -8 -21 -18.667 -29 -32s-14.667 -28.333 -20 -45s-9.16602 -34.167 -11.499 -52.5s-3.5 -35.833 -3.5 -52.5z" />
    <glyph glyph-name="sterling" unicode="&#xa3;" horiz-adv-x="472" 
d="M96 0l9.99805 362.002c-8 2 -16.333 3 -25 3c-22.667 0 -41 -8 -55 -24l-5 2c13.333 45.333 42.333 73 87 83l9 293l97 22l-10 -316c18.667 -4.66699 35.834 -9.66699 51.501 -15s32.834 -8 51.501 -8c11.333 0 21.666 1.66699 30.999 5s16.666 8.33301 21.999 15h5
c0 -10.667 -3.5 -21.334 -10.5 -32.001s-16.167 -20.334 -27.5 -29.001s-24.666 -15.667 -39.999 -21s-31.333 -8 -48 -8c-14 0 -26.333 1.33301 -37 4l-9 -278c21.333 6.66699 41.5 10.167 60.5 10.5s38.5 1.16602 58.5 2.49902s41 5 63 11s47 18 75 36
c0.666992 -4.66699 1 -9 1 -13v-12c0 -29.333 -5.16699 -52.166 -15.5 -68.499s-25.166 -24.5 -44.499 -24.5h-295z" />
    <glyph glyph-name="currency" unicode="&#xa4;" horiz-adv-x="457" 
d="M83 528l56.001 -56.001c27.333 20 57.666 30 90.999 30c16.667 0 32.5 -2.5 47.5 -7.5s28.833 -12.167 41.5 -21.5l56 56l36 -36l-55 -55c20 -27.333 30 -58 30 -92c0 -33.333 -10 -63.666 -30 -90.999l55 -55l-36 -36l-55 55c-12.667 -9.33301 -26.5 -16.5 -41.5 -21.5
s-31.167 -7.5 -48.5 -7.5c-34 0 -64.667 10 -92 30l-56 -56l-36 36l56 56c-9.33301 12.667 -16.5 26.5 -21.5 41.5s-7.5 30.833 -7.5 47.5c0 17.333 2.5 33.5 7.5 48.5s12.167 28.833 21.5 41.5l-57 57zM230.001 461.999c-16 0 -31 -3 -45 -9s-26.333 -14.333 -37 -25
s-19 -23 -25 -37s-9 -29 -9 -45s3 -31 9 -45s14.333 -26.333 25 -37s23 -19 37 -25s29 -9 45 -9s31 3 45 9s26.333 14.333 37 25s19 23 25 37s9 29 9 45s-3 31 -9 45s-14.333 26.333 -25 37s-23 19 -37 25s-29 9 -45 9z" />
    <glyph glyph-name="yen" unicode="&#xa5;" horiz-adv-x="501" 
d="M192 192v80h-124v35h124l-171 438h112l146 -383l134 383h52l-165 -438h155v-35h-155v-80h154v-35h-154v-157h-108v157h-124v35h124z" />
    <glyph glyph-name="brokenbar" unicode="&#xa6;" horiz-adv-x="195" 
d="M124 222v-472h-53v472h53zM71 301v450h53v-450h-53z" />
    <glyph glyph-name="section" unicode="&#xa7;" horiz-adv-x="519" 
d="M436 640c0 -18.667 -3.50391 -33.332 -10.5039 -43.999s-17.833 -16 -32.5 -16c-5.33301 0 -11.333 1 -18 3s-13.667 6.33301 -21 13c7.33301 5.33301 13 13.166 17 23.499s6 20.833 6 31.5c0 18.667 -6.66699 35.334 -20 50.001s-34 22 -62 22
c-32 0 -56.833 -9.83301 -74.5 -29.5s-26.5 -43.167 -26.5 -70.5c0 -25.333 7.33301 -46.666 22 -63.999s33.167 -33.333 55.5 -48s46.5 -28.834 72.5 -42.501s50.167 -29.5 72.5 -47.5s40.833 -38.833 55.5 -62.5s22 -52.834 22 -87.501c0 -31.333 -7 -59.666 -21 -84.999
s-35 -41.666 -63 -48.999c1.33301 -5.33301 2.33301 -11.166 3 -17.499s1 -12.5 1 -18.5c0 -48.667 -16.5 -86.667 -49.5 -114s-79.167 -41 -138.5 -41c-12.667 0 -29.667 1.33301 -51 4s-42.166 8.66699 -62.499 18s-38 23.5 -53 42.5s-22.5 45.167 -22.5 78.5
c0 18 2.5 34.167 7.5 48.5s11.5 26.166 19.5 35.499s17 16.5 27 21.5s20 7.5 30 7.5c12 0 23.5 -3.66699 34.5 -11s18.5 -19.666 22.5 -36.999c-23.333 -2 -38.5 -8.33301 -45.5 -19s-10.5 -24.667 -10.5 -42c0 -19.333 2.83301 -35.833 8.5 -49.5
s13.334 -24.834 23.001 -33.501s20.667 -15.167 33 -19.5s25.5 -6.5 39.5 -6.5c10.667 0 21.667 1.5 33 4.5s21.833 8.16699 31.5 15.5s17.5 17.166 23.5 29.499s9 28.166 9 47.499c0 28.667 -6.83301 53.334 -20.5 74.001s-31 39.167 -52 55.5s-43.5 31.5 -67.5 45.5
s-46.5 28.667 -67.5 44s-38.333 32.5 -52 51.5s-20.5 41.5 -20.5 67.5c0 25.333 6.83301 48 20.5 68s31.834 35.333 54.501 46c-10 20.667 -15 44 -15 70c0 25.333 4.83301 47.166 14.5 65.499s23.167 33.5 40.5 45.5s37.5 21 60.5 27s48.167 9 75.5 9
c6.66699 0 17.834 -0.666992 33.501 -2s31.5 -5.5 47.5 -12.5s30.167 -18 42.5 -33s18.5 -35.833 18.5 -62.5zM429.996 235.002c0 21.333 -5.16602 40.167 -15.499 56.5s-23.833 31.5 -40.5 45.5s-35.667 27 -57 39l-64 36.5c-21.333 12.333 -42 25.5 -62 39.5
s-37 30 -51 48c-12 -10.667 -19 -21.5 -21 -32.5s-3 -20.5 -3 -28.5c0 -12 5.66699 -23.667 17 -35s25.833 -22.833 43.5 -34.5s37.5 -24 59.5 -37s43.5 -27.5 64.5 -43.5s40.333 -33.5 58 -52.5s31.5 -40.5 41.5 -64.5c9.33301 5.33301 16.666 13.333 21.999 24
s8 23.667 8 39z" />
    <glyph glyph-name="dieresis" unicode="&#xa8;" horiz-adv-x="392" 
d="M-65 645c0 14.667 5 27.334 15 38.001s22.667 16 38 16c14.667 0 27.334 -5.33301 38.001 -16s16 -23.334 16 -38.001c0 -15.333 -5.33301 -28 -16 -38s-23.334 -15 -38.001 -15c-15.333 0 -28 5 -38 15s-15 22.667 -15 38zM94 645c0 14.667 5 27.334 15 38.001
s22.667 16 38 16c14.667 0 27.334 -5.33301 38.001 -16s16 -23.334 16 -38.001c0 -15.333 -5.33301 -28 -16 -38s-23.334 -15 -38.001 -15c-15.333 0 -28 5 -38 15s-15 22.667 -15 38z" />
    <glyph glyph-name="copyright" unicode="&#xa9;" horiz-adv-x="554" 
d="M136 336c0 22.667 4.33301 42.999 13 60.999s20 33.5 34 46.5s30 23 48 30s36 10.5 54 10.5c26 0 50.5 -7.66699 73.5 -23s39.5 -39.333 49.5 -72l-37 -14c-4.66699 21.333 -15.5 37.5 -32.5 48.5s-35.5 16.5 -55.5 16.5c-16.667 0 -31.5 -3 -44.5 -9
s-23.833 -13.833 -32.5 -23.5s-15.167 -20.667 -19.5 -33s-6.5 -24.833 -6.5 -37.5c0 -14 2.16699 -27.833 6.5 -41.5s10.833 -25.667 19.5 -36s19.334 -18.833 32.001 -25.5s27.334 -10 44.001 -10c15.333 0 31.166 3.83301 47.499 11.5s30.166 20.167 41.499 37.5l34 -23
c-14 -21.333 -32.833 -38 -56.5 -50s-47.834 -18 -72.501 -18c-20 0 -38.667 4.16699 -56 12.5s-32.166 19.5 -44.499 33.5s-22 30.333 -29 49s-10.5 38.334 -10.5 59.001zM277 75.999c-33.333 0 -64.666 6.66699 -93.999 20s-55 31.5 -77 54.5s-39.333 50 -52 81
s-19 64.167 -19 99.5c0 36 6.33301 69.5 19 100.5s30 58 52 81s47.667 41.167 77 54.5s60.666 20 93.999 20c32.667 0 63.667 -6.5 93 -19.5s55 -31 77 -54s39.5 -50 52.5 -81s19.5 -64.5 19.5 -100.5s-6.5 -69.5 -19.5 -100.5s-30.5 -58 -52.5 -81
s-47.667 -41.167 -77 -54.5s-60.333 -20 -93 -20zM61 330.999c0 -33.333 5.83301 -64.166 17.5 -92.499s27.334 -53 47.001 -74s42.667 -37.5 69 -49.5s54.5 -18 84.5 -18c29.333 0 57.166 6 83.499 18s49.333 28.5 69 49.5s35.334 45.667 47.001 74
s17.5 59.166 17.5 92.499c0 32.667 -5.83301 63.334 -17.5 92.001s-27.334 53.5 -47.001 74.5s-42.667 37.5 -69 49.5s-54.166 18 -83.499 18c-30 0 -58.167 -6 -84.5 -18s-49.333 -28.5 -69 -49.5s-35.334 -45.833 -47.001 -74.5s-17.5 -59.334 -17.5 -92.001z" />
    <glyph glyph-name="ordfeminine" unicode="&#xaa;" horiz-adv-x="326" 
d="M253 740l-0.000976562 -181c0 -14.667 1.66699 -26.5 5 -35.5s9.66602 -13.5 18.999 -13.5h7c2.66699 0 5.66699 0.666992 9 2c-0.666992 -17.333 -4.66699 -29.333 -12 -36s-16.333 -10 -27 -10c-16 0 -27.833 3.83301 -35.5 11.5s-12.5 19.167 -14.5 34.5
c-6.66699 -13.333 -15.834 -24.333 -27.501 -33s-25.5 -13 -41.5 -13c-11.333 0 -22.5 2.33301 -33.5 7s-21.167 12 -30.5 22s-16.833 23.167 -22.5 39.5s-8.5 36.166 -8.5 59.499c0 16 1.83301 33 5.5 51s9.83398 34.333 18.501 49s19.834 26.834 33.501 36.501
s30.5 14.5 50.5 14.5c8.66699 0 17.834 -2 27.501 -6s17.167 -11 22.5 -21v22h55zM151.999 509c11.333 0 21.832 5.83203 31.499 17.499s14.5 26.167 14.5 43.5v123c-3.33301 5.33301 -7.66602 10.166 -12.999 14.499s-11.666 6.5 -18.999 6.5
c-12.667 0 -23.334 -3.66699 -32.001 -11s-15.5 -16.666 -20.5 -27.999s-8.66699 -23.666 -11 -36.999s-3.5 -26 -3.5 -38c0 -34.667 5.16699 -58.5 15.5 -71.5s22.833 -19.5 37.5 -19.5z" />
    <glyph glyph-name="guillemotleft" unicode="&#xab;" horiz-adv-x="514" 
d="M247 404l-143 -151l167 -140l-31 -44l-219 185l175 195zM455 404l-143 -151l167 -140l-31 -44l-219 185l175 195z" />
    <glyph glyph-name="logicalnot" unicode="&#xac;" horiz-adv-x="453" 
d="M393 51h-81v180h-271v70h350z" />
    <glyph glyph-name="uni00AD" unicode="&#xad;" horiz-adv-x="319" 
d="M260 231h-201v70h201v-70z" />
    <glyph glyph-name="registered" unicode="&#xae;" horiz-adv-x="554" 
d="M277 79c-33.333 0 -64.666 6.66699 -93.999 20s-55 31.5 -77 54.5s-39.333 50 -52 81s-19 64.167 -19 99.5c0 36 6.33301 69.5 19 100.5s30 58 52 81s47.667 41.167 77 54.5s60.666 20 93.999 20c32.667 0 63.667 -6.5 93 -19.5s55 -31 77 -54s39.5 -50 52.5 -81
s19.5 -64.5 19.5 -100.5s-6.5 -69.5 -19.5 -100.5s-30.5 -58 -52.5 -81s-47.667 -41.167 -77 -54.5s-60.333 -20 -93 -20zM61 334c0 -33.333 5.83301 -64.166 17.5 -92.499s27.334 -53 47.001 -74s42.667 -37.5 69 -49.5s54.5 -18 84.5 -18c29.333 0 57.166 6 83.499 18
s49.333 28.5 69 49.5s35.334 45.667 47.001 74s17.5 59.166 17.5 92.499c0 32.667 -5.83301 63.334 -17.5 92.001s-27.334 53.5 -47.001 74.5s-42.667 37.5 -69 49.5s-54.166 18 -83.499 18c-30 0 -58.167 -6 -84.5 -18s-49.333 -28.5 -69 -49.5
s-35.334 -45.833 -47.001 -74.5s-17.5 -59.334 -17.5 -92.001zM186 483l97.999 0.000976562c31.333 0 55.833 -6.5 73.5 -19.5s26.5 -34.5 26.5 -64.5c0 -20.667 -5.16699 -37.334 -15.5 -50.001s-24.166 -21.667 -41.499 -27l63 -125l-37 -6l-62 124h-70v-123h-36z
M220.999 350.001h66.001c14.667 0 28.5 3.5 41.5 10.5s19.5 19.833 19.5 38.5c0 17.333 -6.33301 29.333 -19 36s-27.334 10 -44.001 10h-64v-95z" />
    <glyph glyph-name="degree" unicode="&#xb0;" horiz-adv-x="317" 
d="M161 702c22 0 40.3311 -4.66504 54.998 -13.998s26.334 -21.5 35.001 -36.5s14.834 -32 18.501 -51s5.5 -38.5 5.5 -58.5c0 -19.333 -2 -39 -6 -59s-10.667 -38 -20 -54s-21.5 -29.167 -36.5 -39.5s-33.5 -15.5 -55.5 -15.5c-34 0 -61.667 13.167 -83 39.5
s-32 68.166 -32 125.499c0 23.333 2.66699 45 8 65s13 37.167 23 51.5s22.333 25.666 37 33.999s31.667 12.5 51 12.5zM97.998 535.002c0 -9.33301 0.665039 -20.8379 1.99805 -34.5049s4.33301 -27 9 -40s11.334 -24.167 20.001 -33.5s20.334 -14 35.001 -14
c10 0 18.667 3.33301 26 10s13.5 15.834 18.5 27.501s8.83301 25.334 11.5 41.001s4 32.5 4 50.5c0 24.667 -1.66699 45.334 -5 62.001s-7.83301 29.834 -13.5 39.501s-12 16.5 -19 20.5s-14.167 6 -21.5 6c-10.667 0 -20.167 -3.5 -28.5 -10.5s-15.333 -16.667 -21 -29
s-10 -26.666 -13 -42.999s-4.5 -33.833 -4.5 -52.5z" />
    <glyph glyph-name="plusminus" unicode="&#xb1;" horiz-adv-x="477" 
d="M423 351h-144v-143h-81v143h-142v70h142v122h82v-122h143v-70zM421 77h-368v70h368v-70z" />
    <glyph glyph-name="twosuperior" unicode="&#xb2;" horiz-adv-x="344" 
d="M107 406c21.333 0 41.502 -2.00195 60.502 -6.00195s37.167 -6 54.5 -6c14.667 0 28.5 2.83301 41.5 8.5s25.167 16.167 36.5 31.5c1.33301 -4.66699 3.16602 -9.83398 5.49902 -15.501s3.5 -14.167 3.5 -25.5c0 -16 -4.16699 -28.833 -12.5 -38.5
s-23.833 -14.5 -46.5 -14.5c-10.667 0 -22 1 -34 3l-35.5 6l-34 6c-11 2 -20.833 3 -29.5 3c-8 0 -16.667 -1.16699 -26 -3.5s-18.666 -6.16602 -27.999 -11.499l-6 14c-2 4.66699 -3 11 -3 19c0 16.667 3.83301 32.5 11.5 47.5s17.5 29.5 29.5 43.5s24.667 28 38 42
s26 28.333 38 43s21.833 30.334 29.5 47.001s11.5 34.667 11.5 54c0 24 -5.83301 41.667 -17.5 53s-25.834 17 -42.501 17s-29.834 -4.5 -39.501 -13.5s-14.5 -19.5 -14.5 -31.5c0 -7.33301 2 -14.833 6 -22.5s10.667 -14.5 20 -20.5c-13.333 -10.667 -26.333 -16 -39 -16
s-23.167 5.33301 -31.5 16s-12.5 23.334 -12.5 38.001c0 8.66699 2 17.5 6 26.5s10.5 17.167 19.5 24.5s20.833 13.333 35.5 18s32.667 7 54 7c44 0 74.667 -9.33301 92 -28s26 -43 26 -73c0 -31.333 -7.16699 -58 -21.5 -80s-31 -41.833 -50 -59.5l-56 -50.5
c-18.333 -16 -31.5 -33.333 -39.5 -52z" />
    </font>
</defs>
</svg>
